<?xml version="1.0" encoding="UTF-8" standalone="yes"?><svg xmlns="http://www.w3.org/2000/svg" xmlns:xlink="http://www.w3.org/1999/xlink" height="564px" style="width:1881px;height:564px;" version="1.1" viewBox="0 0 1881 564" width="1881px"><defs/><g><text fill="#000000" font-family="sans-serif" font-size="20" lengthAdjust="spacingAndGlyphs" textLength="206" x="846" y="19.3359">Diagramme de classe</text><rect fill="#FFFFFF" height="86.8652" style="stroke: #383838; stroke-width: 1.5;" width="131" x="474.5" y="31.5547"/><ellipse cx="512.45" cy="47.5547" fill="#C2C2C2" rx="11" ry="11" style="stroke: #383838; stroke-width: 1.0;"/><path d="M515.4231,53.1978 Q514.8421,53.4966 514.2029,53.646 Q513.5638,53.7954 512.8582,53.7954 Q510.3514,53.7954 509.0315,52.1436 Q507.7117,50.4917 507.7117,47.3706 Q507.7117,44.2412 509.0315,42.5894 Q510.3514,40.9375 512.8582,40.9375 Q513.5638,40.9375 514.2112,41.0869 Q514.8587,41.2363 515.4231,41.5352 L515.4231,44.2578 Q514.7923,43.6768 514.1988,43.407 Q513.6053,43.1372 512.9744,43.1372 Q511.6297,43.1372 510.9449,44.2039 Q510.2601,45.2705 510.2601,47.3706 Q510.2601,49.4624 510.9449,50.5291 Q511.6297,51.5957 512.9744,51.5957 Q513.6053,51.5957 514.1988,51.3259 Q514.7923,51.0562 515.4231,50.4751 Z "/><text fill="#000000" font-family="sans-serif" font-size="12" lengthAdjust="spacingAndGlyphs" textLength="48" x="531.55" y="52.0898">Symbole</text><line style="stroke: #383838; stroke-width: 1.5;" x1="475.5" x2="604.5" y1="63.5547" y2="63.5547"/><polygon fill="none" points="485.5,71.5322,481.5,77.5322,489.5,77.5322" style="stroke: #535353; stroke-width: 1.0;"/><text fill="#000000" font-family="sans-serif" font-size="11" lengthAdjust="spacingAndGlyphs" textLength="27" x="494.5" y="78.1895">int id</text><line style="stroke: #383838; stroke-width: 1.5;" x1="475.5" x2="604.5" y1="84.5098" y2="84.5098"/><ellipse cx="485.5" cy="96.4873" fill="#A6A6A6" rx="3" ry="3" style="stroke: #545454; stroke-width: 1.0;"/><text fill="#000000" font-family="sans-serif" font-size="11" lengthAdjust="spacingAndGlyphs" textLength="83" x="494.5" y="99.1445">Symbole (int id)</text><ellipse cx="485.5" cy="109.4424" fill="#A6A6A6" rx="3" ry="3" style="stroke: #545454; stroke-width: 1.0;"/><text fill="#000000" font-family="sans-serif" font-size="11" lengthAdjust="spacingAndGlyphs" textLength="105" x="494.5" y="112.0996">operator int() const</text><rect fill="#FFFFFF" height="60.9551" style="stroke: #383838; stroke-width: 1.5;" width="182" x="6" y="178.5547"/><ellipse cx="35.4" cy="194.5547" fill="#C2C2C2" rx="11" ry="11" style="stroke: #383838; stroke-width: 1.0;"/><path d="M38.3731,200.1978 Q37.7921,200.4966 37.1529,200.646 Q36.5138,200.7954 35.8082,200.7954 Q33.3014,200.7954 31.9815,199.1436 Q30.6617,197.4917 30.6617,194.3706 Q30.6617,191.2412 31.9815,189.5894 Q33.3014,187.9375 35.8082,187.9375 Q36.5138,187.9375 37.1612,188.0869 Q37.8087,188.2363 38.3731,188.5352 L38.3731,191.2578 Q37.7423,190.6768 37.1488,190.407 Q36.5553,190.1372 35.9244,190.1372 Q34.5797,190.1372 33.8949,191.2039 Q33.2101,192.2705 33.2101,194.3706 Q33.2101,196.4624 33.8949,197.5291 Q34.5797,198.5957 35.9244,198.5957 Q36.5553,198.5957 37.1488,198.3259 Q37.7423,198.0562 38.3731,197.4751 Z "/><text fill="#000000" font-family="sans-serif" font-size="12" lengthAdjust="spacingAndGlyphs" textLength="118" x="52.6" y="199.0898">AffectationConstante</text><line style="stroke: #383838; stroke-width: 1.5;" x1="7" x2="187" y1="210.5547" y2="210.5547"/><ellipse cx="17" cy="222.5322" fill="none" rx="3" ry="3" style="stroke: #545454; stroke-width: 1.0;"/><text fill="#000000" font-family="sans-serif" font-size="11" lengthAdjust="spacingAndGlyphs" textLength="156" x="26" y="225.1895">AffectationConstante suivant</text><line style="stroke: #383838; stroke-width: 1.5;" x1="7" x2="187" y1="231.5098" y2="231.5098"/><rect fill="#FFFFFF" height="60.9551" style="stroke: #383838; stroke-width: 1.5;" width="139" x="409.5" y="178.5547"/><ellipse cx="438.9" cy="194.5547" fill="#C2C2C2" rx="11" ry="11" style="stroke: #383838; stroke-width: 1.0;"/><path d="M441.8731,200.1978 Q441.2921,200.4966 440.6529,200.646 Q440.0138,200.7954 439.3082,200.7954 Q436.8014,200.7954 435.4815,199.1436 Q434.1617,197.4917 434.1617,194.3706 Q434.1617,191.2412 435.4815,189.5894 Q436.8014,187.9375 439.3082,187.9375 Q440.0138,187.9375 440.6612,188.0869 Q441.3087,188.2363 441.8731,188.5352 L441.8731,191.2578 Q441.2423,190.6768 440.6488,190.407 Q440.0553,190.1372 439.4244,190.1372 Q438.0797,190.1372 437.3949,191.2039 Q436.7101,192.2705 436.7101,194.3706 Q436.7101,196.4624 437.3949,197.5291 Q438.0797,198.5957 439.4244,198.5957 Q440.0553,198.5957 440.6488,198.3259 Q441.2423,198.0562 441.8731,197.4751 Z "/><text fill="#000000" font-family="sans-serif" font-size="12" lengthAdjust="spacingAndGlyphs" textLength="75" x="456.1" y="199.0898">Identificateur</text><line style="stroke: #383838; stroke-width: 1.5;" x1="410.5" x2="547.5" y1="210.5547" y2="210.5547"/><ellipse cx="420.5" cy="222.5322" fill="none" rx="3" ry="3" style="stroke: #545454; stroke-width: 1.0;"/><text fill="#000000" font-family="sans-serif" font-size="11" lengthAdjust="spacingAndGlyphs" textLength="113" x="429.5" y="225.1895">Identificateur suivant</text><line style="stroke: #383838; stroke-width: 1.5;" x1="410.5" x2="547.5" y1="231.5098" y2="231.5098"/><rect fill="#FFFFFF" height="48" style="stroke: #383838; stroke-width: 1.5;" width="149" x="1375.5" y="515.5547"/><ellipse cx="1390.5" cy="531.5547" fill="#C2C2C2" rx="11" ry="11" style="stroke: #383838; stroke-width: 1.0;"/><path d="M1393.4731,537.1978 Q1392.8921,537.4966 1392.2529,537.646 Q1391.6138,537.7954 1390.9082,537.7954 Q1388.4014,537.7954 1387.0815,536.1436 Q1385.7617,534.4917 1385.7617,531.3706 Q1385.7617,528.2412 1387.0815,526.5894 Q1388.4014,524.9375 1390.9082,524.9375 Q1391.6138,524.9375 1392.2612,525.0869 Q1392.9087,525.2363 1393.4731,525.5352 L1393.4731,528.2578 Q1392.8423,527.6768 1392.2488,527.407 Q1391.6553,527.1372 1391.0244,527.1372 Q1389.6797,527.1372 1388.9949,528.2039 Q1388.3101,529.2705 1388.3101,531.3706 Q1388.3101,533.4624 1388.9949,534.5291 Q1389.6797,535.5957 1391.0244,535.5957 Q1391.6553,535.5957 1392.2488,535.3259 Q1392.8423,535.0562 1393.4731,534.4751 Z "/><text fill="#000000" font-family="sans-serif" font-size="12" lengthAdjust="spacingAndGlyphs" textLength="117" x="1404.5" y="536.0898">IdentificateurFacteur</text><line style="stroke: #383838; stroke-width: 1.5;" x1="1376.5" x2="1523.5" y1="547.5547" y2="547.5547"/><line style="stroke: #383838; stroke-width: 1.5;" x1="1376.5" x2="1523.5" y1="555.5547" y2="555.5547"/><rect fill="#FFFFFF" height="60.9551" style="stroke: #383838; stroke-width: 1.5;" width="151" x="223.5" y="178.5547"/><ellipse cx="252.45" cy="194.5547" fill="#C2C2C2" rx="11" ry="11" style="stroke: #383838; stroke-width: 1.0;"/><path d="M255.4231,200.1978 Q254.8421,200.4966 254.2029,200.646 Q253.5638,200.7954 252.8582,200.7954 Q250.3514,200.7954 249.0315,199.1436 Q247.7117,197.4917 247.7117,194.3706 Q247.7117,191.2412 249.0315,189.5894 Q250.3514,187.9375 252.8582,187.9375 Q253.5638,187.9375 254.2112,188.0869 Q254.8587,188.2363 255.4231,188.5352 L255.4231,191.2578 Q254.7923,190.6768 254.1988,190.407 Q253.6053,190.1372 252.9744,190.1372 Q251.6297,190.1372 250.9449,191.2039 Q250.2601,192.2705 250.2601,194.3706 Q250.2601,196.4624 250.9449,197.5291 Q251.6297,198.5957 252.9744,198.5957 Q253.6053,198.5957 254.1988,198.3259 Q254.7923,198.0562 255.4231,197.4751 Z "/><text fill="#000000" font-family="sans-serif" font-size="12" lengthAdjust="spacingAndGlyphs" textLength="88" x="269.55" y="199.0898">BlocDeclaration</text><line style="stroke: #383838; stroke-width: 1.5;" x1="224.5" x2="373.5" y1="210.5547" y2="210.5547"/><ellipse cx="234.5" cy="222.5322" fill="none" rx="3" ry="3" style="stroke: #545454; stroke-width: 1.0;"/><text fill="#000000" font-family="sans-serif" font-size="11" lengthAdjust="spacingAndGlyphs" textLength="125" x="243.5" y="225.1895">BlocDeclaration suivant</text><line style="stroke: #383838; stroke-width: 1.5;" x1="224.5" x2="373.5" y1="231.5098" y2="231.5098"/><rect fill="#FFFFFF" height="48" style="stroke: #383838; stroke-width: 1.5;" width="145" x="226.5" y="299.5547"/><ellipse cx="241.5" cy="315.5547" fill="#C2C2C2" rx="11" ry="11" style="stroke: #383838; stroke-width: 1.0;"/><path d="M244.4731,321.1978 Q243.8921,321.4966 243.2529,321.646 Q242.6138,321.7954 241.9082,321.7954 Q239.4014,321.7954 238.0815,320.1436 Q236.7617,318.4917 236.7617,315.3706 Q236.7617,312.2412 238.0815,310.5894 Q239.4014,308.9375 241.9082,308.9375 Q242.6138,308.9375 243.2612,309.0869 Q243.9087,309.2363 244.4731,309.5352 L244.4731,312.2578 Q243.8423,311.6768 243.2488,311.407 Q242.6553,311.1372 242.0244,311.1372 Q240.6797,311.1372 239.9949,312.2039 Q239.3101,313.2705 239.3101,315.3706 Q239.3101,317.4624 239.9949,318.5291 Q240.6797,319.5957 242.0244,319.5957 Q242.6553,319.5957 243.2488,319.3259 Q243.8423,319.0562 244.4731,318.4751 Z "/><text fill="#000000" font-family="sans-serif" font-size="12" lengthAdjust="spacingAndGlyphs" textLength="113" x="255.5" y="320.0898">DeclarationVariable</text><line style="stroke: #383838; stroke-width: 1.5;" x1="227.5" x2="370.5" y1="331.5547" y2="331.5547"/><line style="stroke: #383838; stroke-width: 1.5;" x1="227.5" x2="370.5" y1="339.5547" y2="339.5547"/><rect fill="#FFFFFF" height="48" style="stroke: #383838; stroke-width: 1.5;" width="154" x="28" y="299.5547"/><ellipse cx="43" cy="315.5547" fill="#C2C2C2" rx="11" ry="11" style="stroke: #383838; stroke-width: 1.0;"/><path d="M45.9731,321.1978 Q45.3921,321.4966 44.7529,321.646 Q44.1138,321.7954 43.4082,321.7954 Q40.9014,321.7954 39.5815,320.1436 Q38.2617,318.4917 38.2617,315.3706 Q38.2617,312.2412 39.5815,310.5894 Q40.9014,308.9375 43.4082,308.9375 Q44.1138,308.9375 44.7612,309.0869 Q45.4087,309.2363 45.9731,309.5352 L45.9731,312.2578 Q45.3423,311.6768 44.7488,311.407 Q44.1553,311.1372 43.5244,311.1372 Q42.1797,311.1372 41.4949,312.2039 Q40.8101,313.2705 40.8101,315.3706 Q40.8101,317.4624 41.4949,318.5291 Q42.1797,319.5957 43.5244,319.5957 Q44.1553,319.5957 44.7488,319.3259 Q45.3423,319.0562 45.9731,318.4751 Z "/><text fill="#000000" font-family="sans-serif" font-size="12" lengthAdjust="spacingAndGlyphs" textLength="122" x="57" y="320.0898">DeclarationConstante</text><line style="stroke: #383838; stroke-width: 1.5;" x1="29" x2="181" y1="331.5547" y2="331.5547"/><line style="stroke: #383838; stroke-width: 1.5;" x1="29" x2="181" y1="339.5547" y2="339.5547"/><rect fill="#FFFFFF" height="48" style="stroke: #383838; stroke-width: 1.5;" width="99" x="406.5" y="299.5547"/><ellipse cx="421.5" cy="315.5547" fill="#C2C2C2" rx="11" ry="11" style="stroke: #383838; stroke-width: 1.0;"/><path d="M424.4731,321.1978 Q423.8921,321.4966 423.2529,321.646 Q422.6138,321.7954 421.9082,321.7954 Q419.4014,321.7954 418.0815,320.1436 Q416.7617,318.4917 416.7617,315.3706 Q416.7617,312.2412 418.0815,310.5894 Q419.4014,308.9375 421.9082,308.9375 Q422.6138,308.9375 423.2612,309.0869 Q423.9087,309.2363 424.4731,309.5352 L424.4731,312.2578 Q423.8423,311.6768 423.2488,311.407 Q422.6553,311.1372 422.0244,311.1372 Q420.6797,311.1372 419.9949,312.2039 Q419.3101,313.2705 419.3101,315.3706 Q419.3101,317.4624 419.9949,318.5291 Q420.6797,319.5957 422.0244,319.5957 Q422.6553,319.5957 423.2488,319.3259 Q423.8423,319.0562 424.4731,318.4751 Z "/><text fill="#000000" font-family="sans-serif" font-size="12" lengthAdjust="spacingAndGlyphs" textLength="67" x="435.5" y="320.0898">Programme</text><line style="stroke: #383838; stroke-width: 1.5;" x1="407.5" x2="504.5" y1="331.5547" y2="331.5547"/><line style="stroke: #383838; stroke-width: 1.5;" x1="407.5" x2="504.5" y1="339.5547" y2="339.5547"/><rect fill="#FFFFFF" height="60.9551" style="stroke: #383838; stroke-width: 1.5;" width="149" x="655.5" y="178.5547"/><ellipse cx="686.25" cy="194.5547" fill="#C2C2C2" rx="11" ry="11" style="stroke: #383838; stroke-width: 1.0;"/><path d="M689.2231,200.1978 Q688.6421,200.4966 688.0029,200.646 Q687.3638,200.7954 686.6582,200.7954 Q684.1514,200.7954 682.8315,199.1436 Q681.5117,197.4917 681.5117,194.3706 Q681.5117,191.2412 682.8315,189.5894 Q684.1514,187.9375 686.6582,187.9375 Q687.3638,187.9375 688.0112,188.0869 Q688.6587,188.2363 689.2231,188.5352 L689.2231,191.2578 Q688.5923,190.6768 687.9988,190.407 Q687.4053,190.1372 686.7744,190.1372 Q685.4297,190.1372 684.7449,191.2039 Q684.0601,192.2705 684.0601,194.3706 Q684.0601,196.4624 684.7449,197.5291 Q685.4297,198.5957 686.7744,198.5957 Q687.4053,198.5957 687.9988,198.3259 Q688.5923,198.0562 689.2231,197.4751 Z "/><text fill="#000000" font-family="sans-serif" font-size="12" lengthAdjust="spacingAndGlyphs" textLength="82" x="703.75" y="199.0898">BlocInstruction</text><line style="stroke: #383838; stroke-width: 1.5;" x1="656.5" x2="803.5" y1="210.5547" y2="210.5547"/><ellipse cx="666.5" cy="222.5322" fill="none" rx="3" ry="3" style="stroke: #545454; stroke-width: 1.0;"/><text fill="#000000" font-family="sans-serif" font-size="11" lengthAdjust="spacingAndGlyphs" textLength="123" x="675.5" y="225.1895">BlocInstruction suivant</text><line style="stroke: #383838; stroke-width: 1.5;" x1="656.5" x2="803.5" y1="231.5098" y2="231.5098"/><rect fill="#FFFFFF" height="48" style="stroke: #383838; stroke-width: 1.5;" width="133" x="728.5" y="299.5547"/><ellipse cx="743.5" cy="315.5547" fill="#C2C2C2" rx="11" ry="11" style="stroke: #383838; stroke-width: 1.0;"/><path d="M746.4731,321.1978 Q745.8921,321.4966 745.2529,321.646 Q744.6138,321.7954 743.9082,321.7954 Q741.4014,321.7954 740.0815,320.1436 Q738.7617,318.4917 738.7617,315.3706 Q738.7617,312.2412 740.0815,310.5894 Q741.4014,308.9375 743.9082,308.9375 Q744.6138,308.9375 745.2612,309.0869 Q745.9087,309.2363 746.4731,309.5352 L746.4731,312.2578 Q745.8423,311.6768 745.2488,311.407 Q744.6553,311.1372 744.0244,311.1372 Q742.6797,311.1372 741.9949,312.2039 Q741.3101,313.2705 741.3101,315.3706 Q741.3101,317.4624 741.9949,318.5291 Q742.6797,319.5957 744.0244,319.5957 Q744.6553,319.5957 745.2488,319.3259 Q745.8423,319.0562 746.4731,318.4751 Z "/><text fill="#000000" font-family="sans-serif" font-size="12" lengthAdjust="spacingAndGlyphs" textLength="101" x="757.5" y="320.0898">InstructionLecture</text><line style="stroke: #383838; stroke-width: 1.5;" x1="729.5" x2="860.5" y1="331.5547" y2="331.5547"/><line style="stroke: #383838; stroke-width: 1.5;" x1="729.5" x2="860.5" y1="339.5547" y2="339.5547"/><rect fill="#FFFFFF" height="48" style="stroke: #383838; stroke-width: 1.5;" width="135" x="896.5" y="299.5547"/><ellipse cx="911.5" cy="315.5547" fill="#C2C2C2" rx="11" ry="11" style="stroke: #383838; stroke-width: 1.0;"/><path d="M914.4731,321.1978 Q913.8921,321.4966 913.2529,321.646 Q912.6138,321.7954 911.9082,321.7954 Q909.4014,321.7954 908.0815,320.1436 Q906.7617,318.4917 906.7617,315.3706 Q906.7617,312.2412 908.0815,310.5894 Q909.4014,308.9375 911.9082,308.9375 Q912.6138,308.9375 913.2612,309.0869 Q913.9087,309.2363 914.4731,309.5352 L914.4731,312.2578 Q913.8423,311.6768 913.2488,311.407 Q912.6553,311.1372 912.0244,311.1372 Q910.6797,311.1372 909.9949,312.2039 Q909.3101,313.2705 909.3101,315.3706 Q909.3101,317.4624 909.9949,318.5291 Q910.6797,319.5957 912.0244,319.5957 Q912.6553,319.5957 913.2488,319.3259 Q913.8423,319.0562 914.4731,318.4751 Z "/><text fill="#000000" font-family="sans-serif" font-size="12" lengthAdjust="spacingAndGlyphs" textLength="103" x="925.5" y="320.0898">InstructionEcriture</text><line style="stroke: #383838; stroke-width: 1.5;" x1="897.5" x2="1030.5" y1="331.5547" y2="331.5547"/><line style="stroke: #383838; stroke-width: 1.5;" x1="897.5" x2="1030.5" y1="339.5547" y2="339.5547"/><rect fill="#FFFFFF" height="48" style="stroke: #383838; stroke-width: 1.5;" width="152" x="541" y="299.5547"/><ellipse cx="556" cy="315.5547" fill="#C2C2C2" rx="11" ry="11" style="stroke: #383838; stroke-width: 1.0;"/><path d="M558.9731,321.1978 Q558.3921,321.4966 557.7529,321.646 Q557.1138,321.7954 556.4082,321.7954 Q553.9014,321.7954 552.5815,320.1436 Q551.2617,318.4917 551.2617,315.3706 Q551.2617,312.2412 552.5815,310.5894 Q553.9014,308.9375 556.4082,308.9375 Q557.1138,308.9375 557.7612,309.0869 Q558.4087,309.2363 558.9731,309.5352 L558.9731,312.2578 Q558.3423,311.6768 557.7488,311.407 Q557.1553,311.1372 556.5244,311.1372 Q555.1797,311.1372 554.4949,312.2039 Q553.8101,313.2705 553.8101,315.3706 Q553.8101,317.4624 554.4949,318.5291 Q555.1797,319.5957 556.5244,319.5957 Q557.1553,319.5957 557.7488,319.3259 Q558.3423,319.0562 558.9731,318.4751 Z "/><text fill="#000000" font-family="sans-serif" font-size="12" lengthAdjust="spacingAndGlyphs" textLength="120" x="570" y="320.0898">InstructionAffectation</text><line style="stroke: #383838; stroke-width: 1.5;" x1="542" x2="692" y1="331.5547" y2="331.5547"/><line style="stroke: #383838; stroke-width: 1.5;" x1="542" x2="692" y1="339.5547" y2="339.5547"/><rect fill="#FFFFFF" height="48" style="stroke: #383838; stroke-width: 1.5;" width="95" x="1159.5" y="185.0547"/><ellipse cx="1174.5" cy="201.0547" fill="#C2C2C2" rx="11" ry="11" style="stroke: #383838; stroke-width: 1.0;"/><path d="M1177.4731,206.6978 Q1176.8921,206.9966 1176.2529,207.146 Q1175.6138,207.2954 1174.9082,207.2954 Q1172.4014,207.2954 1171.0815,205.6436 Q1169.7617,203.9917 1169.7617,200.8706 Q1169.7617,197.7412 1171.0815,196.0894 Q1172.4014,194.4375 1174.9082,194.4375 Q1175.6138,194.4375 1176.2612,194.5869 Q1176.9087,194.7363 1177.4731,195.0352 L1177.4731,197.7578 Q1176.8423,197.1768 1176.2488,196.907 Q1175.6553,196.6372 1175.0244,196.6372 Q1173.6797,196.6372 1172.9949,197.7039 Q1172.3101,198.7705 1172.3101,200.8706 Q1172.3101,202.9624 1172.9949,204.0291 Q1173.6797,205.0957 1175.0244,205.0957 Q1175.6553,205.0957 1176.2488,204.8259 Q1176.8423,204.5562 1177.4731,203.9751 Z "/><text fill="#000000" font-family="sans-serif" font-size="12" lengthAdjust="spacingAndGlyphs" textLength="63" x="1188.5" y="205.5898">Expression</text><line style="stroke: #383838; stroke-width: 1.5;" x1="1160.5" x2="1253.5" y1="217.0547" y2="217.0547"/><line style="stroke: #383838; stroke-width: 1.5;" x1="1160.5" x2="1253.5" y1="225.0547" y2="225.0547"/><rect fill="#FFFFFF" height="48" style="stroke: #383838; stroke-width: 1.5;" width="142" x="948" y="407.5547"/><ellipse cx="963" cy="423.5547" fill="#C2C2C2" rx="11" ry="11" style="stroke: #383838; stroke-width: 1.0;"/><path d="M965.9731,429.1978 Q965.3921,429.4966 964.7529,429.646 Q964.1138,429.7954 963.4082,429.7954 Q960.9014,429.7954 959.5815,428.1436 Q958.2617,426.4917 958.2617,423.3706 Q958.2617,420.2412 959.5815,418.5894 Q960.9014,416.9375 963.4082,416.9375 Q964.1138,416.9375 964.7612,417.0869 Q965.4087,417.2363 965.9731,417.5352 L965.9731,420.2578 Q965.3423,419.6768 964.7488,419.407 Q964.1553,419.1372 963.5244,419.1372 Q962.1797,419.1372 961.4949,420.2039 Q960.8101,421.2705 960.8101,423.3706 Q960.8101,425.4624 961.4949,426.5291 Q962.1797,427.5957 963.5244,427.5957 Q964.1553,427.5957 964.7488,427.3259 Q965.3423,427.0562 965.9731,426.4751 Z "/><text fill="#000000" font-family="sans-serif" font-size="12" lengthAdjust="spacingAndGlyphs" textLength="110" x="977" y="428.0898">ExpressionAdditive</text><line style="stroke: #383838; stroke-width: 1.5;" x1="949" x2="1089" y1="439.5547" y2="439.5547"/><line style="stroke: #383838; stroke-width: 1.5;" x1="949" x2="1089" y1="447.5547" y2="447.5547"/><rect fill="#FFFFFF" height="48" style="stroke: #383838; stroke-width: 1.5;" width="163" x="1125.5" y="407.5547"/><ellipse cx="1140.5" cy="423.5547" fill="#C2C2C2" rx="11" ry="11" style="stroke: #383838; stroke-width: 1.0;"/><path d="M1143.4731,429.1978 Q1142.8921,429.4966 1142.2529,429.646 Q1141.6138,429.7954 1140.9082,429.7954 Q1138.4014,429.7954 1137.0815,428.1436 Q1135.7617,426.4917 1135.7617,423.3706 Q1135.7617,420.2412 1137.0815,418.5894 Q1138.4014,416.9375 1140.9082,416.9375 Q1141.6138,416.9375 1142.2612,417.0869 Q1142.9087,417.2363 1143.4731,417.5352 L1143.4731,420.2578 Q1142.8423,419.6768 1142.2488,419.407 Q1141.6553,419.1372 1141.0244,419.1372 Q1139.6797,419.1372 1138.9949,420.2039 Q1138.3101,421.2705 1138.3101,423.3706 Q1138.3101,425.4624 1138.9949,426.5291 Q1139.6797,427.5957 1141.0244,427.5957 Q1141.6553,427.5957 1142.2488,427.3259 Q1142.8423,427.0562 1143.4731,426.4751 Z "/><text fill="#000000" font-family="sans-serif" font-size="12" lengthAdjust="spacingAndGlyphs" textLength="131" x="1154.5" y="428.0898">ExpressionSoustractive</text><line style="stroke: #383838; stroke-width: 1.5;" x1="1126.5" x2="1287.5" y1="439.5547" y2="439.5547"/><line style="stroke: #383838; stroke-width: 1.5;" x1="1126.5" x2="1287.5" y1="447.5547" y2="447.5547"/><rect fill="#FFFFFF" height="48" style="stroke: #383838; stroke-width: 1.5;" width="70" x="1324" y="299.5547"/><ellipse cx="1339" cy="315.5547" fill="#C2C2C2" rx="11" ry="11" style="stroke: #383838; stroke-width: 1.0;"/><path d="M1341.9731,321.1978 Q1341.3921,321.4966 1340.7529,321.646 Q1340.1138,321.7954 1339.4082,321.7954 Q1336.9014,321.7954 1335.5815,320.1436 Q1334.2617,318.4917 1334.2617,315.3706 Q1334.2617,312.2412 1335.5815,310.5894 Q1336.9014,308.9375 1339.4082,308.9375 Q1340.1138,308.9375 1340.7612,309.0869 Q1341.4087,309.2363 1341.9731,309.5352 L1341.9731,312.2578 Q1341.3423,311.6768 1340.7488,311.407 Q1340.1553,311.1372 1339.5244,311.1372 Q1338.1797,311.1372 1337.4949,312.2039 Q1336.8101,313.2705 1336.8101,315.3706 Q1336.8101,317.4624 1337.4949,318.5291 Q1338.1797,319.5957 1339.5244,319.5957 Q1340.1553,319.5957 1340.7488,319.3259 Q1341.3423,319.0562 1341.9731,318.4751 Z "/><text fill="#000000" font-family="sans-serif" font-size="12" lengthAdjust="spacingAndGlyphs" textLength="38" x="1353" y="320.0898">Terme</text><line style="stroke: #383838; stroke-width: 1.5;" x1="1325" x2="1393" y1="331.5547" y2="331.5547"/><line style="stroke: #383838; stroke-width: 1.5;" x1="1325" x2="1393" y1="339.5547" y2="339.5547"/><rect fill="#FFFFFF" height="48" style="stroke: #383838; stroke-width: 1.5;" width="119" x="1559.5" y="515.5547"/><ellipse cx="1574.5" cy="531.5547" fill="#C2C2C2" rx="11" ry="11" style="stroke: #383838; stroke-width: 1.0;"/><path d="M1577.4731,537.1978 Q1576.8921,537.4966 1576.2529,537.646 Q1575.6138,537.7954 1574.9082,537.7954 Q1572.4014,537.7954 1571.0815,536.1436 Q1569.7617,534.4917 1569.7617,531.3706 Q1569.7617,528.2412 1571.0815,526.5894 Q1572.4014,524.9375 1574.9082,524.9375 Q1575.6138,524.9375 1576.2612,525.0869 Q1576.9087,525.2363 1577.4731,525.5352 L1577.4731,528.2578 Q1576.8423,527.6768 1576.2488,527.407 Q1575.6553,527.1372 1575.0244,527.1372 Q1573.6797,527.1372 1572.9949,528.2039 Q1572.3101,529.2705 1572.3101,531.3706 Q1572.3101,533.4624 1572.9949,534.5291 Q1573.6797,535.5957 1575.0244,535.5957 Q1575.6553,535.5957 1576.2488,535.3259 Q1576.8423,535.0562 1577.4731,534.4751 Z "/><text fill="#000000" font-family="sans-serif" font-size="12" lengthAdjust="spacingAndGlyphs" textLength="87" x="1588.5" y="536.0898">ExpressionMult</text><line style="stroke: #383838; stroke-width: 1.5;" x1="1560.5" x2="1677.5" y1="547.5547" y2="547.5547"/><line style="stroke: #383838; stroke-width: 1.5;" x1="1560.5" x2="1677.5" y1="555.5547" y2="555.5547"/><rect fill="#FFFFFF" height="48" style="stroke: #383838; stroke-width: 1.5;" width="113" x="1039.5" y="515.5547"/><ellipse cx="1054.5" cy="531.5547" fill="#C2C2C2" rx="11" ry="11" style="stroke: #383838; stroke-width: 1.0;"/><path d="M1057.4731,537.1978 Q1056.8921,537.4966 1056.2529,537.646 Q1055.6138,537.7954 1054.9082,537.7954 Q1052.4014,537.7954 1051.0815,536.1436 Q1049.7617,534.4917 1049.7617,531.3706 Q1049.7617,528.2412 1051.0815,526.5894 Q1052.4014,524.9375 1054.9082,524.9375 Q1055.6138,524.9375 1056.2612,525.0869 Q1056.9087,525.2363 1057.4731,525.5352 L1057.4731,528.2578 Q1056.8423,527.6768 1056.2488,527.407 Q1055.6553,527.1372 1055.0244,527.1372 Q1053.6797,527.1372 1052.9949,528.2039 Q1052.3101,529.2705 1052.3101,531.3706 Q1052.3101,533.4624 1052.9949,534.5291 Q1053.6797,535.5957 1055.0244,535.5957 Q1055.6553,535.5957 1056.2488,535.3259 Q1056.8423,535.0562 1057.4731,534.4751 Z "/><text fill="#000000" font-family="sans-serif" font-size="12" lengthAdjust="spacingAndGlyphs" textLength="81" x="1068.5" y="536.0898">ExpressionDiv</text><line style="stroke: #383838; stroke-width: 1.5;" x1="1040.5" x2="1151.5" y1="547.5547" y2="547.5547"/><line style="stroke: #383838; stroke-width: 1.5;" x1="1040.5" x2="1151.5" y1="555.5547" y2="555.5547"/><rect fill="#FFFFFF" height="48" style="stroke: #383838; stroke-width: 1.5;" width="74" x="1429" y="407.5547"/><ellipse cx="1444" cy="423.5547" fill="#C2C2C2" rx="11" ry="11" style="stroke: #383838; stroke-width: 1.0;"/><path d="M1446.9731,429.1978 Q1446.3921,429.4966 1445.7529,429.646 Q1445.1138,429.7954 1444.4082,429.7954 Q1441.9014,429.7954 1440.5815,428.1436 Q1439.2617,426.4917 1439.2617,423.3706 Q1439.2617,420.2412 1440.5815,418.5894 Q1441.9014,416.9375 1444.4082,416.9375 Q1445.1138,416.9375 1445.7612,417.0869 Q1446.4087,417.2363 1446.9731,417.5352 L1446.9731,420.2578 Q1446.3423,419.6768 1445.7488,419.407 Q1445.1553,419.1372 1444.5244,419.1372 Q1443.1797,419.1372 1442.4949,420.2039 Q1441.8101,421.2705 1441.8101,423.3706 Q1441.8101,425.4624 1442.4949,426.5291 Q1443.1797,427.5957 1444.5244,427.5957 Q1445.1553,427.5957 1445.7488,427.3259 Q1446.3423,427.0562 1446.9731,426.4751 Z "/><text fill="#000000" font-family="sans-serif" font-size="12" lengthAdjust="spacingAndGlyphs" textLength="42" x="1458" y="428.0898">Facteur</text><line style="stroke: #383838; stroke-width: 1.5;" x1="1430" x2="1502" y1="439.5547" y2="439.5547"/><line style="stroke: #383838; stroke-width: 1.5;" x1="1430" x2="1502" y1="447.5547" y2="447.5547"/><rect fill="#FFFFFF" height="48" style="stroke: #383838; stroke-width: 1.5;" width="166" x="1714" y="515.5547"/><ellipse cx="1729" cy="531.5547" fill="#C2C2C2" rx="11" ry="11" style="stroke: #383838; stroke-width: 1.0;"/><path d="M1731.9731,537.1978 Q1731.3921,537.4966 1730.7529,537.646 Q1730.1138,537.7954 1729.4082,537.7954 Q1726.9014,537.7954 1725.5815,536.1436 Q1724.2617,534.4917 1724.2617,531.3706 Q1724.2617,528.2412 1725.5815,526.5894 Q1726.9014,524.9375 1729.4082,524.9375 Q1730.1138,524.9375 1730.7612,525.0869 Q1731.4087,525.2363 1731.9731,525.5352 L1731.9731,528.2578 Q1731.3423,527.6768 1730.7488,527.407 Q1730.1553,527.1372 1729.5244,527.1372 Q1728.1797,527.1372 1727.4949,528.2039 Q1726.8101,529.2705 1726.8101,531.3706 Q1726.8101,533.4624 1727.4949,534.5291 Q1728.1797,535.5957 1729.5244,535.5957 Q1730.1553,535.5957 1730.7488,535.3259 Q1731.3423,535.0562 1731.9731,534.4751 Z "/><text fill="#000000" font-family="sans-serif" font-size="12" lengthAdjust="spacingAndGlyphs" textLength="134" x="1743" y="536.0898">ExpressionParenthesee</text><line style="stroke: #383838; stroke-width: 1.5;" x1="1715" x2="1879" y1="547.5547" y2="547.5547"/><line style="stroke: #383838; stroke-width: 1.5;" x1="1715" x2="1879" y1="555.5547" y2="555.5547"/><rect fill="#FFFFFF" height="48" style="stroke: #383838; stroke-width: 1.5;" width="153" x="1187.5" y="515.5547"/><ellipse cx="1202.5" cy="531.5547" fill="#C2C2C2" rx="11" ry="11" style="stroke: #383838; stroke-width: 1.0;"/><path d="M1205.4731,537.1978 Q1204.8921,537.4966 1204.2529,537.646 Q1203.6138,537.7954 1202.9082,537.7954 Q1200.4014,537.7954 1199.0815,536.1436 Q1197.7617,534.4917 1197.7617,531.3706 Q1197.7617,528.2412 1199.0815,526.5894 Q1200.4014,524.9375 1202.9082,524.9375 Q1203.6138,524.9375 1204.2612,525.0869 Q1204.9087,525.2363 1205.4731,525.5352 L1205.4731,528.2578 Q1204.8423,527.6768 1204.2488,527.407 Q1203.6553,527.1372 1203.0244,527.1372 Q1201.6797,527.1372 1200.9949,528.2039 Q1200.3101,529.2705 1200.3101,531.3706 Q1200.3101,533.4624 1200.9949,534.5291 Q1201.6797,535.5957 1203.0244,535.5957 Q1203.6553,535.5957 1204.2488,535.3259 Q1204.8423,535.0562 1205.4731,534.4751 Z "/><text fill="#000000" font-family="sans-serif" font-size="12" lengthAdjust="spacingAndGlyphs" textLength="121" x="1216.5" y="536.0898">ConstanteNumerique</text><line style="stroke: #383838; stroke-width: 1.5;" x1="1188.5" x2="1339.5" y1="547.5547" y2="547.5547"/><line style="stroke: #383838; stroke-width: 1.5;" x1="1188.5" x2="1339.5" y1="555.5547" y2="555.5547"/><path d="M566.868,138.0857 C576.5,169.8347 581.581,208.2787 566,239.5547 C553.038,265.5717 527.602,285.5897 504.452,299.4417 " fill="none" style="stroke: #383838; stroke-width: 1.0;"/><polygon fill="none" points="560.127,140.0087,560.24,118.8187,573.365,135.4537,560.127,140.0087" style="stroke: #383838; stroke-width: 1.0;"/><path d="M456.498,121.7897 C422.248,140.5497 383.581,161.7277 353.131,178.4057 " fill="none" style="stroke: #383838; stroke-width: 1.0;"/><polygon fill="none" points="453.56,115.4177,474.464,111.9497,460.286,127.6967,453.56,115.4177" style="stroke: #383838; stroke-width: 1.0;"/><path d="M617.961,130.2167 C641.71,146.7167 666.928,164.2357 687.413,178.4677 " fill="none" style="stroke: #383838; stroke-width: 1.0;"/><polygon fill="none" points="613.856,135.8887,601.425,118.7287,621.844,124.3917,613.856,135.8887" style="stroke: #383838; stroke-width: 1.0;"/><path d="M454.558,101.5137 C378.117,124.2907 266.385,157.5837 188.226,180.8727 " fill="none" style="stroke: #383838; stroke-width: 1.0;"/><polygon fill="none" points="452.991,94.6767,474.157,95.6737,456.989,108.0937,452.991,94.6767" style="stroke: #383838; stroke-width: 1.0;"/><path d="M511.702,137.2907 C505.101,151.5747 498.361,166.1577 492.729,178.3457 " fill="none" style="stroke: #383838; stroke-width: 1.0;"/><polygon fill="none" points="505.451,134.1297,520.195,118.9117,518.159,140.0027,505.451,134.1297" style="stroke: #383838; stroke-width: 1.0;"/><path d="M625.708,93.0167 C767.795,121.1357 1047.53,176.4957 1159.26,198.6067 " fill="none" style="stroke: #383838; stroke-width: 1.0;"/><polygon fill="none" points="624.04,99.8227,605.78,89.0727,626.758,86.0887,624.04,99.8227" style="stroke: #383838; stroke-width: 1.0;"/><path d="M350.979,247.3007 C374.987,264.5037 402.745,284.3947 423.693,299.4047 " fill="none" style="stroke: #383838; stroke-width: 1.0;"/><polygon fill="#383838" points="340.25,239.6127,342.7975,246.3588,350.0045,246.6019,347.457,239.8558,340.25,239.6127" style="stroke: #383838; stroke-width: 1.0;"/><path d="M299,259.6617 C299,273.4307 299,287.7397 299,299.2237 " fill="none" style="stroke: #383838; stroke-width: 1.0;"/><polygon fill="none" points="292,259.6127,299,239.6127,306,259.6127,292,259.6127" style="stroke: #383838; stroke-width: 1.0;"/><path d="M230.329,249.8767 C201.727,266.4627 169.523,285.1387 144.921,299.4047 " fill="none" style="stroke: #383838; stroke-width: 1.0;"/><polygon fill="none" points="227.216,243.5907,248.029,239.6127,234.239,255.7017,227.216,243.5907" style="stroke: #383838; stroke-width: 1.0;"/><path d="M420.52,246.6047 C392.743,263.9657 360.381,284.1917 336.04,299.4047 " fill="none" style="stroke: #383838; stroke-width: 1.0;"/><polygon fill="#383838" points="431.707,239.6127,424.499,239.401,421.5313,245.9731,428.7393,246.1848,431.707,239.6127" style="stroke: #383838; stroke-width: 1.0;"/><path d="M100.0479,252.9167 C101.1661,268.6407 102.3897,285.8477 103.3409,299.2237 " fill="none" style="stroke: #383838; stroke-width: 1.0;"/><polygon fill="#383838" points="99.1019,239.6127,95.5372,245.8811,99.9525,251.5825,103.5171,245.3141,99.1019,239.6127" style="stroke: #383838; stroke-width: 1.0;"/><path d="M645.965,244.5577 C600.135,263.3747 544.958,286.0297 505.907,302.0637 " fill="none" style="stroke: #383838; stroke-width: 1.0;"/><polygon fill="#383838" points="658.01,239.6127,650.9404,238.1911,646.9091,244.1701,653.9787,245.5917,658.01,239.6127" style="stroke: #383838; stroke-width: 1.0;"/><path d="M757.261,257.2377 C765.639,271.7377 774.494,287.0637 781.52,299.2237 " fill="none" style="stroke: #383838; stroke-width: 1.0;"/><polygon fill="none" points="751.023,260.4317,747.078,239.6127,763.145,253.4277,751.023,260.4317" style="stroke: #383838; stroke-width: 1.0;"/><path d="M809.898,248.4667 C845.113,265.3977 885.33,284.7327 915.847,299.4047 " fill="none" style="stroke: #383838; stroke-width: 1.0;"/><polygon fill="none" points="806.473,254.5877,791.481,239.6127,812.539,241.9697,806.473,254.5877" style="stroke: #383838; stroke-width: 1.0;"/><path d="M685.989,253.8717 C670.456,269.3347 653.598,286.1177 640.435,299.2237 " fill="none" style="stroke: #383838; stroke-width: 1.0;"/><polygon fill="none" points="681.198,248.7627,700.311,239.6127,691.076,258.6847,681.198,248.7627" style="stroke: #383838; stroke-width: 1.0;"/><path d="M1164.94,247.7947 C1121.58,293.5897 1057.52,369.3757 1030.58,407.3537 " fill="none" style="stroke: #383838; stroke-width: 1.0;"/><polygon fill="none" points="1160.1,242.7297,1179.04,233.2357,1170.15,252.4707,1160.1,242.7297" style="stroke: #383838; stroke-width: 1.0;"/><path d="M1188.14,243.9777 C1154.53,289.2667 1086.68,368.2997 1047.46,407.3537 " fill="none" style="stroke: #383838; stroke-width: 1.0;"/><polygon fill="#383838" points="1195.91,233.2357,1189.1518,235.751,1188.8744,242.9568,1195.6326,240.4415,1195.91,233.2357" style="stroke: #383838; stroke-width: 1.0;"/><path d="M1196.63,253.3167 C1192.85,299.4757 1193.57,370.8647 1198.8,407.3537 " fill="none" style="stroke: #383838; stroke-width: 1.0;"/><polygon fill="none" points="1189.69,252.3647,1198.8,233.2357,1203.61,253.8727,1189.69,252.3647" style="stroke: #383838; stroke-width: 1.0;"/><path d="M1217.32,246.3087 C1222.05,291.9347 1221.5,368.9617 1215.68,407.3537 " fill="none" style="stroke: #383838; stroke-width: 1.0;"/><polygon fill="#383838" points="1215.68,233.2357,1212.4574,239.6866,1217.1726,245.1425,1220.3953,238.6915,1215.68,233.2357" style="stroke: #383838; stroke-width: 1.0;"/><path d="M1254.25,245.0287 C1278.24,262.7837 1306.72,283.8567 1327.92,299.5477 " fill="none" style="stroke: #383838; stroke-width: 1.0;"/><polygon fill="none" points="1250.04,250.6167,1238.13,233.0927,1258.37,239.3637,1250.04,250.6167" style="stroke: #383838; stroke-width: 1.0;"/><path d="M1266.82,233.5047 C1308.28,250.4007 1364.38,274.5457 1412,299.5547 C1546.77,370.3377 1697.77,470.6628 1763.46,515.4309 " fill="none" style="stroke: #383838; stroke-width: 1.0;"/><polygon fill="#383838" points="1254.72,228.6107,1258.7837,234.5677,1265.8455,233.1078,1261.7818,227.1508,1254.72,228.6107" style="stroke: #383838; stroke-width: 1.0;"/><path d="M1311.21,339.4547 C1253.69,357.3857 1156.59,387.6587 1090.23,408.3477 " fill="none" style="stroke: #383838; stroke-width: 1.0;"/><polygon fill="#383838" points="1323.89,335.4997,1316.9711,333.4678,1312.4344,339.073,1319.3533,341.1049,1323.89,335.4997" style="stroke: #383838; stroke-width: 1.0;"/><path d="M1315.11,355.1627 C1291.23,371.8187 1262.16,392.0907 1240.18,407.4167 " fill="none" style="stroke: #383838; stroke-width: 1.0;"/><polygon fill="#383838" points="1326.02,347.5547,1318.8105,347.7089,1316.1801,354.4231,1323.3895,354.2689,1326.02,347.5547" style="stroke: #383838; stroke-width: 1.0;"/><path d="M1406.19,348.4727 C1436.26,362.6177 1474.5,382.6537 1504,407.5547 C1541.12,438.8807 1572.37,486.8069 1594.1,515.1795 " fill="none" style="stroke: #383838; stroke-width: 1.0;"/><polygon fill="#383838" points="1394.27,342.9647,1398.0371,349.1136,1405.1619,348.0012,1401.3948,341.8523,1394.27,342.9647" style="stroke: #383838; stroke-width: 1.0;"/><path d="M1413.22,339.0627 C1451.78,352.9897 1502.19,376.4857 1539,407.5547 C1576.12,438.8807 1607.37,486.8069 1618.67,515.1795 " fill="none" style="stroke: #383838; stroke-width: 1.0;"/><polygon fill="none" points="1410.97,345.6937,1394.27,332.6627,1415.45,332.4297,1410.97,345.6937" style="stroke: #383838; stroke-width: 1.0;"/><path d="M1338.95,360.4967 C1328.68,389.5717 1314.98,429.7837 1289,455.5547 C1278.13,466.3393 1202.3,494.879 1148.72,515.4826 " fill="none" style="stroke: #383838; stroke-width: 1.0;"/><polygon fill="#383838" points="1343.46,348.0127,1337.66,352.2975,1339.3844,359.2994,1345.1844,355.0146,1343.46,348.0127" style="stroke: #383838; stroke-width: 1.0;"/><path d="M1365.94,368.1907 C1361.24,396.3497 1347.76,431.9887 1324,455.5547 C1311.72,467.737 1216.55,502.5747 1152.73,523.0374 " fill="none" style="stroke: #383838; stroke-width: 1.0;"/><polygon fill="none" points="1358.99,367.2657,1367.84,348.0127,1372.93,368.5817,1358.99,367.2657" style="stroke: #383838; stroke-width: 1.0;"/><path d="M1396.63,361.8347 C1411.88,376.9457 1429.03,393.9297 1442.46,407.2327 " fill="none" style="stroke: #383838; stroke-width: 1.0;"/><polygon fill="none" points="1391.5,366.6037,1382.22,347.5547,1401.35,356.6577,1391.5,366.6037" style="stroke: #383838; stroke-width: 1.0;"/><path d="M1522.15,450.5367 C1578.1,468.4549 1664.23,496.0377 1725.14,515.5432 " fill="none" style="stroke: #383838; stroke-width: 1.0;"/><polygon fill="none" points="1519.92,457.1717,1503.01,444.4057,1524.19,443.8387,1519.92,457.1717" style="stroke: #383838; stroke-width: 1.0;"/><path d="M1510.18,463.1627 C1534.22,479.8188 1563.48,500.0902 1585.6,515.4164 " fill="none" style="stroke: #383838; stroke-width: 1.0;"/><polygon fill="#383838" points="1499.2,455.5547,1501.8493,462.2615,1509.0591,462.3955,1506.4099,455.6887,1499.2,455.5547" style="stroke: #383838; stroke-width: 1.0;"/><path d="M1416.34,450.9047 C1411.51,452.5357 1406.68,454.1137 1402,455.5547 C1300.22,486.9309 1272.44,486.4075 1170,515.5547 C1164.44,517.1379 1158.65,518.8382 1152.88,520.5715 " fill="none" style="stroke: #383838; stroke-width: 1.0;"/><polygon fill="#383838" points="1428.97,446.5157,1421.9889,444.7089,1417.6361,450.458,1424.6172,452.2648,1428.97,446.5157" style="stroke: #383838; stroke-width: 1.0;"/><path d="M1410.93,461.4527 C1378.52,478.461 1338.09,499.6772 1307.85,515.5461 " fill="none" style="stroke: #383838; stroke-width: 1.0;"/><polygon fill="none" points="1407.99,455.0917,1428.95,451.9967,1414.49,467.4884,1407.99,455.0917" style="stroke: #383838; stroke-width: 1.0;"/><path d="M1459.51,475.5783 C1457.46,489.1339 1455.28,503.5928 1453.52,515.2331 " fill="none" style="stroke: #383838; stroke-width: 1.0;"/><polygon fill="none" points="1452.62,474.2863,1462.53,455.5547,1466.46,476.3759,1452.62,474.2863" style="stroke: #383838; stroke-width: 1.0;"/></g></svg>