<?xml version="1.0" encoding="UTF-8" standalone="yes"?><svg xmlns="http://www.w3.org/2000/svg" xmlns:xlink="http://www.w3.org/1999/xlink" height="1392px" style="width:2024px;height:1392px;" version="1.1" viewBox="0 0 2024 1392" width="2024px"><defs/><g><text fill="#000000" font-family="sans-serif" font-size="20" lengthAdjust="spacingAndGlyphs" textLength="206" x="918" y="19.3359">Diagramme de classe</text><rect fill="#FFFFFF" height="138.6855" style="stroke: #383838; stroke-width: 1.5;" width="131" x="875" y="31.5547"/><ellipse cx="912.95" cy="47.5547" fill="#C2C2C2" rx="11" ry="11" style="stroke: #383838; stroke-width: 1.0;"/><path d="M915.9231,53.1978 Q915.3421,53.4966 914.7029,53.646 Q914.0638,53.7954 913.3582,53.7954 Q910.8514,53.7954 909.5315,52.1436 Q908.2117,50.4917 908.2117,47.3706 Q908.2117,44.2412 909.5315,42.5894 Q910.8514,40.9375 913.3582,40.9375 Q914.0638,40.9375 914.7112,41.0869 Q915.3587,41.2363 915.9231,41.5352 L915.9231,44.2578 Q915.2923,43.6768 914.6988,43.407 Q914.1053,43.1372 913.4744,43.1372 Q912.1297,43.1372 911.4449,44.2039 Q910.7601,45.2705 910.7601,47.3706 Q910.7601,49.4624 911.4449,50.5291 Q912.1297,51.5957 913.4744,51.5957 Q914.1053,51.5957 914.6988,51.3259 Q915.2923,51.0562 915.9231,50.4751 Z "/><text fill="#000000" font-family="sans-serif" font-size="12" lengthAdjust="spacingAndGlyphs" textLength="48" x="932.05" y="52.0898">Symbole</text><line style="stroke: #383838; stroke-width: 1.5;" x1="876" x2="1005" y1="63.5547" y2="63.5547"/><polygon fill="none" points="886,71.5322,882,77.5322,890,77.5322" style="stroke: #535353; stroke-width: 1.0;"/><text fill="#000000" font-family="sans-serif" font-size="11" lengthAdjust="spacingAndGlyphs" textLength="27" x="895" y="78.1895">int id</text><line style="stroke: #383838; stroke-width: 1.5;" x1="876" x2="1005" y1="84.5098" y2="84.5098"/><ellipse cx="886" cy="96.4873" fill="#A6A6A6" rx="3" ry="3" style="stroke: #545454; stroke-width: 1.0;"/><text fill="#000000" font-family="sans-serif" font-size="11" lengthAdjust="spacingAndGlyphs" textLength="83" x="895" y="99.1445">Symbole (int id)</text><ellipse cx="886" cy="109.4424" fill="#A6A6A6" rx="3" ry="3" style="stroke: #545454; stroke-width: 1.0;"/><text fill="#000000" font-family="sans-serif" font-size="11" lengthAdjust="spacingAndGlyphs" textLength="105" x="895" y="112.0996">operator int() const</text><ellipse cx="886" cy="122.3975" fill="#A6A6A6" rx="3" ry="3" style="stroke: #545454; stroke-width: 1.0;"/><text fill="#000000" font-family="sans-serif" font-size="11" lengthAdjust="spacingAndGlyphs" textLength="81" x="895" y="125.0547">void exectuer()</text><ellipse cx="886" cy="135.3525" fill="#A6A6A6" rx="3" ry="3" style="stroke: #545454; stroke-width: 1.0;"/><text fill="#000000" font-family="sans-serif" font-size="11" lengthAdjust="spacingAndGlyphs" textLength="75" x="895" y="138.0098">void afficher()</text><ellipse cx="886" cy="148.3076" fill="#A6A6A6" rx="3" ry="3" style="stroke: #545454; stroke-width: 1.0;"/><text fill="#000000" font-family="sans-serif" font-size="11" lengthAdjust="spacingAndGlyphs" textLength="79" x="895" y="150.9648">void analyser()</text><ellipse cx="886" cy="161.2627" fill="#A6A6A6" rx="3" ry="3" style="stroke: #545454; stroke-width: 1.0;"/><text fill="#000000" font-family="sans-serif" font-size="11" lengthAdjust="spacingAndGlyphs" textLength="85" x="895" y="163.9199">void optimiser()</text><rect fill="#FFFFFF" height="48" style="stroke: #383838; stroke-width: 1.5;" width="123" x="6" y="244.5547"/><ellipse cx="21" cy="260.5547" fill="#C2C2C2" rx="11" ry="11" style="stroke: #383838; stroke-width: 1.0;"/><path d="M23.9731,266.1978 Q23.3921,266.4966 22.7529,266.646 Q22.1138,266.7954 21.4082,266.7954 Q18.9014,266.7954 17.5815,265.1436 Q16.2617,263.4917 16.2617,260.3706 Q16.2617,257.2412 17.5815,255.5894 Q18.9014,253.9375 21.4082,253.9375 Q22.1138,253.9375 22.7612,254.0869 Q23.4087,254.2363 23.9731,254.5352 L23.9731,257.2578 Q23.3423,256.6768 22.7488,256.407 Q22.1553,256.1372 21.5244,256.1372 Q20.1797,256.1372 19.4949,257.2039 Q18.8101,258.2705 18.8101,260.3706 Q18.8101,262.4624 19.4949,263.5291 Q20.1797,264.5957 21.5244,264.5957 Q22.1553,264.5957 22.7488,264.3259 Q23.3423,264.0562 23.9731,263.4751 Z "/><text fill="#000000" font-family="sans-serif" font-size="12" lengthAdjust="spacingAndGlyphs" textLength="91" x="35" y="265.0898">VirguleTerminal</text><line style="stroke: #383838; stroke-width: 1.5;" x1="7" x2="128" y1="276.5547" y2="276.5547"/><line style="stroke: #383838; stroke-width: 1.5;" x1="7" x2="128" y1="284.5547" y2="284.5547"/><rect fill="#FFFFFF" height="48" style="stroke: #383838; stroke-width: 1.5;" width="107" x="164" y="244.5547"/><ellipse cx="179" cy="260.5547" fill="#C2C2C2" rx="11" ry="11" style="stroke: #383838; stroke-width: 1.0;"/><path d="M181.9731,266.1978 Q181.3921,266.4966 180.7529,266.646 Q180.1138,266.7954 179.4082,266.7954 Q176.9014,266.7954 175.5815,265.1436 Q174.2617,263.4917 174.2617,260.3706 Q174.2617,257.2412 175.5815,255.5894 Q176.9014,253.9375 179.4082,253.9375 Q180.1138,253.9375 180.7612,254.0869 Q181.4087,254.2363 181.9731,254.5352 L181.9731,257.2578 Q181.3423,256.6768 180.7488,256.407 Q180.1553,256.1372 179.5244,256.1372 Q178.1797,256.1372 177.4949,257.2039 Q176.8101,258.2705 176.8101,260.3706 Q176.8101,262.4624 177.4949,263.5291 Q178.1797,264.5957 179.5244,264.5957 Q180.1553,264.5957 180.7488,264.3259 Q181.3423,264.0562 181.9731,263.4751 Z "/><text fill="#000000" font-family="sans-serif" font-size="12" lengthAdjust="spacingAndGlyphs" textLength="75" x="193" y="265.0898">EgalTerminal</text><line style="stroke: #383838; stroke-width: 1.5;" x1="165" x2="270" y1="276.5547" y2="276.5547"/><line style="stroke: #383838; stroke-width: 1.5;" x1="165" x2="270" y1="284.5547" y2="284.5547"/><rect fill="#FFFFFF" height="48" style="stroke: #383838; stroke-width: 1.5;" width="151" x="306" y="244.5547"/><ellipse cx="321" cy="260.5547" fill="#C2C2C2" rx="11" ry="11" style="stroke: #383838; stroke-width: 1.0;"/><path d="M323.9731,266.1978 Q323.3921,266.4966 322.7529,266.646 Q322.1138,266.7954 321.4082,266.7954 Q318.9014,266.7954 317.5815,265.1436 Q316.2617,263.4917 316.2617,260.3706 Q316.2617,257.2412 317.5815,255.5894 Q318.9014,253.9375 321.4082,253.9375 Q322.1138,253.9375 322.7612,254.0869 Q323.4087,254.2363 323.9731,254.5352 L323.9731,257.2578 Q323.3423,256.6768 322.7488,256.407 Q322.1553,256.1372 321.5244,256.1372 Q320.1797,256.1372 319.4949,257.2039 Q318.8101,258.2705 318.8101,260.3706 Q318.8101,262.4624 319.4949,263.5291 Q320.1797,264.5957 321.5244,264.5957 Q322.1553,264.5957 322.7488,264.3259 Q323.3423,264.0562 323.9731,263.4751 Z "/><text fill="#000000" font-family="sans-serif" font-size="12" lengthAdjust="spacingAndGlyphs" textLength="119" x="335" y="265.0898">PointVirguleTerminal</text><line style="stroke: #383838; stroke-width: 1.5;" x1="307" x2="456" y1="276.5547" y2="276.5547"/><line style="stroke: #383838; stroke-width: 1.5;" x1="307" x2="456" y1="284.5547" y2="284.5547"/><rect fill="#FFFFFF" height="48" style="stroke: #383838; stroke-width: 1.5;" width="115" x="492" y="244.5547"/><ellipse cx="507" cy="260.5547" fill="#C2C2C2" rx="11" ry="11" style="stroke: #383838; stroke-width: 1.0;"/><path d="M509.9731,266.1978 Q509.3921,266.4966 508.7529,266.646 Q508.1138,266.7954 507.4082,266.7954 Q504.9014,266.7954 503.5815,265.1436 Q502.2617,263.4917 502.2617,260.3706 Q502.2617,257.2412 503.5815,255.5894 Q504.9014,253.9375 507.4082,253.9375 Q508.1138,253.9375 508.7612,254.0869 Q509.4087,254.2363 509.9731,254.5352 L509.9731,257.2578 Q509.3423,256.6768 508.7488,256.407 Q508.1553,256.1372 507.5244,256.1372 Q506.1797,256.1372 505.4949,257.2039 Q504.8101,258.2705 504.8101,260.3706 Q504.8101,262.4624 505.4949,263.5291 Q506.1797,264.5957 507.5244,264.5957 Q508.1553,264.5957 508.7488,264.3259 Q509.3423,264.0562 509.9731,263.4751 Z "/><text fill="#000000" font-family="sans-serif" font-size="12" lengthAdjust="spacingAndGlyphs" textLength="83" x="521" y="265.0898">ConstTerminal</text><line style="stroke: #383838; stroke-width: 1.5;" x1="493" x2="606" y1="276.5547" y2="276.5547"/><line style="stroke: #383838; stroke-width: 1.5;" x1="493" x2="606" y1="284.5547" y2="284.5547"/><rect fill="#FFFFFF" height="48" style="stroke: #383838; stroke-width: 1.5;" width="103" x="642" y="244.5547"/><ellipse cx="657" cy="260.5547" fill="#C2C2C2" rx="11" ry="11" style="stroke: #383838; stroke-width: 1.0;"/><path d="M659.9731,266.1978 Q659.3921,266.4966 658.7529,266.646 Q658.1138,266.7954 657.4082,266.7954 Q654.9014,266.7954 653.5815,265.1436 Q652.2617,263.4917 652.2617,260.3706 Q652.2617,257.2412 653.5815,255.5894 Q654.9014,253.9375 657.4082,253.9375 Q658.1138,253.9375 658.7612,254.0869 Q659.4087,254.2363 659.9731,254.5352 L659.9731,257.2578 Q659.3423,256.6768 658.7488,256.407 Q658.1553,256.1372 657.5244,256.1372 Q656.1797,256.1372 655.4949,257.2039 Q654.8101,258.2705 654.8101,260.3706 Q654.8101,262.4624 655.4949,263.5291 Q656.1797,264.5957 657.5244,264.5957 Q658.1553,264.5957 658.7488,264.3259 Q659.3423,264.0562 659.9731,263.4751 Z "/><text fill="#000000" font-family="sans-serif" font-size="12" lengthAdjust="spacingAndGlyphs" textLength="71" x="671" y="265.0898">VarTerminal</text><line style="stroke: #383838; stroke-width: 1.5;" x1="643" x2="744" y1="276.5547" y2="276.5547"/><line style="stroke: #383838; stroke-width: 1.5;" x1="643" x2="744" y1="284.5547" y2="284.5547"/><rect fill="#FFFFFF" height="60.9551" style="stroke: #383838; stroke-width: 1.5;" width="101" x="792" y="1330.5547"/><ellipse cx="810.15" cy="1346.5547" fill="#C2C2C2" rx="11" ry="11" style="stroke: #383838; stroke-width: 1.0;"/><path d="M813.1231,1352.1978 Q812.5421,1352.4966 811.9029,1352.646 Q811.2638,1352.7954 810.5582,1352.7954 Q808.0514,1352.7954 806.7315,1351.1436 Q805.4117,1349.4917 805.4117,1346.3706 Q805.4117,1343.2412 806.7315,1341.5894 Q808.0514,1339.9375 810.5582,1339.9375 Q811.2638,1339.9375 811.9112,1340.0869 Q812.5587,1340.2363 813.1231,1340.5352 L813.1231,1343.2578 Q812.4923,1342.6768 811.8988,1342.407 Q811.3053,1342.1372 810.6744,1342.1372 Q809.3297,1342.1372 808.6449,1343.2039 Q807.9601,1344.2705 807.9601,1346.3706 Q807.9601,1348.4624 808.6449,1349.5291 Q809.3297,1350.5957 810.6744,1350.5957 Q811.3053,1350.5957 811.8988,1350.3259 Q812.4923,1350.0562 813.1231,1349.4751 Z "/><text fill="#000000" font-family="sans-serif" font-size="12" lengthAdjust="spacingAndGlyphs" textLength="62" x="824.85" y="1351.0898">IdTerminal</text><line style="stroke: #383838; stroke-width: 1.5;" x1="793" x2="892" y1="1362.5547" y2="1362.5547"/><ellipse cx="803" cy="1374.5322" fill="none" rx="3" ry="3" style="stroke: #545454; stroke-width: 1.0;"/><text fill="#000000" font-family="sans-serif" font-size="11" lengthAdjust="spacingAndGlyphs" textLength="75" x="812" y="1377.1895">String IdName</text><line style="stroke: #383838; stroke-width: 1.5;" x1="793" x2="892" y1="1383.5098" y2="1383.5098"/><rect fill="#FFFFFF" height="60.9551" style="stroke: #383838; stroke-width: 1.5;" width="110" x="1557.5" y="1330.5547"/><ellipse cx="1572.5" cy="1346.5547" fill="#C2C2C2" rx="11" ry="11" style="stroke: #383838; stroke-width: 1.0;"/><path d="M1575.4731,1352.1978 Q1574.8921,1352.4966 1574.2529,1352.646 Q1573.6138,1352.7954 1572.9082,1352.7954 Q1570.4014,1352.7954 1569.0815,1351.1436 Q1567.7617,1349.4917 1567.7617,1346.3706 Q1567.7617,1343.2412 1569.0815,1341.5894 Q1570.4014,1339.9375 1572.9082,1339.9375 Q1573.6138,1339.9375 1574.2612,1340.0869 Q1574.9087,1340.2363 1575.4731,1340.5352 L1575.4731,1343.2578 Q1574.8423,1342.6768 1574.2488,1342.407 Q1573.6553,1342.1372 1573.0244,1342.1372 Q1571.6797,1342.1372 1570.9949,1343.2039 Q1570.3101,1344.2705 1570.3101,1346.3706 Q1570.3101,1348.4624 1570.9949,1349.5291 Q1571.6797,1350.5957 1573.0244,1350.5957 Q1573.6553,1350.5957 1574.2488,1350.3259 Q1574.8423,1350.0562 1575.4731,1349.4751 Z "/><text fill="#000000" font-family="sans-serif" font-size="12" lengthAdjust="spacingAndGlyphs" textLength="78" x="1586.5" y="1351.0898">NumTerminal</text><line style="stroke: #383838; stroke-width: 1.5;" x1="1558.5" x2="1666.5" y1="1362.5547" y2="1362.5547"/><ellipse cx="1568.5" cy="1374.5322" fill="none" rx="3" ry="3" style="stroke: #545454; stroke-width: 1.0;"/><text fill="#000000" font-family="sans-serif" font-size="11" lengthAdjust="spacingAndGlyphs" textLength="46" x="1577.5" y="1377.1895">Int Value</text><line style="stroke: #383838; stroke-width: 1.5;" x1="1558.5" x2="1666.5" y1="1383.5098" y2="1383.5098"/><rect fill="#FFFFFF" height="48" style="stroke: #383838; stroke-width: 1.5;" width="115" x="1759" y="244.5547"/><ellipse cx="1774" cy="260.5547" fill="#C2C2C2" rx="11" ry="11" style="stroke: #383838; stroke-width: 1.0;"/><path d="M1776.9731,266.1978 Q1776.3921,266.4966 1775.7529,266.646 Q1775.1138,266.7954 1774.4082,266.7954 Q1771.9014,266.7954 1770.5815,265.1436 Q1769.2617,263.4917 1769.2617,260.3706 Q1769.2617,257.2412 1770.5815,255.5894 Q1771.9014,253.9375 1774.4082,253.9375 Q1775.1138,253.9375 1775.7612,254.0869 Q1776.4087,254.2363 1776.9731,254.5352 L1776.9731,257.2578 Q1776.3423,256.6768 1775.7488,256.407 Q1775.1553,256.1372 1774.5244,256.1372 Q1773.1797,256.1372 1772.4949,257.2039 Q1771.8101,258.2705 1771.8101,260.3706 Q1771.8101,262.4624 1772.4949,263.5291 Q1773.1797,264.5957 1774.5244,264.5957 Q1775.1553,264.5957 1775.7488,264.3259 Q1776.3423,264.0562 1776.9731,263.4751 Z "/><text fill="#000000" font-family="sans-serif" font-size="12" lengthAdjust="spacingAndGlyphs" textLength="83" x="1788" y="265.0898">FinProgramme</text><line style="stroke: #383838; stroke-width: 1.5;" x1="1760" x2="1873" y1="276.5547" y2="276.5547"/><line style="stroke: #383838; stroke-width: 1.5;" x1="1760" x2="1873" y1="284.5547" y2="284.5547"/><rect fill="#FFFFFF" height="48" style="stroke: #383838; stroke-width: 1.5;" width="114" x="1909.5" y="244.5547"/><ellipse cx="1924.5" cy="260.5547" fill="#C2C2C2" rx="11" ry="11" style="stroke: #383838; stroke-width: 1.0;"/><path d="M1927.4731,266.1978 Q1926.8921,266.4966 1926.2529,266.646 Q1925.6138,266.7954 1924.9082,266.7954 Q1922.4014,266.7954 1921.0815,265.1436 Q1919.7617,263.4917 1919.7617,260.3706 Q1919.7617,257.2412 1921.0815,255.5894 Q1922.4014,253.9375 1924.9082,253.9375 Q1925.6138,253.9375 1926.2612,254.0869 Q1926.9087,254.2363 1927.4731,254.5352 L1927.4731,257.2578 Q1926.8423,256.6768 1926.2488,256.407 Q1925.6553,256.1372 1925.0244,256.1372 Q1923.6797,256.1372 1922.9949,257.2039 Q1922.3101,258.2705 1922.3101,260.3706 Q1922.3101,262.4624 1922.9949,263.5291 Q1923.6797,264.5957 1925.0244,264.5957 Q1925.6553,264.5957 1926.2488,264.3259 Q1926.8423,264.0562 1927.4731,263.4751 Z "/><text fill="#000000" font-family="sans-serif" font-size="12" lengthAdjust="spacingAndGlyphs" textLength="82" x="1938.5" y="265.0898">ErreurLexicale</text><line style="stroke: #383838; stroke-width: 1.5;" x1="1910.5" x2="2022.5" y1="276.5547" y2="276.5547"/><line style="stroke: #383838; stroke-width: 1.5;" x1="1910.5" x2="2022.5" y1="284.5547" y2="284.5547"/><rect fill="#FFFFFF" height="60.9551" style="stroke: #383838; stroke-width: 1.5;" width="182" x="1470.5" y="366.5547"/><ellipse cx="1499.9" cy="382.5547" fill="#C2C2C2" rx="11" ry="11" style="stroke: #383838; stroke-width: 1.0;"/><path d="M1502.8731,388.1978 Q1502.2921,388.4966 1501.6529,388.646 Q1501.0138,388.7954 1500.3082,388.7954 Q1497.8014,388.7954 1496.4815,387.1436 Q1495.1617,385.4917 1495.1617,382.3706 Q1495.1617,379.2412 1496.4815,377.5894 Q1497.8014,375.9375 1500.3082,375.9375 Q1501.0138,375.9375 1501.6612,376.0869 Q1502.3087,376.2363 1502.8731,376.5352 L1502.8731,379.2578 Q1502.2423,378.6768 1501.6488,378.407 Q1501.0553,378.1372 1500.4244,378.1372 Q1499.0797,378.1372 1498.3949,379.2039 Q1497.7101,380.2705 1497.7101,382.3706 Q1497.7101,384.4624 1498.3949,385.5291 Q1499.0797,386.5957 1500.4244,386.5957 Q1501.0553,386.5957 1501.6488,386.3259 Q1502.2423,386.0562 1502.8731,385.4751 Z "/><text fill="#000000" font-family="sans-serif" font-size="12" lengthAdjust="spacingAndGlyphs" textLength="118" x="1517.1" y="387.0898">AffectationConstante</text><line style="stroke: #383838; stroke-width: 1.5;" x1="1471.5" x2="1651.5" y1="398.5547" y2="398.5547"/><ellipse cx="1481.5" cy="410.5322" fill="none" rx="3" ry="3" style="stroke: #545454; stroke-width: 1.0;"/><text fill="#000000" font-family="sans-serif" font-size="11" lengthAdjust="spacingAndGlyphs" textLength="156" x="1490.5" y="413.1895">AffectationConstante suivant</text><line style="stroke: #383838; stroke-width: 1.5;" x1="1471.5" x2="1651.5" y1="419.5098" y2="419.5098"/><rect fill="#FFFFFF" height="60.9551" style="stroke: #383838; stroke-width: 1.5;" width="182" x="605.5" y="366.5547"/><ellipse cx="632.65" cy="382.5547" fill="#C2C2C2" rx="11" ry="11" style="stroke: #383838; stroke-width: 1.0;"/><path d="M635.6231,388.1978 Q635.0421,388.4966 634.4029,388.646 Q633.7638,388.7954 633.0582,388.7954 Q630.5514,388.7954 629.2315,387.1436 Q627.9117,385.4917 627.9117,382.3706 Q627.9117,379.2412 629.2315,377.5894 Q630.5514,375.9375 633.0582,375.9375 Q633.7638,375.9375 634.4112,376.0869 Q635.0587,376.2363 635.6231,376.5352 L635.6231,379.2578 Q634.9923,378.6768 634.3988,378.407 Q633.8053,378.1372 633.1744,378.1372 Q631.8297,378.1372 631.1449,379.2039 Q630.4601,380.2705 630.4601,382.3706 Q630.4601,384.4624 631.1449,385.5291 Q631.8297,386.5957 633.1744,386.5957 Q633.8053,386.5957 634.3988,386.3259 Q634.9923,386.0562 635.6231,385.4751 Z "/><text fill="#000000" font-family="sans-serif" font-size="12" lengthAdjust="spacingAndGlyphs" textLength="123" x="649.35" y="387.0898">IdentificateurVariable</text><line style="stroke: #383838; stroke-width: 1.5;" x1="606.5" x2="786.5" y1="398.5547" y2="398.5547"/><ellipse cx="616.5" cy="410.5322" fill="none" rx="3" ry="3" style="stroke: #545454; stroke-width: 1.0;"/><text fill="#000000" font-family="sans-serif" font-size="11" lengthAdjust="spacingAndGlyphs" textLength="156" x="625.5" y="413.1895">IdentificateurVariable suivant</text><line style="stroke: #383838; stroke-width: 1.5;" x1="606.5" x2="786.5" y1="419.5098" y2="419.5098"/><rect fill="#FFFFFF" height="48" style="stroke: #383838; stroke-width: 1.5;" width="149" x="936" y="1205.5547"/><ellipse cx="951" cy="1221.5547" fill="#C2C2C2" rx="11" ry="11" style="stroke: #383838; stroke-width: 1.0;"/><path d="M953.9731,1227.1978 Q953.3921,1227.4966 952.7529,1227.646 Q952.1138,1227.7954 951.4082,1227.7954 Q948.9014,1227.7954 947.5815,1226.1436 Q946.2617,1224.4917 946.2617,1221.3706 Q946.2617,1218.2412 947.5815,1216.5894 Q948.9014,1214.9375 951.4082,1214.9375 Q952.1138,1214.9375 952.7612,1215.0869 Q953.4087,1215.2363 953.9731,1215.5352 L953.9731,1218.2578 Q953.3423,1217.6768 952.7488,1217.407 Q952.1553,1217.1372 951.5244,1217.1372 Q950.1797,1217.1372 949.4949,1218.2039 Q948.8101,1219.2705 948.8101,1221.3706 Q948.8101,1223.4624 949.4949,1224.5291 Q950.1797,1225.5957 951.5244,1225.5957 Q952.1553,1225.5957 952.7488,1225.3259 Q953.3423,1225.0562 953.9731,1224.4751 Z "/><text fill="#000000" font-family="sans-serif" font-size="12" lengthAdjust="spacingAndGlyphs" textLength="117" x="965" y="1226.0898">IdentificateurFacteur</text><line style="stroke: #383838; stroke-width: 1.5;" x1="937" x2="1084" y1="1237.5547" y2="1237.5547"/><line style="stroke: #383838; stroke-width: 1.5;" x1="937" x2="1084" y1="1245.5547" y2="1245.5547"/><rect fill="#FFFFFF" height="60.9551" style="stroke: #383838; stroke-width: 1.5;" width="151" x="894" y="366.5547"/><ellipse cx="922.95" cy="382.5547" fill="#C2C2C2" rx="11" ry="11" style="stroke: #383838; stroke-width: 1.0;"/><path d="M925.9231,388.1978 Q925.3421,388.4966 924.7029,388.646 Q924.0638,388.7954 923.3582,388.7954 Q920.8514,388.7954 919.5315,387.1436 Q918.2117,385.4917 918.2117,382.3706 Q918.2117,379.2412 919.5315,377.5894 Q920.8514,375.9375 923.3582,375.9375 Q924.0638,375.9375 924.7112,376.0869 Q925.3587,376.2363 925.9231,376.5352 L925.9231,379.2578 Q925.2923,378.6768 924.6988,378.407 Q924.1053,378.1372 923.4744,378.1372 Q922.1297,378.1372 921.4449,379.2039 Q920.7601,380.2705 920.7601,382.3706 Q920.7601,384.4624 921.4449,385.5291 Q922.1297,386.5957 923.4744,386.5957 Q924.1053,386.5957 924.6988,386.3259 Q925.2923,386.0562 925.9231,385.4751 Z "/><text fill="#000000" font-family="sans-serif" font-size="12" lengthAdjust="spacingAndGlyphs" textLength="88" x="940.05" y="387.0898">BlocDeclaration</text><line style="stroke: #383838; stroke-width: 1.5;" x1="895" x2="1044" y1="398.5547" y2="398.5547"/><ellipse cx="905" cy="410.5322" fill="none" rx="3" ry="3" style="stroke: #545454; stroke-width: 1.0;"/><text fill="#000000" font-family="sans-serif" font-size="11" lengthAdjust="spacingAndGlyphs" textLength="125" x="914" y="413.1895">BlocDeclaration suivant</text><line style="stroke: #383838; stroke-width: 1.5;" x1="895" x2="1044" y1="419.5098" y2="419.5098"/><rect fill="#FFFFFF" height="48" style="stroke: #383838; stroke-width: 1.5;" width="145" x="641" y="488.5547"/><ellipse cx="656" cy="504.5547" fill="#C2C2C2" rx="11" ry="11" style="stroke: #383838; stroke-width: 1.0;"/><path d="M658.9731,510.1978 Q658.3921,510.4966 657.7529,510.646 Q657.1138,510.7954 656.4082,510.7954 Q653.9014,510.7954 652.5815,509.1436 Q651.2617,507.4917 651.2617,504.3706 Q651.2617,501.2412 652.5815,499.5894 Q653.9014,497.9375 656.4082,497.9375 Q657.1138,497.9375 657.7612,498.0869 Q658.4087,498.2363 658.9731,498.5352 L658.9731,501.2578 Q658.3423,500.6768 657.7488,500.407 Q657.1553,500.1372 656.5244,500.1372 Q655.1797,500.1372 654.4949,501.2039 Q653.8101,502.2705 653.8101,504.3706 Q653.8101,506.4624 654.4949,507.5291 Q655.1797,508.5957 656.5244,508.5957 Q657.1553,508.5957 657.7488,508.3259 Q658.3423,508.0562 658.9731,507.4751 Z "/><text fill="#000000" font-family="sans-serif" font-size="12" lengthAdjust="spacingAndGlyphs" textLength="113" x="670" y="509.0898">DeclarationVariable</text><line style="stroke: #383838; stroke-width: 1.5;" x1="642" x2="785" y1="520.5547" y2="520.5547"/><line style="stroke: #383838; stroke-width: 1.5;" x1="642" x2="785" y1="528.5547" y2="528.5547"/><rect fill="#FFFFFF" height="48" style="stroke: #383838; stroke-width: 1.5;" width="154" x="892.5" y="488.5547"/><ellipse cx="907.5" cy="504.5547" fill="#C2C2C2" rx="11" ry="11" style="stroke: #383838; stroke-width: 1.0;"/><path d="M910.4731,510.1978 Q909.8921,510.4966 909.2529,510.646 Q908.6138,510.7954 907.9082,510.7954 Q905.4014,510.7954 904.0815,509.1436 Q902.7617,507.4917 902.7617,504.3706 Q902.7617,501.2412 904.0815,499.5894 Q905.4014,497.9375 907.9082,497.9375 Q908.6138,497.9375 909.2612,498.0869 Q909.9087,498.2363 910.4731,498.5352 L910.4731,501.2578 Q909.8423,500.6768 909.2488,500.407 Q908.6553,500.1372 908.0244,500.1372 Q906.6797,500.1372 905.9949,501.2039 Q905.3101,502.2705 905.3101,504.3706 Q905.3101,506.4624 905.9949,507.5291 Q906.6797,508.5957 908.0244,508.5957 Q908.6553,508.5957 909.2488,508.3259 Q909.8423,508.0562 910.4731,507.4751 Z "/><text fill="#000000" font-family="sans-serif" font-size="12" lengthAdjust="spacingAndGlyphs" textLength="122" x="921.5" y="509.0898">DeclarationConstante</text><line style="stroke: #383838; stroke-width: 1.5;" x1="893.5" x2="1045.5" y1="520.5547" y2="520.5547"/><line style="stroke: #383838; stroke-width: 1.5;" x1="893.5" x2="1045.5" y1="528.5547" y2="528.5547"/><rect fill="#FFFFFF" height="73.9102" style="stroke: #383838; stroke-width: 1.5;" width="139" x="994" y="231.5547"/><ellipse cx="1027" cy="247.5547" fill="#C2C2C2" rx="11" ry="11" style="stroke: #383838; stroke-width: 1.0;"/><path d="M1029.9731,253.1978 Q1029.3921,253.4966 1028.7529,253.646 Q1028.1138,253.7954 1027.4082,253.7954 Q1024.9014,253.7954 1023.5815,252.1436 Q1022.2617,250.4917 1022.2617,247.3706 Q1022.2617,244.2412 1023.5815,242.5894 Q1024.9014,240.9375 1027.4082,240.9375 Q1028.1138,240.9375 1028.7612,241.0869 Q1029.4087,241.2363 1029.9731,241.5352 L1029.9731,244.2578 Q1029.3423,243.6768 1028.7488,243.407 Q1028.1553,243.1372 1027.5244,243.1372 Q1026.1797,243.1372 1025.4949,244.2039 Q1024.8101,245.2705 1024.8101,247.3706 Q1024.8101,249.4624 1025.4949,250.5291 Q1026.1797,251.5957 1027.5244,251.5957 Q1028.1553,251.5957 1028.7488,251.3259 Q1029.3423,251.0562 1029.9731,250.4751 Z "/><text fill="#000000" font-family="sans-serif" font-size="12" lengthAdjust="spacingAndGlyphs" textLength="67" x="1045" y="252.0898">Programme</text><line style="stroke: #383838; stroke-width: 1.5;" x1="995" x2="1132" y1="263.5547" y2="263.5547"/><line style="stroke: #383838; stroke-width: 1.5;" x1="995" x2="1132" y1="271.5547" y2="271.5547"/><ellipse cx="1005" cy="283.5322" fill="#A6A6A6" rx="3" ry="3" style="stroke: #545454; stroke-width: 1.0;"/><text fill="#000000" font-family="sans-serif" font-size="11" lengthAdjust="spacingAndGlyphs" textLength="111" x="1014" y="286.1895">setBlockInstruction()</text><ellipse cx="1005" cy="296.4873" fill="#A6A6A6" rx="3" ry="3" style="stroke: #545454; stroke-width: 1.0;"/><text fill="#000000" font-family="sans-serif" font-size="11" lengthAdjust="spacingAndGlyphs" textLength="113" x="1014" y="299.1445">setBlockDeclaration()</text><rect fill="#FFFFFF" height="60.9551" style="stroke: #383838; stroke-width: 1.5;" width="149" x="1083" y="366.5547"/><ellipse cx="1113.75" cy="382.5547" fill="#C2C2C2" rx="11" ry="11" style="stroke: #383838; stroke-width: 1.0;"/><path d="M1116.7231,388.1978 Q1116.1421,388.4966 1115.5029,388.646 Q1114.8638,388.7954 1114.1582,388.7954 Q1111.6514,388.7954 1110.3315,387.1436 Q1109.0117,385.4917 1109.0117,382.3706 Q1109.0117,379.2412 1110.3315,377.5894 Q1111.6514,375.9375 1114.1582,375.9375 Q1114.8638,375.9375 1115.5112,376.0869 Q1116.1587,376.2363 1116.7231,376.5352 L1116.7231,379.2578 Q1116.0923,378.6768 1115.4988,378.407 Q1114.9053,378.1372 1114.2744,378.1372 Q1112.9297,378.1372 1112.2449,379.2039 Q1111.5601,380.2705 1111.5601,382.3706 Q1111.5601,384.4624 1112.2449,385.5291 Q1112.9297,386.5957 1114.2744,386.5957 Q1114.9053,386.5957 1115.4988,386.3259 Q1116.0923,386.0562 1116.7231,385.4751 Z "/><text fill="#000000" font-family="sans-serif" font-size="12" lengthAdjust="spacingAndGlyphs" textLength="82" x="1131.25" y="387.0898">BlocInstruction</text><line style="stroke: #383838; stroke-width: 1.5;" x1="1084" x2="1231" y1="398.5547" y2="398.5547"/><ellipse cx="1094" cy="410.5322" fill="none" rx="3" ry="3" style="stroke: #545454; stroke-width: 1.0;"/><text fill="#000000" font-family="sans-serif" font-size="11" lengthAdjust="spacingAndGlyphs" textLength="123" x="1103" y="413.1895">BlocInstruction suivant</text><line style="stroke: #383838; stroke-width: 1.5;" x1="1084" x2="1231" y1="419.5098" y2="419.5098"/><rect fill="#FFFFFF" height="48" style="stroke: #383838; stroke-width: 1.5;" width="133" x="726" y="566.5547"/><ellipse cx="741" cy="582.5547" fill="#C2C2C2" rx="11" ry="11" style="stroke: #383838; stroke-width: 1.0;"/><path d="M743.9731,588.1978 Q743.3921,588.4966 742.7529,588.646 Q742.1138,588.7954 741.4082,588.7954 Q738.9014,588.7954 737.5815,587.1436 Q736.2617,585.4917 736.2617,582.3706 Q736.2617,579.2412 737.5815,577.5894 Q738.9014,575.9375 741.4082,575.9375 Q742.1138,575.9375 742.7612,576.0869 Q743.4087,576.2363 743.9731,576.5352 L743.9731,579.2578 Q743.3423,578.6768 742.7488,578.407 Q742.1553,578.1372 741.5244,578.1372 Q740.1797,578.1372 739.4949,579.2039 Q738.8101,580.2705 738.8101,582.3706 Q738.8101,584.4624 739.4949,585.5291 Q740.1797,586.5957 741.5244,586.5957 Q742.1553,586.5957 742.7488,586.3259 Q743.3423,586.0562 743.9731,585.4751 Z "/><text fill="#000000" font-family="sans-serif" font-size="12" lengthAdjust="spacingAndGlyphs" textLength="101" x="755" y="587.0898">InstructionLecture</text><line style="stroke: #383838; stroke-width: 1.5;" x1="727" x2="858" y1="598.5547" y2="598.5547"/><line style="stroke: #383838; stroke-width: 1.5;" x1="727" x2="858" y1="606.5547" y2="606.5547"/><rect fill="#FFFFFF" height="48" style="stroke: #383838; stroke-width: 1.5;" width="135" x="1269" y="488.5547"/><ellipse cx="1284" cy="504.5547" fill="#C2C2C2" rx="11" ry="11" style="stroke: #383838; stroke-width: 1.0;"/><path d="M1286.9731,510.1978 Q1286.3921,510.4966 1285.7529,510.646 Q1285.1138,510.7954 1284.4082,510.7954 Q1281.9014,510.7954 1280.5815,509.1436 Q1279.2617,507.4917 1279.2617,504.3706 Q1279.2617,501.2412 1280.5815,499.5894 Q1281.9014,497.9375 1284.4082,497.9375 Q1285.1138,497.9375 1285.7612,498.0869 Q1286.4087,498.2363 1286.9731,498.5352 L1286.9731,501.2578 Q1286.3423,500.6768 1285.7488,500.407 Q1285.1553,500.1372 1284.5244,500.1372 Q1283.1797,500.1372 1282.4949,501.2039 Q1281.8101,502.2705 1281.8101,504.3706 Q1281.8101,506.4624 1282.4949,507.5291 Q1283.1797,508.5957 1284.5244,508.5957 Q1285.1553,508.5957 1285.7488,508.3259 Q1286.3423,508.0562 1286.9731,507.4751 Z "/><text fill="#000000" font-family="sans-serif" font-size="12" lengthAdjust="spacingAndGlyphs" textLength="103" x="1298" y="509.0898">InstructionEcriture</text><line style="stroke: #383838; stroke-width: 1.5;" x1="1270" x2="1403" y1="520.5547" y2="520.5547"/><line style="stroke: #383838; stroke-width: 1.5;" x1="1270" x2="1403" y1="528.5547" y2="528.5547"/><rect fill="#FFFFFF" height="48" style="stroke: #383838; stroke-width: 1.5;" width="152" x="1081.5" y="488.5547"/><ellipse cx="1096.5" cy="504.5547" fill="#C2C2C2" rx="11" ry="11" style="stroke: #383838; stroke-width: 1.0;"/><path d="M1099.4731,510.1978 Q1098.8921,510.4966 1098.2529,510.646 Q1097.6138,510.7954 1096.9082,510.7954 Q1094.4014,510.7954 1093.0815,509.1436 Q1091.7617,507.4917 1091.7617,504.3706 Q1091.7617,501.2412 1093.0815,499.5894 Q1094.4014,497.9375 1096.9082,497.9375 Q1097.6138,497.9375 1098.2612,498.0869 Q1098.9087,498.2363 1099.4731,498.5352 L1099.4731,501.2578 Q1098.8423,500.6768 1098.2488,500.407 Q1097.6553,500.1372 1097.0244,500.1372 Q1095.6797,500.1372 1094.9949,501.2039 Q1094.3101,502.2705 1094.3101,504.3706 Q1094.3101,506.4624 1094.9949,507.5291 Q1095.6797,508.5957 1097.0244,508.5957 Q1097.6553,508.5957 1098.2488,508.3259 Q1098.8423,508.0562 1099.4731,507.4751 Z "/><text fill="#000000" font-family="sans-serif" font-size="12" lengthAdjust="spacingAndGlyphs" textLength="120" x="1110.5" y="509.0898">InstructionAffectation</text><line style="stroke: #383838; stroke-width: 1.5;" x1="1082.5" x2="1232.5" y1="520.5547" y2="520.5547"/><line style="stroke: #383838; stroke-width: 1.5;" x1="1082.5" x2="1232.5" y1="528.5547" y2="528.5547"/><rect fill="#FFFFFF" height="48" style="stroke: #383838; stroke-width: 1.5;" width="95" x="1229" y="644.5547"/><ellipse cx="1244" cy="660.5547" fill="#C2C2C2" rx="11" ry="11" style="stroke: #383838; stroke-width: 1.0;"/><path d="M1246.9731,666.1978 Q1246.3921,666.4966 1245.7529,666.646 Q1245.1138,666.7954 1244.4082,666.7954 Q1241.9014,666.7954 1240.5815,665.1436 Q1239.2617,663.4917 1239.2617,660.3706 Q1239.2617,657.2412 1240.5815,655.5894 Q1241.9014,653.9375 1244.4082,653.9375 Q1245.1138,653.9375 1245.7612,654.0869 Q1246.4087,654.2363 1246.9731,654.5352 L1246.9731,657.2578 Q1246.3423,656.6768 1245.7488,656.407 Q1245.1553,656.1372 1244.5244,656.1372 Q1243.1797,656.1372 1242.4949,657.2039 Q1241.8101,658.2705 1241.8101,660.3706 Q1241.8101,662.4624 1242.4949,663.5291 Q1243.1797,664.5957 1244.5244,664.5957 Q1245.1553,664.5957 1245.7488,664.3259 Q1246.3423,664.0562 1246.9731,663.4751 Z "/><text fill="#000000" font-family="sans-serif" font-size="12" lengthAdjust="spacingAndGlyphs" textLength="63" x="1258" y="665.0898">Expression</text><line style="stroke: #383838; stroke-width: 1.5;" x1="1230" x2="1323" y1="676.5547" y2="676.5547"/><line style="stroke: #383838; stroke-width: 1.5;" x1="1230" x2="1323" y1="684.5547" y2="684.5547"/><rect fill="#FFFFFF" height="48" style="stroke: #383838; stroke-width: 1.5;" width="142" x="1205.5" y="753.5547"/><ellipse cx="1220.5" cy="769.5547" fill="#C2C2C2" rx="11" ry="11" style="stroke: #383838; stroke-width: 1.0;"/><path d="M1223.4731,775.1978 Q1222.8921,775.4966 1222.2529,775.646 Q1221.6138,775.7954 1220.9082,775.7954 Q1218.4014,775.7954 1217.0815,774.1436 Q1215.7617,772.4917 1215.7617,769.3706 Q1215.7617,766.2412 1217.0815,764.5894 Q1218.4014,762.9375 1220.9082,762.9375 Q1221.6138,762.9375 1222.2612,763.0869 Q1222.9087,763.2363 1223.4731,763.5352 L1223.4731,766.2578 Q1222.8423,765.6768 1222.2488,765.407 Q1221.6553,765.1372 1221.0244,765.1372 Q1219.6797,765.1372 1218.9949,766.2039 Q1218.3101,767.2705 1218.3101,769.3706 Q1218.3101,771.4624 1218.9949,772.5291 Q1219.6797,773.5957 1221.0244,773.5957 Q1221.6553,773.5957 1222.2488,773.3259 Q1222.8423,773.0562 1223.4731,772.4751 Z "/><text fill="#000000" font-family="sans-serif" font-size="12" lengthAdjust="spacingAndGlyphs" textLength="110" x="1234.5" y="774.0898">ExpressionAdditive</text><line style="stroke: #383838; stroke-width: 1.5;" x1="1206.5" x2="1346.5" y1="785.5547" y2="785.5547"/><line style="stroke: #383838; stroke-width: 1.5;" x1="1206.5" x2="1346.5" y1="793.5547" y2="793.5547"/><rect fill="#FFFFFF" height="48" style="stroke: #383838; stroke-width: 1.5;" width="163" x="936" y="753.5547"/><ellipse cx="951" cy="769.5547" fill="#C2C2C2" rx="11" ry="11" style="stroke: #383838; stroke-width: 1.0;"/><path d="M953.9731,775.1978 Q953.3921,775.4966 952.7529,775.646 Q952.1138,775.7954 951.4082,775.7954 Q948.9014,775.7954 947.5815,774.1436 Q946.2617,772.4917 946.2617,769.3706 Q946.2617,766.2412 947.5815,764.5894 Q948.9014,762.9375 951.4082,762.9375 Q952.1138,762.9375 952.7612,763.0869 Q953.4087,763.2363 953.9731,763.5352 L953.9731,766.2578 Q953.3423,765.6768 952.7488,765.407 Q952.1553,765.1372 951.5244,765.1372 Q950.1797,765.1372 949.4949,766.2039 Q948.8101,767.2705 948.8101,769.3706 Q948.8101,771.4624 949.4949,772.5291 Q950.1797,773.5957 951.5244,773.5957 Q952.1553,773.5957 952.7488,773.3259 Q953.3423,773.0562 953.9731,772.4751 Z "/><text fill="#000000" font-family="sans-serif" font-size="12" lengthAdjust="spacingAndGlyphs" textLength="131" x="965" y="774.0898">ExpressionSoustractive</text><line style="stroke: #383838; stroke-width: 1.5;" x1="937" x2="1098" y1="785.5547" y2="785.5547"/><line style="stroke: #383838; stroke-width: 1.5;" x1="937" x2="1098" y1="793.5547" y2="793.5547"/><rect fill="#FFFFFF" height="48" style="stroke: #383838; stroke-width: 1.5;" width="70" x="1111.5" y="862.5547"/><ellipse cx="1126.5" cy="878.5547" fill="#C2C2C2" rx="11" ry="11" style="stroke: #383838; stroke-width: 1.0;"/><path d="M1129.4731,884.1978 Q1128.8921,884.4966 1128.2529,884.646 Q1127.6138,884.7954 1126.9082,884.7954 Q1124.4014,884.7954 1123.0815,883.1436 Q1121.7617,881.4917 1121.7617,878.3706 Q1121.7617,875.2412 1123.0815,873.5894 Q1124.4014,871.9375 1126.9082,871.9375 Q1127.6138,871.9375 1128.2612,872.0869 Q1128.9087,872.2363 1129.4731,872.5352 L1129.4731,875.2578 Q1128.8423,874.6768 1128.2488,874.407 Q1127.6553,874.1372 1127.0244,874.1372 Q1125.6797,874.1372 1124.9949,875.2039 Q1124.3101,876.2705 1124.3101,878.3706 Q1124.3101,880.4624 1124.9949,881.5291 Q1125.6797,882.5957 1127.0244,882.5957 Q1127.6553,882.5957 1128.2488,882.3259 Q1128.8423,882.0562 1129.4731,881.4751 Z "/><text fill="#000000" font-family="sans-serif" font-size="12" lengthAdjust="spacingAndGlyphs" textLength="38" x="1140.5" y="883.0898">Terme</text><line style="stroke: #383838; stroke-width: 1.5;" x1="1112.5" x2="1180.5" y1="894.5547" y2="894.5547"/><line style="stroke: #383838; stroke-width: 1.5;" x1="1112.5" x2="1180.5" y1="902.5547" y2="902.5547"/><rect fill="#FFFFFF" height="48" style="stroke: #383838; stroke-width: 1.5;" width="119" x="1080" y="987.5547"/><ellipse cx="1095" cy="1003.5547" fill="#C2C2C2" rx="11" ry="11" style="stroke: #383838; stroke-width: 1.0;"/><path d="M1097.9731,1009.1978 Q1097.3921,1009.4966 1096.7529,1009.646 Q1096.1138,1009.7954 1095.4082,1009.7954 Q1092.9014,1009.7954 1091.5815,1008.1436 Q1090.2617,1006.4917 1090.2617,1003.3706 Q1090.2617,1000.2412 1091.5815,998.5894 Q1092.9014,996.9375 1095.4082,996.9375 Q1096.1138,996.9375 1096.7612,997.0869 Q1097.4087,997.2363 1097.9731,997.5352 L1097.9731,1000.2578 Q1097.3423,999.6768 1096.7488,999.407 Q1096.1553,999.1372 1095.5244,999.1372 Q1094.1797,999.1372 1093.4949,1000.2039 Q1092.8101,1001.2705 1092.8101,1003.3706 Q1092.8101,1005.4624 1093.4949,1006.5291 Q1094.1797,1007.5957 1095.5244,1007.5957 Q1096.1553,1007.5957 1096.7488,1007.3259 Q1097.3423,1007.0562 1097.9731,1006.4751 Z "/><text fill="#000000" font-family="sans-serif" font-size="12" lengthAdjust="spacingAndGlyphs" textLength="87" x="1109" y="1008.0898">ExpressionMult</text><line style="stroke: #383838; stroke-width: 1.5;" x1="1081" x2="1198" y1="1019.5547" y2="1019.5547"/><line style="stroke: #383838; stroke-width: 1.5;" x1="1081" x2="1198" y1="1027.5547" y2="1027.5547"/><rect fill="#FFFFFF" height="48" style="stroke: #383838; stroke-width: 1.5;" width="113" x="1234" y="987.5547"/><ellipse cx="1249" cy="1003.5547" fill="#C2C2C2" rx="11" ry="11" style="stroke: #383838; stroke-width: 1.0;"/><path d="M1251.9731,1009.1978 Q1251.3921,1009.4966 1250.7529,1009.646 Q1250.1138,1009.7954 1249.4082,1009.7954 Q1246.9014,1009.7954 1245.5815,1008.1436 Q1244.2617,1006.4917 1244.2617,1003.3706 Q1244.2617,1000.2412 1245.5815,998.5894 Q1246.9014,996.9375 1249.4082,996.9375 Q1250.1138,996.9375 1250.7612,997.0869 Q1251.4087,997.2363 1251.9731,997.5352 L1251.9731,1000.2578 Q1251.3423,999.6768 1250.7488,999.407 Q1250.1553,999.1372 1249.5244,999.1372 Q1248.1797,999.1372 1247.4949,1000.2039 Q1246.8101,1001.2705 1246.8101,1003.3706 Q1246.8101,1005.4624 1247.4949,1006.5291 Q1248.1797,1007.5957 1249.5244,1007.5957 Q1250.1553,1007.5957 1250.7488,1007.3259 Q1251.3423,1007.0562 1251.9731,1006.4751 Z "/><text fill="#000000" font-family="sans-serif" font-size="12" lengthAdjust="spacingAndGlyphs" textLength="81" x="1263" y="1008.0898">ExpressionDiv</text><line style="stroke: #383838; stroke-width: 1.5;" x1="1235" x2="1346" y1="1019.5547" y2="1019.5547"/><line style="stroke: #383838; stroke-width: 1.5;" x1="1235" x2="1346" y1="1027.5547" y2="1027.5547"/><rect fill="#FFFFFF" height="48" style="stroke: #383838; stroke-width: 1.5;" width="74" x="1142.5" y="1096.5547"/><ellipse cx="1157.5" cy="1112.5547" fill="#C2C2C2" rx="11" ry="11" style="stroke: #383838; stroke-width: 1.0;"/><path d="M1160.4731,1118.1978 Q1159.8921,1118.4966 1159.2529,1118.646 Q1158.6138,1118.7954 1157.9082,1118.7954 Q1155.4014,1118.7954 1154.0815,1117.1436 Q1152.7617,1115.4917 1152.7617,1112.3706 Q1152.7617,1109.2412 1154.0815,1107.5894 Q1155.4014,1105.9375 1157.9082,1105.9375 Q1158.6138,1105.9375 1159.2612,1106.0869 Q1159.9087,1106.2363 1160.4731,1106.5352 L1160.4731,1109.2578 Q1159.8423,1108.6768 1159.2488,1108.407 Q1158.6553,1108.1372 1158.0244,1108.1372 Q1156.6797,1108.1372 1155.9949,1109.2039 Q1155.3101,1110.2705 1155.3101,1112.3706 Q1155.3101,1114.4624 1155.9949,1115.5291 Q1156.6797,1116.5957 1158.0244,1116.5957 Q1158.6553,1116.5957 1159.2488,1116.3259 Q1159.8423,1116.0562 1160.4731,1115.4751 Z "/><text fill="#000000" font-family="sans-serif" font-size="12" lengthAdjust="spacingAndGlyphs" textLength="42" x="1171.5" y="1117.0898">Facteur</text><line style="stroke: #383838; stroke-width: 1.5;" x1="1143.5" x2="1215.5" y1="1128.5547" y2="1128.5547"/><line style="stroke: #383838; stroke-width: 1.5;" x1="1143.5" x2="1215.5" y1="1136.5547" y2="1136.5547"/><rect fill="#FFFFFF" height="48" style="stroke: #383838; stroke-width: 1.5;" width="166" x="1120.5" y="1205.5547"/><ellipse cx="1135.5" cy="1221.5547" fill="#C2C2C2" rx="11" ry="11" style="stroke: #383838; stroke-width: 1.0;"/><path d="M1138.4731,1227.1978 Q1137.8921,1227.4966 1137.2529,1227.646 Q1136.6138,1227.7954 1135.9082,1227.7954 Q1133.4014,1227.7954 1132.0815,1226.1436 Q1130.7617,1224.4917 1130.7617,1221.3706 Q1130.7617,1218.2412 1132.0815,1216.5894 Q1133.4014,1214.9375 1135.9082,1214.9375 Q1136.6138,1214.9375 1137.2612,1215.0869 Q1137.9087,1215.2363 1138.4731,1215.5352 L1138.4731,1218.2578 Q1137.8423,1217.6768 1137.2488,1217.407 Q1136.6553,1217.1372 1136.0244,1217.1372 Q1134.6797,1217.1372 1133.9949,1218.2039 Q1133.3101,1219.2705 1133.3101,1221.3706 Q1133.3101,1223.4624 1133.9949,1224.5291 Q1134.6797,1225.5957 1136.0244,1225.5957 Q1136.6553,1225.5957 1137.2488,1225.3259 Q1137.8423,1225.0562 1138.4731,1224.4751 Z "/><text fill="#000000" font-family="sans-serif" font-size="12" lengthAdjust="spacingAndGlyphs" textLength="134" x="1149.5" y="1226.0898">ExpressionParenthesee</text><line style="stroke: #383838; stroke-width: 1.5;" x1="1121.5" x2="1285.5" y1="1237.5547" y2="1237.5547"/><line style="stroke: #383838; stroke-width: 1.5;" x1="1121.5" x2="1285.5" y1="1245.5547" y2="1245.5547"/><rect fill="#FFFFFF" height="48" style="stroke: #383838; stroke-width: 1.5;" width="153" x="1322" y="1205.5547"/><ellipse cx="1337" cy="1221.5547" fill="#C2C2C2" rx="11" ry="11" style="stroke: #383838; stroke-width: 1.0;"/><path d="M1339.9731,1227.1978 Q1339.3921,1227.4966 1338.7529,1227.646 Q1338.1138,1227.7954 1337.4082,1227.7954 Q1334.9014,1227.7954 1333.5815,1226.1436 Q1332.2617,1224.4917 1332.2617,1221.3706 Q1332.2617,1218.2412 1333.5815,1216.5894 Q1334.9014,1214.9375 1337.4082,1214.9375 Q1338.1138,1214.9375 1338.7612,1215.0869 Q1339.4087,1215.2363 1339.9731,1215.5352 L1339.9731,1218.2578 Q1339.3423,1217.6768 1338.7488,1217.407 Q1338.1553,1217.1372 1337.5244,1217.1372 Q1336.1797,1217.1372 1335.4949,1218.2039 Q1334.8101,1219.2705 1334.8101,1221.3706 Q1334.8101,1223.4624 1335.4949,1224.5291 Q1336.1797,1225.5957 1337.5244,1225.5957 Q1338.1553,1225.5957 1338.7488,1225.3259 Q1339.3423,1225.0562 1339.9731,1224.4751 Z "/><text fill="#000000" font-family="sans-serif" font-size="12" lengthAdjust="spacingAndGlyphs" textLength="121" x="1351" y="1226.0898">ConstanteNumerique</text><line style="stroke: #383838; stroke-width: 1.5;" x1="1323" x2="1474" y1="1237.5547" y2="1237.5547"/><line style="stroke: #383838; stroke-width: 1.5;" x1="1323" x2="1474" y1="1245.5547" y2="1245.5547"/><path d="M1003.651,187.0247 C1015.26,202.6447 1026.79,218.1547 1036.58,231.3347 " fill="none" style="stroke: #383838; stroke-width: 1.0;"/><polygon fill="none" points="997.906,191.0347,991.595,170.8047,1009.14,182.6847,997.906,191.0347" style="stroke: #383838; stroke-width: 1.0;"/><path d="M949.235,190.6147 C955.128,250.3447 962.537,325.4647 966.564,366.2947 " fill="none" style="stroke: #383838; stroke-width: 1.0;"/><polygon fill="none" points="942.26,191.2047,947.263,170.6147,956.192,189.8347,942.26,191.2047" style="stroke: #383838; stroke-width: 1.0;"/><path d="M1024.9,131.4247 C1070.42,151.9747 1122.81,184.3247 1150.5,231.5547 C1174.94,273.2247 1170.16,331.5647 1164.09,366.4147 " fill="none" style="stroke: #383838; stroke-width: 1.0;"/><polygon fill="none" points="1021.88,137.7447,1006.23,123.4547,1027.37,124.8647,1021.88,137.7447" style="stroke: #383838; stroke-width: 1.0;"/><path d="M1026.41,110.4347 C1151.81,124.0447 1377.29,154.2247 1443.5,200.5547 C1502.45,241.8047 1537.13,322.8347 1552.31,366.5047 " fill="none" style="stroke: #383838; stroke-width: 1.0;"/><polygon fill="none" points="1025.59,117.3847,1006.44,108.3147,1027.07,103.4647,1025.59,117.3847" style="stroke: #383838; stroke-width: 1.0;"/><path d="M861.03,180.9547 C854.994,187.4847 849.084,194.0747 843.5,200.5547 C817.79,230.3947 752.156,319.6347 717.955,366.5247 " fill="none" style="stroke: #383838; stroke-width: 1.0;"/><polygon fill="none" points="855.995,176.0847,874.805,166.3347,866.185,185.6847,855.995,176.0847" style="stroke: #383838; stroke-width: 1.0;"/><path d="M1024.88,133.6947 C1065.42,150.6947 1113.71,173.6947 1153.5,200.5547 C1255.34,269.2847 1325.66,241.7347 1421.5,488.5547 C1446.76,553.6107 1370.21,613.1467 1318.91,644.4607 " fill="none" style="stroke: #383838; stroke-width: 1.0;"/><polygon fill="none" points="1022.13,140.1247,1006.27,126.0747,1027.43,127.1747,1022.13,140.1247" style="stroke: #383838; stroke-width: 1.0;"/><path d="M854.721,108.5247 C707.266,121.3047 397.388,155.4247 146.5,231.5547 C135.25,234.9647 123.522,239.6447 112.651,244.4947 " fill="none" style="stroke: #383838; stroke-width: 1.0;"/><polygon fill="none" points="854.331,101.5347,874.849,106.8347,855.508,115.4847,854.331,101.5347" style="stroke: #383838; stroke-width: 1.0;"/><path d="M854.995,123.1247 C760.952,146.9247 605.741,188.0347 474.5,231.5547 C462.832,235.4247 450.483,239.9147 438.728,244.3847 " fill="none" style="stroke: #383838; stroke-width: 1.0;"/><polygon fill="none" points="853.571,116.2647,874.675,118.1747,856.988,129.8447,853.571,116.2647" style="stroke: #383838; stroke-width: 1.0;"/><path d="M855.987,135.1247 C792.016,160.5347 702.2,197.0247 624.5,231.5547 C615.393,235.6047 605.747,240.0847 596.514,244.4747 " fill="none" style="stroke: #383838; stroke-width: 1.0;"/><polygon fill="none" points="853.796,128.4647,874.969,127.6147,858.951,141.4847,853.796,128.4647" style="stroke: #383838; stroke-width: 1.0;"/><path d="M857.015,147.1947 C829.464,163.0847 799.083,181.7047 772.5,200.5547 C753.576,213.9747 733.664,230.8847 718.565,244.3547 " fill="none" style="stroke: #383838; stroke-width: 1.0;"/><polygon fill="none" points="853.796,140.9747,874.642,137.1747,860.716,153.1447,853.796,140.9747" style="stroke: #383838; stroke-width: 1.0;"/><path d="M854.599,111.5247 C728.002,127.1647 485.078,163.6347 288.5,231.5547 C278.442,235.0347 268.011,239.6747 258.341,244.4647 " fill="none" style="stroke: #383838; stroke-width: 1.0;"/><polygon fill="none" points="853.938,104.5547,874.633,109.1047,855.617,118.4547,853.938,104.5547" style="stroke: #383838; stroke-width: 1.0;"/><path d="M924.558,190.5247 C907.025,263.4547 871.878,364.7847 804.5,427.5547 C742.389,485.4217 684.044,429.0507 623.5,488.5547 C589.512,521.9587 587.5,541.8997 587.5,589.5547 C587.5,589.5547 587.5,589.5547 587.5,1230.5547 C587.5,1321.2947 717.45,1348.4761 791.815,1356.602 " fill="none" style="stroke: #383838; stroke-width: 1.0;"/><polygon fill="none" points="917.791,188.7047,929.048,170.7547,931.443,191.8147,917.791,188.7047" style="stroke: #383838; stroke-width: 1.0;"/><path d="M1026.17,102.6847 C1225.88,106.4447 1705.5,129.8347 1705.5,267.5547 C1705.5,267.5547 1705.5,267.5547 1705.5,1230.5547 C1705.5,1270.5517 1675.87,1306.6554 1650.06,1330.5178 " fill="none" style="stroke: #383838; stroke-width: 1.0;"/><polygon fill="none" points="1025.94,109.6747,1006.05,102.3447,1026.17,95.6747,1025.94,109.6747" style="stroke: #383838; stroke-width: 1.0;"/><path d="M1026.29,106.9147 C1203.84,117.9147 1605.52,147.9247 1731.5,200.5547 C1755.43,210.5547 1778.26,229.2347 1794.22,244.3447 " fill="none" style="stroke: #383838; stroke-width: 1.0;"/><polygon fill="none" points="1025.82,113.8947,1006.29,105.6947,1026.67,99.9247,1025.82,113.8947" style="stroke: #383838; stroke-width: 1.0;"/><path d="M1026.17,109.3347 C1175.44,122.6847 1492.57,154.0747 1757.5,200.5547 C1817.71,211.1147 1833.82,211.3147 1891.5,231.5547 C1901.72,235.1447 1912.39,239.7147 1922.37,244.3947 " fill="none" style="stroke: #383838; stroke-width: 1.0;"/><polygon fill="none" points="1025.55,116.3047,1006.25,107.5647,1026.79,102.3547,1025.55,116.3047" style="stroke: #383838; stroke-width: 1.0;"/><path d="M1028.65,316.4547 C1016.28,333.1047 1002.708,351.3647 991.686,366.1947 " fill="none" style="stroke: #383838; stroke-width: 1.0;"/><polygon fill="#383838" points="1036.56,305.8047,1029.7695,308.2316,1029.398,315.4331,1036.1885,313.0062,1036.56,305.8047" style="stroke: #383838; stroke-width: 1.0;"/><path d="M1098.35,316.4547 C1110.72,333.1047 1124.29,351.3647 1135.31,366.1947 " fill="none" style="stroke: #383838; stroke-width: 1.0;"/><polygon fill="#383838" points="1090.44,305.8047,1090.8115,313.0062,1097.602,315.4331,1097.2305,308.2316,1090.44,305.8047" style="stroke: #383838; stroke-width: 1.0;"/><path d="M874.997,433.2557 C855.813,440.9027 835.887,449.2107 817.5,457.5547 C796.751,466.9707 774.251,478.4837 755.504,488.4567 " fill="none" style="stroke: #383838; stroke-width: 1.0;"/><polygon fill="none" points="872.675,426.6477,893.85,425.8537,877.792,439.6797,872.675,426.6477" style="stroke: #383838; stroke-width: 1.0;"/><path d="M969.5,447.9817 C969.5,462.0087 969.5,476.6007 969.5,488.2607 " fill="none" style="stroke: #383838; stroke-width: 1.0;"/><polygon fill="none" points="962.5,447.5797,969.5,427.5787,976.5,447.5787,962.5,447.5797" style="stroke: #383838; stroke-width: 1.0;"/><path d="M700.922,427.5787 C703.091,442.0627 705.725,459.6457 708.021,474.9727 " fill="none" style="stroke: #383838; stroke-width: 1.0;"/><polygon fill="#383838" points="710.011,488.2607,713.078,481.7343,708.2333,476.3931,705.1663,482.9195,710.011,488.2607" style="stroke: #383838; stroke-width: 1.0;"/><path d="M1470.3,412.9327 C1370.19,429.6597 1204.88,458.4397 1063.5,488.5547 C1062.12,488.8477 1060.74,489.1467 1059.34,489.4497 " fill="none" style="stroke: #383838; stroke-width: 1.0;"/><polygon fill="#383838" points="1046.62,492.2907,1053.3494,494.882,1058.3296,489.6669,1051.6002,487.0756,1046.62,492.2907" style="stroke: #383838; stroke-width: 1.0;"/><path d="M1063.68,427.3657 C982.915,452.7067 878.655,485.7177 874.5,488.5547 C844.657,508.9357 820.087,543.2937 805.856,566.1957 " fill="none" style="stroke: #383838; stroke-width: 1.0;"/><polygon fill="none" points="1061.68,420.6597,1082.85,421.3567,1065.86,434.0187,1061.68,420.6597" style="stroke: #383838; stroke-width: 1.0;"/><path d="M1221.28,438.4987 C1247.72,455.2597 1277.42,474.0967 1300.05,488.4437 " fill="none" style="stroke: #383838; stroke-width: 1.0;"/><polygon fill="none" points="1217.21,444.2007,1204.06,427.5787,1224.7,432.3777,1217.21,444.2007" style="stroke: #383838; stroke-width: 1.0;"/><path d="M1157.5,447.9817 C1157.5,462.0087 1157.5,476.6007 1157.5,488.2607 " fill="none" style="stroke: #383838; stroke-width: 1.0;"/><polygon fill="none" points="1150.5,447.5797,1157.5,427.5787,1164.5,447.5787,1150.5,447.5797" style="stroke: #383838; stroke-width: 1.0;"/><path d="M796.758,627.8027 C799.479,654.0697 802.5,690.4597 802.5,722.5547 C802.5,722.5547 802.5,722.5547 802.5,1230.5547 C802.5,1266.0857 816.417,1304.7566 827.833,1330.5012 " fill="none" style="stroke: #383838; stroke-width: 1.0;"/><polygon fill="#383838" points="795.339,614.7047,792.0083,621.1005,796.6312,626.6349,799.9618,620.2391,795.339,614.7047" style="stroke: #383838; stroke-width: 1.0;"/><text fill="#000000" font-family="sans-serif" font-size="13" lengthAdjust="spacingAndGlyphs" textLength="12" x="803.5" y="954.123">id</text><path d="M1077.65,541.1017 C996.451,571.6147 882.5,622.4687 882.5,667.5547 C882.5,667.5547 882.5,667.5547 882.5,1230.5547 C882.5,1266.0857 868.583,1304.7566 857.167,1330.5012 " fill="none" style="stroke: #383838; stroke-width: 1.0;"/><polygon fill="#383838" points="1089.88,536.5667,1082.8625,534.9068,1078.6313,540.7461,1085.6488,542.4059,1089.88,536.5667" style="stroke: #383838; stroke-width: 1.0;"/><text fill="#000000" font-family="sans-serif" font-size="13" lengthAdjust="spacingAndGlyphs" textLength="12" x="883.5" y="954.123">id</text><path d="M1322.78,548.7747 C1311.36,578.0877 1295.42,618.9877 1285.54,644.3417 " fill="none" style="stroke: #383838; stroke-width: 1.0;"/><polygon fill="#383838" points="1327.52,536.6097,1321.6151,540.7488,1323.1647,547.7914,1329.0696,543.6523,1327.52,536.6097" style="stroke: #383838; stroke-width: 1.0;"/><path d="M1183.51,547.2087 C1206.23,576.6157 1238.62,618.5327 1258.56,644.3417 " fill="none" style="stroke: #383838; stroke-width: 1.0;"/><polygon fill="#383838" points="1175.32,536.6097,1175.8238,543.8032,1182.6577,546.1049,1182.1539,538.9114,1175.32,536.6097" style="stroke: #383838; stroke-width: 1.0;"/><path d="M1263.95,713.1327 C1263.39,726.9167 1264.01,741.6117 1265.78,753.3827 " fill="none" style="stroke: #383838; stroke-width: 1.0;"/><polygon fill="none" points="1257.01,712.0667,1265.77,692.7717,1270.96,713.3177,1257.01,712.0667" style="stroke: #383838; stroke-width: 1.0;"/><path d="M1289.36,740.3037 C1290.57,724.5897 1290.07,706.6537 1287.86,692.7717 " fill="none" style="stroke: #383838; stroke-width: 1.0;"/><polygon fill="#383838" points="1287.85,753.3827,1292.5101,747.8797,1289.2228,741.4615,1284.5627,746.9645,1287.85,753.3827" style="stroke: #383838; stroke-width: 1.0;"/><path d="M1209.2,686.3107 C1178.11,696.0597 1141.43,709.0617 1109.5,722.5547 C1087.52,731.8437 1063.7,743.4537 1045.42,753.5257 " fill="none" style="stroke: #383838; stroke-width: 1.0;"/><polygon fill="none" points="1207.56,679.4957,1228.73,680.4017,1211.61,692.8957,1207.56,679.4957" style="stroke: #383838; stroke-width: 1.0;"/><path d="M1089.37,747.8467 C1107.39,739.2687 1126.55,730.1377 1144.5,722.5547 C1172.23,710.8367 1203.54,699.4887 1228.97,690.3207 " fill="none" style="stroke: #383838; stroke-width: 1.0;"/><polygon fill="#383838" points="1077.41,753.5257,1084.5465,754.5606,1088.2465,748.3711,1081.1101,747.3362,1077.41,753.5257" style="stroke: #383838; stroke-width: 1.0;"/><path d="M1229.22,705.8747 C1214.14,719.4487 1198.52,735.8937 1187.5,753.5547 C1166.04,787.9637 1155.04,834.4687 1150.05,862.1027 " fill="none" style="stroke: #383838; stroke-width: 1.0;"/><polygon fill="none" points="1224.77,700.4737,1244.53,692.8377,1233.84,711.1327,1224.77,700.4737" style="stroke: #383838; stroke-width: 1.0;"/><path d="M1284.3,1200.8617 C1338.68,1179.6787 1400.5,1149.4617 1400.5,1121.5547 C1400.5,776.5547 1400.5,776.5547 1400.5,776.5547 C1400.5,734.4717 1359.06,705.2847 1324.09,688.1477 " fill="none" style="stroke: #383838; stroke-width: 1.0;"/><polygon fill="#383838" points="1272.12,1205.5077,1279.151,1207.1091,1283.3335,1201.2349,1276.3025,1199.6334,1272.12,1205.5077" style="stroke: #383838; stroke-width: 1.0;"/><path d="M1238.09,810.1677 C1217.75,826.9107 1193.21,847.1087 1174.65,862.3827 " fill="none" style="stroke: #383838; stroke-width: 1.0;"/><polygon fill="#383838" points="1248.29,801.7717,1241.1158,802.5006,1239.0293,809.4032,1246.2035,808.6743,1248.29,801.7717" style="stroke: #383838; stroke-width: 1.0;"/><path d="M1055.61,810.1677 C1075.8,826.9107 1100.15,847.1087 1118.56,862.3827 " fill="none" style="stroke: #383838; stroke-width: 1.0;"/><polygon fill="#383838" points="1045.49,801.7717,1047.5541,808.681,1054.7259,809.4331,1052.6618,802.5238,1045.49,801.7717" style="stroke: #383838; stroke-width: 1.0;"/><path d="M1153.97,974.4597 C1157,953.8587 1157.9,928.6437 1156.01,910.6897 " fill="none" style="stroke: #383838; stroke-width: 1.0;"/><polygon fill="#383838" points="1151.62,987.5227,1156.6225,982.3289,1153.7522,975.7136,1148.7498,980.9074,1151.62,987.5227" style="stroke: #383838; stroke-width: 1.0;"/><path d="M1131.81,930.7267 C1129.61,949.8477 1129.05,971.5707 1130.61,987.5227 " fill="none" style="stroke: #383838; stroke-width: 1.0;"/><polygon fill="none" points="1124.94,929.3597,1134.96,910.6897,1138.77,931.5347,1124.94,929.3597" style="stroke: #383838; stroke-width: 1.0;"/><path d="M1264.36,977.9057 C1241.01,955.9787 1207.4,927.7257 1181.74,908.6987 " fill="none" style="stroke: #383838; stroke-width: 1.0;"/><polygon fill="#383838" points="1273.99,987.1737,1272.4403,980.1311,1265.3434,978.8528,1266.8931,985.8954,1273.99,987.1737" style="stroke: #383838; stroke-width: 1.0;"/><path d="M1178.13,924.6597 C1200.41,945.1097 1229.92,969.8557 1253.33,987.5227 " fill="none" style="stroke: #383838; stroke-width: 1.0;"/><polygon fill="none" points="1173.08,929.5207,1163.36,910.6897,1182.7,919.3517,1173.08,929.5207" style="stroke: #383838; stroke-width: 1.0;"/><path d="M1102.57,924.6177 C1073.02,954.2687 1042.77,997.1017 1062.5,1035.5547 C1079.17,1068.0367 1114.88,1090.7907 1142.49,1104.3467 " fill="none" style="stroke: #383838; stroke-width: 1.0;"/><polygon fill="none" points="1097.88,919.4157,1117.24,910.8017,1107.48,929.6087,1097.88,919.4157" style="stroke: #383838; stroke-width: 1.0;"/><path d="M1189.16,1164.6407 C1192.29,1178.5667 1195.63,1193.4717 1198.3,1205.3827 " fill="none" style="stroke: #383838; stroke-width: 1.0;"/><polygon fill="none" points="1182.25,1165.8197,1184.71,1144.7717,1195.92,1162.7547,1182.25,1165.8197" style="stroke: #383838; stroke-width: 1.0;"/><path d="M1152.89,1048.3817 C1158.81,1064.2127 1165.6,1082.3697 1170.84,1096.3827 " fill="none" style="stroke: #383838; stroke-width: 1.0;"/><polygon fill="#383838" points="1148.18,1035.7717,1146.5356,1042.7928,1152.3842,1047.0111,1154.0286,1039.99,1148.18,1035.7717" style="stroke: #383838; stroke-width: 1.0;"/><path d="M1256.75,1045.0927 C1239.57,1061.6507 1219.09,1081.3887 1203.54,1096.3827 " fill="none" style="stroke: #383838; stroke-width: 1.0;"/><polygon fill="#383838" points="1266.41,1035.7717,1259.3137,1037.0532,1257.7672,1044.0965,1264.8636,1042.815,1266.41,1035.7717" style="stroke: #383838; stroke-width: 1.0;"/><path d="M1234.87,1148.6087 C1270.77,1166.1487 1317.04,1188.7567 1351.22,1205.4527 " fill="none" style="stroke: #383838; stroke-width: 1.0;"/><polygon fill="none" points="1231.55,1154.7747,1216.65,1139.7057,1237.69,1142.1957,1231.55,1154.7747" style="stroke: #383838; stroke-width: 1.0;"/><path d="M1125.9,1155.4927 C1100.21,1171.7537 1070.12,1190.8097 1047.1,1205.3827 " fill="none" style="stroke: #383838; stroke-width: 1.0;"/><polygon fill="none" points="1122.19,1149.5567,1142.83,1144.7717,1129.68,1161.3847,1122.19,1149.5567" style="stroke: #383838; stroke-width: 1.0;"/><path d="M1543.15,440.1067 C1535.56,461.1477 1528.5,487.2537 1528.5,511.5547 C1528.5,511.5547 1528.5,511.5547 1528.5,1230.5547 C1528.5,1263.1657 1531.9,1280.1037 1506.5,1300.5547 C1459.03,1338.7729 1040.19,1354.3797 893.212,1358.7116 " fill="none" style="stroke: #383838; stroke-width: 1.0;"/><polygon fill="#383838" points="1547.89,427.7227,1542.011,431.8984,1543.6044,438.9313,1549.4834,434.7555,1547.89,427.7227" style="stroke: #383838; stroke-width: 1.0;"/><text fill="#000000" font-family="sans-serif" font-size="13" lengthAdjust="spacingAndGlyphs" textLength="12" x="1529.5" y="891.623">id</text><path d="M1589.86,438.9987 C1601.59,459.7727 1612.5,485.9727 1612.5,511.5547 C1612.5,511.5547 1612.5,511.5547 1612.5,1230.5547 C1612.5,1264.8407 1612.5,1304.2328 1612.5,1330.4808 " fill="none" style="stroke: #383838; stroke-width: 1.0;"/><polygon fill="#383838" points="1583.13,427.7487,1582.7768,434.9511,1589.2894,438.0473,1589.6426,430.8449,1583.13,427.7487" style="stroke: #383838; stroke-width: 1.0;"/><text fill="#000000" font-family="sans-serif" font-size="13" lengthAdjust="spacingAndGlyphs" textLength="38" x="1613.5" y="891.623">valeur</text><path d="M593.193,424.6037 C553.04,441.6887 516.5,468.9427 516.5,511.5547 C516.5,511.5547 516.5,511.5547 516.5,1230.5547 C516.5,1267.5397 531.06,1279.5477 561.5,1300.5547 C631.066,1348.5631 731.699,1359.082 791.762,1360.7094 " fill="none" style="stroke: #383838; stroke-width: 1.0;"/><polygon fill="#383838" points="605.445,419.7287,598.3913,418.2302,594.2951,424.1649,601.3488,425.6634,605.445,419.7287" style="stroke: #383838; stroke-width: 1.0;"/><text fill="#000000" font-family="sans-serif" font-size="13" lengthAdjust="spacingAndGlyphs" textLength="12" x="517.5" y="891.623">id</text><path d="M1448.07,1260.5527 C1482.83,1281.5857 1529.07,1309.57 1563.67,1330.5033 " fill="none" style="stroke: #383838; stroke-width: 1.0;"/><polygon fill="#383838" points="1436.76,1253.7067,1439.823,1260.2349,1447.0272,1259.9184,1443.9642,1253.3902,1436.76,1253.7067" style="stroke: #383838; stroke-width: 1.0;"/><text fill="#000000" font-family="sans-serif" font-size="13" lengthAdjust="spacingAndGlyphs" textLength="38" x="1513.5" y="1297.123">valeur</text><path d="M970.152,1261.6567 C943.038,1282.5567 907.521,1309.9341 880.837,1330.5033 " fill="none" style="stroke: #383838; stroke-width: 1.0;"/><polygon fill="#383838" points="980.465,1253.7067,973.2709,1254.2021,970.9613,1261.0333,978.1553,1260.5379,980.465,1253.7067" style="stroke: #383838; stroke-width: 1.0;"/><text fill="#000000" font-family="sans-serif" font-size="13" lengthAdjust="spacingAndGlyphs" textLength="12" x="943.5" y="1297.123">id</text></g></svg>