<?xml version="1.0" encoding="UTF-8" standalone="yes"?><svg xmlns="http://www.w3.org/2000/svg" xmlns:xlink="http://www.w3.org/1999/xlink" height="878px" style="width:3006px;height:878px;" version="1.1" viewBox="0 0 3006 878" width="3006px"><defs/><g><text fill="#000000" font-family="sans-serif" font-size="20" lengthAdjust="spacingAndGlyphs" textLength="206" x="1409" y="19.3359">Diagramme de classe</text><rect fill="#FFFFFF" height="138.6855" style="stroke: #383838; stroke-width: 1.5;" width="131" x="915" y="31.5547"/><ellipse cx="952.95" cy="47.5547" fill="#C2C2C2" rx="11" ry="11" style="stroke: #383838; stroke-width: 1.0;"/><path d="M955.9231,53.1978 Q955.3421,53.4966 954.7029,53.646 Q954.0638,53.7954 953.3582,53.7954 Q950.8514,53.7954 949.5315,52.1436 Q948.2117,50.4917 948.2117,47.3706 Q948.2117,44.2412 949.5315,42.5894 Q950.8514,40.9375 953.3582,40.9375 Q954.0638,40.9375 954.7112,41.0869 Q955.3587,41.2363 955.9231,41.5352 L955.9231,44.2578 Q955.2923,43.6768 954.6988,43.407 Q954.1053,43.1372 953.4744,43.1372 Q952.1297,43.1372 951.4449,44.2039 Q950.7601,45.2705 950.7601,47.3706 Q950.7601,49.4624 951.4449,50.5291 Q952.1297,51.5957 953.4744,51.5957 Q954.1053,51.5957 954.6988,51.3259 Q955.2923,51.0562 955.9231,50.4751 Z "/><text fill="#000000" font-family="sans-serif" font-size="12" lengthAdjust="spacingAndGlyphs" textLength="48" x="972.05" y="52.0898">Symbole</text><line style="stroke: #383838; stroke-width: 1.5;" x1="916" x2="1045" y1="63.5547" y2="63.5547"/><polygon fill="none" points="926,71.5322,922,77.5322,930,77.5322" style="stroke: #535353; stroke-width: 1.0;"/><text fill="#000000" font-family="sans-serif" font-size="11" lengthAdjust="spacingAndGlyphs" textLength="27" x="935" y="78.1895">int id</text><line style="stroke: #383838; stroke-width: 1.5;" x1="916" x2="1045" y1="84.5098" y2="84.5098"/><ellipse cx="926" cy="96.4873" fill="#A6A6A6" rx="3" ry="3" style="stroke: #545454; stroke-width: 1.0;"/><text fill="#000000" font-family="sans-serif" font-size="11" lengthAdjust="spacingAndGlyphs" textLength="83" x="935" y="99.1445">Symbole (int id)</text><ellipse cx="926" cy="109.4424" fill="#A6A6A6" rx="3" ry="3" style="stroke: #545454; stroke-width: 1.0;"/><text fill="#000000" font-family="sans-serif" font-size="11" lengthAdjust="spacingAndGlyphs" textLength="105" x="935" y="112.0996">operator int() const</text><ellipse cx="926" cy="122.3975" fill="#A6A6A6" rx="3" ry="3" style="stroke: #545454; stroke-width: 1.0;"/><text fill="#000000" font-family="sans-serif" font-size="11" lengthAdjust="spacingAndGlyphs" textLength="81" x="935" y="125.0547">void exectuer()</text><ellipse cx="926" cy="135.3525" fill="#A6A6A6" rx="3" ry="3" style="stroke: #545454; stroke-width: 1.0;"/><text fill="#000000" font-family="sans-serif" font-size="11" lengthAdjust="spacingAndGlyphs" textLength="75" x="935" y="138.0098">void afficher()</text><ellipse cx="926" cy="148.3076" fill="#A6A6A6" rx="3" ry="3" style="stroke: #545454; stroke-width: 1.0;"/><text fill="#000000" font-family="sans-serif" font-size="11" lengthAdjust="spacingAndGlyphs" textLength="79" x="935" y="150.9648">void analyser()</text><ellipse cx="926" cy="161.2627" fill="#A6A6A6" rx="3" ry="3" style="stroke: #545454; stroke-width: 1.0;"/><text fill="#000000" font-family="sans-serif" font-size="11" lengthAdjust="spacingAndGlyphs" textLength="85" x="935" y="163.9199">void optimiser()</text><rect fill="#FFFFFF" height="48" style="stroke: #383838; stroke-width: 1.5;" width="123" x="6" y="251.0547"/><ellipse cx="21" cy="267.0547" fill="#C2C2C2" rx="11" ry="11" style="stroke: #383838; stroke-width: 1.0;"/><path d="M23.9731,272.6978 Q23.3921,272.9966 22.7529,273.146 Q22.1138,273.2954 21.4082,273.2954 Q18.9014,273.2954 17.5815,271.6436 Q16.2617,269.9917 16.2617,266.8706 Q16.2617,263.7412 17.5815,262.0894 Q18.9014,260.4375 21.4082,260.4375 Q22.1138,260.4375 22.7612,260.5869 Q23.4087,260.7363 23.9731,261.0352 L23.9731,263.7578 Q23.3423,263.1768 22.7488,262.907 Q22.1553,262.6372 21.5244,262.6372 Q20.1797,262.6372 19.4949,263.7039 Q18.8101,264.7705 18.8101,266.8706 Q18.8101,268.9624 19.4949,270.0291 Q20.1797,271.0957 21.5244,271.0957 Q22.1553,271.0957 22.7488,270.8259 Q23.3423,270.5562 23.9731,269.9751 Z "/><text fill="#000000" font-family="sans-serif" font-size="12" lengthAdjust="spacingAndGlyphs" textLength="91" x="35" y="271.5898">VirguleTerminal</text><line style="stroke: #383838; stroke-width: 1.5;" x1="7" x2="128" y1="283.0547" y2="283.0547"/><line style="stroke: #383838; stroke-width: 1.5;" x1="7" x2="128" y1="291.0547" y2="291.0547"/><rect fill="#FFFFFF" height="48" style="stroke: #383838; stroke-width: 1.5;" width="107" x="164" y="251.0547"/><ellipse cx="179" cy="267.0547" fill="#C2C2C2" rx="11" ry="11" style="stroke: #383838; stroke-width: 1.0;"/><path d="M181.9731,272.6978 Q181.3921,272.9966 180.7529,273.146 Q180.1138,273.2954 179.4082,273.2954 Q176.9014,273.2954 175.5815,271.6436 Q174.2617,269.9917 174.2617,266.8706 Q174.2617,263.7412 175.5815,262.0894 Q176.9014,260.4375 179.4082,260.4375 Q180.1138,260.4375 180.7612,260.5869 Q181.4087,260.7363 181.9731,261.0352 L181.9731,263.7578 Q181.3423,263.1768 180.7488,262.907 Q180.1553,262.6372 179.5244,262.6372 Q178.1797,262.6372 177.4949,263.7039 Q176.8101,264.7705 176.8101,266.8706 Q176.8101,268.9624 177.4949,270.0291 Q178.1797,271.0957 179.5244,271.0957 Q180.1553,271.0957 180.7488,270.8259 Q181.3423,270.5562 181.9731,269.9751 Z "/><text fill="#000000" font-family="sans-serif" font-size="12" lengthAdjust="spacingAndGlyphs" textLength="75" x="193" y="271.5898">EgalTerminal</text><line style="stroke: #383838; stroke-width: 1.5;" x1="165" x2="270" y1="283.0547" y2="283.0547"/><line style="stroke: #383838; stroke-width: 1.5;" x1="165" x2="270" y1="291.0547" y2="291.0547"/><rect fill="#FFFFFF" height="48" style="stroke: #383838; stroke-width: 1.5;" width="151" x="306" y="251.0547"/><ellipse cx="321" cy="267.0547" fill="#C2C2C2" rx="11" ry="11" style="stroke: #383838; stroke-width: 1.0;"/><path d="M323.9731,272.6978 Q323.3921,272.9966 322.7529,273.146 Q322.1138,273.2954 321.4082,273.2954 Q318.9014,273.2954 317.5815,271.6436 Q316.2617,269.9917 316.2617,266.8706 Q316.2617,263.7412 317.5815,262.0894 Q318.9014,260.4375 321.4082,260.4375 Q322.1138,260.4375 322.7612,260.5869 Q323.4087,260.7363 323.9731,261.0352 L323.9731,263.7578 Q323.3423,263.1768 322.7488,262.907 Q322.1553,262.6372 321.5244,262.6372 Q320.1797,262.6372 319.4949,263.7039 Q318.8101,264.7705 318.8101,266.8706 Q318.8101,268.9624 319.4949,270.0291 Q320.1797,271.0957 321.5244,271.0957 Q322.1553,271.0957 322.7488,270.8259 Q323.3423,270.5562 323.9731,269.9751 Z "/><text fill="#000000" font-family="sans-serif" font-size="12" lengthAdjust="spacingAndGlyphs" textLength="119" x="335" y="271.5898">PointVirguleTerminal</text><line style="stroke: #383838; stroke-width: 1.5;" x1="307" x2="456" y1="283.0547" y2="283.0547"/><line style="stroke: #383838; stroke-width: 1.5;" x1="307" x2="456" y1="291.0547" y2="291.0547"/><rect fill="#FFFFFF" height="48" style="stroke: #383838; stroke-width: 1.5;" width="115" x="492" y="251.0547"/><ellipse cx="507" cy="267.0547" fill="#C2C2C2" rx="11" ry="11" style="stroke: #383838; stroke-width: 1.0;"/><path d="M509.9731,272.6978 Q509.3921,272.9966 508.7529,273.146 Q508.1138,273.2954 507.4082,273.2954 Q504.9014,273.2954 503.5815,271.6436 Q502.2617,269.9917 502.2617,266.8706 Q502.2617,263.7412 503.5815,262.0894 Q504.9014,260.4375 507.4082,260.4375 Q508.1138,260.4375 508.7612,260.5869 Q509.4087,260.7363 509.9731,261.0352 L509.9731,263.7578 Q509.3423,263.1768 508.7488,262.907 Q508.1553,262.6372 507.5244,262.6372 Q506.1797,262.6372 505.4949,263.7039 Q504.8101,264.7705 504.8101,266.8706 Q504.8101,268.9624 505.4949,270.0291 Q506.1797,271.0957 507.5244,271.0957 Q508.1553,271.0957 508.7488,270.8259 Q509.3423,270.5562 509.9731,269.9751 Z "/><text fill="#000000" font-family="sans-serif" font-size="12" lengthAdjust="spacingAndGlyphs" textLength="83" x="521" y="271.5898">ConstTerminal</text><line style="stroke: #383838; stroke-width: 1.5;" x1="493" x2="606" y1="283.0547" y2="283.0547"/><line style="stroke: #383838; stroke-width: 1.5;" x1="493" x2="606" y1="291.0547" y2="291.0547"/><rect fill="#FFFFFF" height="48" style="stroke: #383838; stroke-width: 1.5;" width="103" x="642" y="251.0547"/><ellipse cx="657" cy="267.0547" fill="#C2C2C2" rx="11" ry="11" style="stroke: #383838; stroke-width: 1.0;"/><path d="M659.9731,272.6978 Q659.3921,272.9966 658.7529,273.146 Q658.1138,273.2954 657.4082,273.2954 Q654.9014,273.2954 653.5815,271.6436 Q652.2617,269.9917 652.2617,266.8706 Q652.2617,263.7412 653.5815,262.0894 Q654.9014,260.4375 657.4082,260.4375 Q658.1138,260.4375 658.7612,260.5869 Q659.4087,260.7363 659.9731,261.0352 L659.9731,263.7578 Q659.3423,263.1768 658.7488,262.907 Q658.1553,262.6372 657.5244,262.6372 Q656.1797,262.6372 655.4949,263.7039 Q654.8101,264.7705 654.8101,266.8706 Q654.8101,268.9624 655.4949,270.0291 Q656.1797,271.0957 657.5244,271.0957 Q658.1553,271.0957 658.7488,270.8259 Q659.3423,270.5562 659.9731,269.9751 Z "/><text fill="#000000" font-family="sans-serif" font-size="12" lengthAdjust="spacingAndGlyphs" textLength="71" x="671" y="271.5898">VarTerminal</text><line style="stroke: #383838; stroke-width: 1.5;" x1="643" x2="744" y1="283.0547" y2="283.0547"/><line style="stroke: #383838; stroke-width: 1.5;" x1="643" x2="744" y1="291.0547" y2="291.0547"/><rect fill="#FFFFFF" height="60.9551" style="stroke: #383838; stroke-width: 1.5;" width="101" x="1122" y="816.5547"/><ellipse cx="1140.15" cy="832.5547" fill="#C2C2C2" rx="11" ry="11" style="stroke: #383838; stroke-width: 1.0;"/><path d="M1143.1231,838.1978 Q1142.5421,838.4966 1141.9029,838.646 Q1141.2638,838.7954 1140.5582,838.7954 Q1138.0514,838.7954 1136.7315,837.1436 Q1135.4117,835.4917 1135.4117,832.3706 Q1135.4117,829.2412 1136.7315,827.5894 Q1138.0514,825.9375 1140.5582,825.9375 Q1141.2638,825.9375 1141.9112,826.0869 Q1142.5587,826.2363 1143.1231,826.5352 L1143.1231,829.2578 Q1142.4923,828.6768 1141.8988,828.407 Q1141.3053,828.1372 1140.6744,828.1372 Q1139.3297,828.1372 1138.6449,829.2039 Q1137.9601,830.2705 1137.9601,832.3706 Q1137.9601,834.4624 1138.6449,835.5291 Q1139.3297,836.5957 1140.6744,836.5957 Q1141.3053,836.5957 1141.8988,836.3259 Q1142.4923,836.0562 1143.1231,835.4751 Z "/><text fill="#000000" font-family="sans-serif" font-size="12" lengthAdjust="spacingAndGlyphs" textLength="62" x="1154.85" y="837.0898">IdTerminal</text><line style="stroke: #383838; stroke-width: 1.5;" x1="1123" x2="1222" y1="848.5547" y2="848.5547"/><ellipse cx="1133" cy="860.5322" fill="none" rx="3" ry="3" style="stroke: #545454; stroke-width: 1.0;"/><text fill="#000000" font-family="sans-serif" font-size="11" lengthAdjust="spacingAndGlyphs" textLength="75" x="1142" y="863.1895">String IdName</text><line style="stroke: #383838; stroke-width: 1.5;" x1="1123" x2="1222" y1="869.5098" y2="869.5098"/><rect fill="#FFFFFF" height="60.9551" style="stroke: #383838; stroke-width: 1.5;" width="110" x="1758.5" y="816.5547"/><ellipse cx="1773.5" cy="832.5547" fill="#C2C2C2" rx="11" ry="11" style="stroke: #383838; stroke-width: 1.0;"/><path d="M1776.4731,838.1978 Q1775.8921,838.4966 1775.2529,838.646 Q1774.6138,838.7954 1773.9082,838.7954 Q1771.4014,838.7954 1770.0815,837.1436 Q1768.7617,835.4917 1768.7617,832.3706 Q1768.7617,829.2412 1770.0815,827.5894 Q1771.4014,825.9375 1773.9082,825.9375 Q1774.6138,825.9375 1775.2612,826.0869 Q1775.9087,826.2363 1776.4731,826.5352 L1776.4731,829.2578 Q1775.8423,828.6768 1775.2488,828.407 Q1774.6553,828.1372 1774.0244,828.1372 Q1772.6797,828.1372 1771.9949,829.2039 Q1771.3101,830.2705 1771.3101,832.3706 Q1771.3101,834.4624 1771.9949,835.5291 Q1772.6797,836.5957 1774.0244,836.5957 Q1774.6553,836.5957 1775.2488,836.3259 Q1775.8423,836.0562 1776.4731,835.4751 Z "/><text fill="#000000" font-family="sans-serif" font-size="12" lengthAdjust="spacingAndGlyphs" textLength="78" x="1787.5" y="837.0898">NumTerminal</text><line style="stroke: #383838; stroke-width: 1.5;" x1="1759.5" x2="1867.5" y1="848.5547" y2="848.5547"/><ellipse cx="1769.5" cy="860.5322" fill="none" rx="3" ry="3" style="stroke: #545454; stroke-width: 1.0;"/><text fill="#000000" font-family="sans-serif" font-size="11" lengthAdjust="spacingAndGlyphs" textLength="46" x="1778.5" y="863.1895">Int Value</text><line style="stroke: #383838; stroke-width: 1.5;" x1="1759.5" x2="1867.5" y1="869.5098" y2="869.5098"/><rect fill="#FFFFFF" height="48" style="stroke: #383838; stroke-width: 1.5;" width="115" x="923" y="251.0547"/><ellipse cx="938" cy="267.0547" fill="#C2C2C2" rx="11" ry="11" style="stroke: #383838; stroke-width: 1.0;"/><path d="M940.9731,272.6978 Q940.3921,272.9966 939.7529,273.146 Q939.1138,273.2954 938.4082,273.2954 Q935.9014,273.2954 934.5815,271.6436 Q933.2617,269.9917 933.2617,266.8706 Q933.2617,263.7412 934.5815,262.0894 Q935.9014,260.4375 938.4082,260.4375 Q939.1138,260.4375 939.7612,260.5869 Q940.4087,260.7363 940.9731,261.0352 L940.9731,263.7578 Q940.3423,263.1768 939.7488,262.907 Q939.1553,262.6372 938.5244,262.6372 Q937.1797,262.6372 936.4949,263.7039 Q935.8101,264.7705 935.8101,266.8706 Q935.8101,268.9624 936.4949,270.0291 Q937.1797,271.0957 938.5244,271.0957 Q939.1553,271.0957 939.7488,270.8259 Q940.3423,270.5562 940.9731,269.9751 Z "/><text fill="#000000" font-family="sans-serif" font-size="12" lengthAdjust="spacingAndGlyphs" textLength="83" x="952" y="271.5898">FinProgramme</text><line style="stroke: #383838; stroke-width: 1.5;" x1="924" x2="1037" y1="283.0547" y2="283.0547"/><line style="stroke: #383838; stroke-width: 1.5;" x1="924" x2="1037" y1="291.0547" y2="291.0547"/><rect fill="#FFFFFF" height="48" style="stroke: #383838; stroke-width: 1.5;" width="114" x="1073.5" y="251.0547"/><ellipse cx="1088.5" cy="267.0547" fill="#C2C2C2" rx="11" ry="11" style="stroke: #383838; stroke-width: 1.0;"/><path d="M1091.4731,272.6978 Q1090.8921,272.9966 1090.2529,273.146 Q1089.6138,273.2954 1088.9082,273.2954 Q1086.4014,273.2954 1085.0815,271.6436 Q1083.7617,269.9917 1083.7617,266.8706 Q1083.7617,263.7412 1085.0815,262.0894 Q1086.4014,260.4375 1088.9082,260.4375 Q1089.6138,260.4375 1090.2612,260.5869 Q1090.9087,260.7363 1091.4731,261.0352 L1091.4731,263.7578 Q1090.8423,263.1768 1090.2488,262.907 Q1089.6553,262.6372 1089.0244,262.6372 Q1087.6797,262.6372 1086.9949,263.7039 Q1086.3101,264.7705 1086.3101,266.8706 Q1086.3101,268.9624 1086.9949,270.0291 Q1087.6797,271.0957 1089.0244,271.0957 Q1089.6553,271.0957 1090.2488,270.8259 Q1090.8423,270.5562 1091.4731,269.9751 Z "/><text fill="#000000" font-family="sans-serif" font-size="12" lengthAdjust="spacingAndGlyphs" textLength="82" x="1102.5" y="271.5898">ErreurLexicale</text><line style="stroke: #383838; stroke-width: 1.5;" x1="1074.5" x2="1186.5" y1="283.0547" y2="283.0547"/><line style="stroke: #383838; stroke-width: 1.5;" x1="1074.5" x2="1186.5" y1="291.0547" y2="291.0547"/><rect fill="#FFFFFF" height="60.9551" style="stroke: #383838; stroke-width: 1.5;" width="182" x="1417.5" y="399.0547"/><ellipse cx="1446.9" cy="415.0547" fill="#C2C2C2" rx="11" ry="11" style="stroke: #383838; stroke-width: 1.0;"/><path d="M1449.8731,420.6978 Q1449.2921,420.9966 1448.6529,421.146 Q1448.0138,421.2954 1447.3082,421.2954 Q1444.8014,421.2954 1443.4815,419.6436 Q1442.1617,417.9917 1442.1617,414.8706 Q1442.1617,411.7412 1443.4815,410.0894 Q1444.8014,408.4375 1447.3082,408.4375 Q1448.0138,408.4375 1448.6612,408.5869 Q1449.3087,408.7363 1449.8731,409.0352 L1449.8731,411.7578 Q1449.2423,411.1768 1448.6488,410.907 Q1448.0553,410.6372 1447.4244,410.6372 Q1446.0797,410.6372 1445.3949,411.7039 Q1444.7101,412.7705 1444.7101,414.8706 Q1444.7101,416.9624 1445.3949,418.0291 Q1446.0797,419.0957 1447.4244,419.0957 Q1448.0553,419.0957 1448.6488,418.8259 Q1449.2423,418.5562 1449.8731,417.9751 Z "/><text fill="#000000" font-family="sans-serif" font-size="12" lengthAdjust="spacingAndGlyphs" textLength="118" x="1464.1" y="419.5898">AffectationConstante</text><line style="stroke: #383838; stroke-width: 1.5;" x1="1418.5" x2="1598.5" y1="431.0547" y2="431.0547"/><ellipse cx="1428.5" cy="443.0322" fill="none" rx="3" ry="3" style="stroke: #545454; stroke-width: 1.0;"/><text fill="#000000" font-family="sans-serif" font-size="11" lengthAdjust="spacingAndGlyphs" textLength="156" x="1437.5" y="445.6895">AffectationConstante suivant</text><line style="stroke: #383838; stroke-width: 1.5;" x1="1418.5" x2="1598.5" y1="452.0098" y2="452.0098"/><rect fill="#FFFFFF" height="60.9551" style="stroke: #383838; stroke-width: 1.5;" width="139" x="856" y="399.0547"/><ellipse cx="885.4" cy="415.0547" fill="#C2C2C2" rx="11" ry="11" style="stroke: #383838; stroke-width: 1.0;"/><path d="M888.3731,420.6978 Q887.7921,420.9966 887.1529,421.146 Q886.5138,421.2954 885.8082,421.2954 Q883.3014,421.2954 881.9815,419.6436 Q880.6617,417.9917 880.6617,414.8706 Q880.6617,411.7412 881.9815,410.0894 Q883.3014,408.4375 885.8082,408.4375 Q886.5138,408.4375 887.1612,408.5869 Q887.8087,408.7363 888.3731,409.0352 L888.3731,411.7578 Q887.7423,411.1768 887.1488,410.907 Q886.5553,410.6372 885.9244,410.6372 Q884.5797,410.6372 883.8949,411.7039 Q883.2101,412.7705 883.2101,414.8706 Q883.2101,416.9624 883.8949,418.0291 Q884.5797,419.0957 885.9244,419.0957 Q886.5553,419.0957 887.1488,418.8259 Q887.7423,418.5562 888.3731,417.9751 Z "/><text fill="#000000" font-family="sans-serif" font-size="12" lengthAdjust="spacingAndGlyphs" textLength="75" x="902.6" y="419.5898">Identificateur</text><line style="stroke: #383838; stroke-width: 1.5;" x1="857" x2="994" y1="431.0547" y2="431.0547"/><ellipse cx="867" cy="443.0322" fill="none" rx="3" ry="3" style="stroke: #545454; stroke-width: 1.0;"/><text fill="#000000" font-family="sans-serif" font-size="11" lengthAdjust="spacingAndGlyphs" textLength="113" x="876" y="445.6895">Identificateur suivant</text><line style="stroke: #383838; stroke-width: 1.5;" x1="857" x2="994" y1="452.0098" y2="452.0098"/><rect fill="#FFFFFF" height="48" style="stroke: #383838; stroke-width: 1.5;" width="149" x="2467" y="691.5547"/><ellipse cx="2482" cy="707.5547" fill="#C2C2C2" rx="11" ry="11" style="stroke: #383838; stroke-width: 1.0;"/><path d="M2484.9731,713.1978 Q2484.3921,713.4966 2483.7529,713.646 Q2483.1138,713.7954 2482.4082,713.7954 Q2479.9014,713.7954 2478.5815,712.1436 Q2477.2617,710.4917 2477.2617,707.3706 Q2477.2617,704.2412 2478.5815,702.5894 Q2479.9014,700.9375 2482.4082,700.9375 Q2483.1138,700.9375 2483.7612,701.0869 Q2484.4087,701.2363 2484.9731,701.5352 L2484.9731,704.2578 Q2484.3423,703.6768 2483.7488,703.407 Q2483.1553,703.1372 2482.5244,703.1372 Q2481.1797,703.1372 2480.4949,704.2039 Q2479.8101,705.2705 2479.8101,707.3706 Q2479.8101,709.4624 2480.4949,710.5291 Q2481.1797,711.5957 2482.5244,711.5957 Q2483.1553,711.5957 2483.7488,711.3259 Q2484.3423,711.0562 2484.9731,710.4751 Z "/><text fill="#000000" font-family="sans-serif" font-size="12" lengthAdjust="spacingAndGlyphs" textLength="117" x="2496" y="712.0898">IdentificateurFacteur</text><line style="stroke: #383838; stroke-width: 1.5;" x1="2468" x2="2615" y1="723.5547" y2="723.5547"/><line style="stroke: #383838; stroke-width: 1.5;" x1="2468" x2="2615" y1="731.5547" y2="731.5547"/><rect fill="#FFFFFF" height="60.9551" style="stroke: #383838; stroke-width: 1.5;" width="151" x="1231" y="399.0547"/><ellipse cx="1259.95" cy="415.0547" fill="#C2C2C2" rx="11" ry="11" style="stroke: #383838; stroke-width: 1.0;"/><path d="M1262.9231,420.6978 Q1262.3421,420.9966 1261.7029,421.146 Q1261.0638,421.2954 1260.3582,421.2954 Q1257.8514,421.2954 1256.5315,419.6436 Q1255.2117,417.9917 1255.2117,414.8706 Q1255.2117,411.7412 1256.5315,410.0894 Q1257.8514,408.4375 1260.3582,408.4375 Q1261.0638,408.4375 1261.7112,408.5869 Q1262.3587,408.7363 1262.9231,409.0352 L1262.9231,411.7578 Q1262.2923,411.1768 1261.6988,410.907 Q1261.1053,410.6372 1260.4744,410.6372 Q1259.1297,410.6372 1258.4449,411.7039 Q1257.7601,412.7705 1257.7601,414.8706 Q1257.7601,416.9624 1258.4449,418.0291 Q1259.1297,419.0957 1260.4744,419.0957 Q1261.1053,419.0957 1261.6988,418.8259 Q1262.2923,418.5562 1262.9231,417.9751 Z "/><text fill="#000000" font-family="sans-serif" font-size="12" lengthAdjust="spacingAndGlyphs" textLength="88" x="1277.05" y="419.5898">BlocDeclaration</text><line style="stroke: #383838; stroke-width: 1.5;" x1="1232" x2="1381" y1="431.0547" y2="431.0547"/><ellipse cx="1242" cy="443.0322" fill="none" rx="3" ry="3" style="stroke: #545454; stroke-width: 1.0;"/><text fill="#000000" font-family="sans-serif" font-size="11" lengthAdjust="spacingAndGlyphs" textLength="125" x="1251" y="445.6895">BlocDeclaration suivant</text><line style="stroke: #383838; stroke-width: 1.5;" x1="1232" x2="1381" y1="452.0098" y2="452.0098"/><rect fill="#FFFFFF" height="48" style="stroke: #383838; stroke-width: 1.5;" width="145" x="979" y="553.5547"/><ellipse cx="994" cy="569.5547" fill="#C2C2C2" rx="11" ry="11" style="stroke: #383838; stroke-width: 1.0;"/><path d="M996.9731,575.1978 Q996.3921,575.4966 995.7529,575.646 Q995.1138,575.7954 994.4082,575.7954 Q991.9014,575.7954 990.5815,574.1436 Q989.2617,572.4917 989.2617,569.3706 Q989.2617,566.2412 990.5815,564.5894 Q991.9014,562.9375 994.4082,562.9375 Q995.1138,562.9375 995.7612,563.0869 Q996.4087,563.2363 996.9731,563.5352 L996.9731,566.2578 Q996.3423,565.6768 995.7488,565.407 Q995.1553,565.1372 994.5244,565.1372 Q993.1797,565.1372 992.4949,566.2039 Q991.8101,567.2705 991.8101,569.3706 Q991.8101,571.4624 992.4949,572.5291 Q993.1797,573.5957 994.5244,573.5957 Q995.1553,573.5957 995.7488,573.3259 Q996.3423,573.0562 996.9731,572.4751 Z "/><text fill="#000000" font-family="sans-serif" font-size="12" lengthAdjust="spacingAndGlyphs" textLength="113" x="1008" y="574.0898">DeclarationVariable</text><line style="stroke: #383838; stroke-width: 1.5;" x1="980" x2="1123" y1="585.5547" y2="585.5547"/><line style="stroke: #383838; stroke-width: 1.5;" x1="980" x2="1123" y1="593.5547" y2="593.5547"/><rect fill="#FFFFFF" height="48" style="stroke: #383838; stroke-width: 1.5;" width="154" x="1230.5" y="553.5547"/><ellipse cx="1245.5" cy="569.5547" fill="#C2C2C2" rx="11" ry="11" style="stroke: #383838; stroke-width: 1.0;"/><path d="M1248.4731,575.1978 Q1247.8921,575.4966 1247.2529,575.646 Q1246.6138,575.7954 1245.9082,575.7954 Q1243.4014,575.7954 1242.0815,574.1436 Q1240.7617,572.4917 1240.7617,569.3706 Q1240.7617,566.2412 1242.0815,564.5894 Q1243.4014,562.9375 1245.9082,562.9375 Q1246.6138,562.9375 1247.2612,563.0869 Q1247.9087,563.2363 1248.4731,563.5352 L1248.4731,566.2578 Q1247.8423,565.6768 1247.2488,565.407 Q1246.6553,565.1372 1246.0244,565.1372 Q1244.6797,565.1372 1243.9949,566.2039 Q1243.3101,567.2705 1243.3101,569.3706 Q1243.3101,571.4624 1243.9949,572.5291 Q1244.6797,573.5957 1246.0244,573.5957 Q1246.6553,573.5957 1247.2488,573.3259 Q1247.8423,573.0562 1248.4731,572.4751 Z "/><text fill="#000000" font-family="sans-serif" font-size="12" lengthAdjust="spacingAndGlyphs" textLength="122" x="1259.5" y="574.0898">DeclarationConstante</text><line style="stroke: #383838; stroke-width: 1.5;" x1="1231.5" x2="1383.5" y1="585.5547" y2="585.5547"/><line style="stroke: #383838; stroke-width: 1.5;" x1="1231.5" x2="1383.5" y1="593.5547" y2="593.5547"/><rect fill="#FFFFFF" height="73.9102" style="stroke: #383838; stroke-width: 1.5;" width="139" x="1436" y="238.0547"/><ellipse cx="1469" cy="254.0547" fill="#C2C2C2" rx="11" ry="11" style="stroke: #383838; stroke-width: 1.0;"/><path d="M1471.9731,259.6978 Q1471.3921,259.9966 1470.7529,260.146 Q1470.1138,260.2954 1469.4082,260.2954 Q1466.9014,260.2954 1465.5815,258.6436 Q1464.2617,256.9917 1464.2617,253.8706 Q1464.2617,250.7412 1465.5815,249.0894 Q1466.9014,247.4375 1469.4082,247.4375 Q1470.1138,247.4375 1470.7612,247.5869 Q1471.4087,247.7363 1471.9731,248.0352 L1471.9731,250.7578 Q1471.3423,250.1768 1470.7488,249.907 Q1470.1553,249.6372 1469.5244,249.6372 Q1468.1797,249.6372 1467.4949,250.7039 Q1466.8101,251.7705 1466.8101,253.8706 Q1466.8101,255.9624 1467.4949,257.0291 Q1468.1797,258.0957 1469.5244,258.0957 Q1470.1553,258.0957 1470.7488,257.8259 Q1471.3423,257.5562 1471.9731,256.9751 Z "/><text fill="#000000" font-family="sans-serif" font-size="12" lengthAdjust="spacingAndGlyphs" textLength="67" x="1487" y="258.5898">Programme</text><line style="stroke: #383838; stroke-width: 1.5;" x1="1437" x2="1574" y1="270.0547" y2="270.0547"/><line style="stroke: #383838; stroke-width: 1.5;" x1="1437" x2="1574" y1="278.0547" y2="278.0547"/><ellipse cx="1447" cy="290.0322" fill="#A6A6A6" rx="3" ry="3" style="stroke: #545454; stroke-width: 1.0;"/><text fill="#000000" font-family="sans-serif" font-size="11" lengthAdjust="spacingAndGlyphs" textLength="111" x="1456" y="292.6895">setBlockInstruction()</text><ellipse cx="1447" cy="302.9873" fill="#A6A6A6" rx="3" ry="3" style="stroke: #545454; stroke-width: 1.0;"/><text fill="#000000" font-family="sans-serif" font-size="11" lengthAdjust="spacingAndGlyphs" textLength="113" x="1456" y="305.6445">setBlockDeclaration()</text><rect fill="#FFFFFF" height="60.9551" style="stroke: #383838; stroke-width: 1.5;" width="149" x="1635" y="399.0547"/><ellipse cx="1665.75" cy="415.0547" fill="#C2C2C2" rx="11" ry="11" style="stroke: #383838; stroke-width: 1.0;"/><path d="M1668.7231,420.6978 Q1668.1421,420.9966 1667.5029,421.146 Q1666.8638,421.2954 1666.1582,421.2954 Q1663.6514,421.2954 1662.3315,419.6436 Q1661.0117,417.9917 1661.0117,414.8706 Q1661.0117,411.7412 1662.3315,410.0894 Q1663.6514,408.4375 1666.1582,408.4375 Q1666.8638,408.4375 1667.5112,408.5869 Q1668.1587,408.7363 1668.7231,409.0352 L1668.7231,411.7578 Q1668.0923,411.1768 1667.4988,410.907 Q1666.9053,410.6372 1666.2744,410.6372 Q1664.9297,410.6372 1664.2449,411.7039 Q1663.5601,412.7705 1663.5601,414.8706 Q1663.5601,416.9624 1664.2449,418.0291 Q1664.9297,419.0957 1666.2744,419.0957 Q1666.9053,419.0957 1667.4988,418.8259 Q1668.0923,418.5562 1668.7231,417.9751 Z "/><text fill="#000000" font-family="sans-serif" font-size="12" lengthAdjust="spacingAndGlyphs" textLength="82" x="1683.25" y="419.5898">BlocInstruction</text><line style="stroke: #383838; stroke-width: 1.5;" x1="1636" x2="1783" y1="431.0547" y2="431.0547"/><ellipse cx="1646" cy="443.0322" fill="none" rx="3" ry="3" style="stroke: #545454; stroke-width: 1.0;"/><text fill="#000000" font-family="sans-serif" font-size="11" lengthAdjust="spacingAndGlyphs" textLength="123" x="1655" y="445.6895">BlocInstruction suivant</text><line style="stroke: #383838; stroke-width: 1.5;" x1="1636" x2="1783" y1="452.0098" y2="452.0098"/><rect fill="#FFFFFF" height="48" style="stroke: #383838; stroke-width: 1.5;" width="133" x="1562" y="553.5547"/><ellipse cx="1577" cy="569.5547" fill="#C2C2C2" rx="11" ry="11" style="stroke: #383838; stroke-width: 1.0;"/><path d="M1579.9731,575.1978 Q1579.3921,575.4966 1578.7529,575.646 Q1578.1138,575.7954 1577.4082,575.7954 Q1574.9014,575.7954 1573.5815,574.1436 Q1572.2617,572.4917 1572.2617,569.3706 Q1572.2617,566.2412 1573.5815,564.5894 Q1574.9014,562.9375 1577.4082,562.9375 Q1578.1138,562.9375 1578.7612,563.0869 Q1579.4087,563.2363 1579.9731,563.5352 L1579.9731,566.2578 Q1579.3423,565.6768 1578.7488,565.407 Q1578.1553,565.1372 1577.5244,565.1372 Q1576.1797,565.1372 1575.4949,566.2039 Q1574.8101,567.2705 1574.8101,569.3706 Q1574.8101,571.4624 1575.4949,572.5291 Q1576.1797,573.5957 1577.5244,573.5957 Q1578.1553,573.5957 1578.7488,573.3259 Q1579.3423,573.0562 1579.9731,572.4751 Z "/><text fill="#000000" font-family="sans-serif" font-size="12" lengthAdjust="spacingAndGlyphs" textLength="101" x="1591" y="574.0898">InstructionLecture</text><line style="stroke: #383838; stroke-width: 1.5;" x1="1563" x2="1694" y1="585.5547" y2="585.5547"/><line style="stroke: #383838; stroke-width: 1.5;" x1="1563" x2="1694" y1="593.5547" y2="593.5547"/><rect fill="#FFFFFF" height="48" style="stroke: #383838; stroke-width: 1.5;" width="135" x="1730" y="553.5547"/><ellipse cx="1745" cy="569.5547" fill="#C2C2C2" rx="11" ry="11" style="stroke: #383838; stroke-width: 1.0;"/><path d="M1747.9731,575.1978 Q1747.3921,575.4966 1746.7529,575.646 Q1746.1138,575.7954 1745.4082,575.7954 Q1742.9014,575.7954 1741.5815,574.1436 Q1740.2617,572.4917 1740.2617,569.3706 Q1740.2617,566.2412 1741.5815,564.5894 Q1742.9014,562.9375 1745.4082,562.9375 Q1746.1138,562.9375 1746.7612,563.0869 Q1747.4087,563.2363 1747.9731,563.5352 L1747.9731,566.2578 Q1747.3423,565.6768 1746.7488,565.407 Q1746.1553,565.1372 1745.5244,565.1372 Q1744.1797,565.1372 1743.4949,566.2039 Q1742.8101,567.2705 1742.8101,569.3706 Q1742.8101,571.4624 1743.4949,572.5291 Q1744.1797,573.5957 1745.5244,573.5957 Q1746.1553,573.5957 1746.7488,573.3259 Q1747.3423,573.0562 1747.9731,572.4751 Z "/><text fill="#000000" font-family="sans-serif" font-size="12" lengthAdjust="spacingAndGlyphs" textLength="103" x="1759" y="574.0898">InstructionEcriture</text><line style="stroke: #383838; stroke-width: 1.5;" x1="1731" x2="1864" y1="585.5547" y2="585.5547"/><line style="stroke: #383838; stroke-width: 1.5;" x1="1731" x2="1864" y1="593.5547" y2="593.5547"/><rect fill="#FFFFFF" height="48" style="stroke: #383838; stroke-width: 1.5;" width="152" x="1900.5" y="553.5547"/><ellipse cx="1915.5" cy="569.5547" fill="#C2C2C2" rx="11" ry="11" style="stroke: #383838; stroke-width: 1.0;"/><path d="M1918.4731,575.1978 Q1917.8921,575.4966 1917.2529,575.646 Q1916.6138,575.7954 1915.9082,575.7954 Q1913.4014,575.7954 1912.0815,574.1436 Q1910.7617,572.4917 1910.7617,569.3706 Q1910.7617,566.2412 1912.0815,564.5894 Q1913.4014,562.9375 1915.9082,562.9375 Q1916.6138,562.9375 1917.2612,563.0869 Q1917.9087,563.2363 1918.4731,563.5352 L1918.4731,566.2578 Q1917.8423,565.6768 1917.2488,565.407 Q1916.6553,565.1372 1916.0244,565.1372 Q1914.6797,565.1372 1913.9949,566.2039 Q1913.3101,567.2705 1913.3101,569.3706 Q1913.3101,571.4624 1913.9949,572.5291 Q1914.6797,573.5957 1916.0244,573.5957 Q1916.6553,573.5957 1917.2488,573.3259 Q1917.8423,573.0562 1918.4731,572.4751 Z "/><text fill="#000000" font-family="sans-serif" font-size="12" lengthAdjust="spacingAndGlyphs" textLength="120" x="1929.5" y="574.0898">InstructionAffectation</text><line style="stroke: #383838; stroke-width: 1.5;" x1="1901.5" x2="2051.5" y1="585.5547" y2="585.5547"/><line style="stroke: #383838; stroke-width: 1.5;" x1="1901.5" x2="2051.5" y1="593.5547" y2="593.5547"/><rect fill="#FFFFFF" height="86.8652" style="stroke: #383838; stroke-width: 1.5;" width="176" x="2316.5" y="231.5547"/><ellipse cx="2368.75" cy="247.5547" fill="#C2C2C2" rx="11" ry="11" style="stroke: #383838; stroke-width: 1.0;"/><path d="M2371.7231,253.1978 Q2371.1421,253.4966 2370.5029,253.646 Q2369.8638,253.7954 2369.1582,253.7954 Q2366.6514,253.7954 2365.3315,252.1436 Q2364.0117,250.4917 2364.0117,247.3706 Q2364.0117,244.2412 2365.3315,242.5894 Q2366.6514,240.9375 2369.1582,240.9375 Q2369.8638,240.9375 2370.5112,241.0869 Q2371.1587,241.2363 2371.7231,241.5352 L2371.7231,244.2578 Q2371.0923,243.6768 2370.4988,243.407 Q2369.9053,243.1372 2369.2744,243.1372 Q2367.9297,243.1372 2367.2449,244.2039 Q2366.5601,245.2705 2366.5601,247.3706 Q2366.5601,249.4624 2367.2449,250.5291 Q2367.9297,251.5957 2369.2744,251.5957 Q2369.9053,251.5957 2370.4988,251.3259 Q2371.0923,251.0562 2371.7231,250.4751 Z "/><text fill="#000000" font-family="sans-serif" font-size="12" lengthAdjust="spacingAndGlyphs" textLength="63" x="2389.25" y="252.0898">Expression</text><line style="stroke: #383838; stroke-width: 1.5;" x1="2317.5" x2="2491.5" y1="263.5547" y2="263.5547"/><line style="stroke: #383838; stroke-width: 1.5;" x1="2317.5" x2="2491.5" y1="271.5547" y2="271.5547"/><ellipse cx="2327.5" cy="283.5322" fill="#A6A6A6" rx="3" ry="3" style="stroke: #545454; stroke-width: 1.0;"/><text fill="#000000" font-family="sans-serif" font-size="11" lengthAdjust="spacingAndGlyphs" textLength="128" x="2336.5" y="286.1895">setExpressionAdditive()</text><ellipse cx="2327.5" cy="296.4873" fill="#A6A6A6" rx="3" ry="3" style="stroke: #545454; stroke-width: 1.0;"/><text fill="#000000" font-family="sans-serif" font-size="11" lengthAdjust="spacingAndGlyphs" textLength="150" x="2336.5" y="299.1445">setExpressionSoustractive()</text><ellipse cx="2327.5" cy="309.4424" fill="#A6A6A6" rx="3" ry="3" style="stroke: #545454; stroke-width: 1.0;"/><text fill="#000000" font-family="sans-serif" font-size="11" lengthAdjust="spacingAndGlyphs" textLength="149" x="2336.5" y="312.0996">setExpressionParenthesee()</text><rect fill="#FFFFFF" height="48" style="stroke: #383838; stroke-width: 1.5;" width="142" x="2087.5" y="553.5547"/><ellipse cx="2102.5" cy="569.5547" fill="#C2C2C2" rx="11" ry="11" style="stroke: #383838; stroke-width: 1.0;"/><path d="M2105.4731,575.1978 Q2104.8921,575.4966 2104.2529,575.646 Q2103.6138,575.7954 2102.9082,575.7954 Q2100.4014,575.7954 2099.0815,574.1436 Q2097.7617,572.4917 2097.7617,569.3706 Q2097.7617,566.2412 2099.0815,564.5894 Q2100.4014,562.9375 2102.9082,562.9375 Q2103.6138,562.9375 2104.2612,563.0869 Q2104.9087,563.2363 2105.4731,563.5352 L2105.4731,566.2578 Q2104.8423,565.6768 2104.2488,565.407 Q2103.6553,565.1372 2103.0244,565.1372 Q2101.6797,565.1372 2100.9949,566.2039 Q2100.3101,567.2705 2100.3101,569.3706 Q2100.3101,571.4624 2100.9949,572.5291 Q2101.6797,573.5957 2103.0244,573.5957 Q2103.6553,573.5957 2104.2488,573.3259 Q2104.8423,573.0562 2105.4731,572.4751 Z "/><text fill="#000000" font-family="sans-serif" font-size="12" lengthAdjust="spacingAndGlyphs" textLength="110" x="2116.5" y="574.0898">ExpressionAdditive</text><line style="stroke: #383838; stroke-width: 1.5;" x1="2088.5" x2="2228.5" y1="585.5547" y2="585.5547"/><line style="stroke: #383838; stroke-width: 1.5;" x1="2088.5" x2="2228.5" y1="593.5547" y2="593.5547"/><rect fill="#FFFFFF" height="48" style="stroke: #383838; stroke-width: 1.5;" width="163" x="2643" y="553.5547"/><ellipse cx="2658" cy="569.5547" fill="#C2C2C2" rx="11" ry="11" style="stroke: #383838; stroke-width: 1.0;"/><path d="M2660.9731,575.1978 Q2660.3921,575.4966 2659.7529,575.646 Q2659.1138,575.7954 2658.4082,575.7954 Q2655.9014,575.7954 2654.5815,574.1436 Q2653.2617,572.4917 2653.2617,569.3706 Q2653.2617,566.2412 2654.5815,564.5894 Q2655.9014,562.9375 2658.4082,562.9375 Q2659.1138,562.9375 2659.7612,563.0869 Q2660.4087,563.2363 2660.9731,563.5352 L2660.9731,566.2578 Q2660.3423,565.6768 2659.7488,565.407 Q2659.1553,565.1372 2658.5244,565.1372 Q2657.1797,565.1372 2656.4949,566.2039 Q2655.8101,567.2705 2655.8101,569.3706 Q2655.8101,571.4624 2656.4949,572.5291 Q2657.1797,573.5957 2658.5244,573.5957 Q2659.1553,573.5957 2659.7488,573.3259 Q2660.3423,573.0562 2660.9731,572.4751 Z "/><text fill="#000000" font-family="sans-serif" font-size="12" lengthAdjust="spacingAndGlyphs" textLength="131" x="2672" y="574.0898">ExpressionSoustractive</text><line style="stroke: #383838; stroke-width: 1.5;" x1="2644" x2="2805" y1="585.5547" y2="585.5547"/><line style="stroke: #383838; stroke-width: 1.5;" x1="2644" x2="2805" y1="593.5547" y2="593.5547"/><rect fill="#FFFFFF" height="99.8203" style="stroke: #383838; stroke-width: 1.5;" width="176" x="2316.5" y="379.5547"/><ellipse cx="2381.25" cy="395.5547" fill="#C2C2C2" rx="11" ry="11" style="stroke: #383838; stroke-width: 1.0;"/><path d="M2384.2231,401.1978 Q2383.6421,401.4966 2383.0029,401.646 Q2382.3638,401.7954 2381.6582,401.7954 Q2379.1514,401.7954 2377.8315,400.1436 Q2376.5117,398.4917 2376.5117,395.3706 Q2376.5117,392.2412 2377.8315,390.5894 Q2379.1514,388.9375 2381.6582,388.9375 Q2382.3638,388.9375 2383.0112,389.0869 Q2383.6587,389.2363 2384.2231,389.5352 L2384.2231,392.2578 Q2383.5923,391.6768 2382.9988,391.407 Q2382.4053,391.1372 2381.7744,391.1372 Q2380.4297,391.1372 2379.7449,392.2039 Q2379.0601,393.2705 2379.0601,395.3706 Q2379.0601,397.4624 2379.7449,398.5291 Q2380.4297,399.5957 2381.7744,399.5957 Q2382.4053,399.5957 2382.9988,399.3259 Q2383.5923,399.0562 2384.2231,398.4751 Z "/><text fill="#000000" font-family="sans-serif" font-size="12" lengthAdjust="spacingAndGlyphs" textLength="38" x="2401.75" y="400.0898">Terme</text><line style="stroke: #383838; stroke-width: 1.5;" x1="2317.5" x2="2491.5" y1="411.5547" y2="411.5547"/><line style="stroke: #383838; stroke-width: 1.5;" x1="2317.5" x2="2491.5" y1="419.5547" y2="419.5547"/><ellipse cx="2327.5" cy="431.5322" fill="#A6A6A6" rx="3" ry="3" style="stroke: #545454; stroke-width: 1.0;"/><text fill="#000000" font-family="sans-serif" font-size="11" lengthAdjust="spacingAndGlyphs" textLength="128" x="2336.5" y="434.1895">setExpressionAdditive()</text><ellipse cx="2327.5" cy="444.4873" fill="#A6A6A6" rx="3" ry="3" style="stroke: #545454; stroke-width: 1.0;"/><text fill="#000000" font-family="sans-serif" font-size="11" lengthAdjust="spacingAndGlyphs" textLength="150" x="2336.5" y="447.1445">setExpressionSoustractive()</text><ellipse cx="2327.5" cy="457.4424" fill="#A6A6A6" rx="3" ry="3" style="stroke: #545454; stroke-width: 1.0;"/><text fill="#000000" font-family="sans-serif" font-size="11" lengthAdjust="spacingAndGlyphs" textLength="107" x="2336.5" y="460.0996">setExpressionMult()</text><ellipse cx="2327.5" cy="470.3975" fill="#A6A6A6" rx="3" ry="3" style="stroke: #545454; stroke-width: 1.0;"/><text fill="#000000" font-family="sans-serif" font-size="11" lengthAdjust="spacingAndGlyphs" textLength="100" x="2336.5" y="473.0547">setExpressiondiv()</text><rect fill="#FFFFFF" height="48" style="stroke: #383838; stroke-width: 1.5;" width="119" x="2165" y="691.5547"/><ellipse cx="2180" cy="707.5547" fill="#C2C2C2" rx="11" ry="11" style="stroke: #383838; stroke-width: 1.0;"/><path d="M2182.9731,713.1978 Q2182.3921,713.4966 2181.7529,713.646 Q2181.1138,713.7954 2180.4082,713.7954 Q2177.9014,713.7954 2176.5815,712.1436 Q2175.2617,710.4917 2175.2617,707.3706 Q2175.2617,704.2412 2176.5815,702.5894 Q2177.9014,700.9375 2180.4082,700.9375 Q2181.1138,700.9375 2181.7612,701.0869 Q2182.4087,701.2363 2182.9731,701.5352 L2182.9731,704.2578 Q2182.3423,703.6768 2181.7488,703.407 Q2181.1553,703.1372 2180.5244,703.1372 Q2179.1797,703.1372 2178.4949,704.2039 Q2177.8101,705.2705 2177.8101,707.3706 Q2177.8101,709.4624 2178.4949,710.5291 Q2179.1797,711.5957 2180.5244,711.5957 Q2181.1553,711.5957 2181.7488,711.3259 Q2182.3423,711.0562 2182.9731,710.4751 Z "/><text fill="#000000" font-family="sans-serif" font-size="12" lengthAdjust="spacingAndGlyphs" textLength="87" x="2194" y="712.0898">ExpressionMult</text><line style="stroke: #383838; stroke-width: 1.5;" x1="2166" x2="2283" y1="723.5547" y2="723.5547"/><line style="stroke: #383838; stroke-width: 1.5;" x1="2166" x2="2283" y1="731.5547" y2="731.5547"/><rect fill="#FFFFFF" height="48" style="stroke: #383838; stroke-width: 1.5;" width="113" x="2319" y="691.5547"/><ellipse cx="2334" cy="707.5547" fill="#C2C2C2" rx="11" ry="11" style="stroke: #383838; stroke-width: 1.0;"/><path d="M2336.9731,713.1978 Q2336.3921,713.4966 2335.7529,713.646 Q2335.1138,713.7954 2334.4082,713.7954 Q2331.9014,713.7954 2330.5815,712.1436 Q2329.2617,710.4917 2329.2617,707.3706 Q2329.2617,704.2412 2330.5815,702.5894 Q2331.9014,700.9375 2334.4082,700.9375 Q2335.1138,700.9375 2335.7612,701.0869 Q2336.4087,701.2363 2336.9731,701.5352 L2336.9731,704.2578 Q2336.3423,703.6768 2335.7488,703.407 Q2335.1553,703.1372 2334.5244,703.1372 Q2333.1797,703.1372 2332.4949,704.2039 Q2331.8101,705.2705 2331.8101,707.3706 Q2331.8101,709.4624 2332.4949,710.5291 Q2333.1797,711.5957 2334.5244,711.5957 Q2335.1553,711.5957 2335.7488,711.3259 Q2336.3423,711.0562 2336.9731,710.4751 Z "/><text fill="#000000" font-family="sans-serif" font-size="12" lengthAdjust="spacingAndGlyphs" textLength="81" x="2348" y="712.0898">ExpressionDiv</text><line style="stroke: #383838; stroke-width: 1.5;" x1="2320" x2="2431" y1="723.5547" y2="723.5547"/><line style="stroke: #383838; stroke-width: 1.5;" x1="2320" x2="2431" y1="731.5547" y2="731.5547"/><rect fill="#FFFFFF" height="73.9102" style="stroke: #383838; stroke-width: 1.5;" width="133" x="2475" y="540.5547"/><ellipse cx="2516.55" cy="556.5547" fill="#C2C2C2" rx="11" ry="11" style="stroke: #383838; stroke-width: 1.0;"/><path d="M2519.5231,562.1978 Q2518.9421,562.4966 2518.3029,562.646 Q2517.6638,562.7954 2516.9582,562.7954 Q2514.4514,562.7954 2513.1315,561.1436 Q2511.8117,559.4917 2511.8117,556.3706 Q2511.8117,553.2412 2513.1315,551.5894 Q2514.4514,549.9375 2516.9582,549.9375 Q2517.6638,549.9375 2518.3112,550.0869 Q2518.9587,550.2363 2519.5231,550.5352 L2519.5231,553.2578 Q2518.8923,552.6768 2518.2988,552.407 Q2517.7053,552.1372 2517.0744,552.1372 Q2515.7297,552.1372 2515.0449,553.2039 Q2514.3601,554.2705 2514.3601,556.3706 Q2514.3601,558.4624 2515.0449,559.5291 Q2515.7297,560.5957 2517.0744,560.5957 Q2517.7053,560.5957 2518.2988,560.3259 Q2518.8923,560.0562 2519.5231,559.4751 Z "/><text fill="#000000" font-family="sans-serif" font-size="12" lengthAdjust="spacingAndGlyphs" textLength="42" x="2536.45" y="561.0898">Facteur</text><line style="stroke: #383838; stroke-width: 1.5;" x1="2476" x2="2607" y1="572.5547" y2="572.5547"/><line style="stroke: #383838; stroke-width: 1.5;" x1="2476" x2="2607" y1="580.5547" y2="580.5547"/><ellipse cx="2486" cy="592.5322" fill="#A6A6A6" rx="3" ry="3" style="stroke: #545454; stroke-width: 1.0;"/><text fill="#000000" font-family="sans-serif" font-size="11" lengthAdjust="spacingAndGlyphs" textLength="101" x="2495" y="595.1895">setExpressionDiv()</text><ellipse cx="2486" cy="605.4873" fill="#A6A6A6" rx="3" ry="3" style="stroke: #545454; stroke-width: 1.0;"/><text fill="#000000" font-family="sans-serif" font-size="11" lengthAdjust="spacingAndGlyphs" textLength="107" x="2495" y="608.1445">setExpressionMult()</text><rect fill="#FFFFFF" height="48" style="stroke: #383838; stroke-width: 1.5;" width="166" x="2839.5" y="691.5547"/><ellipse cx="2854.5" cy="707.5547" fill="#C2C2C2" rx="11" ry="11" style="stroke: #383838; stroke-width: 1.0;"/><path d="M2857.4731,713.1978 Q2856.8921,713.4966 2856.2529,713.646 Q2855.6138,713.7954 2854.9082,713.7954 Q2852.4014,713.7954 2851.0815,712.1436 Q2849.7617,710.4917 2849.7617,707.3706 Q2849.7617,704.2412 2851.0815,702.5894 Q2852.4014,700.9375 2854.9082,700.9375 Q2855.6138,700.9375 2856.2612,701.0869 Q2856.9087,701.2363 2857.4731,701.5352 L2857.4731,704.2578 Q2856.8423,703.6768 2856.2488,703.407 Q2855.6553,703.1372 2855.0244,703.1372 Q2853.6797,703.1372 2852.9949,704.2039 Q2852.3101,705.2705 2852.3101,707.3706 Q2852.3101,709.4624 2852.9949,710.5291 Q2853.6797,711.5957 2855.0244,711.5957 Q2855.6553,711.5957 2856.2488,711.3259 Q2856.8423,711.0562 2857.4731,710.4751 Z "/><text fill="#000000" font-family="sans-serif" font-size="12" lengthAdjust="spacingAndGlyphs" textLength="134" x="2868.5" y="712.0898">ExpressionParenthesee</text><line style="stroke: #383838; stroke-width: 1.5;" x1="2840.5" x2="3004.5" y1="723.5547" y2="723.5547"/><line style="stroke: #383838; stroke-width: 1.5;" x1="2840.5" x2="3004.5" y1="731.5547" y2="731.5547"/><rect fill="#FFFFFF" height="48" style="stroke: #383838; stroke-width: 1.5;" width="153" x="2651" y="691.5547"/><ellipse cx="2666" cy="707.5547" fill="#C2C2C2" rx="11" ry="11" style="stroke: #383838; stroke-width: 1.0;"/><path d="M2668.9731,713.1978 Q2668.3921,713.4966 2667.7529,713.646 Q2667.1138,713.7954 2666.4082,713.7954 Q2663.9014,713.7954 2662.5815,712.1436 Q2661.2617,710.4917 2661.2617,707.3706 Q2661.2617,704.2412 2662.5815,702.5894 Q2663.9014,700.9375 2666.4082,700.9375 Q2667.1138,700.9375 2667.7612,701.0869 Q2668.4087,701.2363 2668.9731,701.5352 L2668.9731,704.2578 Q2668.3423,703.6768 2667.7488,703.407 Q2667.1553,703.1372 2666.5244,703.1372 Q2665.1797,703.1372 2664.4949,704.2039 Q2663.8101,705.2705 2663.8101,707.3706 Q2663.8101,709.4624 2664.4949,710.5291 Q2665.1797,711.5957 2666.5244,711.5957 Q2667.1553,711.5957 2667.7488,711.3259 Q2668.3423,711.0562 2668.9731,710.4751 Z "/><text fill="#000000" font-family="sans-serif" font-size="12" lengthAdjust="spacingAndGlyphs" textLength="121" x="2680" y="712.0898">ConstanteNumerique</text><line style="stroke: #383838; stroke-width: 1.5;" x1="2652" x2="2803" y1="723.5547" y2="723.5547"/><line style="stroke: #383838; stroke-width: 1.5;" x1="2652" x2="2803" y1="731.5547" y2="731.5547"/><path d="M1066.44,111.0447 C1155.42,122.7817 1296.8,148.3327 1408.5,200.5547 C1428.79,210.0397 1448.91,224.2717 1465.52,237.6927 " fill="none" style="stroke: #383838; stroke-width: 1.0;"/><polygon fill="none" points="1065.34,117.9607,1046.37,108.5147,1067.09,104.0707,1065.34,117.9607" style="stroke: #383838; stroke-width: 1.0;"/><path d="M1066.33,108.7327 C1131.03,118.4827 1216.83,142.3377 1266.5,200.5547 C1314.76,257.1117 1314.16,350.9947 1310.11,398.7207 " fill="none" style="stroke: #383838; stroke-width: 1.0;"/><polygon fill="none" points="1065.04,115.6227,1046.14,106.0377,1066.89,101.7457,1065.04,115.6227" style="stroke: #383838; stroke-width: 1.0;"/><path d="M1066.54,111.6627 C1214.42,129.5617 1508.95,171.6967 1592.5,231.5547 C1651.19,273.6037 1685.47,355.0527 1700.45,398.8967 " fill="none" style="stroke: #383838; stroke-width: 1.0;"/><polygon fill="none" points="1065.29,118.5637,1046.26,109.2487,1066.94,104.6617,1065.29,118.5637" style="stroke: #383838; stroke-width: 1.0;"/><path d="M1066.13,117.8557 C1131.45,132.4877 1221.91,158.4647 1292.5,200.5547 C1337.69,227.5017 1437.51,343.4067 1483.91,398.8227 " fill="none" style="stroke: #383838; stroke-width: 1.0;"/><polygon fill="none" points="1064.37,124.6367,1046.29,113.5847,1067.31,110.9497,1064.37,124.6367" style="stroke: #383838; stroke-width: 1.0;"/><path d="M922.343,188.4657 C915.41,202.3667 909.414,216.9867 905.5,231.5547 C889.935,289.4887 904.882,359.9747 915.977,398.9837 " fill="none" style="stroke: #383838; stroke-width: 1.0;"/><polygon fill="none" points="916.269,184.9797,931.9,170.6727,928.603,191.6037,916.269,184.9797" style="stroke: #383838; stroke-width: 1.0;"/><path d="M1066.49,112.4417 C1319.58,143.0117 2060.08,232.4537 2316.16,263.3837 " fill="none" style="stroke: #383838; stroke-width: 1.0;"/><polygon fill="none" points="1065.34,119.3537,1046.33,110.0057,1067.02,105.4547,1065.34,119.3537" style="stroke: #383838; stroke-width: 1.0;"/><path d="M894.869,105.8067 C741.214,114.6127 410.123,143.0787 146.5,231.5547 C132.031,236.4107 117.062,243.7777 104.0974,251.0207 " fill="none" style="stroke: #383838; stroke-width: 1.0;"/><polygon fill="none" points="894.557,98.8137,914.909,104.7137,895.32,112.7927,894.557,98.8137" style="stroke: #383838; stroke-width: 1.0;"/><path d="M895.043,119.0547 C793.317,140.4007 619.031,180.4937 474.5,231.5547 C458.934,237.0537 442.404,244.1667 427.665,250.9947 " fill="none" style="stroke: #383838; stroke-width: 1.0;"/><polygon fill="none" points="893.69,112.1867,914.695,114.9757,896.536,125.8947,893.69,112.1867" style="stroke: #383838; stroke-width: 1.0;"/><path d="M895.678,128.4787 C822.534,152.3047 714.762,189.9167 624.5,231.5547 C612.133,237.2597 599.082,244.2787 587.395,250.9567 " fill="none" style="stroke: #383838; stroke-width: 1.0;"/><polygon fill="none" points="893.7,121.7617,914.883,122.2807,898,135.0847,893.7,121.7617" style="stroke: #383838; stroke-width: 1.0;"/><path d="M896.353,134.8667 C857.178,151.8757 810.868,174.5417 772.5,200.5547 C751.102,215.0627 729.818,235.2867 714.742,250.8497 " fill="none" style="stroke: #383838; stroke-width: 1.0;"/><polygon fill="none" points="893.799,128.3467,914.945,126.9817,899.266,141.2347,893.799,128.3467" style="stroke: #383838; stroke-width: 1.0;"/><path d="M894.723,108.3147 C761.29,120.1947 497.616,152.3197 288.5,231.5547 C275.469,236.4927 262.12,243.7897 250.564,250.9497 " fill="none" style="stroke: #383838; stroke-width: 1.0;"/><polygon fill="none" points="894.467,101.3107,914.991,106.5767,895.662,115.2597,894.467,101.3107" style="stroke: #383838; stroke-width: 1.0;"/><path d="M897.356,141.4297 C849.394,170.4937 798.5,215.2007 798.5,274.0547 C798.5,274.0547 798.5,274.0547 798.5,716.5547 C798.5,784.1509 1019.41,824.3369 1121.67,839.3177 " fill="none" style="stroke: #383838; stroke-width: 1.0;"/><polygon fill="none" points="893.961,135.3067,914.794,131.4327,900.925,147.4527,893.961,135.3067" style="stroke: #383838; stroke-width: 1.0;"/><path d="M1065.09,127.1047 C1115.21,146.7967 1174.61,179.7457 1204.5,231.5547 C1223.82,265.0467 1207.21,279.9837 1204.5,318.5547 C1198.49,404.0767 1177.5,423.8217 1177.5,509.5547 C1177.5,509.5547 1177.5,509.5547 1177.5,716.5547 C1177.5,834.6599 1603.95,846.176 1758.45,846.4726 " fill="none" style="stroke: #383838; stroke-width: 1.0;"/><polygon fill="none" points="1062.39,133.5717,1046.06,120.0727,1067.25,120.4397,1062.39,133.5717" style="stroke: #383838; stroke-width: 1.0;"/><path d="M980.5,191.2567 C980.5,213.3867 980.5,235.2337 980.5,250.9247 " fill="none" style="stroke: #383838; stroke-width: 1.0;"/><polygon fill="none" points="973.5,191.0227,980.5,171.0227,987.5,191.0227,973.5,191.0227" style="stroke: #383838; stroke-width: 1.0;"/><path d="M1053.86,186.1737 C1074.64,210.0067 1095.6,234.0327 1110.33,250.9247 " fill="none" style="stroke: #383838; stroke-width: 1.0;"/><polygon fill="none" points="1048.52,190.6967,1040.65,171.0227,1059.07,181.4947,1048.52,190.6967" style="stroke: #383838; stroke-width: 1.0;"/><path d="M1447.93,320.1747 C1414.97,345.4327 1374.5,376.4467 1345.3,398.8177 " fill="none" style="stroke: #383838; stroke-width: 1.0;"/><polygon fill="#383838" points="1458.34,312.1947,1451.1447,312.6723,1448.8182,319.4978,1456.0135,319.0202,1458.34,312.1947" style="stroke: #383838; stroke-width: 1.0;"/><path d="M1564.52,320.1747 C1598.31,345.4327 1639.8,376.4467 1669.72,398.8177 " fill="none" style="stroke: #383838; stroke-width: 1.0;"/><polygon fill="#383838" points="1553.85,312.1947,1556.2596,318.9913,1563.4601,319.3812,1561.0506,312.5846,1553.85,312.1947" style="stroke: #383838; stroke-width: 1.0;"/><path d="M1237.41,470.1097 C1190.74,496.8317 1130.75,531.1817 1091.73,553.5237 " fill="none" style="stroke: #383838; stroke-width: 1.0;"/><polygon fill="none" points="1234.06,463.9627,1254.9,460.0997,1241.02,476.1127,1234.06,463.9627" style="stroke: #383838; stroke-width: 1.0;"/><path d="M1306.84,480.4537 C1307.01,505.1377 1307.21,533.7507 1307.34,553.2947 " fill="none" style="stroke: #383838; stroke-width: 1.0;"/><polygon fill="none" points="1299.84,480.1477,1306.7,460.0997,1313.84,480.0517,1299.84,480.1477" style="stroke: #383838; stroke-width: 1.0;"/><path d="M950.998,460.0997 C971.762,484.1597 1001.071,518.1207 1022.68,543.1627 " fill="none" style="stroke: #383838; stroke-width: 1.0;"/><polygon fill="#383838" points="1031.43,553.2947,1030.5382,546.1389,1023.5899,544.2099,1024.4817,551.3657,1031.43,553.2947" style="stroke: #383838; stroke-width: 1.0;"/><path d="M1467.82,460.0997 C1433.56,484.9867 1384.72,520.4677 1349.96,545.7127 " fill="none" style="stroke: #383838; stroke-width: 1.0;"/><polygon fill="#383838" points="1339.21,553.5237,1346.4152,553.2323,1348.9175,546.4692,1341.7122,546.7606,1339.21,553.5237" style="stroke: #383838; stroke-width: 1.0;"/><path d="M1683.26,477.8517 C1669.25,503.1037 1652.63,533.0597 1641.4,553.2947 " fill="none" style="stroke: #383838; stroke-width: 1.0;"/><polygon fill="none" points="1677.28,474.1927,1693.11,460.0997,1689.53,480.9847,1677.28,474.1927" style="stroke: #383838; stroke-width: 1.0;"/><path d="M1737.78,477.4817 C1753.05,502.8107 1771.22,532.9617 1783.48,553.2947 " fill="none" style="stroke: #383838; stroke-width: 1.0;"/><polygon fill="none" points="1731.64,480.8427,1727.31,460.0997,1743.63,473.6157,1731.64,480.8427" style="stroke: #383838; stroke-width: 1.0;"/><path d="M1781.19,469.7557 C1830.15,496.5277 1893.34,531.0827 1934.38,553.5237 " fill="none" style="stroke: #383838; stroke-width: 1.0;"/><polygon fill="none" points="1777.72,475.8377,1763.53,460.0997,1784.44,463.5537,1777.72,475.8377" style="stroke: #383838; stroke-width: 1.0;"/><path d="M2327.28,332.4667 C2311.74,347.3027 2296.11,363.6257 2282.5,379.5547 C2231.83,438.8787 2180.56,515.6657 2162.63,553.4597 " fill="none" style="stroke: #383838; stroke-width: 1.0;"/><polygon fill="none" points="2322.65,327.2167,2342.07,318.7587,2332.16,337.4867,2322.65,327.2167" style="stroke: #383838; stroke-width: 1.0;"/><path d="M2365.11,328.3767 C2349.66,344.2707 2332.37,362.1477 2317.5,379.5547 C2266.83,438.8787 2215.56,515.6657 2184.31,553.4597 " fill="none" style="stroke: #383838; stroke-width: 1.0;"/><polygon fill="#383838" points="2374.45,318.7587,2367.3995,320.2723,2366.085,327.3626,2373.1354,325.849,2374.45,318.7587" style="stroke: #383838; stroke-width: 1.0;"/><path d="M2455.07,333.1727 C2521.88,399.8087 2636.84,506.7987 2692.76,553.4997 " fill="none" style="stroke: #383838; stroke-width: 1.0;"/><polygon fill="none" points="2449.91,337.9117,2440.78,318.7897,2459.84,328.0457,2449.91,337.9117" style="stroke: #383838; stroke-width: 1.0;"/><path d="M2469.64,327.4007 C2544.83,393.4627 2663.11,505.4247 2707.56,553.4997 " fill="none" style="stroke: #383838; stroke-width: 1.0;"/><polygon fill="#383838" points="2459.78,318.7897,2461.6651,325.75,2468.8151,326.687,2466.93,319.7266,2459.78,318.7897" style="stroke: #383838; stroke-width: 1.0;"/><path d="M2404.5,339.3347 C2404.5,352.7617 2404.5,366.7407 2404.5,379.5407 " fill="none" style="stroke: #383838; stroke-width: 1.0;"/><polygon fill="none" points="2397.5,338.9407,2404.5,318.9407,2411.5,338.9407,2397.5,338.9407" style="stroke: #383838; stroke-width: 1.0;"/><path d="M2504.7,318.8987 C2597.64,362.9247 2734.61,439.2907 2823.5,540.5547 C2865.34,588.2237 2897.84,656.3557 2913.05,691.5497 " fill="none" style="stroke: #383838; stroke-width: 1.0;"/><polygon fill="#383838" points="2492.74,313.2967,2496.4768,319.464,2503.607,318.3867,2499.8702,312.2193,2492.74,313.2967" style="stroke: #383838; stroke-width: 1.0;"/><path d="M2304.69,482.4197 C2288.75,491.2077 2272.56,500.4437 2257.5,509.5547 C2234.77,523.3047 2210.02,540.0547 2190.95,553.3667 " fill="none" style="stroke: #383838; stroke-width: 1.0;"/><polygon fill="#383838" points="2316.23,476.1077,2309.0463,475.4797,2305.7036,481.8692,2312.8873,482.4973,2316.23,476.1077" style="stroke: #383838; stroke-width: 1.0;"/><path d="M2504.95,476.3847 C2561.1,502.0017 2628.66,532.8257 2673.87,553.4537 " fill="none" style="stroke: #383838; stroke-width: 1.0;"/><polygon fill="#383838" points="2492.79,470.8367,2496.5928,476.9636,2503.711,475.8098,2499.9082,469.6829,2492.79,470.8367" style="stroke: #383838; stroke-width: 1.0;"/><path d="M2355.8,490.6057 C2312.48,553.1947 2253.43,648.0777 2231.77,691.4517 " fill="none" style="stroke: #383838; stroke-width: 1.0;"/><polygon fill="#383838" points="2363.43,479.6997,2356.7144,482.3267,2356.5564,489.536,2363.272,486.9091,2363.43,479.6997" style="stroke: #383838; stroke-width: 1.0;"/><path d="M2373.83,497.3307 C2337.62,559.8097 2279.43,649.6037 2246.95,691.4517 " fill="none" style="stroke: #383838; stroke-width: 1.0;"/><polygon fill="none" points="2367.89,493.6207,2383.86,479.6997,2380.05,500.5447,2367.89,493.6207" style="stroke: #383838; stroke-width: 1.0;"/><path d="M2387.42,492.5597 C2377.51,555.1537 2369.1,648.5267 2370.49,691.4517 " fill="none" style="stroke: #383838; stroke-width: 1.0;"/><polygon fill="#383838" points="2389.56,479.6997,2384.6313,484.9635,2387.5945,491.5376,2392.5232,486.2738,2389.56,479.6997" style="stroke: #383838; stroke-width: 1.0;"/><path d="M2409.21,499.7577 C2406.08,562.1147 2395.77,650.1427 2385.66,691.4517 " fill="none" style="stroke: #383838; stroke-width: 1.0;"/><polygon fill="none" points="2402.22,499.4137,2409.99,479.6997,2416.21,499.9557,2402.22,499.4137" style="stroke: #383838; stroke-width: 1.0;"/><path d="M2464.4,494.3947 C2479.18,510.1357 2494.49,526.4537 2507.54,540.3597 " fill="none" style="stroke: #383838; stroke-width: 1.0;"/><polygon fill="none" points="2459.08,498.9517,2450.5,479.5767,2469.29,489.3717,2459.08,498.9517" style="stroke: #383838; stroke-width: 1.0;"/><path d="M2627.13,614.9287 C2712.56,647.1957 2792.37,673.5377 2848.69,691.5177 " fill="none" style="stroke: #383838; stroke-width: 1.0;"/><polygon fill="none" points="2624.44,621.3937,2608.24,607.7307,2629.43,608.3107,2624.44,621.3937" style="stroke: #383838; stroke-width: 1.0;"/><path d="M2462.69,612.3667 C2405.16,637.0467 2328.71,669.8477 2278.12,691.5517 " fill="none" style="stroke: #383838; stroke-width: 1.0;"/><polygon fill="#383838" points="2474.66,607.2307,2467.5687,605.9218,2463.6331,611.9642,2470.7244,613.2731,2474.66,607.2307" style="stroke: #383838; stroke-width: 1.0;"/><path d="M2491.92,623.8017 C2477.78,636.2937 2462.22,649.6737 2447.5,661.5547 C2434.94,671.6917 2420.7,682.3397 2408.22,691.4097 " fill="none" style="stroke: #383838; stroke-width: 1.0;"/><polygon fill="#383838" points="2501.92,614.8977,2494.7788,615.8991,2492.9565,622.8761,2500.0977,621.8747,2501.92,614.8977" style="stroke: #383838; stroke-width: 1.0;"/><path d="M2607.06,626.4907 C2637.17,648.5067 2671.49,673.6037 2695.78,691.3587 " fill="none" style="stroke: #383838; stroke-width: 1.0;"/><polygon fill="none" points="2602.87,632.0987,2590.86,614.6427,2611.13,620.7977,2602.87,632.0987" style="stroke: #383838; stroke-width: 1.0;"/><path d="M2541.5,634.8027 C2541.5,654.5307 2541.5,675.6197 2541.5,691.1537 " fill="none" style="stroke: #383838; stroke-width: 1.0;"/><polygon fill="none" points="2534.5,634.6427,2541.5,614.6427,2548.5,634.6427,2534.5,634.6427" style="stroke: #383838; stroke-width: 1.0;"/><path d="M1494.51,460.0557 C1476.02,497.6627 1441.22,563.8747 1402.5,614.5547 C1343.29,692.0607 1259.7,770.0187 1211.3,812.7678 " fill="none" style="stroke: #383838; stroke-width: 1.0;"/><polygon fill="#383838" points="1207.3,816.2889,1216.6933,813.3283,1211.0473,812.9786,1211.3969,807.3326,1207.3,816.2889" style="stroke: #383838; stroke-width: 1.0;"/><text fill="#000000" font-family="sans-serif" font-size="13" lengthAdjust="spacingAndGlyphs" textLength="12" x="1377.5" y="658.123">id</text><path d="M1508.46,460.3557 C1509.67,498.5727 1516.11,565.7337 1544.5,614.5547 C1596.15,703.3717 1694.64,774.7027 1757.04,813.6458 " fill="none" style="stroke: #383838; stroke-width: 1.0;"/><polygon fill="#383838" points="1761.47,816.3935,1755.9207,808.2568,1757.2179,813.7629,1751.7118,815.0601,1761.47,816.3935" style="stroke: #383838; stroke-width: 1.0;"/><text fill="#000000" font-family="sans-serif" font-size="13" lengthAdjust="spacingAndGlyphs" textLength="38" x="1576.5" y="658.123">valeur</text><path d="M926.417,460.1747 C928.648,497.9067 936.19,564.2517 961.5,614.5547 C1002.984,697.0057 1082.21,771.8867 1130.9,812.9931 " fill="none" style="stroke: #383838; stroke-width: 1.0;"/><polygon fill="#383838" points="1134.93,816.3793,1130.6086,807.5291,1131.1005,813.1645,1125.465,813.6564,1134.93,816.3793" style="stroke: #383838; stroke-width: 1.0;"/><text fill="#000000" font-family="sans-serif" font-size="13" lengthAdjust="spacingAndGlyphs" textLength="12" x="989.5" y="658.123">id</text><path d="M2650.96,736.0247 C2645.07,737.2967 2639.2,738.4907 2633.5,739.5547 C2351.36,792.2256 2009.77,827.5838 1873.68,840.5458 " fill="none" style="stroke: #383838; stroke-width: 1.0;"/><polygon fill="#383838" points="1868.53,841.0347,1877.8671,844.1683,1873.5077,840.5632,1877.1127,836.2039,1868.53,841.0347" style="stroke: #383838; stroke-width: 1.0;"/><text fill="#000000" font-family="sans-serif" font-size="13" lengthAdjust="spacingAndGlyphs" textLength="38" x="2455.5" y="783.123">valeur</text><path d="M2650.75,736.3417 C2644.93,737.5317 2639.14,738.6217 2633.5,739.5547 C2483.84,764.3197 2444.05,750.9387 2293.5,769.5547 C2141.85,788.306 1964.58,818.8048 1873.81,835.0508 " fill="none" style="stroke: #383838; stroke-width: 1.0;"/><polygon fill="#383838" points="1868.75,835.9567,1878.3162,838.2994,1873.6709,835.0711,1876.8992,830.4258,1868.75,835.9567" style="stroke: #383838; stroke-width: 1.0;"/><text fill="#000000" font-family="sans-serif" font-size="13" lengthAdjust="spacingAndGlyphs" textLength="38" x="2294.5" y="783.123">valeur</text><path d="M2466.9,736.2777 C2461.04,737.4997 2455.18,738.6137 2449.5,739.5547 C2327.82,759.7027 1458.75,824.8572 1228.41,841.9287 " fill="none" style="stroke: #383838; stroke-width: 1.0;"/><polygon fill="#383838" points="1223.09,842.3229,1232.3528,845.6697,1228.0772,841.9657,1231.7812,837.6901,1223.09,842.3229" style="stroke: #383838; stroke-width: 1.0;"/><text fill="#000000" font-family="sans-serif" font-size="13" lengthAdjust="spacingAndGlyphs" textLength="12" x="2144.5" y="783.123">id</text></g></svg>