<?xml version="1.0" encoding="UTF-8" standalone="yes"?><svg xmlns="http://www.w3.org/2000/svg" xmlns:xlink="http://www.w3.org/1999/xlink" height="290.4px" style="width:545px;height:290px;" version="1.1" viewBox="0 0 545 290" width="545.8px"><defs/><g><text fill="#000000" font-family="sans-serif" font-size="4" lengthAdjust="spacingAndGlyphs" textLength="38.2" x="255.6" y="4.1523">Diagramme de classe</text><rect fill="#FFFFFF" height="28.9703" style="stroke: #383838; stroke-width: 0.30000000447034836;" width="23.8" x="256" y="6.6313"/><ellipse cx="262.51" cy="9.8313" fill="#C2C2C2" rx="2.2" ry="2.2" style="stroke: #383838; stroke-width: 0.20000000298023224;"/><path d="M263.0631,9.0063 Q263.0944,8.9625 263.1319,8.9406 Q263.1694,8.9188 263.2131,8.9188 Q263.2881,8.9188 263.335,8.9703 Q263.3819,9.0219 263.3819,9.1438 L263.3819,9.4344 Q263.3819,9.5563 263.335,9.6094 Q263.2881,9.6625 263.2131,9.6625 Q263.1444,9.6625 263.1038,9.6219 Q263.0631,9.5844 263.0413,9.4813 Q263.0319,9.4094 262.9944,9.3719 Q262.9288,9.2969 262.8069,9.2531 Q262.685,9.2094 262.56,9.2094 Q262.4069,9.2094 262.2803,9.275 Q262.1538,9.3406 262.0553,9.4906 Q261.9569,9.6406 261.9569,9.8469 L261.9569,10.0656 Q261.9569,10.3125 262.135,10.4766 Q262.3131,10.6406 262.6319,10.6406 Q262.8194,10.6406 262.9506,10.5906 Q263.0288,10.5594 263.1131,10.4719 Q263.1663,10.4188 263.1959,10.4031 Q263.2256,10.3875 263.2663,10.3875 Q263.3319,10.3875 263.3834,10.4391 Q263.435,10.4906 263.435,10.5594 Q263.435,10.6281 263.3663,10.7094 Q263.2663,10.825 263.1069,10.8906 Q262.8913,10.9813 262.6319,10.9813 Q262.3288,10.9813 262.0881,10.8563 Q261.8913,10.7563 261.7538,10.5422 Q261.6163,10.3281 261.6163,10.0719 L261.6163,9.8406 Q261.6163,9.575 261.7397,9.3453 Q261.8631,9.1156 262.0819,8.9922 Q262.3006,8.8688 262.5475,8.8688 Q262.6944,8.8688 262.8241,8.9016 Q262.9538,8.9344 263.0631,9.0063 Z "/><text fill="#000000" font-family="sans-serif" font-size="2.4" lengthAdjust="spacingAndGlyphs" textLength="9.6" x="266.09" y="10.8133">Symbole</text><line style="stroke: #383838; stroke-width: 0.30000000447034836;" x1="256.2" x2="279.6" y1="13.0313" y2="13.0313"/><polygon fill="none" points="258.2,14.7148,257.4,15.9148,259,15.9148" style="stroke: #535353; stroke-width: 0.20000000298023224;"/><text fill="#000000" font-family="sans-serif" font-size="2.2" lengthAdjust="spacingAndGlyphs" textLength="4.4" x="260" y="16.115">int id</text><line style="stroke: #383838; stroke-width: 0.30000000447034836;" x1="256.2" x2="279.6" y1="17.3984" y2="17.3984"/><ellipse cx="258.2" cy="19.882" fill="#A6A6A6" rx="0.6" ry="0.6" style="stroke: #545454; stroke-width: 0.20000000298023224;"/><text fill="#000000" font-family="sans-serif" font-size="2.2" lengthAdjust="spacingAndGlyphs" textLength="14.8" x="260" y="20.4822">Symbole (int id)</text><ellipse cx="258.2" cy="22.6492" fill="#A6A6A6" rx="0.6" ry="0.6" style="stroke: #545454; stroke-width: 0.20000000298023224;"/><text fill="#000000" font-family="sans-serif" font-size="2.2" lengthAdjust="spacingAndGlyphs" textLength="18.6" x="260" y="23.2494">operator int() const</text><ellipse cx="258.2" cy="25.4164" fill="#A6A6A6" rx="0.6" ry="0.6" style="stroke: #545454; stroke-width: 0.20000000298023224;"/><text fill="#000000" font-family="sans-serif" font-size="2.2" lengthAdjust="spacingAndGlyphs" textLength="14.8" x="260" y="26.0166">void exectuer()</text><ellipse cx="258.2" cy="28.1836" fill="#A6A6A6" rx="0.6" ry="0.6" style="stroke: #545454; stroke-width: 0.20000000298023224;"/><text fill="#000000" font-family="sans-serif" font-size="2.2" lengthAdjust="spacingAndGlyphs" textLength="13.8" x="260" y="28.7838">void afficher()</text><ellipse cx="258.2" cy="30.9508" fill="#A6A6A6" rx="0.6" ry="0.6" style="stroke: #545454; stroke-width: 0.20000000298023224;"/><text fill="#000000" font-family="sans-serif" font-size="2.2" lengthAdjust="spacingAndGlyphs" textLength="14.6" x="260" y="31.551">void analyser()</text><ellipse cx="258.2" cy="33.718" fill="#A6A6A6" rx="0.6" ry="0.6" style="stroke: #545454; stroke-width: 0.20000000298023224;"/><text fill="#000000" font-family="sans-serif" font-size="2.2" lengthAdjust="spacingAndGlyphs" textLength="14.8" x="260" y="34.3182">void optimiser()</text><rect fill="#FFFFFF" height="9.6" style="stroke: #383838; stroke-width: 0.30000000447034836;" width="23.8" x="1.2" y="47.8313"/><ellipse cx="4.2" cy="51.0313" fill="#C2C2C2" rx="2.2" ry="2.2" style="stroke: #383838; stroke-width: 0.20000000298023224;"/><path d="M4.7531,50.2063 Q4.7844,50.1625 4.8219,50.1406 Q4.8594,50.1188 4.9031,50.1188 Q4.9781,50.1188 5.025,50.1703 Q5.0719,50.2219 5.0719,50.3438 L5.0719,50.6344 Q5.0719,50.7563 5.025,50.8094 Q4.9781,50.8625 4.9031,50.8625 Q4.8344,50.8625 4.7938,50.8219 Q4.7531,50.7844 4.7313,50.6813 Q4.7219,50.6094 4.6844,50.5719 Q4.6188,50.4969 4.4969,50.4531 Q4.375,50.4094 4.25,50.4094 Q4.0969,50.4094 3.9703,50.475 Q3.8438,50.5406 3.7453,50.6906 Q3.6469,50.8406 3.6469,51.0469 L3.6469,51.2656 Q3.6469,51.5125 3.825,51.6766 Q4.0031,51.8406 4.3219,51.8406 Q4.5094,51.8406 4.6406,51.7906 Q4.7188,51.7594 4.8031,51.6719 Q4.8563,51.6188 4.8859,51.6031 Q4.9156,51.5875 4.9563,51.5875 Q5.0219,51.5875 5.0734,51.6391 Q5.125,51.6906 5.125,51.7594 Q5.125,51.8281 5.0563,51.9094 Q4.9563,52.025 4.7969,52.0906 Q4.5813,52.1813 4.3219,52.1813 Q4.0188,52.1813 3.7781,52.0563 Q3.5813,51.9563 3.4438,51.7422 Q3.3063,51.5281 3.3063,51.2719 L3.3063,51.0406 Q3.3063,50.775 3.4297,50.5453 Q3.5531,50.3156 3.7719,50.1922 Q3.9906,50.0688 4.2375,50.0688 Q4.3844,50.0688 4.5141,50.1016 Q4.6438,50.1344 4.7531,50.2063 Z "/><text fill="#000000" font-family="sans-serif" font-size="2.4" lengthAdjust="spacingAndGlyphs" textLength="17.4" x="7" y="52.0133">VirguleTerminal</text><line style="stroke: #383838; stroke-width: 0.30000000447034836;" x1="1.4" x2="24.8" y1="54.2313" y2="54.2313"/><line style="stroke: #383838; stroke-width: 0.30000000447034836;" x1="1.4" x2="24.8" y1="55.8313" y2="55.8313"/><rect fill="#FFFFFF" height="9.6" style="stroke: #383838; stroke-width: 0.30000000447034836;" width="21.2" x="25.1" y="71.0313"/><ellipse cx="28.1" cy="74.2313" fill="#C2C2C2" rx="2.2" ry="2.2" style="stroke: #383838; stroke-width: 0.20000000298023224;"/><path d="M28.6531,73.4063 Q28.6844,73.3625 28.7219,73.3406 Q28.7594,73.3188 28.8031,73.3188 Q28.8781,73.3188 28.925,73.3703 Q28.9719,73.4219 28.9719,73.5438 L28.9719,73.8344 Q28.9719,73.9563 28.925,74.0094 Q28.8781,74.0625 28.8031,74.0625 Q28.7344,74.0625 28.6938,74.0219 Q28.6531,73.9844 28.6313,73.8813 Q28.6219,73.8094 28.5844,73.7719 Q28.5188,73.6969 28.3969,73.6531 Q28.275,73.6094 28.15,73.6094 Q27.9969,73.6094 27.8703,73.675 Q27.7438,73.7406 27.6453,73.8906 Q27.5469,74.0406 27.5469,74.2469 L27.5469,74.4656 Q27.5469,74.7125 27.725,74.8766 Q27.9031,75.0406 28.2219,75.0406 Q28.4094,75.0406 28.5406,74.9906 Q28.6188,74.9594 28.7031,74.8719 Q28.7563,74.8188 28.7859,74.8031 Q28.8156,74.7875 28.8563,74.7875 Q28.9219,74.7875 28.9734,74.8391 Q29.025,74.8906 29.025,74.9594 Q29.025,75.0281 28.9563,75.1094 Q28.8563,75.225 28.6969,75.2906 Q28.4813,75.3813 28.2219,75.3813 Q27.9188,75.3813 27.6781,75.2563 Q27.4813,75.1563 27.3438,74.9422 Q27.2063,74.7281 27.2063,74.4719 L27.2063,74.2406 Q27.2063,73.975 27.3297,73.7453 Q27.4531,73.5156 27.6719,73.3922 Q27.8906,73.2688 28.1375,73.2688 Q28.2844,73.2688 28.4141,73.3016 Q28.5438,73.3344 28.6531,73.4063 Z "/><text fill="#000000" font-family="sans-serif" font-size="2.4" lengthAdjust="spacingAndGlyphs" textLength="14.8" x="30.9" y="75.2133">EgalTerminal</text><line style="stroke: #383838; stroke-width: 0.30000000447034836;" x1="25.3" x2="46.1" y1="77.4313" y2="77.4313"/><line style="stroke: #383838; stroke-width: 0.30000000447034836;" x1="25.3" x2="46.1" y1="79.0313" y2="79.0313"/><rect fill="#FFFFFF" height="9.6" style="stroke: #383838; stroke-width: 0.30000000447034836;" width="29.4" x="46.4" y="47.8313"/><ellipse cx="49.4" cy="51.0313" fill="#C2C2C2" rx="2.2" ry="2.2" style="stroke: #383838; stroke-width: 0.20000000298023224;"/><path d="M49.9531,50.2063 Q49.9844,50.1625 50.0219,50.1406 Q50.0594,50.1188 50.1031,50.1188 Q50.1781,50.1188 50.225,50.1703 Q50.2719,50.2219 50.2719,50.3438 L50.2719,50.6344 Q50.2719,50.7563 50.225,50.8094 Q50.1781,50.8625 50.1031,50.8625 Q50.0344,50.8625 49.9938,50.8219 Q49.9531,50.7844 49.9313,50.6813 Q49.9219,50.6094 49.8844,50.5719 Q49.8188,50.4969 49.6969,50.4531 Q49.575,50.4094 49.45,50.4094 Q49.2969,50.4094 49.1703,50.475 Q49.0438,50.5406 48.9453,50.6906 Q48.8469,50.8406 48.8469,51.0469 L48.8469,51.2656 Q48.8469,51.5125 49.025,51.6766 Q49.2031,51.8406 49.5219,51.8406 Q49.7094,51.8406 49.8406,51.7906 Q49.9188,51.7594 50.0031,51.6719 Q50.0563,51.6188 50.0859,51.6031 Q50.1156,51.5875 50.1563,51.5875 Q50.2219,51.5875 50.2734,51.6391 Q50.325,51.6906 50.325,51.7594 Q50.325,51.8281 50.2563,51.9094 Q50.1563,52.025 49.9969,52.0906 Q49.7813,52.1813 49.5219,52.1813 Q49.2188,52.1813 48.9781,52.0563 Q48.7813,51.9563 48.6438,51.7422 Q48.5063,51.5281 48.5063,51.2719 L48.5063,51.0406 Q48.5063,50.775 48.6297,50.5453 Q48.7531,50.3156 48.9719,50.1922 Q49.1906,50.0688 49.4375,50.0688 Q49.5844,50.0688 49.7141,50.1016 Q49.8438,50.1344 49.9531,50.2063 Z "/><text fill="#000000" font-family="sans-serif" font-size="2.4" lengthAdjust="spacingAndGlyphs" textLength="23" x="52.2" y="52.0133">PointVirguleTerminal</text><line style="stroke: #383838; stroke-width: 0.30000000447034836;" x1="46.6" x2="75.6" y1="54.2313" y2="54.2313"/><line style="stroke: #383838; stroke-width: 0.30000000447034836;" x1="46.6" x2="75.6" y1="55.8313" y2="55.8313"/><rect fill="#FFFFFF" height="9.6" style="stroke: #383838; stroke-width: 0.30000000447034836;" width="22.8" x="75.1" y="71.0313"/><ellipse cx="78.1" cy="74.2313" fill="#C2C2C2" rx="2.2" ry="2.2" style="stroke: #383838; stroke-width: 0.20000000298023224;"/><path d="M78.6531,73.4063 Q78.6844,73.3625 78.7219,73.3406 Q78.7594,73.3188 78.8031,73.3188 Q78.8781,73.3188 78.925,73.3703 Q78.9719,73.4219 78.9719,73.5438 L78.9719,73.8344 Q78.9719,73.9563 78.925,74.0094 Q78.8781,74.0625 78.8031,74.0625 Q78.7344,74.0625 78.6938,74.0219 Q78.6531,73.9844 78.6313,73.8813 Q78.6219,73.8094 78.5844,73.7719 Q78.5188,73.6969 78.3969,73.6531 Q78.275,73.6094 78.15,73.6094 Q77.9969,73.6094 77.8703,73.675 Q77.7438,73.7406 77.6453,73.8906 Q77.5469,74.0406 77.5469,74.2469 L77.5469,74.4656 Q77.5469,74.7125 77.725,74.8766 Q77.9031,75.0406 78.2219,75.0406 Q78.4094,75.0406 78.5406,74.9906 Q78.6188,74.9594 78.7031,74.8719 Q78.7563,74.8188 78.7859,74.8031 Q78.8156,74.7875 78.8563,74.7875 Q78.9219,74.7875 78.9734,74.8391 Q79.025,74.8906 79.025,74.9594 Q79.025,75.0281 78.9563,75.1094 Q78.8563,75.225 78.6969,75.2906 Q78.4813,75.3813 78.2219,75.3813 Q77.9188,75.3813 77.6781,75.2563 Q77.4813,75.1563 77.3438,74.9422 Q77.2063,74.7281 77.2063,74.4719 L77.2063,74.2406 Q77.2063,73.975 77.3297,73.7453 Q77.4531,73.5156 77.6719,73.3922 Q77.8906,73.2688 78.1375,73.2688 Q78.2844,73.2688 78.4141,73.3016 Q78.5438,73.3344 78.6531,73.4063 Z "/><text fill="#000000" font-family="sans-serif" font-size="2.4" lengthAdjust="spacingAndGlyphs" textLength="16.4" x="80.9" y="75.2133">ConstTerminal</text><line style="stroke: #383838; stroke-width: 0.30000000447034836;" x1="75.3" x2="97.7" y1="77.4313" y2="77.4313"/><line style="stroke: #383838; stroke-width: 0.30000000447034836;" x1="75.3" x2="97.7" y1="79.0313" y2="79.0313"/><rect fill="#FFFFFF" height="9.6" style="stroke: #383838; stroke-width: 0.30000000447034836;" width="19.8" x="97.2" y="47.8313"/><ellipse cx="100.2" cy="51.0313" fill="#C2C2C2" rx="2.2" ry="2.2" style="stroke: #383838; stroke-width: 0.20000000298023224;"/><path d="M100.7531,50.2063 Q100.7844,50.1625 100.8219,50.1406 Q100.8594,50.1188 100.9031,50.1188 Q100.9781,50.1188 101.025,50.1703 Q101.0719,50.2219 101.0719,50.3438 L101.0719,50.6344 Q101.0719,50.7563 101.025,50.8094 Q100.9781,50.8625 100.9031,50.8625 Q100.8344,50.8625 100.7938,50.8219 Q100.7531,50.7844 100.7313,50.6813 Q100.7219,50.6094 100.6844,50.5719 Q100.6188,50.4969 100.4969,50.4531 Q100.375,50.4094 100.25,50.4094 Q100.0969,50.4094 99.9703,50.475 Q99.8438,50.5406 99.7453,50.6906 Q99.6469,50.8406 99.6469,51.0469 L99.6469,51.2656 Q99.6469,51.5125 99.825,51.6766 Q100.0031,51.8406 100.3219,51.8406 Q100.5094,51.8406 100.6406,51.7906 Q100.7188,51.7594 100.8031,51.6719 Q100.8563,51.6188 100.8859,51.6031 Q100.9156,51.5875 100.9563,51.5875 Q101.0219,51.5875 101.0734,51.6391 Q101.125,51.6906 101.125,51.7594 Q101.125,51.8281 101.0563,51.9094 Q100.9563,52.025 100.7969,52.0906 Q100.5813,52.1813 100.3219,52.1813 Q100.0188,52.1813 99.7781,52.0563 Q99.5813,51.9563 99.4438,51.7422 Q99.3063,51.5281 99.3063,51.2719 L99.3063,51.0406 Q99.3063,50.775 99.4297,50.5453 Q99.5531,50.3156 99.7719,50.1922 Q99.9906,50.0688 100.2375,50.0688 Q100.3844,50.0688 100.5141,50.1016 Q100.6438,50.1344 100.7531,50.2063 Z "/><text fill="#000000" font-family="sans-serif" font-size="2.4" lengthAdjust="spacingAndGlyphs" textLength="13.4" x="103" y="52.0133">VarTerminal</text><line style="stroke: #383838; stroke-width: 0.30000000447034836;" x1="97.4" x2="116.8" y1="54.2313" y2="54.2313"/><line style="stroke: #383838; stroke-width: 0.30000000447034836;" x1="97.4" x2="116.8" y1="55.8313" y2="55.8313"/><rect fill="#FFFFFF" height="9.6" style="stroke: #383838; stroke-width: 0.30000000447034836;" width="20.4" x="117.5" y="71.0313"/><ellipse cx="120.5" cy="74.2313" fill="#C2C2C2" rx="2.2" ry="2.2" style="stroke: #383838; stroke-width: 0.20000000298023224;"/><path d="M121.0531,73.4063 Q121.0844,73.3625 121.1219,73.3406 Q121.1594,73.3188 121.2031,73.3188 Q121.2781,73.3188 121.325,73.3703 Q121.3719,73.4219 121.3719,73.5438 L121.3719,73.8344 Q121.3719,73.9563 121.325,74.0094 Q121.2781,74.0625 121.2031,74.0625 Q121.1344,74.0625 121.0938,74.0219 Q121.0531,73.9844 121.0313,73.8813 Q121.0219,73.8094 120.9844,73.7719 Q120.9188,73.6969 120.7969,73.6531 Q120.675,73.6094 120.55,73.6094 Q120.3969,73.6094 120.2703,73.675 Q120.1438,73.7406 120.0453,73.8906 Q119.9469,74.0406 119.9469,74.2469 L119.9469,74.4656 Q119.9469,74.7125 120.125,74.8766 Q120.3031,75.0406 120.6219,75.0406 Q120.8094,75.0406 120.9406,74.9906 Q121.0188,74.9594 121.1031,74.8719 Q121.1563,74.8188 121.1859,74.8031 Q121.2156,74.7875 121.2563,74.7875 Q121.3219,74.7875 121.3734,74.8391 Q121.425,74.8906 121.425,74.9594 Q121.425,75.0281 121.3563,75.1094 Q121.2563,75.225 121.0969,75.2906 Q120.8813,75.3813 120.6219,75.3813 Q120.3188,75.3813 120.0781,75.2563 Q119.8813,75.1563 119.7438,74.9422 Q119.6063,74.7281 119.6063,74.4719 L119.6063,74.2406 Q119.6063,73.975 119.7297,73.7453 Q119.8531,73.5156 120.0719,73.3922 Q120.2906,73.2688 120.5375,73.2688 Q120.6844,73.2688 120.8141,73.3016 Q120.9438,73.3344 121.0531,73.4063 Z "/><text fill="#000000" font-family="sans-serif" font-size="2.4" lengthAdjust="spacingAndGlyphs" textLength="14" x="123.3" y="75.2133">LireTerminal</text><line style="stroke: #383838; stroke-width: 0.30000000447034836;" x1="117.7" x2="137.7" y1="77.4313" y2="77.4313"/><line style="stroke: #383838; stroke-width: 0.30000000447034836;" x1="117.7" x2="137.7" y1="79.0313" y2="79.0313"/><rect fill="#FFFFFF" height="9.6" style="stroke: #383838; stroke-width: 0.30000000447034836;" width="22.6" x="138.4" y="47.8313"/><ellipse cx="141.4" cy="51.0313" fill="#C2C2C2" rx="2.2" ry="2.2" style="stroke: #383838; stroke-width: 0.20000000298023224;"/><path d="M141.9531,50.2063 Q141.9844,50.1625 142.0219,50.1406 Q142.0594,50.1188 142.1031,50.1188 Q142.1781,50.1188 142.225,50.1703 Q142.2719,50.2219 142.2719,50.3438 L142.2719,50.6344 Q142.2719,50.7563 142.225,50.8094 Q142.1781,50.8625 142.1031,50.8625 Q142.0344,50.8625 141.9938,50.8219 Q141.9531,50.7844 141.9313,50.6813 Q141.9219,50.6094 141.8844,50.5719 Q141.8188,50.4969 141.6969,50.4531 Q141.575,50.4094 141.45,50.4094 Q141.2969,50.4094 141.1703,50.475 Q141.0438,50.5406 140.9453,50.6906 Q140.8469,50.8406 140.8469,51.0469 L140.8469,51.2656 Q140.8469,51.5125 141.025,51.6766 Q141.2031,51.8406 141.5219,51.8406 Q141.7094,51.8406 141.8406,51.7906 Q141.9188,51.7594 142.0031,51.6719 Q142.0563,51.6188 142.0859,51.6031 Q142.1156,51.5875 142.1563,51.5875 Q142.2219,51.5875 142.2734,51.6391 Q142.325,51.6906 142.325,51.7594 Q142.325,51.8281 142.2563,51.9094 Q142.1563,52.025 141.9969,52.0906 Q141.7813,52.1813 141.5219,52.1813 Q141.2188,52.1813 140.9781,52.0563 Q140.7813,51.9563 140.6438,51.7422 Q140.5063,51.5281 140.5063,51.2719 L140.5063,51.0406 Q140.5063,50.775 140.6297,50.5453 Q140.7531,50.3156 140.9719,50.1922 Q141.1906,50.0688 141.4375,50.0688 Q141.5844,50.0688 141.7141,50.1016 Q141.8438,50.1344 141.9531,50.2063 Z "/><text fill="#000000" font-family="sans-serif" font-size="2.4" lengthAdjust="spacingAndGlyphs" textLength="16.2" x="144.2" y="52.0133">EcrireTerminal</text><line style="stroke: #383838; stroke-width: 0.30000000447034836;" x1="138.6" x2="160.8" y1="54.2313" y2="54.2313"/><line style="stroke: #383838; stroke-width: 0.30000000447034836;" x1="138.6" x2="160.8" y1="55.8313" y2="55.8313"/><rect fill="#FFFFFF" height="9.6" style="stroke: #383838; stroke-width: 0.30000000447034836;" width="21.2" x="161.1" y="71.0313"/><ellipse cx="164.1" cy="74.2313" fill="#C2C2C2" rx="2.2" ry="2.2" style="stroke: #383838; stroke-width: 0.20000000298023224;"/><path d="M164.6531,73.4063 Q164.6844,73.3625 164.7219,73.3406 Q164.7594,73.3188 164.8031,73.3188 Q164.8781,73.3188 164.925,73.3703 Q164.9719,73.4219 164.9719,73.5438 L164.9719,73.8344 Q164.9719,73.9563 164.925,74.0094 Q164.8781,74.0625 164.8031,74.0625 Q164.7344,74.0625 164.6938,74.0219 Q164.6531,73.9844 164.6313,73.8813 Q164.6219,73.8094 164.5844,73.7719 Q164.5188,73.6969 164.3969,73.6531 Q164.275,73.6094 164.15,73.6094 Q163.9969,73.6094 163.8703,73.675 Q163.7438,73.7406 163.6453,73.8906 Q163.5469,74.0406 163.5469,74.2469 L163.5469,74.4656 Q163.5469,74.7125 163.725,74.8766 Q163.9031,75.0406 164.2219,75.0406 Q164.4094,75.0406 164.5406,74.9906 Q164.6188,74.9594 164.7031,74.8719 Q164.7563,74.8188 164.7859,74.8031 Q164.8156,74.7875 164.8563,74.7875 Q164.9219,74.7875 164.9734,74.8391 Q165.025,74.8906 165.025,74.9594 Q165.025,75.0281 164.9563,75.1094 Q164.8563,75.225 164.6969,75.2906 Q164.4813,75.3813 164.2219,75.3813 Q163.9188,75.3813 163.6781,75.2563 Q163.4813,75.1563 163.3438,74.9422 Q163.2063,74.7281 163.2063,74.4719 L163.2063,74.2406 Q163.2063,73.975 163.3297,73.7453 Q163.4531,73.5156 163.6719,73.3922 Q163.8906,73.2688 164.1375,73.2688 Q164.2844,73.2688 164.4141,73.3016 Q164.5438,73.3344 164.6531,73.4063 Z "/><text fill="#000000" font-family="sans-serif" font-size="2.4" lengthAdjust="spacingAndGlyphs" textLength="14.8" x="166.9" y="75.2133">PlusTerminal</text><line style="stroke: #383838; stroke-width: 0.30000000447034836;" x1="161.3" x2="182.1" y1="77.4313" y2="77.4313"/><line style="stroke: #383838; stroke-width: 0.30000000447034836;" x1="161.3" x2="182.1" y1="79.0313" y2="79.0313"/><rect fill="#FFFFFF" height="9.6" style="stroke: #383838; stroke-width: 0.30000000447034836;" width="22.8" x="182.3" y="47.8313"/><ellipse cx="185.3" cy="51.0313" fill="#C2C2C2" rx="2.2" ry="2.2" style="stroke: #383838; stroke-width: 0.20000000298023224;"/><path d="M185.8531,50.2063 Q185.8844,50.1625 185.9219,50.1406 Q185.9594,50.1188 186.0031,50.1188 Q186.0781,50.1188 186.125,50.1703 Q186.1719,50.2219 186.1719,50.3438 L186.1719,50.6344 Q186.1719,50.7563 186.125,50.8094 Q186.0781,50.8625 186.0031,50.8625 Q185.9344,50.8625 185.8938,50.8219 Q185.8531,50.7844 185.8313,50.6813 Q185.8219,50.6094 185.7844,50.5719 Q185.7188,50.4969 185.5969,50.4531 Q185.475,50.4094 185.35,50.4094 Q185.1969,50.4094 185.0703,50.475 Q184.9438,50.5406 184.8453,50.6906 Q184.7469,50.8406 184.7469,51.0469 L184.7469,51.2656 Q184.7469,51.5125 184.925,51.6766 Q185.1031,51.8406 185.4219,51.8406 Q185.6094,51.8406 185.7406,51.7906 Q185.8188,51.7594 185.9031,51.6719 Q185.9563,51.6188 185.9859,51.6031 Q186.0156,51.5875 186.0563,51.5875 Q186.1219,51.5875 186.1734,51.6391 Q186.225,51.6906 186.225,51.7594 Q186.225,51.8281 186.1563,51.9094 Q186.0563,52.025 185.8969,52.0906 Q185.6813,52.1813 185.4219,52.1813 Q185.1188,52.1813 184.8781,52.0563 Q184.6813,51.9563 184.5438,51.7422 Q184.4063,51.5281 184.4063,51.2719 L184.4063,51.0406 Q184.4063,50.775 184.5297,50.5453 Q184.6531,50.3156 184.8719,50.1922 Q185.0906,50.0688 185.3375,50.0688 Q185.4844,50.0688 185.6141,50.1016 Q185.7438,50.1344 185.8531,50.2063 Z "/><text fill="#000000" font-family="sans-serif" font-size="2.4" lengthAdjust="spacingAndGlyphs" textLength="16.4" x="188.1" y="52.0133">MoinsTerminal</text><line style="stroke: #383838; stroke-width: 0.30000000447034836;" x1="182.5" x2="204.9" y1="54.2313" y2="54.2313"/><line style="stroke: #383838; stroke-width: 0.30000000447034836;" x1="182.5" x2="204.9" y1="55.8313" y2="55.8313"/><rect fill="#FFFFFF" height="9.6" style="stroke: #383838; stroke-width: 0.30000000447034836;" width="20.6" x="205.4" y="71.0313"/><ellipse cx="208.4" cy="74.2313" fill="#C2C2C2" rx="2.2" ry="2.2" style="stroke: #383838; stroke-width: 0.20000000298023224;"/><path d="M208.9531,73.4063 Q208.9844,73.3625 209.0219,73.3406 Q209.0594,73.3188 209.1031,73.3188 Q209.1781,73.3188 209.225,73.3703 Q209.2719,73.4219 209.2719,73.5438 L209.2719,73.8344 Q209.2719,73.9563 209.225,74.0094 Q209.1781,74.0625 209.1031,74.0625 Q209.0344,74.0625 208.9938,74.0219 Q208.9531,73.9844 208.9313,73.8813 Q208.9219,73.8094 208.8844,73.7719 Q208.8188,73.6969 208.6969,73.6531 Q208.575,73.6094 208.45,73.6094 Q208.2969,73.6094 208.1703,73.675 Q208.0438,73.7406 207.9453,73.8906 Q207.8469,74.0406 207.8469,74.2469 L207.8469,74.4656 Q207.8469,74.7125 208.025,74.8766 Q208.2031,75.0406 208.5219,75.0406 Q208.7094,75.0406 208.8406,74.9906 Q208.9188,74.9594 209.0031,74.8719 Q209.0563,74.8188 209.0859,74.8031 Q209.1156,74.7875 209.1563,74.7875 Q209.2219,74.7875 209.2734,74.8391 Q209.325,74.8906 209.325,74.9594 Q209.325,75.0281 209.2563,75.1094 Q209.1563,75.225 208.9969,75.2906 Q208.7813,75.3813 208.5219,75.3813 Q208.2188,75.3813 207.9781,75.2563 Q207.7813,75.1563 207.6438,74.9422 Q207.5063,74.7281 207.5063,74.4719 L207.5063,74.2406 Q207.5063,73.975 207.6297,73.7453 Q207.7531,73.5156 207.9719,73.3922 Q208.1906,73.2688 208.4375,73.2688 Q208.5844,73.2688 208.7141,73.3016 Q208.8438,73.3344 208.9531,73.4063 Z "/><text fill="#000000" font-family="sans-serif" font-size="2.4" lengthAdjust="spacingAndGlyphs" textLength="14.2" x="211.2" y="75.2133">MultTerminal</text><line style="stroke: #383838; stroke-width: 0.30000000447034836;" x1="205.6" x2="225.8" y1="77.4313" y2="77.4313"/><line style="stroke: #383838; stroke-width: 0.30000000447034836;" x1="205.6" x2="225.8" y1="79.0313" y2="79.0313"/><rect fill="#FFFFFF" height="9.6" style="stroke: #383838; stroke-width: 0.30000000447034836;" width="19.6" x="226.3" y="47.8313"/><ellipse cx="229.3" cy="51.0313" fill="#C2C2C2" rx="2.2" ry="2.2" style="stroke: #383838; stroke-width: 0.20000000298023224;"/><path d="M229.8531,50.2063 Q229.8844,50.1625 229.9219,50.1406 Q229.9594,50.1188 230.0031,50.1188 Q230.0781,50.1188 230.125,50.1703 Q230.1719,50.2219 230.1719,50.3438 L230.1719,50.6344 Q230.1719,50.7563 230.125,50.8094 Q230.0781,50.8625 230.0031,50.8625 Q229.9344,50.8625 229.8938,50.8219 Q229.8531,50.7844 229.8313,50.6813 Q229.8219,50.6094 229.7844,50.5719 Q229.7188,50.4969 229.5969,50.4531 Q229.475,50.4094 229.35,50.4094 Q229.1969,50.4094 229.0703,50.475 Q228.9438,50.5406 228.8453,50.6906 Q228.7469,50.8406 228.7469,51.0469 L228.7469,51.2656 Q228.7469,51.5125 228.925,51.6766 Q229.1031,51.8406 229.4219,51.8406 Q229.6094,51.8406 229.7406,51.7906 Q229.8188,51.7594 229.9031,51.6719 Q229.9563,51.6188 229.9859,51.6031 Q230.0156,51.5875 230.0563,51.5875 Q230.1219,51.5875 230.1734,51.6391 Q230.225,51.6906 230.225,51.7594 Q230.225,51.8281 230.1563,51.9094 Q230.0563,52.025 229.8969,52.0906 Q229.6813,52.1813 229.4219,52.1813 Q229.1188,52.1813 228.8781,52.0563 Q228.6813,51.9563 228.5438,51.7422 Q228.4063,51.5281 228.4063,51.2719 L228.4063,51.0406 Q228.4063,50.775 228.5297,50.5453 Q228.6531,50.3156 228.8719,50.1922 Q229.0906,50.0688 229.3375,50.0688 Q229.4844,50.0688 229.6141,50.1016 Q229.7438,50.1344 229.8531,50.2063 Z "/><text fill="#000000" font-family="sans-serif" font-size="2.4" lengthAdjust="spacingAndGlyphs" textLength="13.2" x="232.1" y="52.0133">DivTerminal</text><line style="stroke: #383838; stroke-width: 0.30000000447034836;" x1="226.5" x2="245.7" y1="54.2313" y2="54.2313"/><line style="stroke: #383838; stroke-width: 0.30000000447034836;" x1="226.5" x2="245.7" y1="55.8313" y2="55.8313"/><rect fill="#FFFFFF" height="9.6" style="stroke: #383838; stroke-width: 0.30000000447034836;" width="22" x="245.5" y="71.0313"/><ellipse cx="248.5" cy="74.2313" fill="#C2C2C2" rx="2.2" ry="2.2" style="stroke: #383838; stroke-width: 0.20000000298023224;"/><path d="M249.0531,73.4063 Q249.0844,73.3625 249.1219,73.3406 Q249.1594,73.3188 249.2031,73.3188 Q249.2781,73.3188 249.325,73.3703 Q249.3719,73.4219 249.3719,73.5438 L249.3719,73.8344 Q249.3719,73.9563 249.325,74.0094 Q249.2781,74.0625 249.2031,74.0625 Q249.1344,74.0625 249.0938,74.0219 Q249.0531,73.9844 249.0313,73.8813 Q249.0219,73.8094 248.9844,73.7719 Q248.9188,73.6969 248.7969,73.6531 Q248.675,73.6094 248.55,73.6094 Q248.3969,73.6094 248.2703,73.675 Q248.1438,73.7406 248.0453,73.8906 Q247.9469,74.0406 247.9469,74.2469 L247.9469,74.4656 Q247.9469,74.7125 248.125,74.8766 Q248.3031,75.0406 248.6219,75.0406 Q248.8094,75.0406 248.9406,74.9906 Q249.0188,74.9594 249.1031,74.8719 Q249.1563,74.8188 249.1859,74.8031 Q249.2156,74.7875 249.2563,74.7875 Q249.3219,74.7875 249.3734,74.8391 Q249.425,74.8906 249.425,74.9594 Q249.425,75.0281 249.3563,75.1094 Q249.2563,75.225 249.0969,75.2906 Q248.8813,75.3813 248.6219,75.3813 Q248.3188,75.3813 248.0781,75.2563 Q247.8813,75.1563 247.7438,74.9422 Q247.6063,74.7281 247.6063,74.4719 L247.6063,74.2406 Q247.6063,73.975 247.7297,73.7453 Q247.8531,73.5156 248.0719,73.3922 Q248.2906,73.2688 248.5375,73.2688 Q248.6844,73.2688 248.8141,73.3016 Q248.9438,73.3344 249.0531,73.4063 Z "/><text fill="#000000" font-family="sans-serif" font-size="2.4" lengthAdjust="spacingAndGlyphs" textLength="15.6" x="251.3" y="75.2133">AffectTerminal</text><line style="stroke: #383838; stroke-width: 0.30000000447034836;" x1="245.7" x2="267.3" y1="77.4313" y2="77.4313"/><line style="stroke: #383838; stroke-width: 0.30000000447034836;" x1="245.7" x2="267.3" y1="79.0313" y2="79.0313"/><rect fill="#FFFFFF" height="9.6" style="stroke: #383838; stroke-width: 0.30000000447034836;" width="24.2" x="267.2" y="47.8313"/><ellipse cx="270.2" cy="51.0313" fill="#C2C2C2" rx="2.2" ry="2.2" style="stroke: #383838; stroke-width: 0.20000000298023224;"/><path d="M270.7531,50.2063 Q270.7844,50.1625 270.8219,50.1406 Q270.8594,50.1188 270.9031,50.1188 Q270.9781,50.1188 271.025,50.1703 Q271.0719,50.2219 271.0719,50.3438 L271.0719,50.6344 Q271.0719,50.7563 271.025,50.8094 Q270.9781,50.8625 270.9031,50.8625 Q270.8344,50.8625 270.7938,50.8219 Q270.7531,50.7844 270.7313,50.6813 Q270.7219,50.6094 270.6844,50.5719 Q270.6188,50.4969 270.4969,50.4531 Q270.375,50.4094 270.25,50.4094 Q270.0969,50.4094 269.9703,50.475 Q269.8438,50.5406 269.7453,50.6906 Q269.6469,50.8406 269.6469,51.0469 L269.6469,51.2656 Q269.6469,51.5125 269.825,51.6766 Q270.0031,51.8406 270.3219,51.8406 Q270.5094,51.8406 270.6406,51.7906 Q270.7188,51.7594 270.8031,51.6719 Q270.8563,51.6188 270.8859,51.6031 Q270.9156,51.5875 270.9563,51.5875 Q271.0219,51.5875 271.0734,51.6391 Q271.125,51.6906 271.125,51.7594 Q271.125,51.8281 271.0563,51.9094 Q270.9563,52.025 270.7969,52.0906 Q270.5813,52.1813 270.3219,52.1813 Q270.0188,52.1813 269.7781,52.0563 Q269.5813,51.9563 269.4438,51.7422 Q269.3063,51.5281 269.3063,51.2719 L269.3063,51.0406 Q269.3063,50.775 269.4297,50.5453 Q269.5531,50.3156 269.7719,50.1922 Q269.9906,50.0688 270.2375,50.0688 Q270.3844,50.0688 270.5141,50.1016 Q270.6438,50.1344 270.7531,50.2063 Z "/><text fill="#000000" font-family="sans-serif" font-size="2.4" lengthAdjust="spacingAndGlyphs" textLength="17.8" x="273" y="52.0133">ParOuvTerminal</text><line style="stroke: #383838; stroke-width: 0.30000000447034836;" x1="267.4" x2="291.2" y1="54.2313" y2="54.2313"/><line style="stroke: #383838; stroke-width: 0.30000000447034836;" x1="267.4" x2="291.2" y1="55.8313" y2="55.8313"/><rect fill="#FFFFFF" height="9.6" style="stroke: #383838; stroke-width: 0.30000000447034836;" width="23.6" x="282.1" y="71.0313"/><ellipse cx="285.1" cy="74.2313" fill="#C2C2C2" rx="2.2" ry="2.2" style="stroke: #383838; stroke-width: 0.20000000298023224;"/><path d="M285.6531,73.4063 Q285.6844,73.3625 285.7219,73.3406 Q285.7594,73.3188 285.8031,73.3188 Q285.8781,73.3188 285.925,73.3703 Q285.9719,73.4219 285.9719,73.5438 L285.9719,73.8344 Q285.9719,73.9563 285.925,74.0094 Q285.8781,74.0625 285.8031,74.0625 Q285.7344,74.0625 285.6938,74.0219 Q285.6531,73.9844 285.6313,73.8813 Q285.6219,73.8094 285.5844,73.7719 Q285.5188,73.6969 285.3969,73.6531 Q285.275,73.6094 285.15,73.6094 Q284.9969,73.6094 284.8703,73.675 Q284.7438,73.7406 284.6453,73.8906 Q284.5469,74.0406 284.5469,74.2469 L284.5469,74.4656 Q284.5469,74.7125 284.725,74.8766 Q284.9031,75.0406 285.2219,75.0406 Q285.4094,75.0406 285.5406,74.9906 Q285.6188,74.9594 285.7031,74.8719 Q285.7563,74.8188 285.7859,74.8031 Q285.8156,74.7875 285.8563,74.7875 Q285.9219,74.7875 285.9734,74.8391 Q286.025,74.8906 286.025,74.9594 Q286.025,75.0281 285.9563,75.1094 Q285.8563,75.225 285.6969,75.2906 Q285.4813,75.3813 285.2219,75.3813 Q284.9188,75.3813 284.6781,75.2563 Q284.4813,75.1563 284.3438,74.9422 Q284.2063,74.7281 284.2063,74.4719 L284.2063,74.2406 Q284.2063,73.975 284.3297,73.7453 Q284.4531,73.5156 284.6719,73.3922 Q284.8906,73.2688 285.1375,73.2688 Q285.2844,73.2688 285.4141,73.3016 Q285.5438,73.3344 285.6531,73.4063 Z "/><text fill="#000000" font-family="sans-serif" font-size="2.4" lengthAdjust="spacingAndGlyphs" textLength="17.2" x="287.9" y="75.2133">ParFerTerminal</text><line style="stroke: #383838; stroke-width: 0.30000000447034836;" x1="282.3" x2="305.5" y1="77.4313" y2="77.4313"/><line style="stroke: #383838; stroke-width: 0.30000000447034836;" x1="282.3" x2="305.5" y1="79.0313" y2="79.0313"/><rect fill="#FFFFFF" height="12.3672" style="stroke: #383838; stroke-width: 0.30000000447034836;" width="18.4" x="479.9" y="278.0313"/><ellipse cx="482.99" cy="281.2313" fill="#C2C2C2" rx="2.2" ry="2.2" style="stroke: #383838; stroke-width: 0.20000000298023224;"/><path d="M483.5431,280.4063 Q483.5744,280.3625 483.6119,280.3406 Q483.6494,280.3188 483.6931,280.3188 Q483.7681,280.3188 483.815,280.3703 Q483.8619,280.4219 483.8619,280.5438 L483.8619,280.8344 Q483.8619,280.9563 483.815,281.0094 Q483.7681,281.0625 483.6931,281.0625 Q483.6244,281.0625 483.5838,281.0219 Q483.5431,280.9844 483.5213,280.8813 Q483.5119,280.8094 483.4744,280.7719 Q483.4088,280.6969 483.2869,280.6531 Q483.165,280.6094 483.04,280.6094 Q482.8869,280.6094 482.7603,280.675 Q482.6338,280.7406 482.5353,280.8906 Q482.4369,281.0406 482.4369,281.2469 L482.4369,281.4656 Q482.4369,281.7125 482.615,281.8766 Q482.7931,282.0406 483.1119,282.0406 Q483.2994,282.0406 483.4306,281.9906 Q483.5088,281.9594 483.5931,281.8719 Q483.6463,281.8188 483.6759,281.8031 Q483.7056,281.7875 483.7463,281.7875 Q483.8119,281.7875 483.8634,281.8391 Q483.915,281.8906 483.915,281.9594 Q483.915,282.0281 483.8463,282.1094 Q483.7463,282.225 483.5869,282.2906 Q483.3713,282.3813 483.1119,282.3813 Q482.8088,282.3813 482.5681,282.2563 Q482.3713,282.1563 482.2338,281.9422 Q482.0963,281.7281 482.0963,281.4719 L482.0963,281.2406 Q482.0963,280.975 482.2197,280.7453 Q482.3431,280.5156 482.5619,280.3922 Q482.7806,280.2688 483.0275,280.2688 Q483.1744,280.2688 483.3041,280.3016 Q483.4338,280.3344 483.5431,280.4063 Z "/><text fill="#000000" font-family="sans-serif" font-size="2.4" lengthAdjust="spacingAndGlyphs" textLength="11.8" x="485.81" y="282.2133">IdTerminal</text><line style="stroke: #383838; stroke-width: 0.30000000447034836;" x1="480.1" x2="498.1" y1="284.4313" y2="284.4313"/><ellipse cx="482.1" cy="286.9148" fill="none" rx="0.6" ry="0.6" style="stroke: #545454; stroke-width: 0.20000000298023224;"/><text fill="#000000" font-family="sans-serif" font-size="2.2" lengthAdjust="spacingAndGlyphs" textLength="13.2" x="483.9" y="287.515">String IdName</text><line style="stroke: #383838; stroke-width: 0.30000000447034836;" x1="480.1" x2="498.1" y1="288.7984" y2="288.7984"/><rect fill="#FFFFFF" height="12.3672" style="stroke: #383838; stroke-width: 0.30000000447034836;" width="21.6" x="323.1" y="278.0313"/><ellipse cx="326.1" cy="281.2313" fill="#C2C2C2" rx="2.2" ry="2.2" style="stroke: #383838; stroke-width: 0.20000000298023224;"/><path d="M326.6531,280.4063 Q326.6844,280.3625 326.7219,280.3406 Q326.7594,280.3188 326.8031,280.3188 Q326.8781,280.3188 326.925,280.3703 Q326.9719,280.4219 326.9719,280.5438 L326.9719,280.8344 Q326.9719,280.9563 326.925,281.0094 Q326.8781,281.0625 326.8031,281.0625 Q326.7344,281.0625 326.6938,281.0219 Q326.6531,280.9844 326.6313,280.8813 Q326.6219,280.8094 326.5844,280.7719 Q326.5188,280.6969 326.3969,280.6531 Q326.275,280.6094 326.15,280.6094 Q325.9969,280.6094 325.8703,280.675 Q325.7438,280.7406 325.6453,280.8906 Q325.5469,281.0406 325.5469,281.2469 L325.5469,281.4656 Q325.5469,281.7125 325.725,281.8766 Q325.9031,282.0406 326.2219,282.0406 Q326.4094,282.0406 326.5406,281.9906 Q326.6188,281.9594 326.7031,281.8719 Q326.7563,281.8188 326.7859,281.8031 Q326.8156,281.7875 326.8563,281.7875 Q326.9219,281.7875 326.9734,281.8391 Q327.025,281.8906 327.025,281.9594 Q327.025,282.0281 326.9563,282.1094 Q326.8563,282.225 326.6969,282.2906 Q326.4813,282.3813 326.2219,282.3813 Q325.9188,282.3813 325.6781,282.2563 Q325.4813,282.1563 325.3438,281.9422 Q325.2063,281.7281 325.2063,281.4719 L325.2063,281.2406 Q325.2063,280.975 325.3297,280.7453 Q325.4531,280.5156 325.6719,280.3922 Q325.8906,280.2688 326.1375,280.2688 Q326.2844,280.2688 326.4141,280.3016 Q326.5438,280.3344 326.6531,280.4063 Z "/><text fill="#000000" font-family="sans-serif" font-size="2.4" lengthAdjust="spacingAndGlyphs" textLength="15.2" x="328.9" y="282.2133">NumTerminal</text><line style="stroke: #383838; stroke-width: 0.30000000447034836;" x1="323.3" x2="344.5" y1="284.4313" y2="284.4313"/><ellipse cx="325.3" cy="286.9148" fill="none" rx="0.6" ry="0.6" style="stroke: #545454; stroke-width: 0.20000000298023224;"/><text fill="#000000" font-family="sans-serif" font-size="2.2" lengthAdjust="spacingAndGlyphs" textLength="8.4" x="327.1" y="287.515">Int Value</text><line style="stroke: #383838; stroke-width: 0.30000000447034836;" x1="323.3" x2="344.5" y1="288.7984" y2="288.7984"/><rect fill="#FFFFFF" height="9.6" style="stroke: #383838; stroke-width: 0.30000000447034836;" width="23" x="341.2" y="47.8313"/><ellipse cx="344.2" cy="51.0313" fill="#C2C2C2" rx="2.2" ry="2.2" style="stroke: #383838; stroke-width: 0.20000000298023224;"/><path d="M344.7531,50.2063 Q344.7844,50.1625 344.8219,50.1406 Q344.8594,50.1188 344.9031,50.1188 Q344.9781,50.1188 345.025,50.1703 Q345.0719,50.2219 345.0719,50.3438 L345.0719,50.6344 Q345.0719,50.7563 345.025,50.8094 Q344.9781,50.8625 344.9031,50.8625 Q344.8344,50.8625 344.7938,50.8219 Q344.7531,50.7844 344.7313,50.6813 Q344.7219,50.6094 344.6844,50.5719 Q344.6188,50.4969 344.4969,50.4531 Q344.375,50.4094 344.25,50.4094 Q344.0969,50.4094 343.9703,50.475 Q343.8438,50.5406 343.7453,50.6906 Q343.6469,50.8406 343.6469,51.0469 L343.6469,51.2656 Q343.6469,51.5125 343.825,51.6766 Q344.0031,51.8406 344.3219,51.8406 Q344.5094,51.8406 344.6406,51.7906 Q344.7188,51.7594 344.8031,51.6719 Q344.8563,51.6188 344.8859,51.6031 Q344.9156,51.5875 344.9563,51.5875 Q345.0219,51.5875 345.0734,51.6391 Q345.125,51.6906 345.125,51.7594 Q345.125,51.8281 345.0563,51.9094 Q344.9563,52.025 344.7969,52.0906 Q344.5813,52.1813 344.3219,52.1813 Q344.0188,52.1813 343.7781,52.0563 Q343.5813,51.9563 343.4438,51.7422 Q343.3063,51.5281 343.3063,51.2719 L343.3063,51.0406 Q343.3063,50.775 343.4297,50.5453 Q343.5531,50.3156 343.7719,50.1922 Q343.9906,50.0688 344.2375,50.0688 Q344.3844,50.0688 344.5141,50.1016 Q344.6438,50.1344 344.7531,50.2063 Z "/><text fill="#000000" font-family="sans-serif" font-size="2.4" lengthAdjust="spacingAndGlyphs" textLength="16.6" x="347" y="52.0133">FinProgramme</text><line style="stroke: #383838; stroke-width: 0.30000000447034836;" x1="341.4" x2="364" y1="54.2313" y2="54.2313"/><line style="stroke: #383838; stroke-width: 0.30000000447034836;" x1="341.4" x2="364" y1="55.8313" y2="55.8313"/><rect fill="#FFFFFF" height="9.6" style="stroke: #383838; stroke-width: 0.30000000447034836;" width="22.2" x="371.2" y="47.8313"/><ellipse cx="374.2" cy="51.0313" fill="#C2C2C2" rx="2.2" ry="2.2" style="stroke: #383838; stroke-width: 0.20000000298023224;"/><path d="M374.7531,50.2063 Q374.7844,50.1625 374.8219,50.1406 Q374.8594,50.1188 374.9031,50.1188 Q374.9781,50.1188 375.025,50.1703 Q375.0719,50.2219 375.0719,50.3438 L375.0719,50.6344 Q375.0719,50.7563 375.025,50.8094 Q374.9781,50.8625 374.9031,50.8625 Q374.8344,50.8625 374.7938,50.8219 Q374.7531,50.7844 374.7313,50.6813 Q374.7219,50.6094 374.6844,50.5719 Q374.6188,50.4969 374.4969,50.4531 Q374.375,50.4094 374.25,50.4094 Q374.0969,50.4094 373.9703,50.475 Q373.8438,50.5406 373.7453,50.6906 Q373.6469,50.8406 373.6469,51.0469 L373.6469,51.2656 Q373.6469,51.5125 373.825,51.6766 Q374.0031,51.8406 374.3219,51.8406 Q374.5094,51.8406 374.6406,51.7906 Q374.7188,51.7594 374.8031,51.6719 Q374.8563,51.6188 374.8859,51.6031 Q374.9156,51.5875 374.9563,51.5875 Q375.0219,51.5875 375.0734,51.6391 Q375.125,51.6906 375.125,51.7594 Q375.125,51.8281 375.0563,51.9094 Q374.9563,52.025 374.7969,52.0906 Q374.5813,52.1813 374.3219,52.1813 Q374.0188,52.1813 373.7781,52.0563 Q373.5813,51.9563 373.4438,51.7422 Q373.3063,51.5281 373.3063,51.2719 L373.3063,51.0406 Q373.3063,50.775 373.4297,50.5453 Q373.5531,50.3156 373.7719,50.1922 Q373.9906,50.0688 374.2375,50.0688 Q374.3844,50.0688 374.5141,50.1016 Q374.6438,50.1344 374.7531,50.2063 Z "/><text fill="#000000" font-family="sans-serif" font-size="2.4" lengthAdjust="spacingAndGlyphs" textLength="15.8" x="377" y="52.0133">ErreurLexicale</text><line style="stroke: #383838; stroke-width: 0.30000000447034836;" x1="371.4" x2="393.2" y1="54.2313" y2="54.2313"/><line style="stroke: #383838; stroke-width: 0.30000000447034836;" x1="371.4" x2="393.2" y1="55.8313" y2="55.8313"/><rect fill="#FFFFFF" height="12.3672" style="stroke: #383838; stroke-width: 0.30000000447034836;" width="33.4" x="329" y="143.8313"/><ellipse cx="333.98" cy="147.0313" fill="#C2C2C2" rx="2.2" ry="2.2" style="stroke: #383838; stroke-width: 0.20000000298023224;"/><path d="M334.5331,146.2063 Q334.5644,146.1625 334.6019,146.1406 Q334.6394,146.1188 334.6831,146.1188 Q334.7581,146.1188 334.805,146.1703 Q334.8519,146.2219 334.8519,146.3438 L334.8519,146.6344 Q334.8519,146.7563 334.805,146.8094 Q334.7581,146.8625 334.6831,146.8625 Q334.6144,146.8625 334.5738,146.8219 Q334.5331,146.7844 334.5113,146.6813 Q334.5019,146.6094 334.4644,146.5719 Q334.3988,146.4969 334.2769,146.4531 Q334.155,146.4094 334.03,146.4094 Q333.8769,146.4094 333.7503,146.475 Q333.6238,146.5406 333.5253,146.6906 Q333.4269,146.8406 333.4269,147.0469 L333.4269,147.2656 Q333.4269,147.5125 333.605,147.6766 Q333.7831,147.8406 334.1019,147.8406 Q334.2894,147.8406 334.4206,147.7906 Q334.4988,147.7594 334.5831,147.6719 Q334.6363,147.6188 334.6659,147.6031 Q334.6956,147.5875 334.7363,147.5875 Q334.8019,147.5875 334.8534,147.6391 Q334.905,147.6906 334.905,147.7594 Q334.905,147.8281 334.8363,147.9094 Q334.7363,148.025 334.5769,148.0906 Q334.3613,148.1813 334.1019,148.1813 Q333.7988,148.1813 333.5581,148.0563 Q333.3613,147.9563 333.2238,147.7422 Q333.0863,147.5281 333.0863,147.2719 L333.0863,147.0406 Q333.0863,146.775 333.2097,146.5453 Q333.3331,146.3156 333.5519,146.1922 Q333.7706,146.0688 334.0175,146.0688 Q334.1644,146.0688 334.2941,146.1016 Q334.4238,146.1344 334.5331,146.2063 Z "/><text fill="#000000" font-family="sans-serif" font-size="2.4" lengthAdjust="spacingAndGlyphs" textLength="22.6" x="337.22" y="148.0133">AffectationConstante</text><line style="stroke: #383838; stroke-width: 0.30000000447034836;" x1="329.2" x2="362.2" y1="150.2313" y2="150.2313"/><ellipse cx="331.2" cy="152.7148" fill="none" rx="0.6" ry="0.6" style="stroke: #545454; stroke-width: 0.20000000298023224;"/><text fill="#000000" font-family="sans-serif" font-size="2.2" lengthAdjust="spacingAndGlyphs" textLength="28.2" x="333" y="153.315">AffectationConstante suivant</text><line style="stroke: #383838; stroke-width: 0.30000000447034836;" x1="329.2" x2="362.2" y1="154.5984" y2="154.5984"/><rect fill="#FFFFFF" height="12.3672" style="stroke: #383838; stroke-width: 0.30000000447034836;" width="33.2" x="452.5" y="125.4313"/><ellipse cx="457.21" cy="128.6313" fill="#C2C2C2" rx="2.2" ry="2.2" style="stroke: #383838; stroke-width: 0.20000000298023224;"/><path d="M457.7631,127.8063 Q457.7944,127.7625 457.8319,127.7406 Q457.8694,127.7188 457.9131,127.7188 Q457.9881,127.7188 458.035,127.7703 Q458.0819,127.8219 458.0819,127.9438 L458.0819,128.2344 Q458.0819,128.3563 458.035,128.4094 Q457.9881,128.4625 457.9131,128.4625 Q457.8444,128.4625 457.8038,128.4219 Q457.7631,128.3844 457.7413,128.2813 Q457.7319,128.2094 457.6944,128.1719 Q457.6288,128.0969 457.5069,128.0531 Q457.385,128.0094 457.26,128.0094 Q457.1069,128.0094 456.9803,128.075 Q456.8538,128.1406 456.7553,128.2906 Q456.6569,128.4406 456.6569,128.6469 L456.6569,128.8656 Q456.6569,129.1125 456.835,129.2766 Q457.0131,129.4406 457.3319,129.4406 Q457.5194,129.4406 457.6506,129.3906 Q457.7288,129.3594 457.8131,129.2719 Q457.8663,129.2188 457.8959,129.2031 Q457.9256,129.1875 457.9663,129.1875 Q458.0319,129.1875 458.0834,129.2391 Q458.135,129.2906 458.135,129.3594 Q458.135,129.4281 458.0663,129.5094 Q457.9663,129.625 457.8069,129.6906 Q457.5913,129.7813 457.3319,129.7813 Q457.0288,129.7813 456.7881,129.6563 Q456.5913,129.5563 456.4538,129.3422 Q456.3163,129.1281 456.3163,128.8719 L456.3163,128.6406 Q456.3163,128.375 456.4397,128.1453 Q456.5631,127.9156 456.7819,127.7922 Q457.0006,127.6688 457.2475,127.6688 Q457.3944,127.6688 457.5241,127.7016 Q457.6538,127.7344 457.7631,127.8063 Z "/><text fill="#000000" font-family="sans-serif" font-size="2.4" lengthAdjust="spacingAndGlyphs" textLength="23" x="460.39" y="129.6133">IdentificateurVariable</text><line style="stroke: #383838; stroke-width: 0.30000000447034836;" x1="452.7" x2="485.5" y1="131.8313" y2="131.8313"/><ellipse cx="454.7" cy="134.3148" fill="none" rx="0.6" ry="0.6" style="stroke: #545454; stroke-width: 0.20000000298023224;"/><text fill="#000000" font-family="sans-serif" font-size="2.2" lengthAdjust="spacingAndGlyphs" textLength="28" x="456.5" y="134.915">IdentificateurVariable suivant</text><line style="stroke: #383838; stroke-width: 0.30000000447034836;" x1="452.7" x2="485.5" y1="136.1984" y2="136.1984"/><rect fill="#FFFFFF" height="9.6" style="stroke: #383838; stroke-width: 0.30000000447034836;" width="28.6" x="402.8" y="252.8313"/><ellipse cx="405.8" cy="256.0313" fill="#C2C2C2" rx="2.2" ry="2.2" style="stroke: #383838; stroke-width: 0.20000000298023224;"/><path d="M406.3531,255.2063 Q406.3844,255.1625 406.4219,255.1406 Q406.4594,255.1188 406.5031,255.1188 Q406.5781,255.1188 406.625,255.1703 Q406.6719,255.2219 406.6719,255.3438 L406.6719,255.6344 Q406.6719,255.7563 406.625,255.8094 Q406.5781,255.8625 406.5031,255.8625 Q406.4344,255.8625 406.3938,255.8219 Q406.3531,255.7844 406.3313,255.6813 Q406.3219,255.6094 406.2844,255.5719 Q406.2188,255.4969 406.0969,255.4531 Q405.975,255.4094 405.85,255.4094 Q405.6969,255.4094 405.5703,255.475 Q405.4438,255.5406 405.3453,255.6906 Q405.2469,255.8406 405.2469,256.0469 L405.2469,256.2656 Q405.2469,256.5125 405.425,256.6766 Q405.6031,256.8406 405.9219,256.8406 Q406.1094,256.8406 406.2406,256.7906 Q406.3188,256.7594 406.4031,256.6719 Q406.4563,256.6188 406.4859,256.6031 Q406.5156,256.5875 406.5563,256.5875 Q406.6219,256.5875 406.6734,256.6391 Q406.725,256.6906 406.725,256.7594 Q406.725,256.8281 406.6563,256.9094 Q406.5563,257.025 406.3969,257.0906 Q406.1813,257.1813 405.9219,257.1813 Q405.6188,257.1813 405.3781,257.0563 Q405.1813,256.9563 405.0438,256.7422 Q404.9063,256.5281 404.9063,256.2719 L404.9063,256.0406 Q404.9063,255.775 405.0297,255.5453 Q405.1531,255.3156 405.3719,255.1922 Q405.5906,255.0688 405.8375,255.0688 Q405.9844,255.0688 406.1141,255.1016 Q406.2438,255.1344 406.3531,255.2063 Z "/><text fill="#000000" font-family="sans-serif" font-size="2.4" lengthAdjust="spacingAndGlyphs" textLength="22.2" x="408.6" y="257.0133">IdentificateurFacteur</text><line style="stroke: #383838; stroke-width: 0.30000000447034836;" x1="403" x2="431.2" y1="259.2313" y2="259.2313"/><line style="stroke: #383838; stroke-width: 0.30000000447034836;" x1="403" x2="431.2" y1="260.8313" y2="260.8313"/><rect fill="#FFFFFF" height="12.3672" style="stroke: #383838; stroke-width: 0.30000000447034836;" width="27.8" x="405.8" y="69.6313"/><ellipse cx="410.6" cy="72.8313" fill="#C2C2C2" rx="2.2" ry="2.2" style="stroke: #383838; stroke-width: 0.20000000298023224;"/><path d="M411.1531,72.0063 Q411.1844,71.9625 411.2219,71.9406 Q411.2594,71.9188 411.3031,71.9188 Q411.3781,71.9188 411.425,71.9703 Q411.4719,72.0219 411.4719,72.1438 L411.4719,72.4344 Q411.4719,72.5563 411.425,72.6094 Q411.3781,72.6625 411.3031,72.6625 Q411.2344,72.6625 411.1938,72.6219 Q411.1531,72.5844 411.1313,72.4813 Q411.1219,72.4094 411.0844,72.3719 Q411.0188,72.2969 410.8969,72.2531 Q410.775,72.2094 410.65,72.2094 Q410.4969,72.2094 410.3703,72.275 Q410.2438,72.3406 410.1453,72.4906 Q410.0469,72.6406 410.0469,72.8469 L410.0469,73.0656 Q410.0469,73.3125 410.225,73.4766 Q410.4031,73.6406 410.7219,73.6406 Q410.9094,73.6406 411.0406,73.5906 Q411.1188,73.5594 411.2031,73.4719 Q411.2563,73.4188 411.2859,73.4031 Q411.3156,73.3875 411.3563,73.3875 Q411.4219,73.3875 411.4734,73.4391 Q411.525,73.4906 411.525,73.5594 Q411.525,73.6281 411.4563,73.7094 Q411.3563,73.825 411.1969,73.8906 Q410.9813,73.9813 410.7219,73.9813 Q410.4188,73.9813 410.1781,73.8563 Q409.9813,73.7563 409.8438,73.5422 Q409.7063,73.3281 409.7063,73.0719 L409.7063,72.8406 Q409.7063,72.575 409.8297,72.3453 Q409.9531,72.1156 410.1719,71.9922 Q410.3906,71.8688 410.6375,71.8688 Q410.7844,71.8688 410.9141,71.9016 Q411.0438,71.9344 411.1531,72.0063 Z "/><text fill="#000000" font-family="sans-serif" font-size="2.4" lengthAdjust="spacingAndGlyphs" textLength="17.4" x="413.8" y="73.8133">BlocDeclaration</text><line style="stroke: #383838; stroke-width: 0.30000000447034836;" x1="406" x2="433.4" y1="76.0313" y2="76.0313"/><ellipse cx="408" cy="78.5148" fill="none" rx="0.6" ry="0.6" style="stroke: #545454; stroke-width: 0.20000000298023224;"/><text fill="#000000" font-family="sans-serif" font-size="2.2" lengthAdjust="spacingAndGlyphs" textLength="22.6" x="409.8" y="79.115">BlocDeclaration suivant</text><line style="stroke: #383838; stroke-width: 0.30000000447034836;" x1="406" x2="433.4" y1="80.3984" y2="80.3984"/><rect fill="#FFFFFF" height="9.6" style="stroke: #383838; stroke-width: 0.30000000447034836;" width="28" x="409.3" y="94.2313"/><ellipse cx="412.3" cy="97.4313" fill="#C2C2C2" rx="2.2" ry="2.2" style="stroke: #383838; stroke-width: 0.20000000298023224;"/><path d="M412.8531,96.6063 Q412.8844,96.5625 412.9219,96.5406 Q412.9594,96.5188 413.0031,96.5188 Q413.0781,96.5188 413.125,96.5703 Q413.1719,96.6219 413.1719,96.7438 L413.1719,97.0344 Q413.1719,97.1563 413.125,97.2094 Q413.0781,97.2625 413.0031,97.2625 Q412.9344,97.2625 412.8938,97.2219 Q412.8531,97.1844 412.8313,97.0813 Q412.8219,97.0094 412.7844,96.9719 Q412.7188,96.8969 412.5969,96.8531 Q412.475,96.8094 412.35,96.8094 Q412.1969,96.8094 412.0703,96.875 Q411.9438,96.9406 411.8453,97.0906 Q411.7469,97.2406 411.7469,97.4469 L411.7469,97.6656 Q411.7469,97.9125 411.925,98.0766 Q412.1031,98.2406 412.4219,98.2406 Q412.6094,98.2406 412.7406,98.1906 Q412.8188,98.1594 412.9031,98.0719 Q412.9563,98.0188 412.9859,98.0031 Q413.0156,97.9875 413.0563,97.9875 Q413.1219,97.9875 413.1734,98.0391 Q413.225,98.0906 413.225,98.1594 Q413.225,98.2281 413.1563,98.3094 Q413.0563,98.425 412.8969,98.4906 Q412.6813,98.5813 412.4219,98.5813 Q412.1188,98.5813 411.8781,98.4563 Q411.6813,98.3563 411.5438,98.1422 Q411.4063,97.9281 411.4063,97.6719 L411.4063,97.4406 Q411.4063,97.175 411.5297,96.9453 Q411.6531,96.7156 411.8719,96.5922 Q412.0906,96.4688 412.3375,96.4688 Q412.4844,96.4688 412.6141,96.5016 Q412.7438,96.5344 412.8531,96.6063 Z "/><text fill="#000000" font-family="sans-serif" font-size="2.4" lengthAdjust="spacingAndGlyphs" textLength="21.6" x="415.1" y="98.4133">DeclarationVariable</text><line style="stroke: #383838; stroke-width: 0.30000000447034836;" x1="409.5" x2="437.1" y1="100.6313" y2="100.6313"/><line style="stroke: #383838; stroke-width: 0.30000000447034836;" x1="409.5" x2="437.1" y1="102.2313" y2="102.2313"/><rect fill="#FFFFFF" height="9.6" style="stroke: #383838; stroke-width: 0.30000000447034836;" width="30.4" x="389.1" y="109.8313"/><ellipse cx="392.1" cy="113.0313" fill="#C2C2C2" rx="2.2" ry="2.2" style="stroke: #383838; stroke-width: 0.20000000298023224;"/><path d="M392.6531,112.2063 Q392.6844,112.1625 392.7219,112.1406 Q392.7594,112.1188 392.8031,112.1188 Q392.8781,112.1188 392.925,112.1703 Q392.9719,112.2219 392.9719,112.3438 L392.9719,112.6344 Q392.9719,112.7563 392.925,112.8094 Q392.8781,112.8625 392.8031,112.8625 Q392.7344,112.8625 392.6938,112.8219 Q392.6531,112.7844 392.6313,112.6813 Q392.6219,112.6094 392.5844,112.5719 Q392.5188,112.4969 392.3969,112.4531 Q392.275,112.4094 392.15,112.4094 Q391.9969,112.4094 391.8703,112.475 Q391.7438,112.5406 391.6453,112.6906 Q391.5469,112.8406 391.5469,113.0469 L391.5469,113.2656 Q391.5469,113.5125 391.725,113.6766 Q391.9031,113.8406 392.2219,113.8406 Q392.4094,113.8406 392.5406,113.7906 Q392.6188,113.7594 392.7031,113.6719 Q392.7563,113.6188 392.7859,113.6031 Q392.8156,113.5875 392.8563,113.5875 Q392.9219,113.5875 392.9734,113.6391 Q393.025,113.6906 393.025,113.7594 Q393.025,113.8281 392.9563,113.9094 Q392.8563,114.025 392.6969,114.0906 Q392.4813,114.1813 392.2219,114.1813 Q391.9188,114.1813 391.6781,114.0563 Q391.4813,113.9563 391.3438,113.7422 Q391.2063,113.5281 391.2063,113.2719 L391.2063,113.0406 Q391.2063,112.775 391.3297,112.5453 Q391.4531,112.3156 391.6719,112.1922 Q391.8906,112.0688 392.1375,112.0688 Q392.2844,112.0688 392.4141,112.1016 Q392.5438,112.1344 392.6531,112.2063 Z "/><text fill="#000000" font-family="sans-serif" font-size="2.4" lengthAdjust="spacingAndGlyphs" textLength="24" x="394.9" y="114.0133">DeclarationConstante</text><line style="stroke: #383838; stroke-width: 0.30000000447034836;" x1="389.3" x2="419.3" y1="116.2313" y2="116.2313"/><line style="stroke: #383838; stroke-width: 0.30000000447034836;" x1="389.3" x2="419.3" y1="117.8313" y2="117.8313"/><rect fill="#FFFFFF" height="9.6" style="stroke: #383838; stroke-width: 0.30000000447034836;" width="19.6" x="428.9" y="47.8313"/><ellipse cx="431.9" cy="51.0313" fill="#C2C2C2" rx="2.2" ry="2.2" style="stroke: #383838; stroke-width: 0.20000000298023224;"/><path d="M432.4531,50.2063 Q432.4844,50.1625 432.5219,50.1406 Q432.5594,50.1188 432.6031,50.1188 Q432.6781,50.1188 432.725,50.1703 Q432.7719,50.2219 432.7719,50.3438 L432.7719,50.6344 Q432.7719,50.7563 432.725,50.8094 Q432.6781,50.8625 432.6031,50.8625 Q432.5344,50.8625 432.4938,50.8219 Q432.4531,50.7844 432.4313,50.6813 Q432.4219,50.6094 432.3844,50.5719 Q432.3188,50.4969 432.1969,50.4531 Q432.075,50.4094 431.95,50.4094 Q431.7969,50.4094 431.6703,50.475 Q431.5438,50.5406 431.4453,50.6906 Q431.3469,50.8406 431.3469,51.0469 L431.3469,51.2656 Q431.3469,51.5125 431.525,51.6766 Q431.7031,51.8406 432.0219,51.8406 Q432.2094,51.8406 432.3406,51.7906 Q432.4188,51.7594 432.5031,51.6719 Q432.5563,51.6188 432.5859,51.6031 Q432.6156,51.5875 432.6563,51.5875 Q432.7219,51.5875 432.7734,51.6391 Q432.825,51.6906 432.825,51.7594 Q432.825,51.8281 432.7563,51.9094 Q432.6563,52.025 432.4969,52.0906 Q432.2813,52.1813 432.0219,52.1813 Q431.7188,52.1813 431.4781,52.0563 Q431.2813,51.9563 431.1438,51.7422 Q431.0063,51.5281 431.0063,51.2719 L431.0063,51.0406 Q431.0063,50.775 431.1297,50.5453 Q431.2531,50.3156 431.4719,50.1922 Q431.6906,50.0688 431.9375,50.0688 Q432.0844,50.0688 432.2141,50.1016 Q432.3438,50.1344 432.4531,50.2063 Z "/><text fill="#000000" font-family="sans-serif" font-size="2.4" lengthAdjust="spacingAndGlyphs" textLength="13.2" x="434.7" y="52.0133">Programme</text><line style="stroke: #383838; stroke-width: 0.30000000447034836;" x1="429.1" x2="448.3" y1="54.2313" y2="54.2313"/><line style="stroke: #383838; stroke-width: 0.30000000447034836;" x1="429.1" x2="448.3" y1="55.8313" y2="55.8313"/><rect fill="#FFFFFF" height="12.3672" style="stroke: #383838; stroke-width: 0.30000000447034836;" width="27" x="445.6" y="69.6313"/><ellipse cx="450.58" cy="72.8313" fill="#C2C2C2" rx="2.2" ry="2.2" style="stroke: #383838; stroke-width: 0.20000000298023224;"/><path d="M451.1331,72.0063 Q451.1644,71.9625 451.2019,71.9406 Q451.2394,71.9188 451.2831,71.9188 Q451.3581,71.9188 451.405,71.9703 Q451.4519,72.0219 451.4519,72.1438 L451.4519,72.4344 Q451.4519,72.5563 451.405,72.6094 Q451.3581,72.6625 451.2831,72.6625 Q451.2144,72.6625 451.1738,72.6219 Q451.1331,72.5844 451.1113,72.4813 Q451.1019,72.4094 451.0644,72.3719 Q450.9988,72.2969 450.8769,72.2531 Q450.755,72.2094 450.63,72.2094 Q450.4769,72.2094 450.3503,72.275 Q450.2238,72.3406 450.1253,72.4906 Q450.0269,72.6406 450.0269,72.8469 L450.0269,73.0656 Q450.0269,73.3125 450.205,73.4766 Q450.3831,73.6406 450.7019,73.6406 Q450.8894,73.6406 451.0206,73.5906 Q451.0988,73.5594 451.1831,73.4719 Q451.2363,73.4188 451.2659,73.4031 Q451.2956,73.3875 451.3363,73.3875 Q451.4019,73.3875 451.4534,73.4391 Q451.505,73.4906 451.505,73.5594 Q451.505,73.6281 451.4363,73.7094 Q451.3363,73.825 451.1769,73.8906 Q450.9613,73.9813 450.7019,73.9813 Q450.3988,73.9813 450.1581,73.8563 Q449.9613,73.7563 449.8238,73.5422 Q449.6863,73.3281 449.6863,73.0719 L449.6863,72.8406 Q449.6863,72.575 449.8097,72.3453 Q449.9331,72.1156 450.1519,71.9922 Q450.3706,71.8688 450.6175,71.8688 Q450.7644,71.8688 450.8941,71.9016 Q451.0238,71.9344 451.1331,72.0063 Z "/><text fill="#000000" font-family="sans-serif" font-size="2.4" lengthAdjust="spacingAndGlyphs" textLength="16.2" x="453.82" y="73.8133">BlocInstruction</text><line style="stroke: #383838; stroke-width: 0.30000000447034836;" x1="445.8" x2="472.4" y1="76.0313" y2="76.0313"/><ellipse cx="447.8" cy="78.5148" fill="none" rx="0.6" ry="0.6" style="stroke: #545454; stroke-width: 0.20000000298023224;"/><text fill="#000000" font-family="sans-serif" font-size="2.2" lengthAdjust="spacingAndGlyphs" textLength="21.8" x="449.6" y="79.115">BlocInstruction suivant</text><line style="stroke: #383838; stroke-width: 0.30000000447034836;" x1="445.8" x2="472.4" y1="80.3984" y2="80.3984"/><rect fill="#FFFFFF" height="9.6" style="stroke: #383838; stroke-width: 0.30000000447034836;" width="26" x="500.9" y="109.8313"/><ellipse cx="503.9" cy="113.0313" fill="#C2C2C2" rx="2.2" ry="2.2" style="stroke: #383838; stroke-width: 0.20000000298023224;"/><path d="M504.4531,112.2063 Q504.4844,112.1625 504.5219,112.1406 Q504.5594,112.1188 504.6031,112.1188 Q504.6781,112.1188 504.725,112.1703 Q504.7719,112.2219 504.7719,112.3438 L504.7719,112.6344 Q504.7719,112.7563 504.725,112.8094 Q504.6781,112.8625 504.6031,112.8625 Q504.5344,112.8625 504.4938,112.8219 Q504.4531,112.7844 504.4313,112.6813 Q504.4219,112.6094 504.3844,112.5719 Q504.3188,112.4969 504.1969,112.4531 Q504.075,112.4094 503.95,112.4094 Q503.7969,112.4094 503.6703,112.475 Q503.5438,112.5406 503.4453,112.6906 Q503.3469,112.8406 503.3469,113.0469 L503.3469,113.2656 Q503.3469,113.5125 503.525,113.6766 Q503.7031,113.8406 504.0219,113.8406 Q504.2094,113.8406 504.3406,113.7906 Q504.4188,113.7594 504.5031,113.6719 Q504.5563,113.6188 504.5859,113.6031 Q504.6156,113.5875 504.6563,113.5875 Q504.7219,113.5875 504.7734,113.6391 Q504.825,113.6906 504.825,113.7594 Q504.825,113.8281 504.7563,113.9094 Q504.6563,114.025 504.4969,114.0906 Q504.2813,114.1813 504.0219,114.1813 Q503.7188,114.1813 503.4781,114.0563 Q503.2813,113.9563 503.1438,113.7422 Q503.0063,113.5281 503.0063,113.2719 L503.0063,113.0406 Q503.0063,112.775 503.1297,112.5453 Q503.2531,112.3156 503.4719,112.1922 Q503.6906,112.0688 503.9375,112.0688 Q504.0844,112.0688 504.2141,112.1016 Q504.3438,112.1344 504.4531,112.2063 Z "/><text fill="#000000" font-family="sans-serif" font-size="2.4" lengthAdjust="spacingAndGlyphs" textLength="19.6" x="506.7" y="114.0133">InstructionLecture</text><line style="stroke: #383838; stroke-width: 0.30000000447034836;" x1="501.1" x2="526.7" y1="116.2313" y2="116.2313"/><line style="stroke: #383838; stroke-width: 0.30000000447034836;" x1="501.1" x2="526.7" y1="117.8313" y2="117.8313"/><rect fill="#FFFFFF" height="9.6" style="stroke: #383838; stroke-width: 0.30000000447034836;" width="26.2" x="444.4" y="94.2313"/><ellipse cx="447.4" cy="97.4313" fill="#C2C2C2" rx="2.2" ry="2.2" style="stroke: #383838; stroke-width: 0.20000000298023224;"/><path d="M447.9531,96.6063 Q447.9844,96.5625 448.0219,96.5406 Q448.0594,96.5188 448.1031,96.5188 Q448.1781,96.5188 448.225,96.5703 Q448.2719,96.6219 448.2719,96.7438 L448.2719,97.0344 Q448.2719,97.1563 448.225,97.2094 Q448.1781,97.2625 448.1031,97.2625 Q448.0344,97.2625 447.9938,97.2219 Q447.9531,97.1844 447.9313,97.0813 Q447.9219,97.0094 447.8844,96.9719 Q447.8188,96.8969 447.6969,96.8531 Q447.575,96.8094 447.45,96.8094 Q447.2969,96.8094 447.1703,96.875 Q447.0438,96.9406 446.9453,97.0906 Q446.8469,97.2406 446.8469,97.4469 L446.8469,97.6656 Q446.8469,97.9125 447.025,98.0766 Q447.2031,98.2406 447.5219,98.2406 Q447.7094,98.2406 447.8406,98.1906 Q447.9188,98.1594 448.0031,98.0719 Q448.0563,98.0188 448.0859,98.0031 Q448.1156,97.9875 448.1563,97.9875 Q448.2219,97.9875 448.2734,98.0391 Q448.325,98.0906 448.325,98.1594 Q448.325,98.2281 448.2563,98.3094 Q448.1563,98.425 447.9969,98.4906 Q447.7813,98.5813 447.5219,98.5813 Q447.2188,98.5813 446.9781,98.4563 Q446.7813,98.3563 446.6438,98.1422 Q446.5063,97.9281 446.5063,97.6719 L446.5063,97.4406 Q446.5063,97.175 446.6297,96.9453 Q446.7531,96.7156 446.9719,96.5922 Q447.1906,96.4688 447.4375,96.4688 Q447.5844,96.4688 447.7141,96.5016 Q447.8438,96.5344 447.9531,96.6063 Z "/><text fill="#000000" font-family="sans-serif" font-size="2.4" lengthAdjust="spacingAndGlyphs" textLength="19.8" x="450.2" y="98.4133">InstructionEcriture</text><line style="stroke: #383838; stroke-width: 0.30000000447034836;" x1="444.6" x2="470.4" y1="100.6313" y2="100.6313"/><line style="stroke: #383838; stroke-width: 0.30000000447034836;" x1="444.6" x2="470.4" y1="102.2313" y2="102.2313"/><rect fill="#FFFFFF" height="9.6" style="stroke: #383838; stroke-width: 0.30000000447034836;" width="29" x="477.6" y="94.2313"/><ellipse cx="480.6" cy="97.4313" fill="#C2C2C2" rx="2.2" ry="2.2" style="stroke: #383838; stroke-width: 0.20000000298023224;"/><path d="M481.1531,96.6063 Q481.1844,96.5625 481.2219,96.5406 Q481.2594,96.5188 481.3031,96.5188 Q481.3781,96.5188 481.425,96.5703 Q481.4719,96.6219 481.4719,96.7438 L481.4719,97.0344 Q481.4719,97.1563 481.425,97.2094 Q481.3781,97.2625 481.3031,97.2625 Q481.2344,97.2625 481.1938,97.2219 Q481.1531,97.1844 481.1313,97.0813 Q481.1219,97.0094 481.0844,96.9719 Q481.0188,96.8969 480.8969,96.8531 Q480.775,96.8094 480.65,96.8094 Q480.4969,96.8094 480.3703,96.875 Q480.2438,96.9406 480.1453,97.0906 Q480.0469,97.2406 480.0469,97.4469 L480.0469,97.6656 Q480.0469,97.9125 480.225,98.0766 Q480.4031,98.2406 480.7219,98.2406 Q480.9094,98.2406 481.0406,98.1906 Q481.1188,98.1594 481.2031,98.0719 Q481.2563,98.0188 481.2859,98.0031 Q481.3156,97.9875 481.3563,97.9875 Q481.4219,97.9875 481.4734,98.0391 Q481.525,98.0906 481.525,98.1594 Q481.525,98.2281 481.4563,98.3094 Q481.3563,98.425 481.1969,98.4906 Q480.9813,98.5813 480.7219,98.5813 Q480.4188,98.5813 480.1781,98.4563 Q479.9813,98.3563 479.8438,98.1422 Q479.7063,97.9281 479.7063,97.6719 L479.7063,97.4406 Q479.7063,97.175 479.8297,96.9453 Q479.9531,96.7156 480.1719,96.5922 Q480.3906,96.4688 480.6375,96.4688 Q480.7844,96.4688 480.9141,96.5016 Q481.0438,96.5344 481.1531,96.6063 Z "/><text fill="#000000" font-family="sans-serif" font-size="2.4" lengthAdjust="spacingAndGlyphs" textLength="22.6" x="483.4" y="98.4133">InstructionAffectation</text><line style="stroke: #383838; stroke-width: 0.30000000447034836;" x1="477.8" x2="506.4" y1="100.6313" y2="100.6313"/><line style="stroke: #383838; stroke-width: 0.30000000447034836;" x1="477.8" x2="506.4" y1="102.2313" y2="102.2313"/><rect fill="#FFFFFF" height="9.6" style="stroke: #383838; stroke-width: 0.30000000447034836;" width="18.8" x="426.7" y="126.8313"/><ellipse cx="429.7" cy="130.0313" fill="#C2C2C2" rx="2.2" ry="2.2" style="stroke: #383838; stroke-width: 0.20000000298023224;"/><path d="M430.2531,129.2063 Q430.2844,129.1625 430.3219,129.1406 Q430.3594,129.1188 430.4031,129.1188 Q430.4781,129.1188 430.525,129.1703 Q430.5719,129.2219 430.5719,129.3438 L430.5719,129.6344 Q430.5719,129.7563 430.525,129.8094 Q430.4781,129.8625 430.4031,129.8625 Q430.3344,129.8625 430.2938,129.8219 Q430.2531,129.7844 430.2313,129.6813 Q430.2219,129.6094 430.1844,129.5719 Q430.1188,129.4969 429.9969,129.4531 Q429.875,129.4094 429.75,129.4094 Q429.5969,129.4094 429.4703,129.475 Q429.3438,129.5406 429.2453,129.6906 Q429.1469,129.8406 429.1469,130.0469 L429.1469,130.2656 Q429.1469,130.5125 429.325,130.6766 Q429.5031,130.8406 429.8219,130.8406 Q430.0094,130.8406 430.1406,130.7906 Q430.2188,130.7594 430.3031,130.6719 Q430.3563,130.6188 430.3859,130.6031 Q430.4156,130.5875 430.4563,130.5875 Q430.5219,130.5875 430.5734,130.6391 Q430.625,130.6906 430.625,130.7594 Q430.625,130.8281 430.5563,130.9094 Q430.4563,131.025 430.2969,131.0906 Q430.0813,131.1813 429.8219,131.1813 Q429.5188,131.1813 429.2781,131.0563 Q429.0813,130.9563 428.9438,130.7422 Q428.8063,130.5281 428.8063,130.2719 L428.8063,130.0406 Q428.8063,129.775 428.9297,129.5453 Q429.0531,129.3156 429.2719,129.1922 Q429.4906,129.0688 429.7375,129.0688 Q429.8844,129.0688 430.0141,129.1016 Q430.1438,129.1344 430.2531,129.2063 Z "/><text fill="#000000" font-family="sans-serif" font-size="2.4" lengthAdjust="spacingAndGlyphs" textLength="12.4" x="432.5" y="131.0133">Expression</text><line style="stroke: #383838; stroke-width: 0.30000000447034836;" x1="426.9" x2="445.3" y1="133.2313" y2="133.2313"/><line style="stroke: #383838; stroke-width: 0.30000000447034836;" x1="426.9" x2="445.3" y1="134.8313" y2="134.8313"/><rect fill="#FFFFFF" height="9.6" style="stroke: #383838; stroke-width: 0.30000000447034836;" width="27.2" x="385.7" y="162.2313"/><ellipse cx="388.7" cy="165.4313" fill="#C2C2C2" rx="2.2" ry="2.2" style="stroke: #383838; stroke-width: 0.20000000298023224;"/><path d="M389.2531,164.6063 Q389.2844,164.5625 389.3219,164.5406 Q389.3594,164.5188 389.4031,164.5188 Q389.4781,164.5188 389.525,164.5703 Q389.5719,164.6219 389.5719,164.7438 L389.5719,165.0344 Q389.5719,165.1563 389.525,165.2094 Q389.4781,165.2625 389.4031,165.2625 Q389.3344,165.2625 389.2938,165.2219 Q389.2531,165.1844 389.2313,165.0813 Q389.2219,165.0094 389.1844,164.9719 Q389.1188,164.8969 388.9969,164.8531 Q388.875,164.8094 388.75,164.8094 Q388.5969,164.8094 388.4703,164.875 Q388.3438,164.9406 388.2453,165.0906 Q388.1469,165.2406 388.1469,165.4469 L388.1469,165.6656 Q388.1469,165.9125 388.325,166.0766 Q388.5031,166.2406 388.8219,166.2406 Q389.0094,166.2406 389.1406,166.1906 Q389.2188,166.1594 389.3031,166.0719 Q389.3563,166.0188 389.3859,166.0031 Q389.4156,165.9875 389.4563,165.9875 Q389.5219,165.9875 389.5734,166.0391 Q389.625,166.0906 389.625,166.1594 Q389.625,166.2281 389.5563,166.3094 Q389.4563,166.425 389.2969,166.4906 Q389.0813,166.5813 388.8219,166.5813 Q388.5188,166.5813 388.2781,166.4563 Q388.0813,166.3563 387.9438,166.1422 Q387.8063,165.9281 387.8063,165.6719 L387.8063,165.4406 Q387.8063,165.175 387.9297,164.9453 Q388.0531,164.7156 388.2719,164.5922 Q388.4906,164.4688 388.7375,164.4688 Q388.8844,164.4688 389.0141,164.5016 Q389.1438,164.5344 389.2531,164.6063 Z "/><text fill="#000000" font-family="sans-serif" font-size="2.4" lengthAdjust="spacingAndGlyphs" textLength="20.8" x="391.5" y="166.4133">ExpressionAdditive</text><line style="stroke: #383838; stroke-width: 0.30000000447034836;" x1="385.9" x2="412.7" y1="168.6313" y2="168.6313"/><line style="stroke: #383838; stroke-width: 0.30000000447034836;" x1="385.9" x2="412.7" y1="170.2313" y2="170.2313"/><rect fill="#FFFFFF" height="9.6" style="stroke: #383838; stroke-width: 0.30000000447034836;" width="32.2" x="420" y="162.2313"/><ellipse cx="423" cy="165.4313" fill="#C2C2C2" rx="2.2" ry="2.2" style="stroke: #383838; stroke-width: 0.20000000298023224;"/><path d="M423.5531,164.6063 Q423.5844,164.5625 423.6219,164.5406 Q423.6594,164.5188 423.7031,164.5188 Q423.7781,164.5188 423.825,164.5703 Q423.8719,164.6219 423.8719,164.7438 L423.8719,165.0344 Q423.8719,165.1563 423.825,165.2094 Q423.7781,165.2625 423.7031,165.2625 Q423.6344,165.2625 423.5938,165.2219 Q423.5531,165.1844 423.5313,165.0813 Q423.5219,165.0094 423.4844,164.9719 Q423.4188,164.8969 423.2969,164.8531 Q423.175,164.8094 423.05,164.8094 Q422.8969,164.8094 422.7703,164.875 Q422.6438,164.9406 422.5453,165.0906 Q422.4469,165.2406 422.4469,165.4469 L422.4469,165.6656 Q422.4469,165.9125 422.625,166.0766 Q422.8031,166.2406 423.1219,166.2406 Q423.3094,166.2406 423.4406,166.1906 Q423.5188,166.1594 423.6031,166.0719 Q423.6563,166.0188 423.6859,166.0031 Q423.7156,165.9875 423.7563,165.9875 Q423.8219,165.9875 423.8734,166.0391 Q423.925,166.0906 423.925,166.1594 Q423.925,166.2281 423.8563,166.3094 Q423.7563,166.425 423.5969,166.4906 Q423.3813,166.5813 423.1219,166.5813 Q422.8188,166.5813 422.5781,166.4563 Q422.3813,166.3563 422.2438,166.1422 Q422.1063,165.9281 422.1063,165.6719 L422.1063,165.4406 Q422.1063,165.175 422.2297,164.9453 Q422.3531,164.7156 422.5719,164.5922 Q422.7906,164.4688 423.0375,164.4688 Q423.1844,164.4688 423.3141,164.5016 Q423.4438,164.5344 423.5531,164.6063 Z "/><text fill="#000000" font-family="sans-serif" font-size="2.4" lengthAdjust="spacingAndGlyphs" textLength="25.8" x="425.8" y="166.4133">ExpressionSoustractive</text><line style="stroke: #383838; stroke-width: 0.30000000447034836;" x1="420.2" x2="452" y1="168.6313" y2="168.6313"/><line style="stroke: #383838; stroke-width: 0.30000000447034836;" x1="420.2" x2="452" y1="170.2313" y2="170.2313"/><rect fill="#FFFFFF" height="9.6" style="stroke: #383838; stroke-width: 0.30000000447034836;" width="13.6" x="397.5" y="184.0313"/><ellipse cx="400.5" cy="187.2313" fill="#C2C2C2" rx="2.2" ry="2.2" style="stroke: #383838; stroke-width: 0.20000000298023224;"/><path d="M401.0531,186.4063 Q401.0844,186.3625 401.1219,186.3406 Q401.1594,186.3188 401.2031,186.3188 Q401.2781,186.3188 401.325,186.3703 Q401.3719,186.4219 401.3719,186.5438 L401.3719,186.8344 Q401.3719,186.9563 401.325,187.0094 Q401.2781,187.0625 401.2031,187.0625 Q401.1344,187.0625 401.0938,187.0219 Q401.0531,186.9844 401.0313,186.8813 Q401.0219,186.8094 400.9844,186.7719 Q400.9188,186.6969 400.7969,186.6531 Q400.675,186.6094 400.55,186.6094 Q400.3969,186.6094 400.2703,186.675 Q400.1438,186.7406 400.0453,186.8906 Q399.9469,187.0406 399.9469,187.2469 L399.9469,187.4656 Q399.9469,187.7125 400.125,187.8766 Q400.3031,188.0406 400.6219,188.0406 Q400.8094,188.0406 400.9406,187.9906 Q401.0188,187.9594 401.1031,187.8719 Q401.1563,187.8188 401.1859,187.8031 Q401.2156,187.7875 401.2563,187.7875 Q401.3219,187.7875 401.3734,187.8391 Q401.425,187.8906 401.425,187.9594 Q401.425,188.0281 401.3563,188.1094 Q401.2563,188.225 401.0969,188.2906 Q400.8813,188.3813 400.6219,188.3813 Q400.3188,188.3813 400.0781,188.2563 Q399.8813,188.1563 399.7438,187.9422 Q399.6063,187.7281 399.6063,187.4719 L399.6063,187.2406 Q399.6063,186.975 399.7297,186.7453 Q399.8531,186.5156 400.0719,186.3922 Q400.2906,186.2688 400.5375,186.2688 Q400.6844,186.2688 400.8141,186.3016 Q400.9438,186.3344 401.0531,186.4063 Z "/><text fill="#000000" font-family="sans-serif" font-size="2.4" lengthAdjust="spacingAndGlyphs" textLength="7.2" x="403.3" y="188.2133">Terme</text><line style="stroke: #383838; stroke-width: 0.30000000447034836;" x1="397.7" x2="410.9" y1="190.4313" y2="190.4313"/><line style="stroke: #383838; stroke-width: 0.30000000447034836;" x1="397.7" x2="410.9" y1="192.0313" y2="192.0313"/><rect fill="#FFFFFF" height="9.6" style="stroke: #383838; stroke-width: 0.30000000447034836;" width="23.2" x="417.1" y="209.2313"/><ellipse cx="420.1" cy="212.4313" fill="#C2C2C2" rx="2.2" ry="2.2" style="stroke: #383838; stroke-width: 0.20000000298023224;"/><path d="M420.6531,211.6063 Q420.6844,211.5625 420.7219,211.5406 Q420.7594,211.5188 420.8031,211.5188 Q420.8781,211.5188 420.925,211.5703 Q420.9719,211.6219 420.9719,211.7438 L420.9719,212.0344 Q420.9719,212.1563 420.925,212.2094 Q420.8781,212.2625 420.8031,212.2625 Q420.7344,212.2625 420.6938,212.2219 Q420.6531,212.1844 420.6313,212.0813 Q420.6219,212.0094 420.5844,211.9719 Q420.5188,211.8969 420.3969,211.8531 Q420.275,211.8094 420.15,211.8094 Q419.9969,211.8094 419.8703,211.875 Q419.7438,211.9406 419.6453,212.0906 Q419.5469,212.2406 419.5469,212.4469 L419.5469,212.6656 Q419.5469,212.9125 419.725,213.0766 Q419.9031,213.2406 420.2219,213.2406 Q420.4094,213.2406 420.5406,213.1906 Q420.6188,213.1594 420.7031,213.0719 Q420.7563,213.0188 420.7859,213.0031 Q420.8156,212.9875 420.8563,212.9875 Q420.9219,212.9875 420.9734,213.0391 Q421.025,213.0906 421.025,213.1594 Q421.025,213.2281 420.9563,213.3094 Q420.8563,213.425 420.6969,213.4906 Q420.4813,213.5813 420.2219,213.5813 Q419.9188,213.5813 419.6781,213.4563 Q419.4813,213.3563 419.3438,213.1422 Q419.2063,212.9281 419.2063,212.6719 L419.2063,212.4406 Q419.2063,212.175 419.3297,211.9453 Q419.4531,211.7156 419.6719,211.5922 Q419.8906,211.4688 420.1375,211.4688 Q420.2844,211.4688 420.4141,211.5016 Q420.5438,211.5344 420.6531,211.6063 Z "/><text fill="#000000" font-family="sans-serif" font-size="2.4" lengthAdjust="spacingAndGlyphs" textLength="16.8" x="422.9" y="213.4133">ExpressionMult</text><line style="stroke: #383838; stroke-width: 0.30000000447034836;" x1="417.3" x2="440.1" y1="215.6313" y2="215.6313"/><line style="stroke: #383838; stroke-width: 0.30000000447034836;" x1="417.3" x2="440.1" y1="217.2313" y2="217.2313"/><rect fill="#FFFFFF" height="9.6" style="stroke: #383838; stroke-width: 0.30000000447034836;" width="22.2" x="373.6" y="209.2313"/><ellipse cx="376.6" cy="212.4313" fill="#C2C2C2" rx="2.2" ry="2.2" style="stroke: #383838; stroke-width: 0.20000000298023224;"/><path d="M377.1531,211.6063 Q377.1844,211.5625 377.2219,211.5406 Q377.2594,211.5188 377.3031,211.5188 Q377.3781,211.5188 377.425,211.5703 Q377.4719,211.6219 377.4719,211.7438 L377.4719,212.0344 Q377.4719,212.1563 377.425,212.2094 Q377.3781,212.2625 377.3031,212.2625 Q377.2344,212.2625 377.1938,212.2219 Q377.1531,212.1844 377.1313,212.0813 Q377.1219,212.0094 377.0844,211.9719 Q377.0188,211.8969 376.8969,211.8531 Q376.775,211.8094 376.65,211.8094 Q376.4969,211.8094 376.3703,211.875 Q376.2438,211.9406 376.1453,212.0906 Q376.0469,212.2406 376.0469,212.4469 L376.0469,212.6656 Q376.0469,212.9125 376.225,213.0766 Q376.4031,213.2406 376.7219,213.2406 Q376.9094,213.2406 377.0406,213.1906 Q377.1188,213.1594 377.2031,213.0719 Q377.2563,213.0188 377.2859,213.0031 Q377.3156,212.9875 377.3563,212.9875 Q377.4219,212.9875 377.4734,213.0391 Q377.525,213.0906 377.525,213.1594 Q377.525,213.2281 377.4563,213.3094 Q377.3563,213.425 377.1969,213.4906 Q376.9813,213.5813 376.7219,213.5813 Q376.4188,213.5813 376.1781,213.4563 Q375.9813,213.3563 375.8438,213.1422 Q375.7063,212.9281 375.7063,212.6719 L375.7063,212.4406 Q375.7063,212.175 375.8297,211.9453 Q375.9531,211.7156 376.1719,211.5922 Q376.3906,211.4688 376.6375,211.4688 Q376.7844,211.4688 376.9141,211.5016 Q377.0438,211.5344 377.1531,211.6063 Z "/><text fill="#000000" font-family="sans-serif" font-size="2.4" lengthAdjust="spacingAndGlyphs" textLength="15.8" x="379.4" y="213.4133">ExpressionDiv</text><line style="stroke: #383838; stroke-width: 0.30000000447034836;" x1="373.8" x2="395.6" y1="215.6313" y2="215.6313"/><line style="stroke: #383838; stroke-width: 0.30000000447034836;" x1="373.8" x2="395.6" y1="217.2313" y2="217.2313"/><rect fill="#FFFFFF" height="9.6" style="stroke: #383838; stroke-width: 0.30000000447034836;" width="14.6" x="408" y="231.0313"/><ellipse cx="411" cy="234.2313" fill="#C2C2C2" rx="2.2" ry="2.2" style="stroke: #383838; stroke-width: 0.20000000298023224;"/><path d="M411.5531,233.4063 Q411.5844,233.3625 411.6219,233.3406 Q411.6594,233.3188 411.7031,233.3188 Q411.7781,233.3188 411.825,233.3703 Q411.8719,233.4219 411.8719,233.5438 L411.8719,233.8344 Q411.8719,233.9563 411.825,234.0094 Q411.7781,234.0625 411.7031,234.0625 Q411.6344,234.0625 411.5938,234.0219 Q411.5531,233.9844 411.5313,233.8813 Q411.5219,233.8094 411.4844,233.7719 Q411.4188,233.6969 411.2969,233.6531 Q411.175,233.6094 411.05,233.6094 Q410.8969,233.6094 410.7703,233.675 Q410.6438,233.7406 410.5453,233.8906 Q410.4469,234.0406 410.4469,234.2469 L410.4469,234.4656 Q410.4469,234.7125 410.625,234.8766 Q410.8031,235.0406 411.1219,235.0406 Q411.3094,235.0406 411.4406,234.9906 Q411.5188,234.9594 411.6031,234.8719 Q411.6563,234.8188 411.6859,234.8031 Q411.7156,234.7875 411.7563,234.7875 Q411.8219,234.7875 411.8734,234.8391 Q411.925,234.8906 411.925,234.9594 Q411.925,235.0281 411.8563,235.1094 Q411.7563,235.225 411.5969,235.2906 Q411.3813,235.3813 411.1219,235.3813 Q410.8188,235.3813 410.5781,235.2563 Q410.3813,235.1563 410.2438,234.9422 Q410.1063,234.7281 410.1063,234.4719 L410.1063,234.2406 Q410.1063,233.975 410.2297,233.7453 Q410.3531,233.5156 410.5719,233.3922 Q410.7906,233.2688 411.0375,233.2688 Q411.1844,233.2688 411.3141,233.3016 Q411.4438,233.3344 411.5531,233.4063 Z "/><text fill="#000000" font-family="sans-serif" font-size="2.4" lengthAdjust="spacingAndGlyphs" textLength="8.2" x="413.8" y="235.2133">Facteur</text><line style="stroke: #383838; stroke-width: 0.30000000447034836;" x1="408.2" x2="422.4" y1="237.4313" y2="237.4313"/><line style="stroke: #383838; stroke-width: 0.30000000447034836;" x1="408.2" x2="422.4" y1="239.0313" y2="239.0313"/><rect fill="#FFFFFF" height="9.6" style="stroke: #383838; stroke-width: 0.30000000447034836;" width="33" x="438.4" y="252.8313"/><ellipse cx="441.4" cy="256.0313" fill="#C2C2C2" rx="2.2" ry="2.2" style="stroke: #383838; stroke-width: 0.20000000298023224;"/><path d="M441.9531,255.2063 Q441.9844,255.1625 442.0219,255.1406 Q442.0594,255.1188 442.1031,255.1188 Q442.1781,255.1188 442.225,255.1703 Q442.2719,255.2219 442.2719,255.3438 L442.2719,255.6344 Q442.2719,255.7563 442.225,255.8094 Q442.1781,255.8625 442.1031,255.8625 Q442.0344,255.8625 441.9938,255.8219 Q441.9531,255.7844 441.9313,255.6813 Q441.9219,255.6094 441.8844,255.5719 Q441.8188,255.4969 441.6969,255.4531 Q441.575,255.4094 441.45,255.4094 Q441.2969,255.4094 441.1703,255.475 Q441.0438,255.5406 440.9453,255.6906 Q440.8469,255.8406 440.8469,256.0469 L440.8469,256.2656 Q440.8469,256.5125 441.025,256.6766 Q441.2031,256.8406 441.5219,256.8406 Q441.7094,256.8406 441.8406,256.7906 Q441.9188,256.7594 442.0031,256.6719 Q442.0563,256.6188 442.0859,256.6031 Q442.1156,256.5875 442.1563,256.5875 Q442.2219,256.5875 442.2734,256.6391 Q442.325,256.6906 442.325,256.7594 Q442.325,256.8281 442.2563,256.9094 Q442.1563,257.025 441.9969,257.0906 Q441.7813,257.1813 441.5219,257.1813 Q441.2188,257.1813 440.9781,257.0563 Q440.7813,256.9563 440.6438,256.7422 Q440.5063,256.5281 440.5063,256.2719 L440.5063,256.0406 Q440.5063,255.775 440.6297,255.5453 Q440.7531,255.3156 440.9719,255.1922 Q441.1906,255.0688 441.4375,255.0688 Q441.5844,255.0688 441.7141,255.1016 Q441.8438,255.1344 441.9531,255.2063 Z "/><text fill="#000000" font-family="sans-serif" font-size="2.4" lengthAdjust="spacingAndGlyphs" textLength="26.6" x="444.2" y="257.0133">ExpressionParenthesee</text><line style="stroke: #383838; stroke-width: 0.30000000447034836;" x1="438.6" x2="471.2" y1="259.2313" y2="259.2313"/><line style="stroke: #383838; stroke-width: 0.30000000447034836;" x1="438.6" x2="471.2" y1="260.8313" y2="260.8313"/><rect fill="#FFFFFF" height="9.6" style="stroke: #383838; stroke-width: 0.30000000447034836;" width="30.2" x="365.6" y="252.8313"/><ellipse cx="368.6" cy="256.0313" fill="#C2C2C2" rx="2.2" ry="2.2" style="stroke: #383838; stroke-width: 0.20000000298023224;"/><path d="M369.1531,255.2063 Q369.1844,255.1625 369.2219,255.1406 Q369.2594,255.1188 369.3031,255.1188 Q369.3781,255.1188 369.425,255.1703 Q369.4719,255.2219 369.4719,255.3438 L369.4719,255.6344 Q369.4719,255.7563 369.425,255.8094 Q369.3781,255.8625 369.3031,255.8625 Q369.2344,255.8625 369.1938,255.8219 Q369.1531,255.7844 369.1313,255.6813 Q369.1219,255.6094 369.0844,255.5719 Q369.0188,255.4969 368.8969,255.4531 Q368.775,255.4094 368.65,255.4094 Q368.4969,255.4094 368.3703,255.475 Q368.2438,255.5406 368.1453,255.6906 Q368.0469,255.8406 368.0469,256.0469 L368.0469,256.2656 Q368.0469,256.5125 368.225,256.6766 Q368.4031,256.8406 368.7219,256.8406 Q368.9094,256.8406 369.0406,256.7906 Q369.1188,256.7594 369.2031,256.6719 Q369.2563,256.6188 369.2859,256.6031 Q369.3156,256.5875 369.3563,256.5875 Q369.4219,256.5875 369.4734,256.6391 Q369.525,256.6906 369.525,256.7594 Q369.525,256.8281 369.4563,256.9094 Q369.3563,257.025 369.1969,257.0906 Q368.9813,257.1813 368.7219,257.1813 Q368.4188,257.1813 368.1781,257.0563 Q367.9813,256.9563 367.8438,256.7422 Q367.7063,256.5281 367.7063,256.2719 L367.7063,256.0406 Q367.7063,255.775 367.8297,255.5453 Q367.9531,255.3156 368.1719,255.1922 Q368.3906,255.0688 368.6375,255.0688 Q368.7844,255.0688 368.9141,255.1016 Q369.0438,255.1344 369.1531,255.2063 Z "/><text fill="#000000" font-family="sans-serif" font-size="2.4" lengthAdjust="spacingAndGlyphs" textLength="23.8" x="371.4" y="257.0133">ConstanteNumerique</text><line style="stroke: #383838; stroke-width: 0.30000000447034836;" x1="365.8" x2="395.6" y1="259.2313" y2="259.2313"/><line style="stroke: #383838; stroke-width: 0.30000000447034836;" x1="365.8" x2="395.6" y1="260.8313" y2="260.8313"/><path d="M350.056,158.6297 C352.434,163.9791 354.9,171.1383 354.9,177.8313 C354.9,177.8313 354.9,177.8313 354.9,257.8313 C354.9,264.4385 354.168,267.8703 359.3,272.0313 C368.628,279.5938 451.714,282.865 479.84,283.7622 " fill="none" style="stroke: #383838; stroke-width: 0.20000000298023224;"/><polygon fill="#383838" points="348.944,156.2333,348.7242,157.6586,349.9555,158.4097,350.1752,156.9843,348.944,156.2333" style="stroke: #383838; stroke-width: 0.20000000298023224;"/><text fill="#000000" font-family="sans-serif" font-size="2.6" lengthAdjust="spacingAndGlyphs" textLength="2" x="355.1" y="215.1303">id</text><path d="M340.064,158.5655 C337.028,163.8497 333.9,170.9623 333.9,177.8313 C333.9,177.8313 333.9,177.8313 333.9,257.8313 C333.9,264.7451 333.9,272.6853 333.9,277.9956 " fill="none" style="stroke: #383838; stroke-width: 0.20000000298023224;"/><polygon fill="#383838" points="341.44,156.2737,340.1363,156.8904,340.2042,158.3311,341.5079,157.7143,341.44,156.2737" style="stroke: #383838; stroke-width: 0.20000000298023224;"/><text fill="#000000" font-family="sans-serif" font-size="2.6" lengthAdjust="spacingAndGlyphs" textLength="6.6" x="334.1" y="215.1303">valeur</text><path d="M411.04,85.1393 C408.928,87.8673 406.926,90.9983 405.7,94.2313 C403.78,99.2933 403.664,105.5749 403.876,109.7771 " fill="none" style="stroke: #383838; stroke-width: 0.20000000298023224;"/><polygon fill="none" points="409.99,84.2113,413.626,82.0333,412.142,86.0033,409.99,84.2113" style="stroke: #383838; stroke-width: 0.20000000298023224;"/><path d="M421.284,86.0693 C421.732,88.9033 422.198,91.8523 422.568,94.2003 " fill="none" style="stroke: #383838; stroke-width: 0.20000000298023224;"/><polygon fill="none" points="419.896,86.2513,420.656,82.0813,422.662,85.8133,419.896,86.2513" style="stroke: #383838; stroke-width: 0.20000000298023224;"/><path d="M471.154,84.3593 C475.958,87.6793 481.308,91.3745 485.398,94.2003 " fill="none" style="stroke: #383838; stroke-width: 0.20000000298023224;"/><polygon fill="none" points="470.352,85.5073,467.856,82.0813,471.944,83.2033,470.352,85.5073" style="stroke: #383838; stroke-width: 0.20000000298023224;"/><path d="M458.388,86.1693 C458.192,88.9733 457.988,91.8797 457.824,94.2003 " fill="none" style="stroke: #383838; stroke-width: 0.20000000298023224;"/><polygon fill="none" points="456.998,85.9733,458.676,82.0813,459.792,86.1693,456.998,85.9733" style="stroke: #383838; stroke-width: 0.20000000298023224;"/><path d="M476.618,77.8493 C487.822,79.9493 501.766,84.4753 510.1,94.2313 C513.786,98.5453 514.358,105.2927 514.264,109.7867 " fill="none" style="stroke: #383838; stroke-width: 0.20000000298023224;"/><polygon fill="none" points="476.344,79.2213,472.63,77.1793,476.806,76.4613,476.344,79.2213" style="stroke: #383838; stroke-width: 0.20000000298023224;"/><path d="M370.168,263.7279 C362.55,267.9923 352.292,273.735 344.63,278.0247 " fill="none" style="stroke: #383838; stroke-width: 0.20000000298023224;"/><polygon fill="#383838" points="372.44,262.4551,371.0022,262.3425,370.3453,263.6264,371.7831,263.739,372.44,262.4551" style="stroke: #383838; stroke-width: 0.20000000298023224;"/><text fill="#000000" font-family="sans-serif" font-size="2.6" lengthAdjust="spacingAndGlyphs" textLength="6.6" x="361.7" y="271.3303">valeur</text><path d="M394.316,120.7941 C383.558,127.2203 366.53,137.3901 355.746,143.8309 " fill="none" style="stroke: #383838; stroke-width: 0.20000000298023224;"/><polygon fill="#383838" points="396.578,119.4429,395.1375,119.3718,394.518,120.6742,395.9584,120.7452,396.578,119.4429" style="stroke: #383838; stroke-width: 0.20000000298023224;"/><path d="M432.006,105.3527 C440.194,111.1081 452.374,119.6727 460.52,125.3989 " fill="none" style="stroke: #383838; stroke-width: 0.20000000298023224;"/><polygon fill="#383838" points="429.862,103.8447,430.384,105.1891,431.8258,105.2244,431.3038,103.8799,429.862,103.8447" style="stroke: #383838; stroke-width: 0.20000000298023224;"/><path d="M426.344,139.0987 C418.362,146.0511 407.666,156.3251 402.356,162.2201 " fill="none" style="stroke: #383838; stroke-width: 0.20000000298023224;"/><polygon fill="none" points="425.464,138.0103,429.416,136.4791,427.28,140.1403,425.464,138.0103" style="stroke: #383838; stroke-width: 0.20000000298023224;"/><path d="M408.08,160.5095 C416.184,153.5881 427.602,142.6543 433.118,136.4791 " fill="none" style="stroke: #383838; stroke-width: 0.20000000298023224;"/><polygon fill="#383838" points="406.046,162.2201,407.4793,162.0597,407.8825,160.6749,406.4492,160.8353,406.046,162.2201" style="stroke: #383838; stroke-width: 0.20000000298023224;"/><path d="M433.866,140.4791 C433.33,147.3543 433.476,156.7041 434.308,162.2201 " fill="none" style="stroke: #383838; stroke-width: 0.20000000298023224;"/><polygon fill="none" points="432.476,140.3037,434.302,136.4791,435.26,140.6073,432.476,140.3037" style="stroke: #383838; stroke-width: 0.20000000298023224;"/><path d="M438.34,159.5607 C439.05,152.6225 438.938,142.3789 438.004,136.4791 " fill="none" style="stroke: #383838; stroke-width: 0.20000000298023224;"/><polygon fill="#383838" points="437.998,162.2201,438.944,161.1315,438.303,159.8395,437.357,160.9281,437.998,162.2201" style="stroke: #383838; stroke-width: 0.20000000298023224;"/><path d="M422.818,134.9351 C409.654,138.8189 390.3,146.9085 382.1,162.2313 C380.086,165.9931 380.2,168.0109 382.1,171.8313 C385.286,178.2363 392.208,182.8507 397.482,185.6039 " fill="none" style="stroke: #383838; stroke-width: 0.20000000298023224;"/><polygon fill="none" points="422.458,133.5823,426.686,133.8615,423.206,136.2803,422.458,133.5823" style="stroke: #383838; stroke-width: 0.20000000298023224;"/><path d="M400.996,174.4917 C401.73,177.6355 402.568,181.2223 403.218,183.9969 " fill="none" style="stroke: #383838; stroke-width: 0.20000000298023224;"/><polygon fill="#383838" points="400.384,171.8747,399.8781,173.2252,400.9303,174.2117,401.4361,172.8611,400.384,171.8747" style="stroke: #383838; stroke-width: 0.20000000298023224;"/><path d="M393.478,220.3703 C398.316,223.7539 404.226,227.8861 408.674,230.9969 " fill="none" style="stroke: #383838; stroke-width: 0.20000000298023224;"/><polygon fill="#383838" points="391.34,218.8747,391.8643,220.2182,393.3062,220.251,392.7819,218.9074,391.34,218.8747" style="stroke: #383838; stroke-width: 0.20000000298023224;"/><path d="M392.336,207.2291 C396.174,202.9409 400.418,197.4591 402.814,193.6379 " fill="none" style="stroke: #383838; stroke-width: 0.20000000298023224;"/><polygon fill="#383838" points="390.552,209.1653,391.9533,208.824,392.1772,207.3993,390.776,207.7405,390.552,209.1653" style="stroke: #383838; stroke-width: 0.20000000298023224;"/><path d="M395.918,196.6343 C392.368,200.7251 388.592,205.6395 386.344,209.1653 " fill="none" style="stroke: #383838; stroke-width: 0.20000000298023224;"/><polygon fill="none" points="394.904,195.6689,398.624,193.6379,396.982,197.5451,394.904,195.6689" style="stroke: #383838; stroke-width: 0.20000000298023224;"/><path d="M424.39,221.1129 C422.368,224.3443 420.01,228.1103 418.202,230.9969 " fill="none" style="stroke: #383838; stroke-width: 0.20000000298023224;"/><polygon fill="#383838" points="425.792,218.8747,424.477,219.467,424.5181,220.9086,425.833,220.3163,425.792,218.8747" style="stroke: #383838; stroke-width: 0.20000000298023224;"/><path d="M424.572,207.1707 C420.804,202.8915 415.352,197.4419 410.988,193.6379 " fill="none" style="stroke: #383838; stroke-width: 0.20000000298023224;"/><polygon fill="#383838" points="426.274,209.1653,426.1031,207.7332,424.7155,207.3401,424.8864,208.7722,426.274,209.1653" style="stroke: #383838; stroke-width: 0.20000000298023224;"/><path d="M409.462,196.6947 C413.164,200.7735 418.078,205.6569 422.064,209.1653 " fill="none" style="stroke: #383838; stroke-width: 0.20000000298023224;"/><polygon fill="none" points="408.37,197.5727,406.796,193.6379,410.482,195.7321,408.37,197.5727" style="stroke: #383838; stroke-width: 0.20000000298023224;"/><path d="M458.96,250.4147 C460.94,246.3499 462.9,241.0569 462.9,236.0313 C462.9,166.8313 462.9,166.8313 462.9,166.8313 C462.9,153.7061 450.872,142.4589 442.932,136.4639 " fill="none" style="stroke: #383838; stroke-width: 0.20000000298023224;"/><polygon fill="#383838" points="457.744,252.7733,459.0055,252.0743,458.8455,250.641,457.584,251.3399,457.744,252.7733" style="stroke: #383838; stroke-width: 0.20000000298023224;"/><path d="M427.038,173.3299 C421.978,176.7343 415.78,180.9063 411.132,184.0337 " fill="none" style="stroke: #383838; stroke-width: 0.20000000298023224;"/><polygon fill="#383838" points="429.2,171.8747,427.7578,171.8809,427.2089,173.2146,428.6511,173.2083,429.2,171.8747" style="stroke: #383838; stroke-width: 0.20000000298023224;"/><path d="M404.546,242.6823 C399.224,245.9745 392.93,249.8665 388.146,252.8257 " fill="none" style="stroke: #383838; stroke-width: 0.20000000298023224;"/><polygon fill="none" points="403.824,241.4831,407.962,240.5697,405.296,243.8645,403.824,241.4831" style="stroke: #383838; stroke-width: 0.20000000298023224;"/><path d="M426.19,241.9165 C432.542,245.3495 440.442,249.6177 446.344,252.8079 " fill="none" style="stroke: #383838; stroke-width: 0.20000000298023224;"/><polygon fill="none" points="425.51,243.1397,422.656,240.0063,426.84,240.6763,425.51,243.1397" style="stroke: #383838; stroke-width: 0.20000000298023224;"/><path d="M416.034,244.7469 C416.264,247.5037 416.512,250.4427 416.71,252.7969 " fill="none" style="stroke: #383838; stroke-width: 0.20000000298023224;"/><polygon fill="none" points="414.63,244.7781,415.69,240.6747,417.42,244.5433,414.63,244.7781" style="stroke: #383838; stroke-width: 0.20000000298023224;"/><path d="M432.324,263.3715 C446.732,268.6139 467.886,276.3118 479.89,280.6798 " fill="none" style="stroke: #383838; stroke-width: 0.20000000298023224;"/><polygon fill="#383838" points="429.806,262.4551,430.6603,263.617,432.0615,263.2753,431.2072,262.1133,429.806,262.4551" style="stroke: #383838; stroke-width: 0.20000000298023224;"/><text fill="#000000" font-family="sans-serif" font-size="2.6" lengthAdjust="spacingAndGlyphs" textLength="2" x="455.3" y="271.3303">id</text><path d="M474.086,140.1347 C477.752,147.0327 482.1,157.2351 482.1,166.8313 C482.1,166.8313 482.1,166.8313 482.1,257.8313 C482.1,264.9407 484.536,272.7785 486.534,278.0121 " fill="none" style="stroke: #383838; stroke-width: 0.20000000298023224;"/><polygon fill="#383838" points="472.826,137.8389,472.702,139.2757,473.9806,139.9429,474.1046,138.506,472.826,137.8389" style="stroke: #383838; stroke-width: 0.20000000298023224;"/><text fill="#000000" font-family="sans-serif" font-size="2.6" lengthAdjust="spacingAndGlyphs" textLength="2" x="482.3" y="215.1303">id</text><path d="M481.786,105.1619 C470.914,111.4133 454.02,121.1277 444.108,126.8263 " fill="none" style="stroke: #383838; stroke-width: 0.20000000298023224;"/><polygon fill="#383838" points="484.076,103.8447,482.6369,103.7498,481.9959,105.0417,483.435,105.1366,484.076,103.8447" style="stroke: #383838; stroke-width: 0.20000000298023224;"/><path d="M493.58,106.4139 C494.788,112.9165 496.3,122.7741 496.3,131.4313 C496.3,131.4313 496.3,131.4313 496.3,257.8313 C496.3,264.9543 493.796,272.7898 491.74,278.019 " fill="none" style="stroke: #383838; stroke-width: 0.20000000298023224;"/><polygon fill="#383838" points="493.084,103.8457,492.5253,105.1752,493.5377,106.2024,494.0964,104.8728,493.084,103.8457" style="stroke: #383838; stroke-width: 0.20000000298023224;"/><text fill="#000000" font-family="sans-serif" font-size="2.6" lengthAdjust="spacingAndGlyphs" textLength="2" x="496.5" y="202.5303">id</text><path d="M452.942,106.0895 C448.788,112.3407 442.766,121.4025 439.16,126.8263 " fill="none" style="stroke: #383838; stroke-width: 0.20000000298023224;"/><polygon fill="#383838" points="454.434,103.8447,453.1036,104.4013,453.1057,105.8436,454.4362,105.2869,454.434,103.8447" style="stroke: #383838; stroke-width: 0.20000000298023224;"/><path d="M513.37,122.1573 C512.904,129.2357 512.3,140.2617 512.3,149.8313 C512.3,149.8313 512.3,149.8313 512.3,257.8313 C512.3,266.6713 504.806,273.9261 498.336,278.5421 " fill="none" style="stroke: #383838; stroke-width: 0.20000000298023224;"/><polygon fill="#383838" points="513.552,119.4707,512.6724,120.6136,513.389,121.8651,514.2687,120.7222,513.552,119.4707" style="stroke: #383838; stroke-width: 0.20000000298023224;"/><text fill="#000000" font-family="sans-serif" font-size="2.6" lengthAdjust="spacingAndGlyphs" textLength="2" x="512.5" y="202.5303">id</text><path d="M433.116,59.5313 C430.472,62.7033 427.338,66.4653 424.766,69.5533 " fill="none" style="stroke: #383838; stroke-width: 0.20000000298023224;"/><polygon fill="#383838" points="434.856,57.4453,433.473,57.8544,433.3188,59.2883,434.7018,58.8792,434.856,57.4453" style="stroke: #383838; stroke-width: 0.20000000298023224;"/><path d="M444.614,59.4413 C447.468,62.6313 450.872,66.4353 453.662,69.5533 " fill="none" style="stroke: #383838; stroke-width: 0.20000000298023224;"/><polygon fill="#383838" points="442.828,57.4453,443.0324,58.8729,444.4289,59.2333,444.2245,57.8057,442.828,57.4453" style="stroke: #383838; stroke-width: 0.20000000298023224;"/><path d="M283.85,22.4553 C302.396,24.7313 330.5,31.6153 330.5,52.4313 C330.5,52.4313 330.5,52.4313 330.5,114.8313 C330.5,125.7289 336.776,137.0731 341.262,143.7903 " fill="none" style="stroke: #383838; stroke-width: 0.20000000298023224;"/><polygon fill="none" points="283.646,23.8413,279.822,22.0153,283.95,21.0593,283.646,23.8413" style="stroke: #383838; stroke-width: 0.20000000298023224;"/><path d="M283.848,21.5333 C316.766,22.2733 390.716,25.7133 409.3,41.6313 C417.48,48.6393 419.342,61.8913 419.696,69.6173 " fill="none" style="stroke: #383838; stroke-width: 0.20000000298023224;"/><polygon fill="none" points="283.78,22.9313,279.81,21.4513,283.838,20.1333,283.78,22.9313" style="stroke: #383838; stroke-width: 0.20000000298023224;"/><path d="M283.856,22.6053 C312.932,25.0893 376.408,31.2633 429.1,41.6313 C439.488,43.6753 444.676,40.2833 452.1,47.8313 C457.788,53.6153 459.07,63.3033 459.252,69.5813 " fill="none" style="stroke: #383838; stroke-width: 0.20000000298023224;"/><polygon fill="none" points="283.69,23.9953,279.82,22.2653,283.924,21.2053,283.69,23.9953" style="stroke: #383838; stroke-width: 0.20000000298023224;"/><path d="M283.774,25.3073 C303.516,30.3073 338.214,39.2773 367.7,47.8313 C368.824,48.1573 369.992,48.5073 371.156,48.8633 " fill="none" style="stroke: #383838; stroke-width: 0.20000000298023224;"/><polygon fill="none" points="283.39,26.6553,279.854,24.3173,284.076,23.9393,283.39,26.6553" style="stroke: #383838; stroke-width: 0.20000000298023224;"/><path d="M283.908,22.1813 C315.232,24.2133 382.8,30.5413 396.9,47.8313 C417.136,72.6473 369.244,94.1535 388.9,119.4313 C393.486,125.3301 414.24,128.8039 426.65,130.3893 " fill="none" style="stroke: #383838; stroke-width: 0.20000000298023224;"/><polygon fill="none" points="283.732,23.5733,279.828,21.9273,283.906,20.7773,283.732,23.5733" style="stroke: #383838; stroke-width: 0.20000000298023224;"/><path d="M283.778,24.7733 C297.81,28.1193 318.636,33.8373 335.7,41.6313 C339.39,43.3173 343.226,45.6913 346.318,47.7853 " fill="none" style="stroke: #383838; stroke-width: 0.20000000298023224;"/><polygon fill="none" points="283.41,26.1253,279.832,23.8533,284.046,23.3993,283.41,26.1253" style="stroke: #383838; stroke-width: 0.20000000298023224;"/><path d="M283.852,21.5273 C340.914,22.4373 531.5,27.3533 531.5,52.4313 C531.5,52.4313 531.5,52.4313 531.5,99.2313 C531.5,108.4195 533.63,112.9683 527.1,119.4313 C521.354,125.1181 500.782,128.3463 485.768,129.9907 " fill="none" style="stroke: #383838; stroke-width: 0.20000000298023224;"/><polygon fill="none" points="283.804,22.9273,279.824,21.4673,283.846,20.1273,283.804,22.9273" style="stroke: #383838; stroke-width: 0.20000000298023224;"/><path d="M283.826,22.4293 C318.196,24.9533 398.258,31.7313 423.5,41.6313 C427.146,43.0613 430.742,45.5533 433.52,47.7813 " fill="none" style="stroke: #383838; stroke-width: 0.20000000298023224;"/><polygon fill="none" points="283.708,23.8233,279.82,22.1373,283.91,21.0313,283.708,23.8233" style="stroke: #383838; stroke-width: 0.20000000298023224;"/><path d="M283.922,21.4293 C343.066,22.0033 545.7,25.9053 545.7,52.4313 C545.7,52.4313 545.7,52.4313 545.7,257.8313 C545.7,278.4588 514.358,282.8949 498.32,283.8145 " fill="none" style="stroke: #383838; stroke-width: 0.20000000298023224;"/><polygon fill="none" points="283.824,22.8293,279.836,21.3933,283.85,20.0293,283.824,22.8293" style="stroke: #383838; stroke-width: 0.20000000298023224;"/><path d="M283.742,24.5753 C297.858,28.4993 316.3,36.6473 316.3,52.4313 C316.3,52.4313 316.3,52.4313 316.3,257.8313 C316.3,265.7767 321.946,273.1268 326.842,278.007 " fill="none" style="stroke: #383838; stroke-width: 0.20000000298023224;"/><polygon fill="none" points="283.324,25.9133,279.802,23.5553,284.026,23.2013,283.324,25.9133" style="stroke: #383838; stroke-width: 0.20000000298023224;"/><path d="M251.968,22.2833 C212.876,24.7413 113.0862,31.8093 81.3,41.6313 C76.6646,43.0633 71.8596,45.5833 68.0996,47.8293 " fill="none" style="stroke: #383838; stroke-width: 0.20000000298023224;"/><polygon fill="none" points="251.914,20.8833,255.994,22.0313,252.088,23.6773,251.914,20.8833" style="stroke: #383838; stroke-width: 0.20000000298023224;"/><path d="M251.934,21.4733 C213.246,22.1633 116.032,26.0733 93.7,47.8313 C87.3972,53.9713 86.3628,64.8593 86.3282,71.0293 " fill="none" style="stroke: #383838; stroke-width: 0.20000000298023224;"/><polygon fill="none" points="251.954,20.0733,255.976,21.4093,252,22.8733,251.954,20.0733" style="stroke: #383838; stroke-width: 0.20000000298023224;"/><path d="M251.864,21.1513 C224.394,21.3653 167.0048,24.1053 122.5,41.6313 C118.8234,43.0793 115.182,45.5713 112.3638,47.7973 " fill="none" style="stroke: #383838; stroke-width: 0.20000000298023224;"/><polygon fill="none" points="251.924,19.7513,255.93,21.1373,251.934,22.5513,251.924,19.7513" style="stroke: #383838; stroke-width: 0.20000000298023224;"/><path d="M251.906,22.1453 C203.07,24.7733 58.2828,33.6993 42.9,47.8313 C36.4014,53.8013 35.4472,64.8053 35.4772,71.0293 " fill="none" style="stroke: #383838; stroke-width: 0.20000000298023224;"/><polygon fill="none" points="251.856,20.7453,255.926,21.9313,252.006,23.5413,251.856,20.7453" style="stroke: #383838; stroke-width: 0.20000000298023224;"/><path d="M251.928,21.7293 C205.592,23.0353 71.8052,27.9253 30.5,41.6313 C26.3494,43.0093 22.1704,45.5553 18.9486,47.8313 " fill="none" style="stroke: #383838; stroke-width: 0.20000000298023224;"/><polygon fill="none" points="251.906,20.3293,255.942,21.6193,251.982,23.1293,251.906,20.3293" style="stroke: #383838; stroke-width: 0.20000000298023224;"/><path d="M251.966,22.4093 C220.41,24.8713 151.5804,31.9593 134.9,47.8313 C128.5252,53.8973 127.5182,64.8133 127.5074,71.0093 " fill="none" style="stroke: #383838; stroke-width: 0.20000000298023224;"/><polygon fill="none" points="251.888,21.0113,255.982,22.1053,252.098,23.8033,251.888,21.0113" style="stroke: #383838; stroke-width: 0.20000000298023224;"/><path d="M251.942,22.6733 C231.51,24.8033 195.3048,29.9773 166.5,41.6313 C162.675,43.1793 158.776,45.6213 155.6982,47.7933 " fill="none" style="stroke: #383838; stroke-width: 0.20000000298023224;"/><polygon fill="none" points="251.814,21.2793,255.932,22.2753,252.09,24.0653,251.814,21.2793" style="stroke: #383838; stroke-width: 0.20000000298023224;"/><path d="M251.932,21.5213 C231.958,22.6513 198.0362,27.6633 178.7,47.8313 C172.655,54.1373 171.6084,64.8613 171.548,70.9833 " fill="none" style="stroke: #383838; stroke-width: 0.20000000298023224;"/><polygon fill="none" points="251.912,20.1213,255.972,21.3353,252.042,22.9173,251.912,20.1213" style="stroke: #383838; stroke-width: 0.20000000298023224;"/><path d="M252.098,25.8353 C240.34,29.4433 224.05,34.9913 210.5,41.6313 C206.92,43.3853 203.166,45.7433 200.1166,47.8093 " fill="none" style="stroke: #383838; stroke-width: 0.20000000298023224;"/><polygon fill="none" points="251.744,24.4793,255.978,24.6633,252.554,27.1593,251.744,24.4793" style="stroke: #383838; stroke-width: 0.20000000298023224;"/><path d="M252.268,26.8353 C242.382,31.0933 230.114,37.9493 222.7,47.8313 C217.518,54.7393 216.144,65.0533 215.798,70.9833 " fill="none" style="stroke: #383838; stroke-width: 0.20000000298023224;"/><polygon fill="none" points="251.762,25.5293,255.994,25.3033,252.828,28.1193,251.762,25.5293" style="stroke: #383838; stroke-width: 0.20000000298023224;"/><path d="M253.092,35.8133 C248.668,40.1393 244.13,44.5773 240.858,47.7773 " fill="none" style="stroke: #383838; stroke-width: 0.20000000298023224;"/><polygon fill="none" points="252.13,34.7953,255.968,32.9993,254.088,36.7973,252.13,34.7953" style="stroke: #383838; stroke-width: 0.20000000298023224;"/><path d="M264.054,39.6473 C261.722,50.7593 258.924,64.0893 257.476,70.9853 " fill="none" style="stroke: #383838; stroke-width: 0.20000000298023224;"/><polygon fill="none" points="262.698,39.2953,264.89,35.6693,265.438,39.8713,262.698,39.2953" style="stroke: #383838; stroke-width: 0.20000000298023224;"/><path d="M274.552,39.4773 C275.676,42.5473 276.752,45.4773 277.592,47.7733 " fill="none" style="stroke: #383838; stroke-width: 0.20000000298023224;"/><polygon fill="none" points="273.228,39.9353,273.166,35.6973,275.858,38.9713,273.228,39.9353" style="stroke: #383838; stroke-width: 0.20000000298023224;"/><path d="M282.974,32.1553 C287.714,36.4433 292.366,41.7953 294.9,47.8313 C298.096,55.4453 296.576,65.2913 295.214,70.9913 " fill="none" style="stroke: #383838; stroke-width: 0.20000000298023224;"/><polygon fill="none" points="281.998,33.1613,279.87,29.4953,283.818,31.0353,281.998,33.1613" style="stroke: #383838; stroke-width: 0.20000000298023224;"/><path d="M406.324,197.6053 C408.648,207.4517 412.376,223.2435 414.21,231.0115 " fill="none" style="stroke: #383838; stroke-width: 0.20000000298023224;"/><polygon fill="none" points="404.952,197.8845,405.394,193.6699,407.676,197.2413,404.952,197.8845" style="stroke: #383838; stroke-width: 0.20000000298023224;"/></g></svg>