<?xml version="1.0" encoding="UTF-8" standalone="yes"?><svg xmlns="http://www.w3.org/2000/svg" xmlns:xlink="http://www.w3.org/1999/xlink" height="1439px" style="width:1943px;height:1439px;" version="1.1" viewBox="0 0 1943 1439" width="1943px"><defs/><g><text fill="#000000" font-family="sans-serif" font-size="20" lengthAdjust="spacingAndGlyphs" textLength="206" x="877.5" y="19.3359">Diagramme de classe</text><rect fill="#FFFFFF" height="138.6855" style="stroke: #383838; stroke-width: 1.5;" width="131" x="915" y="31.5547"/><ellipse cx="952.95" cy="47.5547" fill="#C2C2C2" rx="11" ry="11" style="stroke: #383838; stroke-width: 1.0;"/><path d="M955.9231,53.1978 Q955.3421,53.4966 954.7029,53.646 Q954.0638,53.7954 953.3582,53.7954 Q950.8514,53.7954 949.5315,52.1436 Q948.2117,50.4917 948.2117,47.3706 Q948.2117,44.2412 949.5315,42.5894 Q950.8514,40.9375 953.3582,40.9375 Q954.0638,40.9375 954.7112,41.0869 Q955.3587,41.2363 955.9231,41.5352 L955.9231,44.2578 Q955.2923,43.6768 954.6988,43.407 Q954.1053,43.1372 953.4744,43.1372 Q952.1297,43.1372 951.4449,44.2039 Q950.7601,45.2705 950.7601,47.3706 Q950.7601,49.4624 951.4449,50.5291 Q952.1297,51.5957 953.4744,51.5957 Q954.1053,51.5957 954.6988,51.3259 Q955.2923,51.0562 955.9231,50.4751 Z "/><text fill="#000000" font-family="sans-serif" font-size="12" lengthAdjust="spacingAndGlyphs" textLength="48" x="972.05" y="52.0898">Symbole</text><line style="stroke: #383838; stroke-width: 1.5;" x1="916" x2="1045" y1="63.5547" y2="63.5547"/><polygon fill="none" points="926,71.5322,922,77.5322,930,77.5322" style="stroke: #535353; stroke-width: 1.0;"/><text fill="#000000" font-family="sans-serif" font-size="11" lengthAdjust="spacingAndGlyphs" textLength="27" x="935" y="78.1895">int id</text><line style="stroke: #383838; stroke-width: 1.5;" x1="916" x2="1045" y1="84.5098" y2="84.5098"/><ellipse cx="926" cy="96.4873" fill="#A6A6A6" rx="3" ry="3" style="stroke: #545454; stroke-width: 1.0;"/><text fill="#000000" font-family="sans-serif" font-size="11" lengthAdjust="spacingAndGlyphs" textLength="83" x="935" y="99.1445">Symbole (int id)</text><ellipse cx="926" cy="109.4424" fill="#A6A6A6" rx="3" ry="3" style="stroke: #545454; stroke-width: 1.0;"/><text fill="#000000" font-family="sans-serif" font-size="11" lengthAdjust="spacingAndGlyphs" textLength="105" x="935" y="112.0996">operator int() const</text><ellipse cx="926" cy="122.3975" fill="#A6A6A6" rx="3" ry="3" style="stroke: #545454; stroke-width: 1.0;"/><text fill="#000000" font-family="sans-serif" font-size="11" lengthAdjust="spacingAndGlyphs" textLength="81" x="935" y="125.0547">void exectuer()</text><ellipse cx="926" cy="135.3525" fill="#A6A6A6" rx="3" ry="3" style="stroke: #545454; stroke-width: 1.0;"/><text fill="#000000" font-family="sans-serif" font-size="11" lengthAdjust="spacingAndGlyphs" textLength="75" x="935" y="138.0098">void afficher()</text><ellipse cx="926" cy="148.3076" fill="#A6A6A6" rx="3" ry="3" style="stroke: #545454; stroke-width: 1.0;"/><text fill="#000000" font-family="sans-serif" font-size="11" lengthAdjust="spacingAndGlyphs" textLength="79" x="935" y="150.9648">void analyser()</text><ellipse cx="926" cy="161.2627" fill="#A6A6A6" rx="3" ry="3" style="stroke: #545454; stroke-width: 1.0;"/><text fill="#000000" font-family="sans-serif" font-size="11" lengthAdjust="spacingAndGlyphs" textLength="85" x="935" y="163.9199">void optimiser()</text><rect fill="#FFFFFF" height="48" style="stroke: #383838; stroke-width: 1.5;" width="123" x="6" y="231.5547"/><ellipse cx="21" cy="247.5547" fill="#C2C2C2" rx="11" ry="11" style="stroke: #383838; stroke-width: 1.0;"/><path d="M23.9731,253.1978 Q23.3921,253.4966 22.7529,253.646 Q22.1138,253.7954 21.4082,253.7954 Q18.9014,253.7954 17.5815,252.1436 Q16.2617,250.4917 16.2617,247.3706 Q16.2617,244.2412 17.5815,242.5894 Q18.9014,240.9375 21.4082,240.9375 Q22.1138,240.9375 22.7612,241.0869 Q23.4087,241.2363 23.9731,241.5352 L23.9731,244.2578 Q23.3423,243.6768 22.7488,243.407 Q22.1553,243.1372 21.5244,243.1372 Q20.1797,243.1372 19.4949,244.2039 Q18.8101,245.2705 18.8101,247.3706 Q18.8101,249.4624 19.4949,250.5291 Q20.1797,251.5957 21.5244,251.5957 Q22.1553,251.5957 22.7488,251.3259 Q23.3423,251.0562 23.9731,250.4751 Z "/><text fill="#000000" font-family="sans-serif" font-size="12" lengthAdjust="spacingAndGlyphs" textLength="91" x="35" y="252.0898">VirguleTerminal</text><line style="stroke: #383838; stroke-width: 1.5;" x1="7" x2="128" y1="263.5547" y2="263.5547"/><line style="stroke: #383838; stroke-width: 1.5;" x1="7" x2="128" y1="271.5547" y2="271.5547"/><rect fill="#FFFFFF" height="48" style="stroke: #383838; stroke-width: 1.5;" width="107" x="164" y="231.5547"/><ellipse cx="179" cy="247.5547" fill="#C2C2C2" rx="11" ry="11" style="stroke: #383838; stroke-width: 1.0;"/><path d="M181.9731,253.1978 Q181.3921,253.4966 180.7529,253.646 Q180.1138,253.7954 179.4082,253.7954 Q176.9014,253.7954 175.5815,252.1436 Q174.2617,250.4917 174.2617,247.3706 Q174.2617,244.2412 175.5815,242.5894 Q176.9014,240.9375 179.4082,240.9375 Q180.1138,240.9375 180.7612,241.0869 Q181.4087,241.2363 181.9731,241.5352 L181.9731,244.2578 Q181.3423,243.6768 180.7488,243.407 Q180.1553,243.1372 179.5244,243.1372 Q178.1797,243.1372 177.4949,244.2039 Q176.8101,245.2705 176.8101,247.3706 Q176.8101,249.4624 177.4949,250.5291 Q178.1797,251.5957 179.5244,251.5957 Q180.1553,251.5957 180.7488,251.3259 Q181.3423,251.0562 181.9731,250.4751 Z "/><text fill="#000000" font-family="sans-serif" font-size="12" lengthAdjust="spacingAndGlyphs" textLength="75" x="193" y="252.0898">EgalTerminal</text><line style="stroke: #383838; stroke-width: 1.5;" x1="165" x2="270" y1="263.5547" y2="263.5547"/><line style="stroke: #383838; stroke-width: 1.5;" x1="165" x2="270" y1="271.5547" y2="271.5547"/><rect fill="#FFFFFF" height="48" style="stroke: #383838; stroke-width: 1.5;" width="151" x="306" y="231.5547"/><ellipse cx="321" cy="247.5547" fill="#C2C2C2" rx="11" ry="11" style="stroke: #383838; stroke-width: 1.0;"/><path d="M323.9731,253.1978 Q323.3921,253.4966 322.7529,253.646 Q322.1138,253.7954 321.4082,253.7954 Q318.9014,253.7954 317.5815,252.1436 Q316.2617,250.4917 316.2617,247.3706 Q316.2617,244.2412 317.5815,242.5894 Q318.9014,240.9375 321.4082,240.9375 Q322.1138,240.9375 322.7612,241.0869 Q323.4087,241.2363 323.9731,241.5352 L323.9731,244.2578 Q323.3423,243.6768 322.7488,243.407 Q322.1553,243.1372 321.5244,243.1372 Q320.1797,243.1372 319.4949,244.2039 Q318.8101,245.2705 318.8101,247.3706 Q318.8101,249.4624 319.4949,250.5291 Q320.1797,251.5957 321.5244,251.5957 Q322.1553,251.5957 322.7488,251.3259 Q323.3423,251.0562 323.9731,250.4751 Z "/><text fill="#000000" font-family="sans-serif" font-size="12" lengthAdjust="spacingAndGlyphs" textLength="119" x="335" y="252.0898">PointVirguleTerminal</text><line style="stroke: #383838; stroke-width: 1.5;" x1="307" x2="456" y1="263.5547" y2="263.5547"/><line style="stroke: #383838; stroke-width: 1.5;" x1="307" x2="456" y1="271.5547" y2="271.5547"/><rect fill="#FFFFFF" height="48" style="stroke: #383838; stroke-width: 1.5;" width="115" x="492" y="231.5547"/><ellipse cx="507" cy="247.5547" fill="#C2C2C2" rx="11" ry="11" style="stroke: #383838; stroke-width: 1.0;"/><path d="M509.9731,253.1978 Q509.3921,253.4966 508.7529,253.646 Q508.1138,253.7954 507.4082,253.7954 Q504.9014,253.7954 503.5815,252.1436 Q502.2617,250.4917 502.2617,247.3706 Q502.2617,244.2412 503.5815,242.5894 Q504.9014,240.9375 507.4082,240.9375 Q508.1138,240.9375 508.7612,241.0869 Q509.4087,241.2363 509.9731,241.5352 L509.9731,244.2578 Q509.3423,243.6768 508.7488,243.407 Q508.1553,243.1372 507.5244,243.1372 Q506.1797,243.1372 505.4949,244.2039 Q504.8101,245.2705 504.8101,247.3706 Q504.8101,249.4624 505.4949,250.5291 Q506.1797,251.5957 507.5244,251.5957 Q508.1553,251.5957 508.7488,251.3259 Q509.3423,251.0562 509.9731,250.4751 Z "/><text fill="#000000" font-family="sans-serif" font-size="12" lengthAdjust="spacingAndGlyphs" textLength="83" x="521" y="252.0898">ConstTerminal</text><line style="stroke: #383838; stroke-width: 1.5;" x1="493" x2="606" y1="263.5547" y2="263.5547"/><line style="stroke: #383838; stroke-width: 1.5;" x1="493" x2="606" y1="271.5547" y2="271.5547"/><rect fill="#FFFFFF" height="48" style="stroke: #383838; stroke-width: 1.5;" width="103" x="642" y="231.5547"/><ellipse cx="657" cy="247.5547" fill="#C2C2C2" rx="11" ry="11" style="stroke: #383838; stroke-width: 1.0;"/><path d="M659.9731,253.1978 Q659.3921,253.4966 658.7529,253.646 Q658.1138,253.7954 657.4082,253.7954 Q654.9014,253.7954 653.5815,252.1436 Q652.2617,250.4917 652.2617,247.3706 Q652.2617,244.2412 653.5815,242.5894 Q654.9014,240.9375 657.4082,240.9375 Q658.1138,240.9375 658.7612,241.0869 Q659.4087,241.2363 659.9731,241.5352 L659.9731,244.2578 Q659.3423,243.6768 658.7488,243.407 Q658.1553,243.1372 657.5244,243.1372 Q656.1797,243.1372 655.4949,244.2039 Q654.8101,245.2705 654.8101,247.3706 Q654.8101,249.4624 655.4949,250.5291 Q656.1797,251.5957 657.5244,251.5957 Q658.1553,251.5957 658.7488,251.3259 Q659.3423,251.0562 659.9731,250.4751 Z "/><text fill="#000000" font-family="sans-serif" font-size="12" lengthAdjust="spacingAndGlyphs" textLength="71" x="671" y="252.0898">VarTerminal</text><line style="stroke: #383838; stroke-width: 1.5;" x1="643" x2="744" y1="263.5547" y2="263.5547"/><line style="stroke: #383838; stroke-width: 1.5;" x1="643" x2="744" y1="271.5547" y2="271.5547"/><rect fill="#FFFFFF" height="60.9551" style="stroke: #383838; stroke-width: 1.5;" width="101" x="1517" y="1377.5547"/><ellipse cx="1535.15" cy="1393.5547" fill="#C2C2C2" rx="11" ry="11" style="stroke: #383838; stroke-width: 1.0;"/><path d="M1538.1231,1399.1978 Q1537.5421,1399.4966 1536.9029,1399.646 Q1536.2638,1399.7954 1535.5582,1399.7954 Q1533.0514,1399.7954 1531.7315,1398.1436 Q1530.4117,1396.4917 1530.4117,1393.3706 Q1530.4117,1390.2412 1531.7315,1388.5894 Q1533.0514,1386.9375 1535.5582,1386.9375 Q1536.2638,1386.9375 1536.9112,1387.0869 Q1537.5587,1387.2363 1538.1231,1387.5352 L1538.1231,1390.2578 Q1537.4923,1389.6768 1536.8988,1389.407 Q1536.3053,1389.1372 1535.6744,1389.1372 Q1534.3297,1389.1372 1533.6449,1390.2039 Q1532.9601,1391.2705 1532.9601,1393.3706 Q1532.9601,1395.4624 1533.6449,1396.5291 Q1534.3297,1397.5957 1535.6744,1397.5957 Q1536.3053,1397.5957 1536.8988,1397.3259 Q1537.4923,1397.0562 1538.1231,1396.4751 Z "/><text fill="#000000" font-family="sans-serif" font-size="12" lengthAdjust="spacingAndGlyphs" textLength="62" x="1549.85" y="1398.0898">IdTerminal</text><line style="stroke: #383838; stroke-width: 1.5;" x1="1518" x2="1617" y1="1409.5547" y2="1409.5547"/><ellipse cx="1528" cy="1421.5322" fill="none" rx="3" ry="3" style="stroke: #545454; stroke-width: 1.0;"/><text fill="#000000" font-family="sans-serif" font-size="11" lengthAdjust="spacingAndGlyphs" textLength="75" x="1537" y="1424.1895">String IdName</text><line style="stroke: #383838; stroke-width: 1.5;" x1="1518" x2="1617" y1="1430.5098" y2="1430.5098"/><rect fill="#FFFFFF" height="60.9551" style="stroke: #383838; stroke-width: 1.5;" width="110" x="805.5" y="1377.5547"/><ellipse cx="820.5" cy="1393.5547" fill="#C2C2C2" rx="11" ry="11" style="stroke: #383838; stroke-width: 1.0;"/><path d="M823.4731,1399.1978 Q822.8921,1399.4966 822.2529,1399.646 Q821.6138,1399.7954 820.9082,1399.7954 Q818.4014,1399.7954 817.0815,1398.1436 Q815.7617,1396.4917 815.7617,1393.3706 Q815.7617,1390.2412 817.0815,1388.5894 Q818.4014,1386.9375 820.9082,1386.9375 Q821.6138,1386.9375 822.2612,1387.0869 Q822.9087,1387.2363 823.4731,1387.5352 L823.4731,1390.2578 Q822.8423,1389.6768 822.2488,1389.407 Q821.6553,1389.1372 821.0244,1389.1372 Q819.6797,1389.1372 818.9949,1390.2039 Q818.3101,1391.2705 818.3101,1393.3706 Q818.3101,1395.4624 818.9949,1396.5291 Q819.6797,1397.5957 821.0244,1397.5957 Q821.6553,1397.5957 822.2488,1397.3259 Q822.8423,1397.0562 823.4731,1396.4751 Z "/><text fill="#000000" font-family="sans-serif" font-size="12" lengthAdjust="spacingAndGlyphs" textLength="78" x="834.5" y="1398.0898">NumTerminal</text><line style="stroke: #383838; stroke-width: 1.5;" x1="806.5" x2="914.5" y1="1409.5547" y2="1409.5547"/><ellipse cx="816.5" cy="1421.5322" fill="none" rx="3" ry="3" style="stroke: #545454; stroke-width: 1.0;"/><text fill="#000000" font-family="sans-serif" font-size="11" lengthAdjust="spacingAndGlyphs" textLength="46" x="825.5" y="1424.1895">Int Value</text><line style="stroke: #383838; stroke-width: 1.5;" x1="806.5" x2="914.5" y1="1430.5098" y2="1430.5098"/><rect fill="#FFFFFF" height="48" style="stroke: #383838; stroke-width: 1.5;" width="115" x="923" y="231.5547"/><ellipse cx="938" cy="247.5547" fill="#C2C2C2" rx="11" ry="11" style="stroke: #383838; stroke-width: 1.0;"/><path d="M940.9731,253.1978 Q940.3921,253.4966 939.7529,253.646 Q939.1138,253.7954 938.4082,253.7954 Q935.9014,253.7954 934.5815,252.1436 Q933.2617,250.4917 933.2617,247.3706 Q933.2617,244.2412 934.5815,242.5894 Q935.9014,240.9375 938.4082,240.9375 Q939.1138,240.9375 939.7612,241.0869 Q940.4087,241.2363 940.9731,241.5352 L940.9731,244.2578 Q940.3423,243.6768 939.7488,243.407 Q939.1553,243.1372 938.5244,243.1372 Q937.1797,243.1372 936.4949,244.2039 Q935.8101,245.2705 935.8101,247.3706 Q935.8101,249.4624 936.4949,250.5291 Q937.1797,251.5957 938.5244,251.5957 Q939.1553,251.5957 939.7488,251.3259 Q940.3423,251.0562 940.9731,250.4751 Z "/><text fill="#000000" font-family="sans-serif" font-size="12" lengthAdjust="spacingAndGlyphs" textLength="83" x="952" y="252.0898">FinProgramme</text><line style="stroke: #383838; stroke-width: 1.5;" x1="924" x2="1037" y1="263.5547" y2="263.5547"/><line style="stroke: #383838; stroke-width: 1.5;" x1="924" x2="1037" y1="271.5547" y2="271.5547"/><rect fill="#FFFFFF" height="48" style="stroke: #383838; stroke-width: 1.5;" width="114" x="1073.5" y="231.5547"/><ellipse cx="1088.5" cy="247.5547" fill="#C2C2C2" rx="11" ry="11" style="stroke: #383838; stroke-width: 1.0;"/><path d="M1091.4731,253.1978 Q1090.8921,253.4966 1090.2529,253.646 Q1089.6138,253.7954 1088.9082,253.7954 Q1086.4014,253.7954 1085.0815,252.1436 Q1083.7617,250.4917 1083.7617,247.3706 Q1083.7617,244.2412 1085.0815,242.5894 Q1086.4014,240.9375 1088.9082,240.9375 Q1089.6138,240.9375 1090.2612,241.0869 Q1090.9087,241.2363 1091.4731,241.5352 L1091.4731,244.2578 Q1090.8423,243.6768 1090.2488,243.407 Q1089.6553,243.1372 1089.0244,243.1372 Q1087.6797,243.1372 1086.9949,244.2039 Q1086.3101,245.2705 1086.3101,247.3706 Q1086.3101,249.4624 1086.9949,250.5291 Q1087.6797,251.5957 1089.0244,251.5957 Q1089.6553,251.5957 1090.2488,251.3259 Q1090.8423,251.0562 1091.4731,250.4751 Z "/><text fill="#000000" font-family="sans-serif" font-size="12" lengthAdjust="spacingAndGlyphs" textLength="82" x="1102.5" y="252.0898">ErreurLexicale</text><line style="stroke: #383838; stroke-width: 1.5;" x1="1074.5" x2="1186.5" y1="263.5547" y2="263.5547"/><line style="stroke: #383838; stroke-width: 1.5;" x1="1074.5" x2="1186.5" y1="271.5547" y2="271.5547"/><rect fill="#FFFFFF" height="60.9551" style="stroke: #383838; stroke-width: 1.5;" width="182" x="1492.5" y="709.5547"/><ellipse cx="1521.9" cy="725.5547" fill="#C2C2C2" rx="11" ry="11" style="stroke: #383838; stroke-width: 1.0;"/><path d="M1524.8731,731.1978 Q1524.2921,731.4966 1523.6529,731.646 Q1523.0138,731.7954 1522.3082,731.7954 Q1519.8014,731.7954 1518.4815,730.1436 Q1517.1617,728.4917 1517.1617,725.3706 Q1517.1617,722.2412 1518.4815,720.5894 Q1519.8014,718.9375 1522.3082,718.9375 Q1523.0138,718.9375 1523.6612,719.0869 Q1524.3087,719.2363 1524.8731,719.5352 L1524.8731,722.2578 Q1524.2423,721.6768 1523.6488,721.407 Q1523.0553,721.1372 1522.4244,721.1372 Q1521.0797,721.1372 1520.3949,722.2039 Q1519.7101,723.2705 1519.7101,725.3706 Q1519.7101,727.4624 1520.3949,728.5291 Q1521.0797,729.5957 1522.4244,729.5957 Q1523.0553,729.5957 1523.6488,729.3259 Q1524.2423,729.0562 1524.8731,728.4751 Z "/><text fill="#000000" font-family="sans-serif" font-size="12" lengthAdjust="spacingAndGlyphs" textLength="118" x="1539.1" y="730.0898">AffectationConstante</text><line style="stroke: #383838; stroke-width: 1.5;" x1="1493.5" x2="1673.5" y1="741.5547" y2="741.5547"/><ellipse cx="1503.5" cy="753.5322" fill="none" rx="3" ry="3" style="stroke: #545454; stroke-width: 1.0;"/><text fill="#000000" font-family="sans-serif" font-size="11" lengthAdjust="spacingAndGlyphs" textLength="156" x="1512.5" y="756.1895">AffectationConstante suivant</text><line style="stroke: #383838; stroke-width: 1.5;" x1="1493.5" x2="1673.5" y1="762.5098" y2="762.5098"/><rect fill="#FFFFFF" height="60.9551" style="stroke: #383838; stroke-width: 1.5;" width="182" x="1760.5" y="618.5547"/><ellipse cx="1787.65" cy="634.5547" fill="#C2C2C2" rx="11" ry="11" style="stroke: #383838; stroke-width: 1.0;"/><path d="M1790.6231,640.1978 Q1790.0421,640.4966 1789.4029,640.646 Q1788.7638,640.7954 1788.0582,640.7954 Q1785.5514,640.7954 1784.2315,639.1436 Q1782.9117,637.4917 1782.9117,634.3706 Q1782.9117,631.2412 1784.2315,629.5894 Q1785.5514,627.9375 1788.0582,627.9375 Q1788.7638,627.9375 1789.4112,628.0869 Q1790.0587,628.2363 1790.6231,628.5352 L1790.6231,631.2578 Q1789.9923,630.6768 1789.3988,630.407 Q1788.8053,630.1372 1788.1744,630.1372 Q1786.8297,630.1372 1786.1449,631.2039 Q1785.4601,632.2705 1785.4601,634.3706 Q1785.4601,636.4624 1786.1449,637.5291 Q1786.8297,638.5957 1788.1744,638.5957 Q1788.8053,638.5957 1789.3988,638.3259 Q1789.9923,638.0562 1790.6231,637.4751 Z "/><text fill="#000000" font-family="sans-serif" font-size="12" lengthAdjust="spacingAndGlyphs" textLength="123" x="1804.35" y="639.0898">IdentificateurVariable</text><line style="stroke: #383838; stroke-width: 1.5;" x1="1761.5" x2="1941.5" y1="650.5547" y2="650.5547"/><ellipse cx="1771.5" cy="662.5322" fill="none" rx="3" ry="3" style="stroke: #545454; stroke-width: 1.0;"/><text fill="#000000" font-family="sans-serif" font-size="11" lengthAdjust="spacingAndGlyphs" textLength="156" x="1780.5" y="665.1895">IdentificateurVariable suivant</text><line style="stroke: #383838; stroke-width: 1.5;" x1="1761.5" x2="1941.5" y1="671.5098" y2="671.5098"/><rect fill="#FFFFFF" height="48" style="stroke: #383838; stroke-width: 1.5;" width="149" x="972" y="1252.5547"/><ellipse cx="987" cy="1268.5547" fill="#C2C2C2" rx="11" ry="11" style="stroke: #383838; stroke-width: 1.0;"/><path d="M989.9731,1274.1978 Q989.3921,1274.4966 988.7529,1274.646 Q988.1138,1274.7954 987.4082,1274.7954 Q984.9014,1274.7954 983.5815,1273.1436 Q982.2617,1271.4917 982.2617,1268.3706 Q982.2617,1265.2412 983.5815,1263.5894 Q984.9014,1261.9375 987.4082,1261.9375 Q988.1138,1261.9375 988.7612,1262.0869 Q989.4087,1262.2363 989.9731,1262.5352 L989.9731,1265.2578 Q989.3423,1264.6768 988.7488,1264.407 Q988.1553,1264.1372 987.5244,1264.1372 Q986.1797,1264.1372 985.4949,1265.2039 Q984.8101,1266.2705 984.8101,1268.3706 Q984.8101,1270.4624 985.4949,1271.5291 Q986.1797,1272.5957 987.5244,1272.5957 Q988.1553,1272.5957 988.7488,1272.3259 Q989.3423,1272.0562 989.9731,1271.4751 Z "/><text fill="#000000" font-family="sans-serif" font-size="12" lengthAdjust="spacingAndGlyphs" textLength="117" x="1001" y="1273.0898">IdentificateurFacteur</text><line style="stroke: #383838; stroke-width: 1.5;" x1="973" x2="1120" y1="1284.5547" y2="1284.5547"/><line style="stroke: #383838; stroke-width: 1.5;" x1="973" x2="1120" y1="1292.5547" y2="1292.5547"/><rect fill="#FFFFFF" height="60.9551" style="stroke: #383838; stroke-width: 1.5;" width="151" x="1500" y="340.5547"/><ellipse cx="1528.95" cy="356.5547" fill="#C2C2C2" rx="11" ry="11" style="stroke: #383838; stroke-width: 1.0;"/><path d="M1531.9231,362.1978 Q1531.3421,362.4966 1530.7029,362.646 Q1530.0638,362.7954 1529.3582,362.7954 Q1526.8514,362.7954 1525.5315,361.1436 Q1524.2117,359.4917 1524.2117,356.3706 Q1524.2117,353.2412 1525.5315,351.5894 Q1526.8514,349.9375 1529.3582,349.9375 Q1530.0638,349.9375 1530.7112,350.0869 Q1531.3587,350.2363 1531.9231,350.5352 L1531.9231,353.2578 Q1531.2923,352.6768 1530.6988,352.407 Q1530.1053,352.1372 1529.4744,352.1372 Q1528.1297,352.1372 1527.4449,353.2039 Q1526.7601,354.2705 1526.7601,356.3706 Q1526.7601,358.4624 1527.4449,359.5291 Q1528.1297,360.5957 1529.4744,360.5957 Q1530.1053,360.5957 1530.6988,360.3259 Q1531.2923,360.0562 1531.9231,359.4751 Z "/><text fill="#000000" font-family="sans-serif" font-size="12" lengthAdjust="spacingAndGlyphs" textLength="88" x="1546.05" y="361.0898">BlocDeclaration</text><line style="stroke: #383838; stroke-width: 1.5;" x1="1501" x2="1650" y1="372.5547" y2="372.5547"/><ellipse cx="1511" cy="384.5322" fill="none" rx="3" ry="3" style="stroke: #545454; stroke-width: 1.0;"/><text fill="#000000" font-family="sans-serif" font-size="11" lengthAdjust="spacingAndGlyphs" textLength="125" x="1520" y="387.1895">BlocDeclaration suivant</text><line style="stroke: #383838; stroke-width: 1.5;" x1="1501" x2="1650" y1="393.5098" y2="393.5098"/><rect fill="#FFFFFF" height="48" style="stroke: #383838; stroke-width: 1.5;" width="145" x="1571" y="462.5547"/><ellipse cx="1586" cy="478.5547" fill="#C2C2C2" rx="11" ry="11" style="stroke: #383838; stroke-width: 1.0;"/><path d="M1588.9731,484.1978 Q1588.3921,484.4966 1587.7529,484.646 Q1587.1138,484.7954 1586.4082,484.7954 Q1583.9014,484.7954 1582.5815,483.1436 Q1581.2617,481.4917 1581.2617,478.3706 Q1581.2617,475.2412 1582.5815,473.5894 Q1583.9014,471.9375 1586.4082,471.9375 Q1587.1138,471.9375 1587.7612,472.0869 Q1588.4087,472.2363 1588.9731,472.5352 L1588.9731,475.2578 Q1588.3423,474.6768 1587.7488,474.407 Q1587.1553,474.1372 1586.5244,474.1372 Q1585.1797,474.1372 1584.4949,475.2039 Q1583.8101,476.2705 1583.8101,478.3706 Q1583.8101,480.4624 1584.4949,481.5291 Q1585.1797,482.5957 1586.5244,482.5957 Q1587.1553,482.5957 1587.7488,482.3259 Q1588.3423,482.0562 1588.9731,481.4751 Z "/><text fill="#000000" font-family="sans-serif" font-size="12" lengthAdjust="spacingAndGlyphs" textLength="113" x="1600" y="483.0898">DeclarationVariable</text><line style="stroke: #383838; stroke-width: 1.5;" x1="1572" x2="1715" y1="494.5547" y2="494.5547"/><line style="stroke: #383838; stroke-width: 1.5;" x1="1572" x2="1715" y1="502.5547" y2="502.5547"/><rect fill="#FFFFFF" height="48" style="stroke: #383838; stroke-width: 1.5;" width="154" x="1523.5" y="540.5547"/><ellipse cx="1538.5" cy="556.5547" fill="#C2C2C2" rx="11" ry="11" style="stroke: #383838; stroke-width: 1.0;"/><path d="M1541.4731,562.1978 Q1540.8921,562.4966 1540.2529,562.646 Q1539.6138,562.7954 1538.9082,562.7954 Q1536.4014,562.7954 1535.0815,561.1436 Q1533.7617,559.4917 1533.7617,556.3706 Q1533.7617,553.2412 1535.0815,551.5894 Q1536.4014,549.9375 1538.9082,549.9375 Q1539.6138,549.9375 1540.2612,550.0869 Q1540.9087,550.2363 1541.4731,550.5352 L1541.4731,553.2578 Q1540.8423,552.6768 1540.2488,552.407 Q1539.6553,552.1372 1539.0244,552.1372 Q1537.6797,552.1372 1536.9949,553.2039 Q1536.3101,554.2705 1536.3101,556.3706 Q1536.3101,558.4624 1536.9949,559.5291 Q1537.6797,560.5957 1539.0244,560.5957 Q1539.6553,560.5957 1540.2488,560.3259 Q1540.8423,560.0562 1541.4731,559.4751 Z "/><text fill="#000000" font-family="sans-serif" font-size="12" lengthAdjust="spacingAndGlyphs" textLength="122" x="1552.5" y="561.0898">DeclarationConstante</text><line style="stroke: #383838; stroke-width: 1.5;" x1="1524.5" x2="1676.5" y1="572.5547" y2="572.5547"/><line style="stroke: #383838; stroke-width: 1.5;" x1="1524.5" x2="1676.5" y1="580.5547" y2="580.5547"/><rect fill="#FFFFFF" height="48" style="stroke: #383838; stroke-width: 1.5;" width="99" x="1294" y="231.5547"/><ellipse cx="1309" cy="247.5547" fill="#C2C2C2" rx="11" ry="11" style="stroke: #383838; stroke-width: 1.0;"/><path d="M1311.9731,253.1978 Q1311.3921,253.4966 1310.7529,253.646 Q1310.1138,253.7954 1309.4082,253.7954 Q1306.9014,253.7954 1305.5815,252.1436 Q1304.2617,250.4917 1304.2617,247.3706 Q1304.2617,244.2412 1305.5815,242.5894 Q1306.9014,240.9375 1309.4082,240.9375 Q1310.1138,240.9375 1310.7612,241.0869 Q1311.4087,241.2363 1311.9731,241.5352 L1311.9731,244.2578 Q1311.3423,243.6768 1310.7488,243.407 Q1310.1553,243.1372 1309.5244,243.1372 Q1308.1797,243.1372 1307.4949,244.2039 Q1306.8101,245.2705 1306.8101,247.3706 Q1306.8101,249.4624 1307.4949,250.5291 Q1308.1797,251.5957 1309.5244,251.5957 Q1310.1553,251.5957 1310.7488,251.3259 Q1311.3423,251.0562 1311.9731,250.4751 Z "/><text fill="#000000" font-family="sans-serif" font-size="12" lengthAdjust="spacingAndGlyphs" textLength="67" x="1323" y="252.0898">Programme</text><line style="stroke: #383838; stroke-width: 1.5;" x1="1295" x2="1392" y1="263.5547" y2="263.5547"/><line style="stroke: #383838; stroke-width: 1.5;" x1="1295" x2="1392" y1="271.5547" y2="271.5547"/><rect fill="#FFFFFF" height="60.9551" style="stroke: #383838; stroke-width: 1.5;" width="149" x="1170" y="340.5547"/><ellipse cx="1200.75" cy="356.5547" fill="#C2C2C2" rx="11" ry="11" style="stroke: #383838; stroke-width: 1.0;"/><path d="M1203.7231,362.1978 Q1203.1421,362.4966 1202.5029,362.646 Q1201.8638,362.7954 1201.1582,362.7954 Q1198.6514,362.7954 1197.3315,361.1436 Q1196.0117,359.4917 1196.0117,356.3706 Q1196.0117,353.2412 1197.3315,351.5894 Q1198.6514,349.9375 1201.1582,349.9375 Q1201.8638,349.9375 1202.5112,350.0869 Q1203.1587,350.2363 1203.7231,350.5352 L1203.7231,353.2578 Q1203.0923,352.6768 1202.4988,352.407 Q1201.9053,352.1372 1201.2744,352.1372 Q1199.9297,352.1372 1199.2449,353.2039 Q1198.5601,354.2705 1198.5601,356.3706 Q1198.5601,358.4624 1199.2449,359.5291 Q1199.9297,360.5957 1201.2744,360.5957 Q1201.9053,360.5957 1202.4988,360.3259 Q1203.0923,360.0562 1203.7231,359.4751 Z "/><text fill="#000000" font-family="sans-serif" font-size="12" lengthAdjust="spacingAndGlyphs" textLength="82" x="1218.25" y="361.0898">BlocInstruction</text><line style="stroke: #383838; stroke-width: 1.5;" x1="1171" x2="1318" y1="372.5547" y2="372.5547"/><ellipse cx="1181" cy="384.5322" fill="none" rx="3" ry="3" style="stroke: #545454; stroke-width: 1.0;"/><text fill="#000000" font-family="sans-serif" font-size="11" lengthAdjust="spacingAndGlyphs" textLength="123" x="1190" y="387.1895">BlocInstruction suivant</text><line style="stroke: #383838; stroke-width: 1.5;" x1="1171" x2="1318" y1="393.5098" y2="393.5098"/><rect fill="#FFFFFF" height="48" style="stroke: #383838; stroke-width: 1.5;" width="133" x="1344" y="540.5547"/><ellipse cx="1359" cy="556.5547" fill="#C2C2C2" rx="11" ry="11" style="stroke: #383838; stroke-width: 1.0;"/><path d="M1361.9731,562.1978 Q1361.3921,562.4966 1360.7529,562.646 Q1360.1138,562.7954 1359.4082,562.7954 Q1356.9014,562.7954 1355.5815,561.1436 Q1354.2617,559.4917 1354.2617,556.3706 Q1354.2617,553.2412 1355.5815,551.5894 Q1356.9014,549.9375 1359.4082,549.9375 Q1360.1138,549.9375 1360.7612,550.0869 Q1361.4087,550.2363 1361.9731,550.5352 L1361.9731,553.2578 Q1361.3423,552.6768 1360.7488,552.407 Q1360.1553,552.1372 1359.5244,552.1372 Q1358.1797,552.1372 1357.4949,553.2039 Q1356.8101,554.2705 1356.8101,556.3706 Q1356.8101,558.4624 1357.4949,559.5291 Q1358.1797,560.5957 1359.5244,560.5957 Q1360.1553,560.5957 1360.7488,560.3259 Q1361.3423,560.0562 1361.9731,559.4751 Z "/><text fill="#000000" font-family="sans-serif" font-size="12" lengthAdjust="spacingAndGlyphs" textLength="101" x="1373" y="561.0898">InstructionLecture</text><line style="stroke: #383838; stroke-width: 1.5;" x1="1345" x2="1476" y1="572.5547" y2="572.5547"/><line style="stroke: #383838; stroke-width: 1.5;" x1="1345" x2="1476" y1="580.5547" y2="580.5547"/><rect fill="#FFFFFF" height="48" style="stroke: #383838; stroke-width: 1.5;" width="135" x="1177" y="462.5547"/><ellipse cx="1192" cy="478.5547" fill="#C2C2C2" rx="11" ry="11" style="stroke: #383838; stroke-width: 1.0;"/><path d="M1194.9731,484.1978 Q1194.3921,484.4966 1193.7529,484.646 Q1193.1138,484.7954 1192.4082,484.7954 Q1189.9014,484.7954 1188.5815,483.1436 Q1187.2617,481.4917 1187.2617,478.3706 Q1187.2617,475.2412 1188.5815,473.5894 Q1189.9014,471.9375 1192.4082,471.9375 Q1193.1138,471.9375 1193.7612,472.0869 Q1194.4087,472.2363 1194.9731,472.5352 L1194.9731,475.2578 Q1194.3423,474.6768 1193.7488,474.407 Q1193.1553,474.1372 1192.5244,474.1372 Q1191.1797,474.1372 1190.4949,475.2039 Q1189.8101,476.2705 1189.8101,478.3706 Q1189.8101,480.4624 1190.4949,481.5291 Q1191.1797,482.5957 1192.5244,482.5957 Q1193.1553,482.5957 1193.7488,482.3259 Q1194.3423,482.0562 1194.9731,481.4751 Z "/><text fill="#000000" font-family="sans-serif" font-size="12" lengthAdjust="spacingAndGlyphs" textLength="103" x="1206" y="483.0898">InstructionEcriture</text><line style="stroke: #383838; stroke-width: 1.5;" x1="1178" x2="1311" y1="494.5547" y2="494.5547"/><line style="stroke: #383838; stroke-width: 1.5;" x1="1178" x2="1311" y1="502.5547" y2="502.5547"/><rect fill="#FFFFFF" height="48" style="stroke: #383838; stroke-width: 1.5;" width="152" x="989.5" y="462.5547"/><ellipse cx="1004.5" cy="478.5547" fill="#C2C2C2" rx="11" ry="11" style="stroke: #383838; stroke-width: 1.0;"/><path d="M1007.4731,484.1978 Q1006.8921,484.4966 1006.2529,484.646 Q1005.6138,484.7954 1004.9082,484.7954 Q1002.4014,484.7954 1001.0815,483.1436 Q999.7617,481.4917 999.7617,478.3706 Q999.7617,475.2412 1001.0815,473.5894 Q1002.4014,471.9375 1004.9082,471.9375 Q1005.6138,471.9375 1006.2612,472.0869 Q1006.9087,472.2363 1007.4731,472.5352 L1007.4731,475.2578 Q1006.8423,474.6768 1006.2488,474.407 Q1005.6553,474.1372 1005.0244,474.1372 Q1003.6797,474.1372 1002.9949,475.2039 Q1002.3101,476.2705 1002.3101,478.3706 Q1002.3101,480.4624 1002.9949,481.5291 Q1003.6797,482.5957 1005.0244,482.5957 Q1005.6553,482.5957 1006.2488,482.3259 Q1006.8423,482.0562 1007.4731,481.4751 Z "/><text fill="#000000" font-family="sans-serif" font-size="12" lengthAdjust="spacingAndGlyphs" textLength="120" x="1018.5" y="483.0898">InstructionAffectation</text><line style="stroke: #383838; stroke-width: 1.5;" x1="990.5" x2="1140.5" y1="494.5547" y2="494.5547"/><line style="stroke: #383838; stroke-width: 1.5;" x1="990.5" x2="1140.5" y1="502.5547" y2="502.5547"/><rect fill="#FFFFFF" height="48" style="stroke: #383838; stroke-width: 1.5;" width="95" x="1006" y="625.0547"/><ellipse cx="1021" cy="641.0547" fill="#C2C2C2" rx="11" ry="11" style="stroke: #383838; stroke-width: 1.0;"/><path d="M1023.9731,646.6978 Q1023.3921,646.9966 1022.7529,647.146 Q1022.1138,647.2954 1021.4082,647.2954 Q1018.9014,647.2954 1017.5815,645.6436 Q1016.2617,643.9917 1016.2617,640.8706 Q1016.2617,637.7412 1017.5815,636.0894 Q1018.9014,634.4375 1021.4082,634.4375 Q1022.1138,634.4375 1022.7612,634.5869 Q1023.4087,634.7363 1023.9731,635.0352 L1023.9731,637.7578 Q1023.3423,637.1768 1022.7488,636.907 Q1022.1553,636.6372 1021.5244,636.6372 Q1020.1797,636.6372 1019.4949,637.7039 Q1018.8101,638.7705 1018.8101,640.8706 Q1018.8101,642.9624 1019.4949,644.0291 Q1020.1797,645.0957 1021.5244,645.0957 Q1022.1553,645.0957 1022.7488,644.8259 Q1023.3423,644.5562 1023.9731,643.9751 Z "/><text fill="#000000" font-family="sans-serif" font-size="12" lengthAdjust="spacingAndGlyphs" textLength="63" x="1035" y="645.5898">Expression</text><line style="stroke: #383838; stroke-width: 1.5;" x1="1007" x2="1100" y1="657.0547" y2="657.0547"/><line style="stroke: #383838; stroke-width: 1.5;" x1="1007" x2="1100" y1="665.0547" y2="665.0547"/><rect fill="#FFFFFF" height="48" style="stroke: #383838; stroke-width: 1.5;" width="142" x="982.5" y="800.5547"/><ellipse cx="997.5" cy="816.5547" fill="#C2C2C2" rx="11" ry="11" style="stroke: #383838; stroke-width: 1.0;"/><path d="M1000.4731,822.1978 Q999.8921,822.4966 999.2529,822.646 Q998.6138,822.7954 997.9082,822.7954 Q995.4014,822.7954 994.0815,821.1436 Q992.7617,819.4917 992.7617,816.3706 Q992.7617,813.2412 994.0815,811.5894 Q995.4014,809.9375 997.9082,809.9375 Q998.6138,809.9375 999.2612,810.0869 Q999.9087,810.2363 1000.4731,810.5352 L1000.4731,813.2578 Q999.8423,812.6768 999.2488,812.407 Q998.6553,812.1372 998.0244,812.1372 Q996.6797,812.1372 995.9949,813.2039 Q995.3101,814.2705 995.3101,816.3706 Q995.3101,818.4624 995.9949,819.5291 Q996.6797,820.5957 998.0244,820.5957 Q998.6553,820.5957 999.2488,820.3259 Q999.8423,820.0562 1000.4731,819.4751 Z "/><text fill="#000000" font-family="sans-serif" font-size="12" lengthAdjust="spacingAndGlyphs" textLength="110" x="1011.5" y="821.0898">ExpressionAdditive</text><line style="stroke: #383838; stroke-width: 1.5;" x1="983.5" x2="1123.5" y1="832.5547" y2="832.5547"/><line style="stroke: #383838; stroke-width: 1.5;" x1="983.5" x2="1123.5" y1="840.5547" y2="840.5547"/><rect fill="#FFFFFF" height="48" style="stroke: #383838; stroke-width: 1.5;" width="163" x="784" y="800.5547"/><ellipse cx="799" cy="816.5547" fill="#C2C2C2" rx="11" ry="11" style="stroke: #383838; stroke-width: 1.0;"/><path d="M801.9731,822.1978 Q801.3921,822.4966 800.7529,822.646 Q800.1138,822.7954 799.4082,822.7954 Q796.9014,822.7954 795.5815,821.1436 Q794.2617,819.4917 794.2617,816.3706 Q794.2617,813.2412 795.5815,811.5894 Q796.9014,809.9375 799.4082,809.9375 Q800.1138,809.9375 800.7612,810.0869 Q801.4087,810.2363 801.9731,810.5352 L801.9731,813.2578 Q801.3423,812.6768 800.7488,812.407 Q800.1553,812.1372 799.5244,812.1372 Q798.1797,812.1372 797.4949,813.2039 Q796.8101,814.2705 796.8101,816.3706 Q796.8101,818.4624 797.4949,819.5291 Q798.1797,820.5957 799.5244,820.5957 Q800.1553,820.5957 800.7488,820.3259 Q801.3423,820.0562 801.9731,819.4751 Z "/><text fill="#000000" font-family="sans-serif" font-size="12" lengthAdjust="spacingAndGlyphs" textLength="131" x="813" y="821.0898">ExpressionSoustractive</text><line style="stroke: #383838; stroke-width: 1.5;" x1="785" x2="946" y1="832.5547" y2="832.5547"/><line style="stroke: #383838; stroke-width: 1.5;" x1="785" x2="946" y1="840.5547" y2="840.5547"/><rect fill="#FFFFFF" height="48" style="stroke: #383838; stroke-width: 1.5;" width="70" x="1013.5" y="909.5547"/><ellipse cx="1028.5" cy="925.5547" fill="#C2C2C2" rx="11" ry="11" style="stroke: #383838; stroke-width: 1.0;"/><path d="M1031.4731,931.1978 Q1030.8921,931.4966 1030.2529,931.646 Q1029.6138,931.7954 1028.9082,931.7954 Q1026.4014,931.7954 1025.0815,930.1436 Q1023.7617,928.4917 1023.7617,925.3706 Q1023.7617,922.2412 1025.0815,920.5894 Q1026.4014,918.9375 1028.9082,918.9375 Q1029.6138,918.9375 1030.2612,919.0869 Q1030.9087,919.2363 1031.4731,919.5352 L1031.4731,922.2578 Q1030.8423,921.6768 1030.2488,921.407 Q1029.6553,921.1372 1029.0244,921.1372 Q1027.6797,921.1372 1026.9949,922.2039 Q1026.3101,923.2705 1026.3101,925.3706 Q1026.3101,927.4624 1026.9949,928.5291 Q1027.6797,929.5957 1029.0244,929.5957 Q1029.6553,929.5957 1030.2488,929.3259 Q1030.8423,929.0562 1031.4731,928.4751 Z "/><text fill="#000000" font-family="sans-serif" font-size="12" lengthAdjust="spacingAndGlyphs" textLength="38" x="1042.5" y="930.0898">Terme</text><line style="stroke: #383838; stroke-width: 1.5;" x1="1014.5" x2="1082.5" y1="941.5547" y2="941.5547"/><line style="stroke: #383838; stroke-width: 1.5;" x1="1014.5" x2="1082.5" y1="949.5547" y2="949.5547"/><rect fill="#FFFFFF" height="48" style="stroke: #383838; stroke-width: 1.5;" width="119" x="838" y="1034.5547"/><ellipse cx="853" cy="1050.5547" fill="#C2C2C2" rx="11" ry="11" style="stroke: #383838; stroke-width: 1.0;"/><path d="M855.9731,1056.1978 Q855.3921,1056.4966 854.7529,1056.646 Q854.1138,1056.7954 853.4082,1056.7954 Q850.9014,1056.7954 849.5815,1055.1436 Q848.2617,1053.4917 848.2617,1050.3706 Q848.2617,1047.2412 849.5815,1045.5894 Q850.9014,1043.9375 853.4082,1043.9375 Q854.1138,1043.9375 854.7612,1044.0869 Q855.4087,1044.2363 855.9731,1044.5352 L855.9731,1047.2578 Q855.3423,1046.6768 854.7488,1046.407 Q854.1553,1046.1372 853.5244,1046.1372 Q852.1797,1046.1372 851.4949,1047.2039 Q850.8101,1048.2705 850.8101,1050.3706 Q850.8101,1052.4624 851.4949,1053.5291 Q852.1797,1054.5957 853.5244,1054.5957 Q854.1553,1054.5957 854.7488,1054.3259 Q855.3423,1054.0562 855.9731,1053.4751 Z "/><text fill="#000000" font-family="sans-serif" font-size="12" lengthAdjust="spacingAndGlyphs" textLength="87" x="867" y="1055.0898">ExpressionMult</text><line style="stroke: #383838; stroke-width: 1.5;" x1="839" x2="956" y1="1066.5547" y2="1066.5547"/><line style="stroke: #383838; stroke-width: 1.5;" x1="839" x2="956" y1="1074.5547" y2="1074.5547"/><rect fill="#FFFFFF" height="48" style="stroke: #383838; stroke-width: 1.5;" width="113" x="992" y="1034.5547"/><ellipse cx="1007" cy="1050.5547" fill="#C2C2C2" rx="11" ry="11" style="stroke: #383838; stroke-width: 1.0;"/><path d="M1009.9731,1056.1978 Q1009.3921,1056.4966 1008.7529,1056.646 Q1008.1138,1056.7954 1007.4082,1056.7954 Q1004.9014,1056.7954 1003.5815,1055.1436 Q1002.2617,1053.4917 1002.2617,1050.3706 Q1002.2617,1047.2412 1003.5815,1045.5894 Q1004.9014,1043.9375 1007.4082,1043.9375 Q1008.1138,1043.9375 1008.7612,1044.0869 Q1009.4087,1044.2363 1009.9731,1044.5352 L1009.9731,1047.2578 Q1009.3423,1046.6768 1008.7488,1046.407 Q1008.1553,1046.1372 1007.5244,1046.1372 Q1006.1797,1046.1372 1005.4949,1047.2039 Q1004.8101,1048.2705 1004.8101,1050.3706 Q1004.8101,1052.4624 1005.4949,1053.5291 Q1006.1797,1054.5957 1007.5244,1054.5957 Q1008.1553,1054.5957 1008.7488,1054.3259 Q1009.3423,1054.0562 1009.9731,1053.4751 Z "/><text fill="#000000" font-family="sans-serif" font-size="12" lengthAdjust="spacingAndGlyphs" textLength="81" x="1021" y="1055.0898">ExpressionDiv</text><line style="stroke: #383838; stroke-width: 1.5;" x1="993" x2="1104" y1="1066.5547" y2="1066.5547"/><line style="stroke: #383838; stroke-width: 1.5;" x1="993" x2="1104" y1="1074.5547" y2="1074.5547"/><rect fill="#FFFFFF" height="48" style="stroke: #383838; stroke-width: 1.5;" width="74" x="1010.5" y="1143.5547"/><ellipse cx="1025.5" cy="1159.5547" fill="#C2C2C2" rx="11" ry="11" style="stroke: #383838; stroke-width: 1.0;"/><path d="M1028.4731,1165.1978 Q1027.8921,1165.4966 1027.2529,1165.646 Q1026.6138,1165.7954 1025.9082,1165.7954 Q1023.4014,1165.7954 1022.0815,1164.1436 Q1020.7617,1162.4917 1020.7617,1159.3706 Q1020.7617,1156.2412 1022.0815,1154.5894 Q1023.4014,1152.9375 1025.9082,1152.9375 Q1026.6138,1152.9375 1027.2612,1153.0869 Q1027.9087,1153.2363 1028.4731,1153.5352 L1028.4731,1156.2578 Q1027.8423,1155.6768 1027.2488,1155.407 Q1026.6553,1155.1372 1026.0244,1155.1372 Q1024.6797,1155.1372 1023.9949,1156.2039 Q1023.3101,1157.2705 1023.3101,1159.3706 Q1023.3101,1161.4624 1023.9949,1162.5291 Q1024.6797,1163.5957 1026.0244,1163.5957 Q1026.6553,1163.5957 1027.2488,1163.3259 Q1027.8423,1163.0562 1028.4731,1162.4751 Z "/><text fill="#000000" font-family="sans-serif" font-size="12" lengthAdjust="spacingAndGlyphs" textLength="42" x="1039.5" y="1164.0898">Facteur</text><line style="stroke: #383838; stroke-width: 1.5;" x1="1011.5" x2="1083.5" y1="1175.5547" y2="1175.5547"/><line style="stroke: #383838; stroke-width: 1.5;" x1="1011.5" x2="1083.5" y1="1183.5547" y2="1183.5547"/><rect fill="#FFFFFF" height="48" style="stroke: #383838; stroke-width: 1.5;" width="166" x="1156.5" y="1252.5547"/><ellipse cx="1171.5" cy="1268.5547" fill="#C2C2C2" rx="11" ry="11" style="stroke: #383838; stroke-width: 1.0;"/><path d="M1174.4731,1274.1978 Q1173.8921,1274.4966 1173.2529,1274.646 Q1172.6138,1274.7954 1171.9082,1274.7954 Q1169.4014,1274.7954 1168.0815,1273.1436 Q1166.7617,1271.4917 1166.7617,1268.3706 Q1166.7617,1265.2412 1168.0815,1263.5894 Q1169.4014,1261.9375 1171.9082,1261.9375 Q1172.6138,1261.9375 1173.2612,1262.0869 Q1173.9087,1262.2363 1174.4731,1262.5352 L1174.4731,1265.2578 Q1173.8423,1264.6768 1173.2488,1264.407 Q1172.6553,1264.1372 1172.0244,1264.1372 Q1170.6797,1264.1372 1169.9949,1265.2039 Q1169.3101,1266.2705 1169.3101,1268.3706 Q1169.3101,1270.4624 1169.9949,1271.5291 Q1170.6797,1272.5957 1172.0244,1272.5957 Q1172.6553,1272.5957 1173.2488,1272.3259 Q1173.8423,1272.0562 1174.4731,1271.4751 Z "/><text fill="#000000" font-family="sans-serif" font-size="12" lengthAdjust="spacingAndGlyphs" textLength="134" x="1185.5" y="1273.0898">ExpressionParenthesee</text><line style="stroke: #383838; stroke-width: 1.5;" x1="1157.5" x2="1321.5" y1="1284.5547" y2="1284.5547"/><line style="stroke: #383838; stroke-width: 1.5;" x1="1157.5" x2="1321.5" y1="1292.5547" y2="1292.5547"/><rect fill="#FFFFFF" height="48" style="stroke: #383838; stroke-width: 1.5;" width="153" x="784" y="1252.5547"/><ellipse cx="799" cy="1268.5547" fill="#C2C2C2" rx="11" ry="11" style="stroke: #383838; stroke-width: 1.0;"/><path d="M801.9731,1274.1978 Q801.3921,1274.4966 800.7529,1274.646 Q800.1138,1274.7954 799.4082,1274.7954 Q796.9014,1274.7954 795.5815,1273.1436 Q794.2617,1271.4917 794.2617,1268.3706 Q794.2617,1265.2412 795.5815,1263.5894 Q796.9014,1261.9375 799.4082,1261.9375 Q800.1138,1261.9375 800.7612,1262.0869 Q801.4087,1262.2363 801.9731,1262.5352 L801.9731,1265.2578 Q801.3423,1264.6768 800.7488,1264.407 Q800.1553,1264.1372 799.5244,1264.1372 Q798.1797,1264.1372 797.4949,1265.2039 Q796.8101,1266.2705 796.8101,1268.3706 Q796.8101,1270.4624 797.4949,1271.5291 Q798.1797,1272.5957 799.5244,1272.5957 Q800.1553,1272.5957 800.7488,1272.3259 Q801.3423,1272.0562 801.9731,1271.4751 Z "/><text fill="#000000" font-family="sans-serif" font-size="12" lengthAdjust="spacingAndGlyphs" textLength="121" x="813" y="1273.0898">ConstanteNumerique</text><line style="stroke: #383838; stroke-width: 1.5;" x1="785" x2="936" y1="1284.5547" y2="1284.5547"/><line style="stroke: #383838; stroke-width: 1.5;" x1="785" x2="936" y1="1292.5547" y2="1292.5547"/><path d="M1604.23,782.7247 C1615.63,809.4387 1627.5,845.2337 1627.5,878.5547 C1627.5,878.5547 1627.5,878.5547 1627.5,1277.5547 C1627.5,1314.4747 1607.17,1352.287 1590.18,1377.4459 " fill="none" style="stroke: #383838; stroke-width: 1.0;"/><polygon fill="#383838" points="1598.89,770.7627,1597.6821,777.8719,1603.7798,781.7212,1604.9878,774.612,1598.89,770.7627" style="stroke: #383838; stroke-width: 1.0;"/><text fill="#000000" font-family="sans-serif" font-size="13" lengthAdjust="spacingAndGlyphs" textLength="12" x="1628.5" y="1063.623">id</text><path d="M1552.2,781.7407 C1535.16,807.9197 1517.5,843.4947 1517.5,878.5547 C1517.5,878.5547 1517.5,878.5547 1517.5,1222.5547 C1517.5,1315.6217 1435.92,1313.0007 1349.5,1347.5547 C1271.68,1378.6718 1026.38,1397.0186 915.669,1403.9094 " fill="none" style="stroke: #383838; stroke-width: 1.0;"/><polygon fill="#383838" points="1559.67,770.7677,1552.9866,773.4755,1552.9156,780.6863,1559.599,777.9784,1559.67,770.7677" style="stroke: #383838; stroke-width: 1.0;"/><text fill="#000000" font-family="sans-serif" font-size="13" lengthAdjust="spacingAndGlyphs" textLength="38" x="1518.5" y="1063.623">valeur</text><path d="M1555.8,420.8047 C1547.77,447.9247 1542.62,481.8957 1553.5,510.5547 C1557.73,521.7077 1565.51,532.0177 1573.53,540.5227 " fill="none" style="stroke: #383838; stroke-width: 1.0;"/><polygon fill="none" points="1549.26,418.2947,1562.3,401.5947,1562.52,422.7847,1549.26,418.2947" style="stroke: #383838; stroke-width: 1.0;"/><path d="M1603.64,419.0247 C1612.57,433.9347 1622.07,449.7777 1629.54,462.2607 " fill="none" style="stroke: #383838; stroke-width: 1.0;"/><polygon fill="none" points="1597.46,422.3347,1593.19,401.5747,1609.47,415.1347,1597.46,422.3347" style="stroke: #383838; stroke-width: 1.0;"/><path d="M1180.72,412.4947 C1154.28,429.2647 1124.58,448.0967 1101.95,462.4437 " fill="none" style="stroke: #383838; stroke-width: 1.0;"/><polygon fill="none" points="1177.3,406.3747,1197.94,401.5747,1184.79,418.2047,1177.3,406.3747" style="stroke: #383838; stroke-width: 1.0;"/><path d="M1244.5,421.9847 C1244.5,436.0047 1244.5,450.6007 1244.5,462.2607 " fill="none" style="stroke: #383838; stroke-width: 1.0;"/><polygon fill="none" points="1237.5,421.5747,1244.5,401.5747,1251.5,421.5747,1237.5,421.5747" style="stroke: #383838; stroke-width: 1.0;"/><path d="M1287.58,416.5347 C1301.23,430.9847 1316.22,447.2547 1329.5,462.5547 C1352.05,488.5217 1376.58,519.5267 1392.66,540.2727 " fill="none" style="stroke: #383838; stroke-width: 1.0;"/><polygon fill="none" points="1282.16,420.9947,1273.43,401.6747,1292.3,411.3347,1282.16,420.9947" style="stroke: #383838; stroke-width: 1.0;"/><path d="M860.5,1313.7197 C860.5,1333.7517 860.5,1358.3515 860.5,1377.2661 " fill="none" style="stroke: #383838; stroke-width: 1.0;"/><polygon fill="#383838" points="860.5,1300.7067,856.5,1306.7067,860.5,1312.7067,864.5,1306.7067,860.5,1300.7067" style="stroke: #383838; stroke-width: 1.0;"/><text fill="#000000" font-family="sans-serif" font-size="13" lengthAdjust="spacingAndGlyphs" textLength="38" x="861.5" y="1344.123">valeur</text><path d="M1596.95,601.7627 C1593.82,633.7267 1589.31,679.7497 1586.39,709.5287 " fill="none" style="stroke: #383838; stroke-width: 1.0;"/><polygon fill="#383838" points="1598.24,588.5937,1593.6738,594.1749,1597.0695,600.5365,1601.6357,594.9552,1598.24,588.5937" style="stroke: #383838; stroke-width: 1.0;"/><path d="M1684.26,519.0047 C1721.6,547.8217 1776.49,590.1737 1813.08,618.4087 " fill="none" style="stroke: #383838; stroke-width: 1.0;"/><polygon fill="#383838" points="1673.74,510.8927,1676.0459,517.7252,1683.2397,518.2245,1680.9338,511.392,1673.74,510.8927" style="stroke: #383838; stroke-width: 1.0;"/><path d="M1042.29,693.3467 C1039.66,727.2727 1040.4,773.1547 1044.49,800.4197 " fill="none" style="stroke: #383838; stroke-width: 1.0;"/><polygon fill="none" points="1035.38,692.2147,1044.51,673.0937,1049.29,693.7367,1035.38,692.2147" style="stroke: #383838; stroke-width: 1.0;"/><path d="M1064.72,787.2267 C1068.25,752.8387 1067.68,702.2597 1063.02,673.0937 " fill="none" style="stroke: #383838; stroke-width: 1.0;"/><polygon fill="#383838" points="1063.04,800.4197,1067.7689,794.9757,1064.5625,788.5167,1059.8336,793.9607,1063.04,800.4197" style="stroke: #383838; stroke-width: 1.0;"/><path d="M1003.938,686.0417 C963.349,720.3977 908.885,771.1427 881.563,800.4197 " fill="none" style="stroke: #383838; stroke-width: 1.0;"/><polygon fill="none" points="999.682,680.4767,1019.54,673.0937,1008.62,691.2517,999.682,680.4767" style="stroke: #383838; stroke-width: 1.0;"/><path d="M910.208,792.1497 C951.505,757.8357 1009.79,703.6857 1038.06,673.0937 " fill="none" style="stroke: #383838; stroke-width: 1.0;"/><polygon fill="#383838" points="900.103,800.4197,907.2796,799.7153,909.3896,792.8198,902.213,793.5242,900.103,800.4197" style="stroke: #383838; stroke-width: 1.0;"/><path d="M1090.59,688.3247 C1124.61,728.3057 1166.25,792.8437 1141.5,848.5547 C1129.66,875.1977 1104.74,896.9637 1083.67,911.6587 " fill="none" style="stroke: #383838; stroke-width: 1.0;"/><polygon fill="none" points="1085.26,692.8637,1077.15,673.2857,1095.7,683.5357,1085.26,692.8637" style="stroke: #383838; stroke-width: 1.0;"/><path d="M1051.8,861.8567 C1051.07,877.5757 1050.23,895.5097 1049.58,909.3827 " fill="none" style="stroke: #383838; stroke-width: 1.0;"/><polygon fill="#383838" points="1052.42,848.7717,1048.1441,854.5783,1051.8596,860.7586,1056.1354,854.952,1052.42,848.7717" style="stroke: #383838; stroke-width: 1.0;"/><path d="M1048.16,1095.8567 C1048.01,1111.5757 1047.85,1129.5097 1047.72,1143.3827 " fill="none" style="stroke: #383838; stroke-width: 1.0;"/><polygon fill="#383838" points="1048.28,1082.7717,1044.2241,1088.7341,1048.1679,1094.7712,1052.2238,1088.8088,1048.28,1082.7717" style="stroke: #383838; stroke-width: 1.0;"/><path d="M1060.92,1021.4597 C1062.77,1000.8587 1062.24,975.6437 1059.32,957.6897 " fill="none" style="stroke: #383838; stroke-width: 1.0;"/><polygon fill="#383838" points="1059.31,1034.5227,1064.0144,1029.0575,1060.779,1022.6129,1056.0746,1028.0782,1059.31,1034.5227" style="stroke: #383838; stroke-width: 1.0;"/><path d="M1036.27,977.7267 C1035.16,996.8477 1035.83,1018.5707 1038.29,1034.5227 " fill="none" style="stroke: #383838; stroke-width: 1.0;"/><polygon fill="none" points="1029.32,976.8907,1038.28,957.6897,1043.25,978.2897,1029.32,976.8907" style="stroke: #383838; stroke-width: 1.0;"/><path d="M940.852,1090.4787 C964.508,1107.3537 993.309,1127.8987 1015.02,1143.3827 " fill="none" style="stroke: #383838; stroke-width: 1.0;"/><polygon fill="#383838" points="930.048,1082.7717,932.6099,1089.5124,939.8174,1089.7401,937.2555,1082.9994,930.048,1082.7717" style="stroke: #383838; stroke-width: 1.0;"/><path d="M947.299,1026.6727 C976.052,1005.2557 1010.15,977.1897 1030.92,957.6897 " fill="none" style="stroke: #383838; stroke-width: 1.0;"/><polygon fill="#383838" points="936.581,1034.5227,943.7851,1034.2047,946.2623,1027.4324,939.0583,1027.7505,936.581,1034.5227" style="stroke: #383838; stroke-width: 1.0;"/><path d="M997.112,967.1247 C968.993,988.2977 936.12,1015.3937 915.719,1034.3837 " fill="none" style="stroke: #383838; stroke-width: 1.0;"/><polygon fill="none" points="993.158,961.3447,1013.42,955.1417,1001.448,972.6257,993.158,961.3447" style="stroke: #383838; stroke-width: 1.0;"/><path d="M1244.08,1239.2387 C1246.3,1218.5577 1248.5,1192.1447 1248.5,1168.5547 C1248.5,823.5547 1248.5,823.5547 1248.5,823.5547 C1248.5,744.9337 1158.93,693.1887 1101.2,668.0017 " fill="none" style="stroke: #383838; stroke-width: 1.0;"/><polygon fill="#383838" points="1242.6,1252.2247,1247.2535,1246.7161,1243.9585,1240.3018,1239.3049,1245.8104,1242.6,1252.2247" style="stroke: #383838; stroke-width: 1.0;"/><path d="M916.591,855.4277 C947.369,873.4227 985.778,895.8817 1013.2,911.9137 " fill="none" style="stroke: #383838; stroke-width: 1.0;"/><polygon fill="#383838" points="905.208,848.7717,908.3688,855.2531,915.5674,854.8283,912.4066,848.3469,905.208,848.7717" style="stroke: #383838; stroke-width: 1.0;"/><path d="M992.712,1199.9037 C963.269,1216.7517 927.605,1237.1577 900.741,1252.5287 " fill="none" style="stroke: #383838; stroke-width: 1.0;"/><polygon fill="none" points="989.272,1193.8077,1010.11,1189.9507,996.225,1205.9587,989.272,1193.8077" style="stroke: #383838; stroke-width: 1.0;"/><path d="M1101.99,1198.9237 C1132.46,1215.9027 1169.84,1236.7327 1197.93,1252.3867 " fill="none" style="stroke: #383838; stroke-width: 1.0;"/><polygon fill="none" points="1098.58,1205.0357,1084.52,1189.1857,1105.4,1192.8067,1098.58,1205.0357" style="stroke: #383838; stroke-width: 1.0;"/><path d="M1047.09,1212.1327 C1046.96,1225.9167 1046.83,1240.6117 1046.72,1252.3827 " fill="none" style="stroke: #383838; stroke-width: 1.0;"/><polygon fill="none" points="1040.1,1211.7057,1047.28,1191.7717,1054.1,1211.8367,1040.1,1211.7057" style="stroke: #383838; stroke-width: 1.0;"/><path d="M1134.01,1299.4347 C1135.52,1299.8117 1137.01,1300.1847 1138.5,1300.5547 C1275.33,1334.6417 1436.75,1374.664 1516.97,1394.5395 " fill="none" style="stroke: #383838; stroke-width: 1.0;"/><polygon fill="#383838" points="1121.31,1296.2677,1126.1648,1301.5997,1132.954,1299.1691,1128.0991,1293.8371,1121.31,1296.2677" style="stroke: #383838; stroke-width: 1.0;"/><text fill="#000000" font-family="sans-serif" font-size="13" lengthAdjust="spacingAndGlyphs" textLength="12" x="1328.5" y="1344.123">id</text><path d="M1840.73,692.6187 C1832.84,727.5537 1823.5,778.4377 1823.5,823.5547 C1823.5,823.5547 1823.5,823.5547 1823.5,1277.5547 C1823.5,1368.7023 1692.68,1395.712 1618.08,1403.7044 " fill="none" style="stroke: #383838; stroke-width: 1.0;"/><polygon fill="#383838" points="1843.77,679.6007,1838.5098,684.5333,1841.0399,691.286,1846.3001,686.3534,1843.77,679.6007" style="stroke: #383838; stroke-width: 1.0;"/><text fill="#000000" font-family="sans-serif" font-size="13" lengthAdjust="spacingAndGlyphs" textLength="12" x="1824.5" y="1063.623">id</text><path d="M1062.76,524.1427 C1060.45,555.1227 1057.2,598.5847 1055.23,624.9487 " fill="none" style="stroke: #383838; stroke-width: 1.0;"/><polygon fill="#383838" points="1063.76,510.8927,1059.3239,516.5778,1062.8655,522.8593,1067.3016,517.1742,1063.76,510.8927" style="stroke: #383838; stroke-width: 1.0;"/><path d="M1094.04,520.5637 C1129.45,562.5457 1190.29,638.1837 1232.5,709.5547 C1377.6,954.8817 1340.58,1052.8007 1481.5,1300.5547 C1497.48,1328.6487 1520.75,1356.95 1539.06,1377.3094 " fill="none" style="stroke: #383838; stroke-width: 1.0;"/><polygon fill="#383838" points="1085.62,510.6387,1086.4521,517.8016,1093.3841,519.7885,1092.552,512.6255,1085.62,510.6387" style="stroke: #383838; stroke-width: 1.0;"/><text fill="#000000" font-family="sans-serif" font-size="13" lengthAdjust="spacingAndGlyphs" textLength="12" x="1360.5" y="1001.123">id</text><path d="M1206.33,519.6327 C1169.27,550.7737 1113.92,597.2787 1081,624.9487 " fill="none" style="stroke: #383838; stroke-width: 1.0;"/><polygon fill="#383838" points="1216.73,510.8927,1209.5628,511.6876,1207.5401,518.6092,1214.7072,517.8143,1216.73,510.8927" style="stroke: #383838; stroke-width: 1.0;"/><path d="M1416.77,601.5947 C1422.3,636.5997 1429.5,691.3047 1429.5,739.0547 C1429.5,739.0547 1429.5,739.0547 1429.5,997.0547 C1429.5,1146.5127 1512.89,1311.3577 1550.02,1377.3564 " fill="none" style="stroke: #383838; stroke-width: 1.0;"/><polygon fill="#383838" points="1414.67,588.7587,1411.689,595.3248,1416.6034,600.6019,1419.5845,594.0358,1414.67,588.7587" style="stroke: #383838; stroke-width: 1.0;"/><text fill="#000000" font-family="sans-serif" font-size="13" lengthAdjust="spacingAndGlyphs" textLength="12" x="1430.5" y="1001.123">id</text><path d="M1402.52,285.4247 C1436.99,302.2947 1480.39,323.5247 1515.09,340.5047 " fill="none" style="stroke: #383838; stroke-width: 1.0;"/><polygon fill="#383838" points="1390.73,279.6647,1394.3629,285.8938,1401.5102,284.9362,1397.8772,278.707,1390.73,279.6647" style="stroke: #383838; stroke-width: 1.0;"/><path d="M1314.49,289.8147 C1300.53,305.8147 1283.93,324.8447 1270.4,340.3647 " fill="none" style="stroke: #383838; stroke-width: 1.0;"/><polygon fill="#383838" points="1323.23,279.7947,1316.2722,281.6891,1315.3448,288.8403,1322.3026,286.9459,1323.23,279.7947" style="stroke: #383838; stroke-width: 1.0;"/><path d="M1066.49,112.3347 C1201.13,130.8747 1446.5,175.4847 1446.5,254.5547 C1446.5,254.5547 1446.5,254.5547 1446.5,432.5547 C1446.5,490.6947 1529.7,644.3567 1566.43,709.3517 " fill="none" style="stroke: #383838; stroke-width: 1.0;"/><polygon fill="none" points="1065.17,119.2247,1046.28,109.6347,1067.03,105.3447,1065.17,119.2247" style="stroke: #383838; stroke-width: 1.0;"/><path d="M1066.35,110.8747 C1189.35,124.8947 1408.03,155.3847 1472.5,200.5547 C1521.85,235.1347 1551.86,301.6447 1565.91,340.2747 " fill="none" style="stroke: #383838; stroke-width: 1.0;"/><polygon fill="none" points="1065.47,117.8247,1046.37,108.6447,1067.02,103.9047,1065.47,117.8247" style="stroke: #383838; stroke-width: 1.0;"/><path d="M1064.77,132.3247 C1112.15,153.3647 1168.78,185.8947 1204.5,231.5547 C1229.41,263.3847 1238.81,310.1747 1242.35,340.3847 " fill="none" style="stroke: #383838; stroke-width: 1.0;"/><polygon fill="none" points="1061.81,138.6747,1046.13,124.4147,1067.28,125.7847,1061.81,138.6747" style="stroke: #383838; stroke-width: 1.0;"/><path d="M895.482,132.1347 C810.186,162.3147 681.152,207.9747 607.141,234.1547 " fill="none" style="stroke: #383838; stroke-width: 1.0;"/><polygon fill="none" points="893.382,125.4547,914.571,125.3847,898.052,138.6547,893.382,125.4547" style="stroke: #383838; stroke-width: 1.0;"/><path d="M894.531,114.5047 C762.928,134.3847 504.096,176.7047 288.5,231.5547 C282.849,232.9947 276.991,234.6347 271.174,236.3647 " fill="none" style="stroke: #383838; stroke-width: 1.0;"/><polygon fill="none" points="893.718,107.5547,914.534,111.5147,895.791,121.3947,893.718,107.5547" style="stroke: #383838; stroke-width: 1.0;"/><path d="M1060.57,183.4547 C1077.96,201.1347 1094.98,218.4447 1107.88,231.5547 " fill="none" style="stroke: #383838; stroke-width: 1.0;"/><polygon fill="none" points="1055.33,188.1147,1046.29,168.9447,1065.31,178.2947,1055.33,188.1147" style="stroke: #383838; stroke-width: 1.0;"/><path d="M901.848,172.9947 C883.651,196.6247 869.5,224.6247 869.5,254.5547 C869.5,254.5547 869.5,254.5547 869.5,487.5547 C869.5,559.8287 951.118,607.0257 1005.636,630.4897 " fill="none" style="stroke: #383838; stroke-width: 1.0;"/><polygon fill="none" points="896.749,168.1747,914.968,157.3647,907.472,177.1847,896.749,168.1747" style="stroke: #383838; stroke-width: 1.0;"/><path d="M980.5,190.9447 C980.5,205.9147 980.5,220.2147 980.5,231.4447 " fill="none" style="stroke: #383838; stroke-width: 1.0;"/><polygon fill="none" points="973.5,190.7247,980.5,170.7247,987.5,190.7247,973.5,190.7247" style="stroke: #383838; stroke-width: 1.0;"/><path d="M1066.05,104.9847 C1248.5,112.4147 1669.46,136.2047 1795.5,200.5547 C1824.63,215.4247 1845.5,221.8447 1845.5,254.5547 C1845.5,254.5547 1845.5,254.5547 1845.5,487.5547 C1845.5,533.2847 1847.96,586.2927 1849.73,618.4857 " fill="none" style="stroke: #383838; stroke-width: 1.0;"/><polygon fill="none" points="1065.75,111.9747,1046.04,104.1947,1066.3,97.9847,1065.75,111.9747" style="stroke: #383838; stroke-width: 1.0;"/><path d="M1066.04,109.6747 C1270.29,129.0047 1769.5,183.5347 1769.5,254.5547 C1769.5,254.5547 1769.5,254.5547 1769.5,432.5547 C1769.5,571.5357 1707.5,600.0737 1707.5,739.0547 C1707.5,739.0547 1707.5,739.0547 1707.5,1277.5547 C1707.5,1327.8807 1658.14,1364.0986 1618.04,1385.2196 " fill="none" style="stroke: #383838; stroke-width: 1.0;"/><polygon fill="none" points="1065.34,116.6347,1046.08,107.8047,1066.64,102.6947,1065.34,116.6347" style="stroke: #383838; stroke-width: 1.0;"/><path d="M900.562,171.8447 C891.931,181.0547 883.689,190.7247 876.5,200.5547 C867.463,212.9047 866.586,217.1147 861.5,231.5547 C801.272,402.5047 730.5,336.7247 730.5,878.5547 C730.5,878.5547 730.5,878.5547 730.5,1277.5547 C730.5,1322.4727 769.937,1357.1958 805.368,1379.328 " fill="none" style="stroke: #383838; stroke-width: 1.0;"/><polygon fill="none" points="895.829,166.6747,914.835,157.3047,905.818,176.4847,895.829,166.6747" style="stroke: #383838; stroke-width: 1.0;"/><path d="M895.256,123.7547 C778.15,153.5747 569.324,206.7347 457.365,235.2447 " fill="none" style="stroke: #383838; stroke-width: 1.0;"/><polygon fill="none" points="893.861,116.8847,914.97,118.7347,897.315,130.4547,893.861,116.8847" style="stroke: #383838; stroke-width: 1.0;"/><path d="M1065.55,124.5347 C1123.81,141.5547 1201.91,167.6147 1266.5,200.5547 C1283.37,209.1647 1300.76,221.0547 1314.74,231.4947 " fill="none" style="stroke: #383838; stroke-width: 1.0;"/><polygon fill="none" points="1063.52,131.2347,1046.22,119.0047,1067.37,117.7747,1063.52,131.2347" style="stroke: #383838; stroke-width: 1.0;"/><path d="M896.706,138.0947 C858.157,155.5947 812.259,177.7447 772.5,200.5547 C756.361,209.8147 739.223,221.3047 725.049,231.3047 " fill="none" style="stroke: #383838; stroke-width: 1.0;"/><polygon fill="none" points="893.867,131.6947,914.98,129.8947,899.598,144.4647,893.867,131.6947" style="stroke: #383838; stroke-width: 1.0;"/><path d="M894.542,111.6847 C742.538,129.5247 416.821,171.4847 146.5,231.5547 C140.922,232.7947 135.159,234.2047 129.404,235.7147 " fill="none" style="stroke: #383838; stroke-width: 1.0;"/><polygon fill="none" points="894.139,104.6847,914.814,109.3247,895.756,118.5847,894.139,104.6847" style="stroke: #383838; stroke-width: 1.0;"/><path d="M1087.14,972.6437 C1112.04,1001.9897 1137.23,1043.9417 1122.5,1082.5547 C1113.3,1106.6667 1093.65,1128.2457 1076.77,1143.4937 " fill="none" style="stroke: #383838; stroke-width: 1.0;"/><polygon fill="none" points="1081.86,977.2477,1073.59,957.7397,1092.22,967.8317,1081.86,977.2477" style="stroke: #383838; stroke-width: 1.0;"/></g></svg>