<?xml version="1.0" encoding="UTF-8" standalone="yes"?><svg xmlns="http://www.w3.org/2000/svg" xmlns:xlink="http://www.w3.org/1999/xlink" height="1508px" style="width:1295px;height:1508px;" version="1.1" viewBox="0 0 1295 1508" width="1295px"><defs/><g><text fill="#000000" font-family="sans-serif" font-size="20" lengthAdjust="spacingAndGlyphs" textLength="191" x="560.5" y="20.7617">Diagramme de classe</text><rect fill="#FFFFFF" height="172.5234" style="stroke: #383838; stroke-width: 1.5;" width="266" x="625" y="33.1563"/><ellipse cx="729.75" cy="49.1563" fill="#C2C2C2" rx="11" ry="11" style="stroke: #383838; stroke-width: 1.0;"/><path d="M732.5156,45.0313 Q732.6719,44.8125 732.8594,44.7031 Q733.0469,44.5938 733.2656,44.5938 Q733.6406,44.5938 733.875,44.8516 Q734.1094,45.1094 734.1094,45.7188 L734.1094,47.1719 Q734.1094,47.7813 733.875,48.0469 Q733.6406,48.3125 733.2656,48.3125 Q732.9219,48.3125 732.7188,48.1094 Q732.5156,47.9219 732.4063,47.4063 Q732.3594,47.0469 732.1719,46.8594 Q731.8438,46.4844 731.2344,46.2656 Q730.625,46.0469 730,46.0469 Q729.2344,46.0469 728.6016,46.375 Q727.9688,46.7031 727.4766,47.4531 Q726.9844,48.2031 726.9844,49.2344 L726.9844,50.3281 Q726.9844,51.5625 727.875,52.3828 Q728.7656,53.2031 730.3594,53.2031 Q731.2969,53.2031 731.9531,52.9531 Q732.3438,52.7969 732.7656,52.3594 Q733.0313,52.0938 733.1797,52.0156 Q733.3281,51.9375 733.5313,51.9375 Q733.8594,51.9375 734.1172,52.1953 Q734.375,52.4531 734.375,52.7969 Q734.375,53.1406 734.0313,53.5469 Q733.5313,54.125 732.7344,54.4531 Q731.6563,54.9063 730.3594,54.9063 Q728.8438,54.9063 727.6406,54.2813 Q726.6563,53.7813 725.9688,52.7109 Q725.2813,51.6406 725.2813,50.3594 L725.2813,49.2031 Q725.2813,47.875 725.8984,46.7266 Q726.5156,45.5781 727.6094,44.9609 Q728.7031,44.3438 729.9375,44.3438 Q730.6719,44.3438 731.3203,44.5078 Q731.9688,44.6719 732.5156,45.0313 Z "/><text fill="#000000" font-family="sans-serif" font-size="12" lengthAdjust="spacingAndGlyphs" textLength="48" x="750.25" y="54.0664">Symbole</text><line style="stroke: #383838; stroke-width: 1.5;" x1="626" x2="890" y1="65.1563" y2="65.1563"/><polygon fill="none" points="636,73.5742,632,79.5742,640,79.5742" style="stroke: #535353; stroke-width: 1.0;"/><text fill="#000000" font-family="sans-serif" font-size="11" lengthAdjust="spacingAndGlyphs" textLength="22" x="645" y="80.5752">int id</text><polygon fill="none" points="636,87.4102,632,93.4102,640,93.4102" style="stroke: #535353; stroke-width: 1.0;"/><text fill="#000000" font-family="sans-serif" font-size="11" lengthAdjust="spacingAndGlyphs" textLength="69" x="645" y="94.4111">unsigned ligne</text><polygon fill="none" points="636,101.2461,632,107.2461,640,107.2461" style="stroke: #535353; stroke-width: 1.0;"/><text fill="#000000" font-family="sans-serif" font-size="11" lengthAdjust="spacingAndGlyphs" textLength="85" x="645" y="108.2471">unsigned colonne</text><line style="stroke: #383838; stroke-width: 1.5;" x1="626" x2="890" y1="114.6641" y2="114.6641"/><ellipse cx="636" cy="127.082" fill="#A6A6A6" rx="3" ry="3" style="stroke: #545454; stroke-width: 1.0;"/><text fill="#000000" font-family="sans-serif" font-size="11" lengthAdjust="spacingAndGlyphs" textLength="240" x="645" y="130.083">Symbole (int id, unsigned ligne, unsigned colonne)</text><ellipse cx="636" cy="140.918" fill="#A6A6A6" rx="3" ry="3" style="stroke: #545454; stroke-width: 1.0;"/><text fill="#000000" font-family="sans-serif" font-size="11" lengthAdjust="spacingAndGlyphs" textLength="93" x="645" y="143.9189">operator int() const</text><ellipse cx="636" cy="154.7539" fill="#A6A6A6" rx="3" ry="3" style="stroke: #545454; stroke-width: 1.0;"/><text fill="#000000" font-family="sans-serif" font-size="11" lengthAdjust="spacingAndGlyphs" textLength="69" x="645" y="157.7549">void afficher()</text><ellipse cx="636" cy="168.5898" fill="#A6A6A6" rx="3" ry="3" style="stroke: #545454; stroke-width: 1.0;"/><text fill="#000000" font-family="sans-serif" font-size="11" lengthAdjust="spacingAndGlyphs" textLength="196" x="645" y="171.5908">void exectuer(TableDesSymboles *table)</text><ellipse cx="636" cy="182.4258" fill="#A6A6A6" rx="3" ry="3" style="stroke: #545454; stroke-width: 1.0;"/><text fill="#000000" font-family="sans-serif" font-size="11" lengthAdjust="spacingAndGlyphs" textLength="195" x="645" y="185.4268">void analyser(TableDesSymboles *table)</text><ellipse cx="636" cy="196.2617" fill="#A6A6A6" rx="3" ry="3" style="stroke: #545454; stroke-width: 1.0;"/><text fill="#000000" font-family="sans-serif" font-size="11" lengthAdjust="spacingAndGlyphs" textLength="196" x="645" y="199.2627">void optimiser(TableDesSymboles *table)</text><rect fill="#FFFFFF" height="61.8359" style="stroke: #383838; stroke-width: 1.5;" width="92" x="785" y="1446.1563"/><ellipse cx="800.45" cy="1462.1563" fill="#C2C2C2" rx="11" ry="11" style="stroke: #383838; stroke-width: 1.0;"/><path d="M803.2156,1458.0313 Q803.3719,1457.8125 803.5594,1457.7031 Q803.7469,1457.5938 803.9656,1457.5938 Q804.3406,1457.5938 804.575,1457.8516 Q804.8094,1458.1094 804.8094,1458.7188 L804.8094,1460.1719 Q804.8094,1460.7813 804.575,1461.0469 Q804.3406,1461.3125 803.9656,1461.3125 Q803.6219,1461.3125 803.4188,1461.1094 Q803.2156,1460.9219 803.1063,1460.4063 Q803.0594,1460.0469 802.8719,1459.8594 Q802.5438,1459.4844 801.9344,1459.2656 Q801.325,1459.0469 800.7,1459.0469 Q799.9344,1459.0469 799.3016,1459.375 Q798.6688,1459.7031 798.1766,1460.4531 Q797.6844,1461.2031 797.6844,1462.2344 L797.6844,1463.3281 Q797.6844,1464.5625 798.575,1465.3828 Q799.4656,1466.2031 801.0594,1466.2031 Q801.9969,1466.2031 802.6531,1465.9531 Q803.0438,1465.7969 803.4656,1465.3594 Q803.7313,1465.0938 803.8797,1465.0156 Q804.0281,1464.9375 804.2313,1464.9375 Q804.5594,1464.9375 804.8172,1465.1953 Q805.075,1465.4531 805.075,1465.7969 Q805.075,1466.1406 804.7313,1466.5469 Q804.2313,1467.125 803.4344,1467.4531 Q802.3563,1467.9063 801.0594,1467.9063 Q799.5438,1467.9063 798.3406,1467.2813 Q797.3563,1466.7813 796.6688,1465.7109 Q795.9813,1464.6406 795.9813,1463.3594 L795.9813,1462.2031 Q795.9813,1460.875 796.5984,1459.7266 Q797.2156,1458.5781 798.3094,1457.9609 Q799.4031,1457.3438 800.6375,1457.3438 Q801.3719,1457.3438 802.0203,1457.5078 Q802.6688,1457.6719 803.2156,1458.0313 Z "/><text fill="#000000" font-family="sans-serif" font-size="12" lengthAdjust="spacingAndGlyphs" textLength="59" x="814.55" y="1467.0664">IdTerminal</text><line style="stroke: #383838; stroke-width: 1.5;" x1="786" x2="876" y1="1478.1563" y2="1478.1563"/><ellipse cx="796" cy="1490.5742" fill="none" rx="3" ry="3" style="stroke: #545454; stroke-width: 1.0;"/><text fill="#000000" font-family="sans-serif" font-size="11" lengthAdjust="spacingAndGlyphs" textLength="66" x="805" y="1493.5752">String IdName</text><line style="stroke: #383838; stroke-width: 1.5;" x1="786" x2="876" y1="1499.9922" y2="1499.9922"/><rect fill="#FFFFFF" height="61.8359" style="stroke: #383838; stroke-width: 1.5;" width="108" x="81" y="1446.1563"/><ellipse cx="96" cy="1462.1563" fill="#C2C2C2" rx="11" ry="11" style="stroke: #383838; stroke-width: 1.0;"/><path d="M98.7656,1458.0313 Q98.9219,1457.8125 99.1094,1457.7031 Q99.2969,1457.5938 99.5156,1457.5938 Q99.8906,1457.5938 100.125,1457.8516 Q100.3594,1458.1094 100.3594,1458.7188 L100.3594,1460.1719 Q100.3594,1460.7813 100.125,1461.0469 Q99.8906,1461.3125 99.5156,1461.3125 Q99.1719,1461.3125 98.9688,1461.1094 Q98.7656,1460.9219 98.6563,1460.4063 Q98.6094,1460.0469 98.4219,1459.8594 Q98.0938,1459.4844 97.4844,1459.2656 Q96.875,1459.0469 96.25,1459.0469 Q95.4844,1459.0469 94.8516,1459.375 Q94.2188,1459.7031 93.7266,1460.4531 Q93.2344,1461.2031 93.2344,1462.2344 L93.2344,1463.3281 Q93.2344,1464.5625 94.125,1465.3828 Q95.0156,1466.2031 96.6094,1466.2031 Q97.5469,1466.2031 98.2031,1465.9531 Q98.5938,1465.7969 99.0156,1465.3594 Q99.2813,1465.0938 99.4297,1465.0156 Q99.5781,1464.9375 99.7813,1464.9375 Q100.1094,1464.9375 100.3672,1465.1953 Q100.625,1465.4531 100.625,1465.7969 Q100.625,1466.1406 100.2813,1466.5469 Q99.7813,1467.125 98.9844,1467.4531 Q97.9063,1467.9063 96.6094,1467.9063 Q95.0938,1467.9063 93.8906,1467.2813 Q92.9063,1466.7813 92.2188,1465.7109 Q91.5313,1464.6406 91.5313,1463.3594 L91.5313,1462.2031 Q91.5313,1460.875 92.1484,1459.7266 Q92.7656,1458.5781 93.8594,1457.9609 Q94.9531,1457.3438 96.1875,1457.3438 Q96.9219,1457.3438 97.5703,1457.5078 Q98.2188,1457.6719 98.7656,1458.0313 Z "/><text fill="#000000" font-family="sans-serif" font-size="12" lengthAdjust="spacingAndGlyphs" textLength="76" x="110" y="1467.0664">NumTerminal</text><line style="stroke: #383838; stroke-width: 1.5;" x1="82" x2="188" y1="1478.1563" y2="1478.1563"/><ellipse cx="92" cy="1490.5742" fill="none" rx="3" ry="3" style="stroke: #545454; stroke-width: 1.0;"/><text fill="#000000" font-family="sans-serif" font-size="11" lengthAdjust="spacingAndGlyphs" textLength="42" x="101" y="1493.5752">Int Value</text><line style="stroke: #383838; stroke-width: 1.5;" x1="82" x2="188" y1="1499.9922" y2="1499.9922"/><rect fill="#FFFFFF" height="61.8359" style="stroke: #383838; stroke-width: 1.5;" width="167" x="745.5" y="775.1563"/><ellipse cx="770.4" cy="791.1563" fill="#C2C2C2" rx="11" ry="11" style="stroke: #383838; stroke-width: 1.0;"/><path d="M773.1656,787.0313 Q773.3219,786.8125 773.5094,786.7031 Q773.6969,786.5938 773.9156,786.5938 Q774.2906,786.5938 774.525,786.8516 Q774.7594,787.1094 774.7594,787.7188 L774.7594,789.1719 Q774.7594,789.7813 774.525,790.0469 Q774.2906,790.3125 773.9156,790.3125 Q773.5719,790.3125 773.3688,790.1094 Q773.1656,789.9219 773.0563,789.4063 Q773.0094,789.0469 772.8219,788.8594 Q772.4938,788.4844 771.8844,788.2656 Q771.275,788.0469 770.65,788.0469 Q769.8844,788.0469 769.2516,788.375 Q768.6188,788.7031 768.1266,789.4531 Q767.6344,790.2031 767.6344,791.2344 L767.6344,792.3281 Q767.6344,793.5625 768.525,794.3828 Q769.4156,795.2031 771.0094,795.2031 Q771.9469,795.2031 772.6031,794.9531 Q772.9938,794.7969 773.4156,794.3594 Q773.6813,794.0938 773.8297,794.0156 Q773.9781,793.9375 774.1813,793.9375 Q774.5094,793.9375 774.7672,794.1953 Q775.025,794.4531 775.025,794.7969 Q775.025,795.1406 774.6813,795.5469 Q774.1813,796.125 773.3844,796.4531 Q772.3063,796.9063 771.0094,796.9063 Q769.4938,796.9063 768.2906,796.2813 Q767.3063,795.7813 766.6188,794.7109 Q765.9313,793.6406 765.9313,792.3594 L765.9313,791.2031 Q765.9313,789.875 766.5484,788.7266 Q767.1656,787.5781 768.2594,786.9609 Q769.3531,786.3438 770.5875,786.3438 Q771.3219,786.3438 771.9703,786.5078 Q772.6188,786.6719 773.1656,787.0313 Z "/><text fill="#000000" font-family="sans-serif" font-size="12" lengthAdjust="spacingAndGlyphs" textLength="113" x="786.6" y="796.0664">AffectationConstante</text><line style="stroke: #383838; stroke-width: 1.5;" x1="746.5" x2="911.5" y1="807.1563" y2="807.1563"/><ellipse cx="756.5" cy="819.5742" fill="none" rx="3" ry="3" style="stroke: #545454; stroke-width: 1.0;"/><text fill="#000000" font-family="sans-serif" font-size="11" lengthAdjust="spacingAndGlyphs" textLength="141" x="765.5" y="822.5752">AffectationConstante suivant</text><line style="stroke: #383838; stroke-width: 1.5;" x1="746.5" x2="911.5" y1="828.9922" y2="828.9922"/><rect fill="#FFFFFF" height="61.8359" style="stroke: #383838; stroke-width: 1.5;" width="166" x="1128" y="669.1563"/><ellipse cx="1151.55" cy="685.1563" fill="#C2C2C2" rx="11" ry="11" style="stroke: #383838; stroke-width: 1.0;"/><path d="M1154.3156,681.0313 Q1154.4719,680.8125 1154.6594,680.7031 Q1154.8469,680.5938 1155.0656,680.5938 Q1155.4406,680.5938 1155.675,680.8516 Q1155.9094,681.1094 1155.9094,681.7188 L1155.9094,683.1719 Q1155.9094,683.7813 1155.675,684.0469 Q1155.4406,684.3125 1155.0656,684.3125 Q1154.7219,684.3125 1154.5188,684.1094 Q1154.3156,683.9219 1154.2063,683.4063 Q1154.1594,683.0469 1153.9719,682.8594 Q1153.6438,682.4844 1153.0344,682.2656 Q1152.425,682.0469 1151.8,682.0469 Q1151.0344,682.0469 1150.4016,682.375 Q1149.7688,682.7031 1149.2766,683.4531 Q1148.7844,684.2031 1148.7844,685.2344 L1148.7844,686.3281 Q1148.7844,687.5625 1149.675,688.3828 Q1150.5656,689.2031 1152.1594,689.2031 Q1153.0969,689.2031 1153.7531,688.9531 Q1154.1438,688.7969 1154.5656,688.3594 Q1154.8313,688.0938 1154.9797,688.0156 Q1155.1281,687.9375 1155.3313,687.9375 Q1155.6594,687.9375 1155.9172,688.1953 Q1156.175,688.4531 1156.175,688.7969 Q1156.175,689.1406 1155.8313,689.5469 Q1155.3313,690.125 1154.5344,690.4531 Q1153.4563,690.9063 1152.1594,690.9063 Q1150.6438,690.9063 1149.4406,690.2813 Q1148.4563,689.7813 1147.7688,688.7109 Q1147.0813,687.6406 1147.0813,686.3594 L1147.0813,685.2031 Q1147.0813,683.875 1147.6984,682.7266 Q1148.3156,681.5781 1149.4094,680.9609 Q1150.5031,680.3438 1151.7375,680.3438 Q1152.4719,680.3438 1153.1203,680.5078 Q1153.7688,680.6719 1154.3156,681.0313 Z "/><text fill="#000000" font-family="sans-serif" font-size="12" lengthAdjust="spacingAndGlyphs" textLength="115" x="1167.45" y="690.0664">IdentificateurVariable</text><line style="stroke: #383838; stroke-width: 1.5;" x1="1129" x2="1293" y1="701.1563" y2="701.1563"/><ellipse cx="1139" cy="713.5742" fill="none" rx="3" ry="3" style="stroke: #545454; stroke-width: 1.0;"/><text fill="#000000" font-family="sans-serif" font-size="11" lengthAdjust="spacingAndGlyphs" textLength="140" x="1148" y="716.5752">IdentificateurVariable suivant</text><line style="stroke: #383838; stroke-width: 1.5;" x1="1129" x2="1293" y1="722.9922" y2="722.9922"/><rect fill="#FFFFFF" height="48" style="stroke: #383838; stroke-width: 1.5;" width="143" x="245.5" y="1320.1563"/><ellipse cx="260.5" cy="1336.1563" fill="#C2C2C2" rx="11" ry="11" style="stroke: #383838; stroke-width: 1.0;"/><path d="M263.2656,1332.0313 Q263.4219,1331.8125 263.6094,1331.7031 Q263.7969,1331.5938 264.0156,1331.5938 Q264.3906,1331.5938 264.625,1331.8516 Q264.8594,1332.1094 264.8594,1332.7188 L264.8594,1334.1719 Q264.8594,1334.7813 264.625,1335.0469 Q264.3906,1335.3125 264.0156,1335.3125 Q263.6719,1335.3125 263.4688,1335.1094 Q263.2656,1334.9219 263.1563,1334.4063 Q263.1094,1334.0469 262.9219,1333.8594 Q262.5938,1333.4844 261.9844,1333.2656 Q261.375,1333.0469 260.75,1333.0469 Q259.9844,1333.0469 259.3516,1333.375 Q258.7188,1333.7031 258.2266,1334.4531 Q257.7344,1335.2031 257.7344,1336.2344 L257.7344,1337.3281 Q257.7344,1338.5625 258.625,1339.3828 Q259.5156,1340.2031 261.1094,1340.2031 Q262.0469,1340.2031 262.7031,1339.9531 Q263.0938,1339.7969 263.5156,1339.3594 Q263.7813,1339.0938 263.9297,1339.0156 Q264.0781,1338.9375 264.2813,1338.9375 Q264.6094,1338.9375 264.8672,1339.1953 Q265.125,1339.4531 265.125,1339.7969 Q265.125,1340.1406 264.7813,1340.5469 Q264.2813,1341.125 263.4844,1341.4531 Q262.4063,1341.9063 261.1094,1341.9063 Q259.5938,1341.9063 258.3906,1341.2813 Q257.4063,1340.7813 256.7188,1339.7109 Q256.0313,1338.6406 256.0313,1337.3594 L256.0313,1336.2031 Q256.0313,1334.875 256.6484,1333.7266 Q257.2656,1332.5781 258.3594,1331.9609 Q259.4531,1331.3438 260.6875,1331.3438 Q261.4219,1331.3438 262.0703,1331.5078 Q262.7188,1331.6719 263.2656,1332.0313 Z "/><text fill="#000000" font-family="sans-serif" font-size="12" lengthAdjust="spacingAndGlyphs" textLength="111" x="274.5" y="1341.0664">IdentificateurFacteur</text><line style="stroke: #383838; stroke-width: 1.5;" x1="246.5" x2="387.5" y1="1352.1563" y2="1352.1563"/><line style="stroke: #383838; stroke-width: 1.5;" x1="246.5" x2="387.5" y1="1360.1563" y2="1360.1563"/><rect fill="#FFFFFF" height="61.8359" style="stroke: #383838; stroke-width: 1.5;" width="139" x="837.5" y="376.1563"/><ellipse cx="861.5" cy="392.1563" fill="#C2C2C2" rx="11" ry="11" style="stroke: #383838; stroke-width: 1.0;"/><path d="M864.2656,388.0313 Q864.4219,387.8125 864.6094,387.7031 Q864.7969,387.5938 865.0156,387.5938 Q865.3906,387.5938 865.625,387.8516 Q865.8594,388.1094 865.8594,388.7188 L865.8594,390.1719 Q865.8594,390.7813 865.625,391.0469 Q865.3906,391.3125 865.0156,391.3125 Q864.6719,391.3125 864.4688,391.1094 Q864.2656,390.9219 864.1563,390.4063 Q864.1094,390.0469 863.9219,389.8594 Q863.5938,389.4844 862.9844,389.2656 Q862.375,389.0469 861.75,389.0469 Q860.9844,389.0469 860.3516,389.375 Q859.7188,389.7031 859.2266,390.4531 Q858.7344,391.2031 858.7344,392.2344 L858.7344,393.3281 Q858.7344,394.5625 859.625,395.3828 Q860.5156,396.2031 862.1094,396.2031 Q863.0469,396.2031 863.7031,395.9531 Q864.0938,395.7969 864.5156,395.3594 Q864.7813,395.0938 864.9297,395.0156 Q865.0781,394.9375 865.2813,394.9375 Q865.6094,394.9375 865.8672,395.1953 Q866.125,395.4531 866.125,395.7969 Q866.125,396.1406 865.7813,396.5469 Q865.2813,397.125 864.4844,397.4531 Q863.4063,397.9063 862.1094,397.9063 Q860.5938,397.9063 859.3906,397.2813 Q858.4063,396.7813 857.7188,395.7109 Q857.0313,394.6406 857.0313,393.3594 L857.0313,392.2031 Q857.0313,390.875 857.6484,389.7266 Q858.2656,388.5781 859.3594,387.9609 Q860.4531,387.3438 861.6875,387.3438 Q862.4219,387.3438 863.0703,387.5078 Q863.7188,387.6719 864.2656,388.0313 Z "/><text fill="#000000" font-family="sans-serif" font-size="12" lengthAdjust="spacingAndGlyphs" textLength="87" x="877.5" y="397.0664">BlocDeclaration</text><line style="stroke: #383838; stroke-width: 1.5;" x1="838.5" x2="975.5" y1="408.1563" y2="408.1563"/><ellipse cx="848.5" cy="420.5742" fill="none" rx="3" ry="3" style="stroke: #545454; stroke-width: 1.0;"/><text fill="#000000" font-family="sans-serif" font-size="11" lengthAdjust="spacingAndGlyphs" textLength="113" x="857.5" y="423.5752">BlocDeclaration suivant</text><line style="stroke: #383838; stroke-width: 1.5;" x1="838.5" x2="975.5" y1="429.9922" y2="429.9922"/><rect fill="#FFFFFF" height="48" style="stroke: #383838; stroke-width: 1.5;" width="140" x="908" y="499.1563"/><ellipse cx="923" cy="515.1563" fill="#C2C2C2" rx="11" ry="11" style="stroke: #383838; stroke-width: 1.0;"/><path d="M925.7656,511.0313 Q925.9219,510.8125 926.1094,510.7031 Q926.2969,510.5938 926.5156,510.5938 Q926.8906,510.5938 927.125,510.8516 Q927.3594,511.1094 927.3594,511.7188 L927.3594,513.1719 Q927.3594,513.7813 927.125,514.0469 Q926.8906,514.3125 926.5156,514.3125 Q926.1719,514.3125 925.9688,514.1094 Q925.7656,513.9219 925.6563,513.4063 Q925.6094,513.0469 925.4219,512.8594 Q925.0938,512.4844 924.4844,512.2656 Q923.875,512.0469 923.25,512.0469 Q922.4844,512.0469 921.8516,512.375 Q921.2188,512.7031 920.7266,513.4531 Q920.2344,514.2031 920.2344,515.2344 L920.2344,516.3281 Q920.2344,517.5625 921.125,518.3828 Q922.0156,519.2031 923.6094,519.2031 Q924.5469,519.2031 925.2031,518.9531 Q925.5938,518.7969 926.0156,518.3594 Q926.2813,518.0938 926.4297,518.0156 Q926.5781,517.9375 926.7813,517.9375 Q927.1094,517.9375 927.3672,518.1953 Q927.625,518.4531 927.625,518.7969 Q927.625,519.1406 927.2813,519.5469 Q926.7813,520.125 925.9844,520.4531 Q924.9063,520.9063 923.6094,520.9063 Q922.0938,520.9063 920.8906,520.2813 Q919.9063,519.7813 919.2188,518.7109 Q918.5313,517.6406 918.5313,516.3594 L918.5313,515.2031 Q918.5313,513.875 919.1484,512.7266 Q919.7656,511.5781 920.8594,510.9609 Q921.9531,510.3438 923.1875,510.3438 Q923.9219,510.3438 924.5703,510.5078 Q925.2188,510.6719 925.7656,511.0313 Z "/><text fill="#000000" font-family="sans-serif" font-size="12" lengthAdjust="spacingAndGlyphs" textLength="108" x="937" y="520.0664">DeclarationVariable</text><line style="stroke: #383838; stroke-width: 1.5;" x1="909" x2="1047" y1="531.1563" y2="531.1563"/><line style="stroke: #383838; stroke-width: 1.5;" x1="909" x2="1047" y1="539.1563" y2="539.1563"/><rect fill="#FFFFFF" height="48" style="stroke: #383838; stroke-width: 1.5;" width="152" x="807" y="577.1563"/><ellipse cx="822" cy="593.1563" fill="#C2C2C2" rx="11" ry="11" style="stroke: #383838; stroke-width: 1.0;"/><path d="M824.7656,589.0313 Q824.9219,588.8125 825.1094,588.7031 Q825.2969,588.5938 825.5156,588.5938 Q825.8906,588.5938 826.125,588.8516 Q826.3594,589.1094 826.3594,589.7188 L826.3594,591.1719 Q826.3594,591.7813 826.125,592.0469 Q825.8906,592.3125 825.5156,592.3125 Q825.1719,592.3125 824.9688,592.1094 Q824.7656,591.9219 824.6563,591.4063 Q824.6094,591.0469 824.4219,590.8594 Q824.0938,590.4844 823.4844,590.2656 Q822.875,590.0469 822.25,590.0469 Q821.4844,590.0469 820.8516,590.375 Q820.2188,590.7031 819.7266,591.4531 Q819.2344,592.2031 819.2344,593.2344 L819.2344,594.3281 Q819.2344,595.5625 820.125,596.3828 Q821.0156,597.2031 822.6094,597.2031 Q823.5469,597.2031 824.2031,596.9531 Q824.5938,596.7969 825.0156,596.3594 Q825.2813,596.0938 825.4297,596.0156 Q825.5781,595.9375 825.7813,595.9375 Q826.1094,595.9375 826.3672,596.1953 Q826.625,596.4531 826.625,596.7969 Q826.625,597.1406 826.2813,597.5469 Q825.7813,598.125 824.9844,598.4531 Q823.9063,598.9063 822.6094,598.9063 Q821.0938,598.9063 819.8906,598.2813 Q818.9063,597.7813 818.2188,596.7109 Q817.5313,595.6406 817.5313,594.3594 L817.5313,593.2031 Q817.5313,591.875 818.1484,590.7266 Q818.7656,589.5781 819.8594,588.9609 Q820.9531,588.3438 822.1875,588.3438 Q822.9219,588.3438 823.5703,588.5078 Q824.2188,588.6719 824.7656,589.0313 Z "/><text fill="#000000" font-family="sans-serif" font-size="12" lengthAdjust="spacingAndGlyphs" textLength="120" x="836" y="598.0664">DeclarationConstante</text><line style="stroke: #383838; stroke-width: 1.5;" x1="808" x2="958" y1="609.1563" y2="609.1563"/><line style="stroke: #383838; stroke-width: 1.5;" x1="808" x2="958" y1="617.1563" y2="617.1563"/><rect fill="#FFFFFF" height="48" style="stroke: #383838; stroke-width: 1.5;" width="98" x="633" y="267.1563"/><ellipse cx="648" cy="283.1563" fill="#C2C2C2" rx="11" ry="11" style="stroke: #383838; stroke-width: 1.0;"/><path d="M650.7656,279.0313 Q650.9219,278.8125 651.1094,278.7031 Q651.2969,278.5938 651.5156,278.5938 Q651.8906,278.5938 652.125,278.8516 Q652.3594,279.1094 652.3594,279.7188 L652.3594,281.1719 Q652.3594,281.7813 652.125,282.0469 Q651.8906,282.3125 651.5156,282.3125 Q651.1719,282.3125 650.9688,282.1094 Q650.7656,281.9219 650.6563,281.4063 Q650.6094,281.0469 650.4219,280.8594 Q650.0938,280.4844 649.4844,280.2656 Q648.875,280.0469 648.25,280.0469 Q647.4844,280.0469 646.8516,280.375 Q646.2188,280.7031 645.7266,281.4531 Q645.2344,282.2031 645.2344,283.2344 L645.2344,284.3281 Q645.2344,285.5625 646.125,286.3828 Q647.0156,287.2031 648.6094,287.2031 Q649.5469,287.2031 650.2031,286.9531 Q650.5938,286.7969 651.0156,286.3594 Q651.2813,286.0938 651.4297,286.0156 Q651.5781,285.9375 651.7813,285.9375 Q652.1094,285.9375 652.3672,286.1953 Q652.625,286.4531 652.625,286.7969 Q652.625,287.1406 652.2813,287.5469 Q651.7813,288.125 650.9844,288.4531 Q649.9063,288.9063 648.6094,288.9063 Q647.0938,288.9063 645.8906,288.2813 Q644.9063,287.7813 644.2188,286.7109 Q643.5313,285.6406 643.5313,284.3594 L643.5313,283.2031 Q643.5313,281.875 644.1484,280.7266 Q644.7656,279.5781 645.8594,278.9609 Q646.9531,278.3438 648.1875,278.3438 Q648.9219,278.3438 649.5703,278.5078 Q650.2188,278.6719 650.7656,279.0313 Z "/><text fill="#000000" font-family="sans-serif" font-size="12" lengthAdjust="spacingAndGlyphs" textLength="66" x="662" y="288.0664">Programme</text><line style="stroke: #383838; stroke-width: 1.5;" x1="634" x2="730" y1="299.1563" y2="299.1563"/><line style="stroke: #383838; stroke-width: 1.5;" x1="634" x2="730" y1="307.1563" y2="307.1563"/><rect fill="#FFFFFF" height="61.8359" style="stroke: #383838; stroke-width: 1.5;" width="135" x="519.5" y="376.1563"/><ellipse cx="544.4" cy="392.1563" fill="#C2C2C2" rx="11" ry="11" style="stroke: #383838; stroke-width: 1.0;"/><path d="M547.1656,388.0313 Q547.3219,387.8125 547.5094,387.7031 Q547.6969,387.5938 547.9156,387.5938 Q548.2906,387.5938 548.525,387.8516 Q548.7594,388.1094 548.7594,388.7188 L548.7594,390.1719 Q548.7594,390.7813 548.525,391.0469 Q548.2906,391.3125 547.9156,391.3125 Q547.5719,391.3125 547.3688,391.1094 Q547.1656,390.9219 547.0563,390.4063 Q547.0094,390.0469 546.8219,389.8594 Q546.4938,389.4844 545.8844,389.2656 Q545.275,389.0469 544.65,389.0469 Q543.8844,389.0469 543.2516,389.375 Q542.6188,389.7031 542.1266,390.4531 Q541.6344,391.2031 541.6344,392.2344 L541.6344,393.3281 Q541.6344,394.5625 542.525,395.3828 Q543.4156,396.2031 545.0094,396.2031 Q545.9469,396.2031 546.6031,395.9531 Q546.9938,395.7969 547.4156,395.3594 Q547.6813,395.0938 547.8297,395.0156 Q547.9781,394.9375 548.1813,394.9375 Q548.5094,394.9375 548.7672,395.1953 Q549.025,395.4531 549.025,395.7969 Q549.025,396.1406 548.6813,396.5469 Q548.1813,397.125 547.3844,397.4531 Q546.3063,397.9063 545.0094,397.9063 Q543.4938,397.9063 542.2906,397.2813 Q541.3063,396.7813 540.6188,395.7109 Q539.9313,394.6406 539.9313,393.3594 L539.9313,392.2031 Q539.9313,390.875 540.5484,389.7266 Q541.1656,388.5781 542.2594,387.9609 Q543.3531,387.3438 544.5875,387.3438 Q545.3219,387.3438 545.9703,387.5078 Q546.6188,387.6719 547.1656,388.0313 Z "/><text fill="#000000" font-family="sans-serif" font-size="12" lengthAdjust="spacingAndGlyphs" textLength="81" x="560.6" y="397.0664">BlocInstruction</text><line style="stroke: #383838; stroke-width: 1.5;" x1="520.5" x2="653.5" y1="408.1563" y2="408.1563"/><ellipse cx="530.5" cy="420.5742" fill="none" rx="3" ry="3" style="stroke: #545454; stroke-width: 1.0;"/><text fill="#000000" font-family="sans-serif" font-size="11" lengthAdjust="spacingAndGlyphs" textLength="109" x="539.5" y="423.5752">BlocInstruction suivant</text><line style="stroke: #383838; stroke-width: 1.5;" x1="520.5" x2="653.5" y1="429.9922" y2="429.9922"/><rect fill="#FFFFFF" height="48" style="stroke: #383838; stroke-width: 1.5;" width="130" x="631" y="577.1563"/><ellipse cx="646" cy="593.1563" fill="#C2C2C2" rx="11" ry="11" style="stroke: #383838; stroke-width: 1.0;"/><path d="M648.7656,589.0313 Q648.9219,588.8125 649.1094,588.7031 Q649.2969,588.5938 649.5156,588.5938 Q649.8906,588.5938 650.125,588.8516 Q650.3594,589.1094 650.3594,589.7188 L650.3594,591.1719 Q650.3594,591.7813 650.125,592.0469 Q649.8906,592.3125 649.5156,592.3125 Q649.1719,592.3125 648.9688,592.1094 Q648.7656,591.9219 648.6563,591.4063 Q648.6094,591.0469 648.4219,590.8594 Q648.0938,590.4844 647.4844,590.2656 Q646.875,590.0469 646.25,590.0469 Q645.4844,590.0469 644.8516,590.375 Q644.2188,590.7031 643.7266,591.4531 Q643.2344,592.2031 643.2344,593.2344 L643.2344,594.3281 Q643.2344,595.5625 644.125,596.3828 Q645.0156,597.2031 646.6094,597.2031 Q647.5469,597.2031 648.2031,596.9531 Q648.5938,596.7969 649.0156,596.3594 Q649.2813,596.0938 649.4297,596.0156 Q649.5781,595.9375 649.7813,595.9375 Q650.1094,595.9375 650.3672,596.1953 Q650.625,596.4531 650.625,596.7969 Q650.625,597.1406 650.2813,597.5469 Q649.7813,598.125 648.9844,598.4531 Q647.9063,598.9063 646.6094,598.9063 Q645.0938,598.9063 643.8906,598.2813 Q642.9063,597.7813 642.2188,596.7109 Q641.5313,595.6406 641.5313,594.3594 L641.5313,593.2031 Q641.5313,591.875 642.1484,590.7266 Q642.7656,589.5781 643.8594,588.9609 Q644.9531,588.3438 646.1875,588.3438 Q646.9219,588.3438 647.5703,588.5078 Q648.2188,588.6719 648.7656,589.0313 Z "/><text fill="#000000" font-family="sans-serif" font-size="12" lengthAdjust="spacingAndGlyphs" textLength="98" x="660" y="598.0664">InstructionLecture</text><line style="stroke: #383838; stroke-width: 1.5;" x1="632" x2="760" y1="609.1563" y2="609.1563"/><line style="stroke: #383838; stroke-width: 1.5;" x1="632" x2="760" y1="617.1563" y2="617.1563"/><rect fill="#FFFFFF" height="48" style="stroke: #383838; stroke-width: 1.5;" width="131" x="521.5" y="499.1563"/><ellipse cx="536.5" cy="515.1563" fill="#C2C2C2" rx="11" ry="11" style="stroke: #383838; stroke-width: 1.0;"/><path d="M539.2656,511.0313 Q539.4219,510.8125 539.6094,510.7031 Q539.7969,510.5938 540.0156,510.5938 Q540.3906,510.5938 540.625,510.8516 Q540.8594,511.1094 540.8594,511.7188 L540.8594,513.1719 Q540.8594,513.7813 540.625,514.0469 Q540.3906,514.3125 540.0156,514.3125 Q539.6719,514.3125 539.4688,514.1094 Q539.2656,513.9219 539.1563,513.4063 Q539.1094,513.0469 538.9219,512.8594 Q538.5938,512.4844 537.9844,512.2656 Q537.375,512.0469 536.75,512.0469 Q535.9844,512.0469 535.3516,512.375 Q534.7188,512.7031 534.2266,513.4531 Q533.7344,514.2031 533.7344,515.2344 L533.7344,516.3281 Q533.7344,517.5625 534.625,518.3828 Q535.5156,519.2031 537.1094,519.2031 Q538.0469,519.2031 538.7031,518.9531 Q539.0938,518.7969 539.5156,518.3594 Q539.7813,518.0938 539.9297,518.0156 Q540.0781,517.9375 540.2813,517.9375 Q540.6094,517.9375 540.8672,518.1953 Q541.125,518.4531 541.125,518.7969 Q541.125,519.1406 540.7813,519.5469 Q540.2813,520.125 539.4844,520.4531 Q538.4063,520.9063 537.1094,520.9063 Q535.5938,520.9063 534.3906,520.2813 Q533.4063,519.7813 532.7188,518.7109 Q532.0313,517.6406 532.0313,516.3594 L532.0313,515.2031 Q532.0313,513.875 532.6484,512.7266 Q533.2656,511.5781 534.3594,510.9609 Q535.4531,510.3438 536.6875,510.3438 Q537.4219,510.3438 538.0703,510.5078 Q538.7188,510.6719 539.2656,511.0313 Z "/><text fill="#000000" font-family="sans-serif" font-size="12" lengthAdjust="spacingAndGlyphs" textLength="99" x="550.5" y="520.0664">InstructionEcriture</text><line style="stroke: #383838; stroke-width: 1.5;" x1="522.5" x2="651.5" y1="531.1563" y2="531.1563"/><line style="stroke: #383838; stroke-width: 1.5;" x1="522.5" x2="651.5" y1="539.1563" y2="539.1563"/><rect fill="#FFFFFF" height="48" style="stroke: #383838; stroke-width: 1.5;" width="145" x="341.5" y="499.1563"/><ellipse cx="356.5" cy="515.1563" fill="#C2C2C2" rx="11" ry="11" style="stroke: #383838; stroke-width: 1.0;"/><path d="M359.2656,511.0313 Q359.4219,510.8125 359.6094,510.7031 Q359.7969,510.5938 360.0156,510.5938 Q360.3906,510.5938 360.625,510.8516 Q360.8594,511.1094 360.8594,511.7188 L360.8594,513.1719 Q360.8594,513.7813 360.625,514.0469 Q360.3906,514.3125 360.0156,514.3125 Q359.6719,514.3125 359.4688,514.1094 Q359.2656,513.9219 359.1563,513.4063 Q359.1094,513.0469 358.9219,512.8594 Q358.5938,512.4844 357.9844,512.2656 Q357.375,512.0469 356.75,512.0469 Q355.9844,512.0469 355.3516,512.375 Q354.7188,512.7031 354.2266,513.4531 Q353.7344,514.2031 353.7344,515.2344 L353.7344,516.3281 Q353.7344,517.5625 354.625,518.3828 Q355.5156,519.2031 357.1094,519.2031 Q358.0469,519.2031 358.7031,518.9531 Q359.0938,518.7969 359.5156,518.3594 Q359.7813,518.0938 359.9297,518.0156 Q360.0781,517.9375 360.2813,517.9375 Q360.6094,517.9375 360.8672,518.1953 Q361.125,518.4531 361.125,518.7969 Q361.125,519.1406 360.7813,519.5469 Q360.2813,520.125 359.4844,520.4531 Q358.4063,520.9063 357.1094,520.9063 Q355.5938,520.9063 354.3906,520.2813 Q353.4063,519.7813 352.7188,518.7109 Q352.0313,517.6406 352.0313,516.3594 L352.0313,515.2031 Q352.0313,513.875 352.6484,512.7266 Q353.2656,511.5781 354.3594,510.9609 Q355.4531,510.3438 356.6875,510.3438 Q357.4219,510.3438 358.0703,510.5078 Q358.7188,510.6719 359.2656,511.0313 Z "/><text fill="#000000" font-family="sans-serif" font-size="12" lengthAdjust="spacingAndGlyphs" textLength="113" x="370.5" y="520.0664">InstructionAffectation</text><line style="stroke: #383838; stroke-width: 1.5;" x1="342.5" x2="485.5" y1="531.1563" y2="531.1563"/><line style="stroke: #383838; stroke-width: 1.5;" x1="342.5" x2="485.5" y1="539.1563" y2="539.1563"/><rect fill="#FFFFFF" height="89.5078" style="stroke: #383838; stroke-width: 1.5;" width="259" x="194.5" y="655.1563"/><ellipse cx="288.75" cy="671.1563" fill="#C2C2C2" rx="11" ry="11" style="stroke: #383838; stroke-width: 1.0;"/><path d="M291.5156,667.0313 Q291.6719,666.8125 291.8594,666.7031 Q292.0469,666.5938 292.2656,666.5938 Q292.6406,666.5938 292.875,666.8516 Q293.1094,667.1094 293.1094,667.7188 L293.1094,669.1719 Q293.1094,669.7813 292.875,670.0469 Q292.6406,670.3125 292.2656,670.3125 Q291.9219,670.3125 291.7188,670.1094 Q291.5156,669.9219 291.4063,669.4063 Q291.3594,669.0469 291.1719,668.8594 Q290.8438,668.4844 290.2344,668.2656 Q289.625,668.0469 289,668.0469 Q288.2344,668.0469 287.6016,668.375 Q286.9688,668.7031 286.4766,669.4531 Q285.9844,670.2031 285.9844,671.2344 L285.9844,672.3281 Q285.9844,673.5625 286.875,674.3828 Q287.7656,675.2031 289.3594,675.2031 Q290.2969,675.2031 290.9531,674.9531 Q291.3438,674.7969 291.7656,674.3594 Q292.0313,674.0938 292.1797,674.0156 Q292.3281,673.9375 292.5313,673.9375 Q292.8594,673.9375 293.1172,674.1953 Q293.375,674.4531 293.375,674.7969 Q293.375,675.1406 293.0313,675.5469 Q292.5313,676.125 291.7344,676.4531 Q290.6563,676.9063 289.3594,676.9063 Q287.8438,676.9063 286.6406,676.2813 Q285.6563,675.7813 284.9688,674.7109 Q284.2813,673.6406 284.2813,672.3594 L284.2813,671.2031 Q284.2813,669.875 284.8984,668.7266 Q285.5156,667.5781 286.6094,666.9609 Q287.7031,666.3438 288.9375,666.3438 Q289.6719,666.3438 290.3203,666.5078 Q290.9688,666.6719 291.5156,667.0313 Z "/><text fill="#000000" font-family="sans-serif" font-size="12" lengthAdjust="spacingAndGlyphs" textLength="62" x="309.25" y="676.0664">Expression</text><line style="stroke: #383838; stroke-width: 1.5;" x1="195.5" x2="452.5" y1="687.1563" y2="687.1563"/><line style="stroke: #383838; stroke-width: 1.5;" x1="195.5" x2="452.5" y1="695.1563" y2="695.1563"/><ellipse cx="205.5" cy="707.5742" fill="#A6A6A6" rx="3" ry="3" style="stroke: #545454; stroke-width: 1.0;"/><text fill="#000000" font-family="sans-serif" font-size="11" lengthAdjust="spacingAndGlyphs" textLength="164" x="214.5" y="710.5752">int eval(TableDesSymboles *table)</text><ellipse cx="205.5" cy="721.4102" fill="#A6A6A6" rx="3" ry="3" style="stroke: #545454; stroke-width: 1.0;"/><text fill="#000000" font-family="sans-serif" font-size="11" lengthAdjust="spacingAndGlyphs" textLength="217" x="214.5" y="724.4111">bool estConstante(TableDesSymboles *table)</text><ellipse cx="205.5" cy="735.2461" fill="#A6A6A6" rx="3" ry="3" style="stroke: #545454; stroke-width: 1.0;"/><text fill="#000000" font-family="sans-serif" font-size="11" lengthAdjust="spacingAndGlyphs" textLength="233" x="214.5" y="738.2471">Expression* simplifier(TableDesSymboles *table)</text><rect fill="#FFFFFF" height="48" style="stroke: #383838; stroke-width: 1.5;" width="136" x="256" y="867.1563"/><ellipse cx="271" cy="883.1563" fill="#C2C2C2" rx="11" ry="11" style="stroke: #383838; stroke-width: 1.0;"/><path d="M273.7656,879.0313 Q273.9219,878.8125 274.1094,878.7031 Q274.2969,878.5938 274.5156,878.5938 Q274.8906,878.5938 275.125,878.8516 Q275.3594,879.1094 275.3594,879.7188 L275.3594,881.1719 Q275.3594,881.7813 275.125,882.0469 Q274.8906,882.3125 274.5156,882.3125 Q274.1719,882.3125 273.9688,882.1094 Q273.7656,881.9219 273.6563,881.4063 Q273.6094,881.0469 273.4219,880.8594 Q273.0938,880.4844 272.4844,880.2656 Q271.875,880.0469 271.25,880.0469 Q270.4844,880.0469 269.8516,880.375 Q269.2188,880.7031 268.7266,881.4531 Q268.2344,882.2031 268.2344,883.2344 L268.2344,884.3281 Q268.2344,885.5625 269.125,886.3828 Q270.0156,887.2031 271.6094,887.2031 Q272.5469,887.2031 273.2031,886.9531 Q273.5938,886.7969 274.0156,886.3594 Q274.2813,886.0938 274.4297,886.0156 Q274.5781,885.9375 274.7813,885.9375 Q275.1094,885.9375 275.3672,886.1953 Q275.625,886.4531 275.625,886.7969 Q275.625,887.1406 275.2813,887.5469 Q274.7813,888.125 273.9844,888.4531 Q272.9063,888.9063 271.6094,888.9063 Q270.0938,888.9063 268.8906,888.2813 Q267.9063,887.7813 267.2188,886.7109 Q266.5313,885.6406 266.5313,884.3594 L266.5313,883.2031 Q266.5313,881.875 267.1484,880.7266 Q267.7656,879.5781 268.8594,878.9609 Q269.9531,878.3438 271.1875,878.3438 Q271.9219,878.3438 272.5703,878.5078 Q273.2188,878.6719 273.7656,879.0313 Z "/><text fill="#000000" font-family="sans-serif" font-size="12" lengthAdjust="spacingAndGlyphs" textLength="104" x="285" y="888.0664">ExpressionAdditive</text><line style="stroke: #383838; stroke-width: 1.5;" x1="257" x2="391" y1="899.1563" y2="899.1563"/><line style="stroke: #383838; stroke-width: 1.5;" x1="257" x2="391" y1="907.1563" y2="907.1563"/><rect fill="#FFFFFF" height="48" style="stroke: #383838; stroke-width: 1.5;" width="161" x="59.5" y="867.1563"/><ellipse cx="74.5" cy="883.1563" fill="#C2C2C2" rx="11" ry="11" style="stroke: #383838; stroke-width: 1.0;"/><path d="M77.2656,879.0313 Q77.4219,878.8125 77.6094,878.7031 Q77.7969,878.5938 78.0156,878.5938 Q78.3906,878.5938 78.625,878.8516 Q78.8594,879.1094 78.8594,879.7188 L78.8594,881.1719 Q78.8594,881.7813 78.625,882.0469 Q78.3906,882.3125 78.0156,882.3125 Q77.6719,882.3125 77.4688,882.1094 Q77.2656,881.9219 77.1563,881.4063 Q77.1094,881.0469 76.9219,880.8594 Q76.5938,880.4844 75.9844,880.2656 Q75.375,880.0469 74.75,880.0469 Q73.9844,880.0469 73.3516,880.375 Q72.7188,880.7031 72.2266,881.4531 Q71.7344,882.2031 71.7344,883.2344 L71.7344,884.3281 Q71.7344,885.5625 72.625,886.3828 Q73.5156,887.2031 75.1094,887.2031 Q76.0469,887.2031 76.7031,886.9531 Q77.0938,886.7969 77.5156,886.3594 Q77.7813,886.0938 77.9297,886.0156 Q78.0781,885.9375 78.2813,885.9375 Q78.6094,885.9375 78.8672,886.1953 Q79.125,886.4531 79.125,886.7969 Q79.125,887.1406 78.7813,887.5469 Q78.2813,888.125 77.4844,888.4531 Q76.4063,888.9063 75.1094,888.9063 Q73.5938,888.9063 72.3906,888.2813 Q71.4063,887.7813 70.7188,886.7109 Q70.0313,885.6406 70.0313,884.3594 L70.0313,883.2031 Q70.0313,881.875 70.6484,880.7266 Q71.2656,879.5781 72.3594,878.9609 Q73.4531,878.3438 74.6875,878.3438 Q75.4219,878.3438 76.0703,878.5078 Q76.7188,878.6719 77.2656,879.0313 Z "/><text fill="#000000" font-family="sans-serif" font-size="12" lengthAdjust="spacingAndGlyphs" textLength="129" x="88.5" y="888.0664">ExpressionSoustractive</text><line style="stroke: #383838; stroke-width: 1.5;" x1="60.5" x2="219.5" y1="899.1563" y2="899.1563"/><line style="stroke: #383838; stroke-width: 1.5;" x1="60.5" x2="219.5" y1="907.1563" y2="907.1563"/><rect fill="#FFFFFF" height="48" style="stroke: #383838; stroke-width: 1.5;" width="68" x="285" y="976.1563"/><ellipse cx="300" cy="992.1563" fill="#C2C2C2" rx="11" ry="11" style="stroke: #383838; stroke-width: 1.0;"/><path d="M302.7656,988.0313 Q302.9219,987.8125 303.1094,987.7031 Q303.2969,987.5938 303.5156,987.5938 Q303.8906,987.5938 304.125,987.8516 Q304.3594,988.1094 304.3594,988.7188 L304.3594,990.1719 Q304.3594,990.7813 304.125,991.0469 Q303.8906,991.3125 303.5156,991.3125 Q303.1719,991.3125 302.9688,991.1094 Q302.7656,990.9219 302.6563,990.4063 Q302.6094,990.0469 302.4219,989.8594 Q302.0938,989.4844 301.4844,989.2656 Q300.875,989.0469 300.25,989.0469 Q299.4844,989.0469 298.8516,989.375 Q298.2188,989.7031 297.7266,990.4531 Q297.2344,991.2031 297.2344,992.2344 L297.2344,993.3281 Q297.2344,994.5625 298.125,995.3828 Q299.0156,996.2031 300.6094,996.2031 Q301.5469,996.2031 302.2031,995.9531 Q302.5938,995.7969 303.0156,995.3594 Q303.2813,995.0938 303.4297,995.0156 Q303.5781,994.9375 303.7813,994.9375 Q304.1094,994.9375 304.3672,995.1953 Q304.625,995.4531 304.625,995.7969 Q304.625,996.1406 304.2813,996.5469 Q303.7813,997.125 302.9844,997.4531 Q301.9063,997.9063 300.6094,997.9063 Q299.0938,997.9063 297.8906,997.2813 Q296.9063,996.7813 296.2188,995.7109 Q295.5313,994.6406 295.5313,993.3594 L295.5313,992.2031 Q295.5313,990.875 296.1484,989.7266 Q296.7656,988.5781 297.8594,987.9609 Q298.9531,987.3438 300.1875,987.3438 Q300.9219,987.3438 301.5703,987.5078 Q302.2188,987.6719 302.7656,988.0313 Z "/><text fill="#000000" font-family="sans-serif" font-size="12" lengthAdjust="spacingAndGlyphs" textLength="36" x="314" y="997.0664">Terme</text><line style="stroke: #383838; stroke-width: 1.5;" x1="286" x2="352" y1="1008.1563" y2="1008.1563"/><line style="stroke: #383838; stroke-width: 1.5;" x1="286" x2="352" y1="1016.1563" y2="1016.1563"/><rect fill="#FFFFFF" height="48" style="stroke: #383838; stroke-width: 1.5;" width="116" x="112" y="1102.1563"/><ellipse cx="127" cy="1118.1563" fill="#C2C2C2" rx="11" ry="11" style="stroke: #383838; stroke-width: 1.0;"/><path d="M129.7656,1114.0313 Q129.9219,1113.8125 130.1094,1113.7031 Q130.2969,1113.5938 130.5156,1113.5938 Q130.8906,1113.5938 131.125,1113.8516 Q131.3594,1114.1094 131.3594,1114.7188 L131.3594,1116.1719 Q131.3594,1116.7813 131.125,1117.0469 Q130.8906,1117.3125 130.5156,1117.3125 Q130.1719,1117.3125 129.9688,1117.1094 Q129.7656,1116.9219 129.6563,1116.4063 Q129.6094,1116.0469 129.4219,1115.8594 Q129.0938,1115.4844 128.4844,1115.2656 Q127.875,1115.0469 127.25,1115.0469 Q126.4844,1115.0469 125.8516,1115.375 Q125.2188,1115.7031 124.7266,1116.4531 Q124.2344,1117.2031 124.2344,1118.2344 L124.2344,1119.3281 Q124.2344,1120.5625 125.125,1121.3828 Q126.0156,1122.2031 127.6094,1122.2031 Q128.5469,1122.2031 129.2031,1121.9531 Q129.5938,1121.7969 130.0156,1121.3594 Q130.2813,1121.0938 130.4297,1121.0156 Q130.5781,1120.9375 130.7813,1120.9375 Q131.1094,1120.9375 131.3672,1121.1953 Q131.625,1121.4531 131.625,1121.7969 Q131.625,1122.1406 131.2813,1122.5469 Q130.7813,1123.125 129.9844,1123.4531 Q128.9063,1123.9063 127.6094,1123.9063 Q126.0938,1123.9063 124.8906,1123.2813 Q123.9063,1122.7813 123.2188,1121.7109 Q122.5313,1120.6406 122.5313,1119.3594 L122.5313,1118.2031 Q122.5313,1116.875 123.1484,1115.7266 Q123.7656,1114.5781 124.8594,1113.9609 Q125.9531,1113.3438 127.1875,1113.3438 Q127.9219,1113.3438 128.5703,1113.5078 Q129.2188,1113.6719 129.7656,1114.0313 Z "/><text fill="#000000" font-family="sans-serif" font-size="12" lengthAdjust="spacingAndGlyphs" textLength="84" x="141" y="1123.0664">ExpressionMult</text><line style="stroke: #383838; stroke-width: 1.5;" x1="113" x2="227" y1="1134.1563" y2="1134.1563"/><line style="stroke: #383838; stroke-width: 1.5;" x1="113" x2="227" y1="1142.1563" y2="1142.1563"/><rect fill="#FFFFFF" height="48" style="stroke: #383838; stroke-width: 1.5;" width="111" x="263.5" y="1102.1563"/><ellipse cx="278.5" cy="1118.1563" fill="#C2C2C2" rx="11" ry="11" style="stroke: #383838; stroke-width: 1.0;"/><path d="M281.2656,1114.0313 Q281.4219,1113.8125 281.6094,1113.7031 Q281.7969,1113.5938 282.0156,1113.5938 Q282.3906,1113.5938 282.625,1113.8516 Q282.8594,1114.1094 282.8594,1114.7188 L282.8594,1116.1719 Q282.8594,1116.7813 282.625,1117.0469 Q282.3906,1117.3125 282.0156,1117.3125 Q281.6719,1117.3125 281.4688,1117.1094 Q281.2656,1116.9219 281.1563,1116.4063 Q281.1094,1116.0469 280.9219,1115.8594 Q280.5938,1115.4844 279.9844,1115.2656 Q279.375,1115.0469 278.75,1115.0469 Q277.9844,1115.0469 277.3516,1115.375 Q276.7188,1115.7031 276.2266,1116.4531 Q275.7344,1117.2031 275.7344,1118.2344 L275.7344,1119.3281 Q275.7344,1120.5625 276.625,1121.3828 Q277.5156,1122.2031 279.1094,1122.2031 Q280.0469,1122.2031 280.7031,1121.9531 Q281.0938,1121.7969 281.5156,1121.3594 Q281.7813,1121.0938 281.9297,1121.0156 Q282.0781,1120.9375 282.2813,1120.9375 Q282.6094,1120.9375 282.8672,1121.1953 Q283.125,1121.4531 283.125,1121.7969 Q283.125,1122.1406 282.7813,1122.5469 Q282.2813,1123.125 281.4844,1123.4531 Q280.4063,1123.9063 279.1094,1123.9063 Q277.5938,1123.9063 276.3906,1123.2813 Q275.4063,1122.7813 274.7188,1121.7109 Q274.0313,1120.6406 274.0313,1119.3594 L274.0313,1118.2031 Q274.0313,1116.875 274.6484,1115.7266 Q275.2656,1114.5781 276.3594,1113.9609 Q277.4531,1113.3438 278.6875,1113.3438 Q279.4219,1113.3438 280.0703,1113.5078 Q280.7188,1113.6719 281.2656,1114.0313 Z "/><text fill="#000000" font-family="sans-serif" font-size="12" lengthAdjust="spacingAndGlyphs" textLength="79" x="292.5" y="1123.0664">ExpressionDiv</text><line style="stroke: #383838; stroke-width: 1.5;" x1="264.5" x2="373.5" y1="1134.1563" y2="1134.1563"/><line style="stroke: #383838; stroke-width: 1.5;" x1="264.5" x2="373.5" y1="1142.1563" y2="1142.1563"/><rect fill="#FFFFFF" height="48" style="stroke: #383838; stroke-width: 1.5;" width="73" x="281.5" y="1211.1563"/><ellipse cx="296.5" cy="1227.1563" fill="#C2C2C2" rx="11" ry="11" style="stroke: #383838; stroke-width: 1.0;"/><path d="M299.2656,1223.0313 Q299.4219,1222.8125 299.6094,1222.7031 Q299.7969,1222.5938 300.0156,1222.5938 Q300.3906,1222.5938 300.625,1222.8516 Q300.8594,1223.1094 300.8594,1223.7188 L300.8594,1225.1719 Q300.8594,1225.7813 300.625,1226.0469 Q300.3906,1226.3125 300.0156,1226.3125 Q299.6719,1226.3125 299.4688,1226.1094 Q299.2656,1225.9219 299.1563,1225.4063 Q299.1094,1225.0469 298.9219,1224.8594 Q298.5938,1224.4844 297.9844,1224.2656 Q297.375,1224.0469 296.75,1224.0469 Q295.9844,1224.0469 295.3516,1224.375 Q294.7188,1224.7031 294.2266,1225.4531 Q293.7344,1226.2031 293.7344,1227.2344 L293.7344,1228.3281 Q293.7344,1229.5625 294.625,1230.3828 Q295.5156,1231.2031 297.1094,1231.2031 Q298.0469,1231.2031 298.7031,1230.9531 Q299.0938,1230.7969 299.5156,1230.3594 Q299.7813,1230.0938 299.9297,1230.0156 Q300.0781,1229.9375 300.2813,1229.9375 Q300.6094,1229.9375 300.8672,1230.1953 Q301.125,1230.4531 301.125,1230.7969 Q301.125,1231.1406 300.7813,1231.5469 Q300.2813,1232.125 299.4844,1232.4531 Q298.4063,1232.9063 297.1094,1232.9063 Q295.5938,1232.9063 294.3906,1232.2813 Q293.4063,1231.7813 292.7188,1230.7109 Q292.0313,1229.6406 292.0313,1228.3594 L292.0313,1227.2031 Q292.0313,1225.875 292.6484,1224.7266 Q293.2656,1223.5781 294.3594,1222.9609 Q295.4531,1222.3438 296.6875,1222.3438 Q297.4219,1222.3438 298.0703,1222.5078 Q298.7188,1222.6719 299.2656,1223.0313 Z "/><text fill="#000000" font-family="sans-serif" font-size="12" lengthAdjust="spacingAndGlyphs" textLength="41" x="310.5" y="1232.0664">Facteur</text><line style="stroke: #383838; stroke-width: 1.5;" x1="282.5" x2="353.5" y1="1243.1563" y2="1243.1563"/><line style="stroke: #383838; stroke-width: 1.5;" x1="282.5" x2="353.5" y1="1251.1563" y2="1251.1563"/><rect fill="#FFFFFF" height="48" style="stroke: #383838; stroke-width: 1.5;" width="165" x="423.5" y="1320.1563"/><ellipse cx="438.5" cy="1336.1563" fill="#C2C2C2" rx="11" ry="11" style="stroke: #383838; stroke-width: 1.0;"/><path d="M441.2656,1332.0313 Q441.4219,1331.8125 441.6094,1331.7031 Q441.7969,1331.5938 442.0156,1331.5938 Q442.3906,1331.5938 442.625,1331.8516 Q442.8594,1332.1094 442.8594,1332.7188 L442.8594,1334.1719 Q442.8594,1334.7813 442.625,1335.0469 Q442.3906,1335.3125 442.0156,1335.3125 Q441.6719,1335.3125 441.4688,1335.1094 Q441.2656,1334.9219 441.1563,1334.4063 Q441.1094,1334.0469 440.9219,1333.8594 Q440.5938,1333.4844 439.9844,1333.2656 Q439.375,1333.0469 438.75,1333.0469 Q437.9844,1333.0469 437.3516,1333.375 Q436.7188,1333.7031 436.2266,1334.4531 Q435.7344,1335.2031 435.7344,1336.2344 L435.7344,1337.3281 Q435.7344,1338.5625 436.625,1339.3828 Q437.5156,1340.2031 439.1094,1340.2031 Q440.0469,1340.2031 440.7031,1339.9531 Q441.0938,1339.7969 441.5156,1339.3594 Q441.7813,1339.0938 441.9297,1339.0156 Q442.0781,1338.9375 442.2813,1338.9375 Q442.6094,1338.9375 442.8672,1339.1953 Q443.125,1339.4531 443.125,1339.7969 Q443.125,1340.1406 442.7813,1340.5469 Q442.2813,1341.125 441.4844,1341.4531 Q440.4063,1341.9063 439.1094,1341.9063 Q437.5938,1341.9063 436.3906,1341.2813 Q435.4063,1340.7813 434.7188,1339.7109 Q434.0313,1338.6406 434.0313,1337.3594 L434.0313,1336.2031 Q434.0313,1334.875 434.6484,1333.7266 Q435.2656,1332.5781 436.3594,1331.9609 Q437.4531,1331.3438 438.6875,1331.3438 Q439.4219,1331.3438 440.0703,1331.5078 Q440.7188,1331.6719 441.2656,1332.0313 Z "/><text fill="#000000" font-family="sans-serif" font-size="12" lengthAdjust="spacingAndGlyphs" textLength="133" x="452.5" y="1341.0664">ExpressionParenthesee</text><line style="stroke: #383838; stroke-width: 1.5;" x1="424.5" x2="587.5" y1="1352.1563" y2="1352.1563"/><line style="stroke: #383838; stroke-width: 1.5;" x1="424.5" x2="587.5" y1="1360.1563" y2="1360.1563"/><rect fill="#FFFFFF" height="48" style="stroke: #383838; stroke-width: 1.5;" width="151" x="59.5" y="1320.1563"/><ellipse cx="74.5" cy="1336.1563" fill="#C2C2C2" rx="11" ry="11" style="stroke: #383838; stroke-width: 1.0;"/><path d="M77.2656,1332.0313 Q77.4219,1331.8125 77.6094,1331.7031 Q77.7969,1331.5938 78.0156,1331.5938 Q78.3906,1331.5938 78.625,1331.8516 Q78.8594,1332.1094 78.8594,1332.7188 L78.8594,1334.1719 Q78.8594,1334.7813 78.625,1335.0469 Q78.3906,1335.3125 78.0156,1335.3125 Q77.6719,1335.3125 77.4688,1335.1094 Q77.2656,1334.9219 77.1563,1334.4063 Q77.1094,1334.0469 76.9219,1333.8594 Q76.5938,1333.4844 75.9844,1333.2656 Q75.375,1333.0469 74.75,1333.0469 Q73.9844,1333.0469 73.3516,1333.375 Q72.7188,1333.7031 72.2266,1334.4531 Q71.7344,1335.2031 71.7344,1336.2344 L71.7344,1337.3281 Q71.7344,1338.5625 72.625,1339.3828 Q73.5156,1340.2031 75.1094,1340.2031 Q76.0469,1340.2031 76.7031,1339.9531 Q77.0938,1339.7969 77.5156,1339.3594 Q77.7813,1339.0938 77.9297,1339.0156 Q78.0781,1338.9375 78.2813,1338.9375 Q78.6094,1338.9375 78.8672,1339.1953 Q79.125,1339.4531 79.125,1339.7969 Q79.125,1340.1406 78.7813,1340.5469 Q78.2813,1341.125 77.4844,1341.4531 Q76.4063,1341.9063 75.1094,1341.9063 Q73.5938,1341.9063 72.3906,1341.2813 Q71.4063,1340.7813 70.7188,1339.7109 Q70.0313,1338.6406 70.0313,1337.3594 L70.0313,1336.2031 Q70.0313,1334.875 70.6484,1333.7266 Q71.2656,1332.5781 72.3594,1331.9609 Q73.4531,1331.3438 74.6875,1331.3438 Q75.4219,1331.3438 76.0703,1331.5078 Q76.7188,1331.6719 77.2656,1332.0313 Z "/><text fill="#000000" font-family="sans-serif" font-size="12" lengthAdjust="spacingAndGlyphs" textLength="119" x="88.5" y="1341.0664">ConstanteNumerique</text><line style="stroke: #383838; stroke-width: 1.5;" x1="60.5" x2="209.5" y1="1352.1563" y2="1352.1563"/><line style="stroke: #383838; stroke-width: 1.5;" x1="60.5" x2="209.5" y1="1360.1563" y2="1360.1563"/><path d="M857.452,848.4073 C872.95,874.8403 889,910.5653 889,945.1563 C889,945.1563 889,945.1563 889,1345.1563 C889,1382.2163 869.352,1420.5137 852.927,1446.0537 " fill="none" style="stroke: #383838; stroke-width: 1.0;"/><polygon fill="#383838" points="850.661,837.3163,850.3828,844.522,856.9272,847.5502,857.2054,840.3445,850.661,837.3163" style="stroke: #383838; stroke-width: 1.0;"/><text fill="#000000" font-family="sans-serif" font-size="13" lengthAdjust="spacingAndGlyphs" textLength="10" x="890" y="1131.6514">id</text><path d="M807.69,849.1983 C796.057,875.9643 784,911.7633 784,945.1563 C784,945.1563 784,945.1563 784,1290.1563 C784,1384.5593 700.671,1381.1443 613,1416.1563 C536.978,1446.5159 297.736,1465.5279 189.334,1472.7953 " fill="none" style="stroke: #383838; stroke-width: 1.0;"/><polygon fill="#383838" points="813.135,837.2063,807.0124,841.0159,808.1741,848.1328,814.2968,844.3232,813.135,837.2063" style="stroke: #383838; stroke-width: 1.0;"/><text fill="#000000" font-family="sans-serif" font-size="13" lengthAdjust="spacingAndGlyphs" textLength="33" x="785" y="1131.6514">valeur</text><path d="M896.604,458.0563 C894.127,471.3663 891.709,485.7663 890,499.1563 C886.618,525.6583 884.784,556.2953 883.853,576.8143 " fill="none" style="stroke: #383838; stroke-width: 1.0;"/><polygon fill="none" points="889.749,456.6363,900.453,438.3563,903.49,459.3263,889.749,456.6363" style="stroke: #383838; stroke-width: 1.0;"/><path d="M936.418,455.3863 C945.796,470.4462 955.757,486.4462 963.579,498.9963 " fill="none" style="stroke: #383838; stroke-width: 1.0;"/><polygon fill="none" points="930.472,459.0863,925.84,438.4063,942.355,451.6863,930.472,459.0863" style="stroke: #383838; stroke-width: 1.0;"/><path d="M524.174,449.5563 C498.89,466.2162 470.683,484.8063 449.139,498.9963 " fill="none" style="stroke: #383838; stroke-width: 1.0;"/><polygon fill="none" points="520.542,443.5663,541.093,438.4063,528.245,455.2562,520.542,443.5663" style="stroke: #383838; stroke-width: 1.0;"/><path d="M587,458.8463 C587,472.8663 587,487.3963 587,498.9963 " fill="none" style="stroke: #383838; stroke-width: 1.0;"/><polygon fill="none" points="580,458.4063,587,438.4063,594,458.4063,580,458.4063" style="stroke: #383838; stroke-width: 1.0;"/><path d="M635.793,452.9462 C648.47,466.7062 661.058,482.6163 670,499.1563 C683.349,523.8433 690.065,555.6613 693.286,576.9253 " fill="none" style="stroke: #383838; stroke-width: 1.0;"/><polygon fill="none" points="630.567,457.6163,621.634,438.3963,640.6,447.8463,630.567,457.6163" style="stroke: #383838; stroke-width: 1.0;"/><path d="M135,1381.4293 C135,1401.7003 135,1426.6695 135,1445.8824 " fill="none" style="stroke: #383838; stroke-width: 1.0;"/><polygon fill="#383838" points="135,1368.2753,131,1374.2753,135,1380.2753,139,1374.2753,135,1368.2753" style="stroke: #383838; stroke-width: 1.0;"/><text fill="#000000" font-family="sans-serif" font-size="13" lengthAdjust="spacingAndGlyphs" textLength="33" x="136" y="1412.6514">valeur</text><path d="M873.413,638.1963 C863.062,677.1103 846.755,738.4103 837.046,774.9093 " fill="none" style="stroke: #383838; stroke-width: 1.0;"/><polygon fill="#383838" points="876.806,625.4433,871.3983,630.2136,873.7218,637.0401,879.1296,632.2697,876.806,625.4433" style="stroke: #383838; stroke-width: 1.0;"/><path d="M1019.56,555.3703 C1062.38,587.5333 1128.68,637.3253 1170.94,669.0693 " fill="none" style="stroke: #383838; stroke-width: 1.0;"/><polygon fill="#383838" points="1008.94,547.3953,1011.3322,554.198,1018.5318,554.6062,1016.1395,547.8035,1008.94,547.3953" style="stroke: #383838; stroke-width: 1.0;"/><path d="M311.835,765.7703 C310.419,800.8273 311.574,842.0023 315.299,867.0783 " fill="none" style="stroke: #383838; stroke-width: 1.0;"/><polygon fill="none" points="304.865,765.0323,313.006,745.4683,318.842,765.8383,304.865,765.0323" style="stroke: #383838; stroke-width: 1.0;"/><path d="M334.894,853.9293 C338.099,823.0283 338.348,778.4893 335.641,745.4683 " fill="none" style="stroke: #383838; stroke-width: 1.0;"/><polygon fill="#383838" points="333.213,867.0783,337.941,861.6334,334.7334,855.175,330.0054,860.6198,333.213,867.0783" style="stroke: #383838; stroke-width: 1.0;"/><path d="M255.639,759.1873 C218.418,795.5193 175.828,840.3463 153.816,867.0173 " fill="none" style="stroke: #383838; stroke-width: 1.0;"/><polygon fill="none" points="250.86,754.0713,270.117,745.2303,260.576,764.1503,250.86,754.0713" style="stroke: #383838; stroke-width: 1.0;"/><path d="M181.729,858.0203 C215.494,827.0633 261.734,779.9773 292.501,745.4683 " fill="none" style="stroke: #383838; stroke-width: 1.0;"/><polygon fill="#383838" points="171.681,867.0783,178.8158,866.0319,180.594,859.0435,173.4593,860.0898,171.681,867.0783" style="stroke: #383838; stroke-width: 1.0;"/><path d="M374.327,761.6043 C403.822,804.7003 431.294,863.8543 409,915.1563 C397.586,941.4233 373.462,963.2073 353.061,978.0043 " fill="none" style="stroke: #383838; stroke-width: 1.0;"/><polygon fill="none" points="368.621,765.6593,362.586,745.3473,379.971,757.4633,368.621,765.6593" style="stroke: #383838; stroke-width: 1.0;"/><path d="M322.304,928.4583 C321.569,944.1773 320.731,962.1113 320.083,975.9843 " fill="none" style="stroke: #383838; stroke-width: 1.0;"/><polygon fill="#383838" points="322.915,915.3733,318.6391,921.1799,322.3546,927.3602,326.6304,921.5535,322.915,915.3733" style="stroke: #383838; stroke-width: 1.0;"/><path d="M318.661,1163.4583 C318.514,1179.1773 318.346,1197.1113 318.217,1210.9843 " fill="none" style="stroke: #383838; stroke-width: 1.0;"/><polygon fill="#383838" points="318.783,1150.3733,314.7271,1156.3356,318.6709,1162.3727,322.7268,1156.4104,318.783,1150.3733" style="stroke: #383838; stroke-width: 1.0;"/><path d="M331.407,1088.9013 C333.286,1067.9963 332.742,1042.3443 329.776,1024.1893 " fill="none" style="stroke: #383838; stroke-width: 1.0;"/><polygon fill="#383838" points="329.824,1101.8263,334.5236,1096.3569,331.2825,1089.9152,326.5829,1095.3846,329.824,1101.8263" style="stroke: #383838; stroke-width: 1.0;"/><path d="M306.784,1044.3903 C305.654,1063.6923 306.318,1085.6733 308.777,1101.8263 " fill="none" style="stroke: #383838; stroke-width: 1.0;"/><polygon fill="none" points="299.85,1043.3853,308.823,1024.1893,313.779,1044.7913,299.85,1043.3853" style="stroke: #383838; stroke-width: 1.0;"/><path d="M212.774,1158.0803 C236.115,1174.9553 264.532,1195.5003 285.949,1210.9843 " fill="none" style="stroke: #383838; stroke-width: 1.0;"/><polygon fill="#383838" points="202.114,1150.3733,204.6323,1157.1303,211.8382,1157.4046,209.3199,1150.6475,202.114,1150.3733" style="stroke: #383838; stroke-width: 1.0;"/><path d="M219.217,1094.0833 C247.779,1072.3793 281.659,1043.8763 302.099,1024.1893 " fill="none" style="stroke: #383838; stroke-width: 1.0;"/><polygon fill="#383838" points="208.571,1102.0363,215.7718,1101.6503,218.1851,1094.855,210.9843,1095.241,208.571,1102.0363" style="stroke: #383838; stroke-width: 1.0;"/><path d="M268.415,1033.7823 C240.424,1055.2763 207.635,1082.8983 187.504,1102.1193 " fill="none" style="stroke: #383838; stroke-width: 1.0;"/><polygon fill="none" points="264.433,1028.0183,284.637,1021.6323,272.825,1039.2243,264.433,1028.0183" style="stroke: #383838; stroke-width: 1.0;"/><path d="M511.085,1306.8553 C513.557,1286.1793 516,1259.7663 516,1236.1563 C516,890.1563 516,890.1563 516,890.1563 C516,826.7783 462.21,777.5423 411.572,745.2333 " fill="none" style="stroke: #383838; stroke-width: 1.0;"/><polygon fill="#383838" points="509.441,1319.8373,514.1629,1314.3872,510.9482,1307.9323,506.2263,1313.3824,509.441,1319.8373" style="stroke: #383838; stroke-width: 1.0;"/><path d="M190.012,922.0523 C220.221,940.1103 257.938,962.6553 284.767,978.6923 " fill="none" style="stroke: #383838; stroke-width: 1.0;"/><polygon fill="#383838" points="178.84,915.3733,181.9378,921.8851,189.1401,921.5301,186.0424,915.0183,178.84,915.3733" style="stroke: #383838; stroke-width: 1.0;"/><path d="M263.976,1267.7443 C235.241,1284.5453 200.545,1304.8323 174.38,1320.1303 " fill="none" style="stroke: #383838; stroke-width: 1.0;"/><polygon fill="none" points="260.608,1261.6043,281.407,1257.5523,267.675,1273.6903,260.608,1261.6043" style="stroke: #383838; stroke-width: 1.0;"/><path d="M372.233,1267.0233 C401.974,1283.9503 438.228,1304.5842 465.487,1320.0983 " fill="none" style="stroke: #383838; stroke-width: 1.0;"/><polygon fill="none" points="368.614,1273.0172,354.695,1257.0413,375.539,1260.8503,368.614,1273.0172" style="stroke: #383838; stroke-width: 1.0;"/><path d="M317.593,1279.7343 C317.464,1293.5183 317.327,1308.2133 317.217,1319.9843 " fill="none" style="stroke: #383838; stroke-width: 1.0;"/><polygon fill="none" points="310.596,1279.3073,317.783,1259.3733,324.596,1279.4383,310.596,1279.3073" style="stroke: #383838; stroke-width: 1.0;"/><path d="M401.527,1367.0093 C403.03,1367.3953 404.522,1367.7773 406,1368.1563 C543.722,1403.4503 706.677,1444.7241 784.761,1464.4712 " fill="none" style="stroke: #383838; stroke-width: 1.0;"/><polygon fill="#383838" points="388.884,1363.7593,393.6995,1369.1269,400.5063,1366.7463,395.6908,1361.3787,388.884,1363.7593" style="stroke: #383838; stroke-width: 1.0;"/><text fill="#000000" font-family="sans-serif" font-size="13" lengthAdjust="spacingAndGlyphs" textLength="10" x="594" y="1412.6514">id</text><path d="M1202.32,744.6093 C1195.44,782.7893 1187,839.9303 1187,890.1563 C1187,890.1563 1187,890.1563 1187,1345.1563 C1187,1394.7213 1145.54,1394.4003 1101,1416.1563 C1027.65,1451.9868 932.655,1466.6886 877.107,1472.5228 " fill="none" style="stroke: #383838; stroke-width: 1.0;"/><polygon fill="#383838" points="1204.76,731.4483,1199.7329,736.6182,1202.5716,743.247,1207.5987,738.0771,1204.76,731.4483" style="stroke: #383838; stroke-width: 1.0;"/><text fill="#000000" font-family="sans-serif" font-size="13" lengthAdjust="spacingAndGlyphs" textLength="10" x="1188" y="1131.6514">id</text><path d="M395.977,559.2013 C381.816,586.7363 362.007,625.2543 346.754,654.9133 " fill="none" style="stroke: #383838; stroke-width: 1.0;"/><polygon fill="#383838" points="402.049,547.3953,395.7476,550.9013,396.5604,558.0665,402.8618,554.5604,402.049,547.3953" style="stroke: #383838; stroke-width: 1.0;"/><path d="M429.718,559.2093 C441.392,585.4973 457.552,622.4293 471,655.1563 C600.148,969.4593 584.184,1069.9003 747,1368.1563 C762.479,1396.5113 785.218,1425.2197 803.136,1445.9034 " fill="none" style="stroke: #383838; stroke-width: 1.0;"/><polygon fill="#383838" points="424.379,547.2243,423.1669,554.3327,429.2623,558.1857,430.4745,551.0772,424.379,547.2243" style="stroke: #383838; stroke-width: 1.0;"/><text fill="#000000" font-family="sans-serif" font-size="13" lengthAdjust="spacingAndGlyphs" textLength="10" x="616" y="1068.6514">id</text><path d="M541.426,554.4813 C499.743,582.2173 437.571,623.5863 390.373,654.9913 " fill="none" style="stroke: #383838; stroke-width: 1.0;"/><polygon fill="#383838" points="552.347,547.2143,545.1359,547.2079,542.3565,553.8618,549.5676,553.8682,552.347,547.2143" style="stroke: #383838; stroke-width: 1.0;"/><path d="M696,638.4683 C696,679.0843 696,746.8333 696,805.1563 C696,805.1563 696,805.1563 696,1064.1563 C696,1213.7553 777.371,1379.3983 813.765,1446.0028 " fill="none" style="stroke: #383838; stroke-width: 1.0;"/><polygon fill="#383838" points="696,625.2933,692,631.2933,696,637.2933,700,631.2933,696,625.2933" style="stroke: #383838; stroke-width: 1.0;"/><text fill="#000000" font-family="sans-serif" font-size="13" lengthAdjust="spacingAndGlyphs" textLength="10" x="697" y="1068.6514">id</text><path d="M739.311,321.1962 C772.405,337.9662 813.97,359.0162 847.438,375.9762 " fill="none" style="stroke: #383838; stroke-width: 1.0;"/><polygon fill="#383838" points="727.532,315.2262,731.0739,321.5075,738.2343,320.654,734.6924,314.3727,727.532,315.2262" style="stroke: #383838; stroke-width: 1.0;"/><path d="M654.081,325.6563 C640.864,341.5162 625.195,360.3263 612.326,375.7662 " fill="none" style="stroke: #383838; stroke-width: 1.0;"/><polygon fill="#383838" points="662.775,315.2262,655.8603,317.2724,655.0895,324.4422,662.0043,322.396,662.775,315.2262" style="stroke: #383838; stroke-width: 1.0;"/><path d="M779.265,226.3163 C782.072,247.3763 784,269.3963 784,290.1563 C784,290.1563 784,290.1563 784,602.1563 C784,664.7873 804.67,735.7663 817.992,775.0103 " fill="none" style="stroke: #383838; stroke-width: 1.0;"/><polygon fill="none" points="772.335,227.3063,776.34,206.4962,786.185,225.2562,772.335,227.3063" style="stroke: #383838; stroke-width: 1.0;"/><path d="M812.059,224.2362 C840.195,278.1463 872.547,340.1363 891.294,376.0663 " fill="none" style="stroke: #383838; stroke-width: 1.0;"/><polygon fill="none" points="805.753,227.2863,802.705,206.3163,818.164,220.8063,805.753,227.2863" style="stroke: #383838; stroke-width: 1.0;"/><path d="M645.826,221.4762 C634.098,235.8763 623.413,251.2362 615,267.1563 C596.774,301.6563 590.383,346.7162 588.159,376.0363 " fill="none" style="stroke: #383838; stroke-width: 1.0;"/><polygon fill="none" points="640.561,216.8663,658.904,206.2562,651.181,225.9862,640.561,216.8663" style="stroke: #383838; stroke-width: 1.0;"/><path d="M604.983,145.8563 C467.799,172.9163 288,221.4862 288,290.1563 C288,290.1563 288,290.1563 288,524.1563 C288,569.4423 299.709,619.9943 309.772,655.0753 " fill="none" style="stroke: #383838; stroke-width: 1.0;"/><polygon fill="none" points="603.924,138.9362,624.888,142.0162,606.574,152.6762,603.924,138.9362" style="stroke: #383838; stroke-width: 1.0;"/><path d="M910.792,148.8563 C1039.91,177.1862 1204,225.8463 1204,290.1563 C1204,290.1563 1204,290.1563 1204,524.1563 C1204,575.0863 1207,634.2883 1209.07,669.1333 " fill="none" style="stroke: #383838; stroke-width: 1.0;"/><polygon fill="none" points="909.297,155.6962,891.211,144.6563,912.234,142.0062,909.297,155.6962" style="stroke: #383838; stroke-width: 1.0;"/><path d="M711.291,224.8263 C704.226,240.5863 697.585,255.3963 692.418,266.9163 " fill="none" style="stroke: #383838; stroke-width: 1.0;"/><polygon fill="none" points="704.985,221.7863,719.555,206.3963,717.759,227.5162,704.985,221.7863" style="stroke: #383838; stroke-width: 1.0;"/><path d="M910.786,137.3563 C1002.297,156.8063 1101,198.9362 1101,290.1563 C1101,290.1563 1101,290.1563 1101,469.1563 C1101,618.9363 1075,655.3763 1075,805.1563 C1075,805.1563 1075,805.1563 1075,1345.1563 C1075,1433.9846 947.92,1462.8293 877.181,1472.0047 " fill="none" style="stroke: #383838; stroke-width: 1.0;"/><polygon fill="none" points="909.376,144.2062,891.104,133.4762,912.079,130.4762,909.376,144.2062" style="stroke: #383838; stroke-width: 1.0;"/><path d="M604.743,124.4762 C384.843,134.1862 6,168.5663 6,290.1563 C6,290.1563 6,290.1563 6,1345.1563 C6,1390.3213 45.4115,1425.5806 80.6663,1448.0857 " fill="none" style="stroke: #383838; stroke-width: 1.0;"/><polygon fill="none" points="604.582,117.4762,624.857,123.6363,605.166,131.4662,604.582,117.4762" style="stroke: #383838; stroke-width: 1.0;"/><path d="M356.963,1039.3043 C381.628,1068.8922 406.684,1111.2753 392,1150.1563 C382.936,1174.1563 363.545,1195.7393 346.887,1211.0172 " fill="none" style="stroke: #383838; stroke-width: 1.0;"/><polygon fill="none" points="351.653,1043.8683,343.555,1024.2872,362.097,1034.5443,351.653,1043.8683" style="stroke: #383838; stroke-width: 1.0;"/></g></svg>